%TF.GenerationSoftware,KiCad,Pcbnew,8.0.6*%
%TF.CreationDate,2024-11-23T19:50:46+06:00*%
%TF.ProjectId,sicomm_slaveboard_BK4819_v2,7369636f-6d6d-45f7-936c-617665626f61,rev?*%
%TF.SameCoordinates,Original*%
%TF.FileFunction,Paste,Top*%
%TF.FilePolarity,Positive*%
%FSLAX46Y46*%
G04 Gerber Fmt 4.6, Leading zero omitted, Abs format (unit mm)*
G04 Created by KiCad (PCBNEW 8.0.6) date 2024-11-23 19:50:46*
%MOMM*%
%LPD*%
G01*
G04 APERTURE LIST*
%ADD10R,4.200000X4.200000*%
%ADD11R,2.000000X3.200000*%
%ADD12R,0.350000X0.780000*%
%ADD13R,4.500000X1.300000*%
%ADD14R,0.400000X0.550000*%
%ADD15R,1.200000X1.400000*%
%ADD16R,0.900000X0.800000*%
%ADD17R,0.780000X0.350000*%
%ADD18R,0.800000X0.900000*%
%ADD19R,0.864000X0.800000*%
%ADD20R,1.836000X1.485000*%
%ADD21R,1.485000X1.836000*%
%ADD22R,0.550000X0.400000*%
%ADD23R,0.500000X0.648000*%
%ADD24R,1.000000X0.600000*%
%ADD25O,0.300000X0.600000*%
%ADD26O,0.600000X0.300000*%
%ADD27R,0.505000X0.280000*%
%ADD28R,0.900000X1.650000*%
G04 APERTURE END LIST*
D10*
%TO.C,Pad_gge255906*%
X33147000Y-10376900D03*
%TD*%
D11*
%TO.C,Pad_gge257249*%
X33147000Y-4788900D03*
%TD*%
D12*
%TO.C,U4*%
X52309000Y-13309100D03*
X52959000Y-13309100D03*
X53609000Y-13309100D03*
X53609000Y-11328900D03*
X52959000Y-11328900D03*
X52309000Y-11328900D03*
%TD*%
D13*
%TO.C,LNA_IN*%
X59563000Y3058000D03*
X59563000Y-2042000D03*
X59563000Y508100D03*
%TD*%
D14*
%TO.C,NC*%
X57462000Y-19177100D03*
X58361900Y-19177100D03*
%TD*%
D15*
%TO.C,X2*%
X-494000Y-2164800D03*
X-494000Y-4365000D03*
X1256000Y-4365000D03*
X1256000Y-2164800D03*
%TD*%
D16*
%TO.C,C225*%
X-2413000Y-3583900D03*
X-2413000Y-2183900D03*
%TD*%
D17*
%TO.C,PE4259*%
X16588000Y-4930900D03*
X16588000Y-4280900D03*
X16588000Y-3630900D03*
X14908000Y-3630900D03*
X14908000Y-4280900D03*
X14908000Y-4930900D03*
%TD*%
D13*
%TO.C,ANT*%
X59436000Y-28274000D03*
X59436000Y-33373800D03*
X59436000Y-30823900D03*
%TD*%
D16*
%TO.C,C28*%
X45847000Y-30507900D03*
X45847000Y-29107900D03*
%TD*%
D18*
%TO.C,C31*%
X42734000Y-26378900D03*
X44134000Y-26378900D03*
%TD*%
D16*
%TO.C,C33*%
X41148000Y-28853900D03*
X41148000Y-30253900D03*
%TD*%
%TO.C,C41*%
X52451000Y-29361900D03*
X52451000Y-30761900D03*
%TD*%
%TO.C,C61*%
X45212000Y-8660900D03*
X45212000Y-10060900D03*
%TD*%
D19*
%TO.C,L1*%
X53594000Y-15010900D03*
X53594000Y-16410900D03*
%TD*%
D20*
%TO.C,L3*%
X43434000Y-28538400D03*
X43434000Y-30823400D03*
%TD*%
D21*
%TO.C,L4*%
X48006500Y-30569900D03*
X50291500Y-30569900D03*
%TD*%
%TO.C,L5*%
X44322500Y-23838900D03*
X42037500Y-23838900D03*
%TD*%
D14*
%TO.C,L7*%
X31692100Y-851900D03*
X30791900Y-851900D03*
%TD*%
D22*
%TO.C,L8*%
X34417000Y-2572000D03*
X34417000Y-1671800D03*
%TD*%
D23*
%TO.C,L14*%
X48947800Y-9614900D03*
X48080200Y-9614900D03*
%TD*%
D24*
%TO.C,U19*%
X11853900Y-25997900D03*
X11853900Y-26947900D03*
X11853900Y-25047900D03*
X14054100Y-26947900D03*
X14054100Y-25047900D03*
%TD*%
D25*
%TO.C,U23*%
X35395200Y-13128700D03*
X34895300Y-13128700D03*
X34395200Y-13128700D03*
X33895300Y-13128700D03*
X33395200Y-13128700D03*
X32895300Y-13128700D03*
X32395200Y-13128700D03*
X31895300Y-13128700D03*
X31395200Y-13128700D03*
X30895300Y-13128700D03*
D26*
X30395200Y-12628600D03*
X30395200Y-12128700D03*
X30395200Y-11628600D03*
X30395200Y-11128700D03*
X30395200Y-10628600D03*
X30395200Y-10128700D03*
X30395200Y-9628600D03*
X30395200Y-9128700D03*
X30395200Y-8628600D03*
X30395200Y-8128700D03*
D25*
X30895300Y-7628600D03*
X31395200Y-7628600D03*
X31895300Y-7628600D03*
X32395200Y-7628600D03*
X32895300Y-7628600D03*
X33395200Y-7628600D03*
X33895300Y-7628600D03*
X34395200Y-7628600D03*
X34895300Y-7628600D03*
X35395200Y-7628600D03*
D26*
X35895300Y-8128700D03*
X35895300Y-8628600D03*
X35895300Y-9128700D03*
X35895300Y-9628600D03*
X35895300Y-10128700D03*
X35895300Y-10628600D03*
X35895300Y-11128700D03*
X35895300Y-11628600D03*
X35895300Y-12128700D03*
X35881300Y-12621700D03*
%TD*%
D27*
%TO.C,U44*%
X50711600Y-22303000D03*
X50711600Y-21802800D03*
X50711600Y-21303000D03*
X50711600Y-20802800D03*
X48856400Y-20802800D03*
X48856400Y-21303000D03*
X48856400Y-21802800D03*
X48856400Y-22303000D03*
D28*
X49784000Y-21552900D03*
%TD*%
M02*
