%TF.GenerationSoftware,KiCad,Pcbnew,8.0.6*%
%TF.CreationDate,2024-11-23T19:50:46+06:00*%
%TF.ProjectId,sicomm_slaveboard_BK4819_v2,7369636f-6d6d-45f7-936c-617665626f61,rev?*%
%TF.SameCoordinates,Original*%
%TF.FileFunction,Copper,L1,Top*%
%TF.FilePolarity,Positive*%
%FSLAX46Y46*%
G04 Gerber Fmt 4.6, Leading zero omitted, Abs format (unit mm)*
G04 Created by KiCad (PCBNEW 8.0.6) date 2024-11-23 19:50:46*
%MOMM*%
%LPD*%
G01*
G04 APERTURE LIST*
%TA.AperFunction,SMDPad,CuDef*%
%ADD10R,4.200000X4.200000*%
%TD*%
%TA.AperFunction,SMDPad,CuDef*%
%ADD11R,2.000000X3.200000*%
%TD*%
%TA.AperFunction,SMDPad,CuDef*%
%ADD12R,0.565700X0.540000*%
%TD*%
%TA.AperFunction,SMDPad,CuDef*%
%ADD13R,0.540000X0.790100*%
%TD*%
%TA.AperFunction,SMDPad,CuDef*%
%ADD14R,0.790100X0.540000*%
%TD*%
%TA.AperFunction,SMDPad,CuDef*%
%ADD15R,0.864000X0.800000*%
%TD*%
%TA.AperFunction,SMDPad,CuDef*%
%ADD16R,1.377000X1.132500*%
%TD*%
%TA.AperFunction,SMDPad,CuDef*%
%ADD17R,0.350000X0.780000*%
%TD*%
%TA.AperFunction,SMDPad,CuDef*%
%ADD18R,4.500000X1.300000*%
%TD*%
%TA.AperFunction,SMDPad,CuDef*%
%ADD19R,0.400000X0.550000*%
%TD*%
%TA.AperFunction,SMDPad,CuDef*%
%ADD20R,1.200000X1.400000*%
%TD*%
%TA.AperFunction,SMDPad,CuDef*%
%ADD21R,0.200000X0.700000*%
%TD*%
%TA.AperFunction,SMDPad,CuDef*%
%ADD22R,2.900000X2.900000*%
%TD*%
%TA.AperFunction,SMDPad,CuDef*%
%ADD23R,0.700000X0.200000*%
%TD*%
%TA.AperFunction,SMDPad,CuDef*%
%ADD24R,0.900000X0.800000*%
%TD*%
%TA.AperFunction,SMDPad,CuDef*%
%ADD25R,0.780000X0.350000*%
%TD*%
%TA.AperFunction,SMDPad,CuDef*%
%ADD26R,0.540000X0.565700*%
%TD*%
%TA.AperFunction,SMDPad,CuDef*%
%ADD27R,0.864000X0.806500*%
%TD*%
%TA.AperFunction,SMDPad,CuDef*%
%ADD28R,0.800000X0.864000*%
%TD*%
%TA.AperFunction,SMDPad,CuDef*%
%ADD29R,0.800000X0.900000*%
%TD*%
%TA.AperFunction,SMDPad,CuDef*%
%ADD30R,1.836000X1.485000*%
%TD*%
%TA.AperFunction,SMDPad,CuDef*%
%ADD31R,1.485000X1.836000*%
%TD*%
%TA.AperFunction,SMDPad,CuDef*%
%ADD32R,0.550000X0.400000*%
%TD*%
%TA.AperFunction,SMDPad,CuDef*%
%ADD33R,0.500000X0.648000*%
%TD*%
%TA.AperFunction,SMDPad,CuDef*%
%ADD34R,0.806500X0.864000*%
%TD*%
%TA.AperFunction,SMDPad,CuDef*%
%ADD35R,1.000000X0.600000*%
%TD*%
%TA.AperFunction,SMDPad,CuDef*%
%ADD36O,0.300000X0.600000*%
%TD*%
%TA.AperFunction,SMDPad,CuDef*%
%ADD37O,0.600000X0.300000*%
%TD*%
%TA.AperFunction,SMDPad,CuDef*%
%ADD38R,0.505000X0.280000*%
%TD*%
%TA.AperFunction,SMDPad,CuDef*%
%ADD39R,0.900000X1.650000*%
%TD*%
%TA.AperFunction,ComponentPad*%
%ADD40O,1.800000X1.800000*%
%TD*%
%TA.AperFunction,ComponentPad*%
%ADD41O,1.700000X1.700000*%
%TD*%
%TA.AperFunction,ComponentPad*%
%ADD42R,1.700000X1.700000*%
%TD*%
%TA.AperFunction,ComponentPad*%
%ADD43R,1.800000X1.574800*%
%TD*%
%TA.AperFunction,ComponentPad*%
%ADD44O,5.000000X5.000000*%
%TD*%
%TA.AperFunction,ViaPad*%
%ADD45C,0.600000*%
%TD*%
%TA.AperFunction,ViaPad*%
%ADD46C,0.500000*%
%TD*%
%TA.AperFunction,ViaPad*%
%ADD47C,1.200000*%
%TD*%
%TA.AperFunction,ViaPad*%
%ADD48C,1.000000*%
%TD*%
%TA.AperFunction,ViaPad*%
%ADD49C,0.800000*%
%TD*%
%TA.AperFunction,ViaPad*%
%ADD50C,0.620000*%
%TD*%
%TA.AperFunction,Conductor*%
%ADD51C,0.200000*%
%TD*%
%TA.AperFunction,Conductor*%
%ADD52C,0.400000*%
%TD*%
%TA.AperFunction,Conductor*%
%ADD53C,0.500000*%
%TD*%
%TA.AperFunction,Conductor*%
%ADD54C,0.700000*%
%TD*%
%TA.AperFunction,Conductor*%
%ADD55C,0.600000*%
%TD*%
%TA.AperFunction,Conductor*%
%ADD56C,0.800000*%
%TD*%
%TA.AperFunction,Conductor*%
%ADD57C,0.300000*%
%TD*%
%TA.AperFunction,Conductor*%
%ADD58C,0.150000*%
%TD*%
%TA.AperFunction,Conductor*%
%ADD59C,0.250000*%
%TD*%
G04 APERTURE END LIST*
D10*
%TO.P,Pad_gge255906,3*%
%TO.N,GND*%
X33147000Y-10376900D03*
%TD*%
D11*
%TO.P,Pad_gge257249,4*%
%TO.N,GND*%
X33147000Y-4788900D03*
%TD*%
D12*
%TO.P,R6,2*%
%TO.N,U44_5*%
X43104800Y-17742900D03*
%TO.P,R6,1*%
%TO.N,A3V3_3811*%
X42239200Y-17742900D03*
%TD*%
D13*
%TO.P,C7,2*%
%TO.N,U4_4*%
X54229000Y-9943100D03*
%TO.P,C7,1*%
%TO.N,GND*%
X54229000Y-8852900D03*
%TD*%
D14*
%TO.P,C13,2*%
%TO.N,NC_2*%
X56298100Y-19177000D03*
%TO.P,C13,1*%
%TO.N,C35_2*%
X55207900Y-19177000D03*
%TD*%
D15*
%TO.P,L6,2*%
%TO.N,A3V3_3811*%
X52705000Y-5269100D03*
%TO.P,L6,1*%
%TO.N,C26_1*%
X52705000Y-6668900D03*
%TD*%
D16*
%TO.P,R8,2*%
%TO.N,A3V3_3811*%
X56134000Y-9795000D03*
%TO.P,R8,1*%
%TO.N,U4_4*%
X56134000Y-11795000D03*
%TD*%
D17*
%TO.P,U4,1*%
%TO.N,GND*%
X52309000Y-13309100D03*
%TO.P,U4,2*%
X52959000Y-13309100D03*
%TO.P,U4,3*%
%TO.N,L1_1*%
X53609000Y-13309100D03*
%TO.P,U4,4*%
%TO.N,U4_4*%
X53609000Y-11328900D03*
%TO.P,U4,5*%
%TO.N,GND*%
X52959000Y-11328900D03*
%TO.P,U4,6*%
%TO.N,C26_1*%
X52309000Y-11328900D03*
%TD*%
D18*
%TO.P,LNA_IN,1*%
%TO.N,GND*%
X59563000Y3058000D03*
%TO.P,LNA_IN,2*%
X59563000Y-2042000D03*
%TO.P,LNA_IN,5*%
%TO.N,LNA_IN_5*%
X59563000Y508100D03*
%TD*%
D19*
%TO.P,NC,2*%
%TO.N,NC_2*%
X57462000Y-19177100D03*
%TO.P,NC,1*%
%TO.N,GND*%
X58361900Y-19177100D03*
%TD*%
D14*
%TO.P,C3,2*%
%TO.N,LNA_IN_5*%
X43090100Y-6439900D03*
%TO.P,C3,1*%
%TO.N,RF_RX_LNAOUT*%
X41999900Y-6439900D03*
%TD*%
D13*
%TO.P,C12,2*%
%TO.N,L15_2*%
X40640000Y-8890000D03*
%TO.P,C12,1*%
%TO.N,RF_RX_LNAOUT*%
X40640000Y-7799800D03*
%TD*%
%TO.P,U2,2*%
%TO.N,C254_1*%
X0Y0D03*
%TO.P,U2,1*%
%TO.N,A3V3_4819*%
X0Y1090200D03*
%TD*%
D14*
%TO.P,C26,2*%
%TO.N,L14_1*%
X51651900Y-9614900D03*
%TO.P,C26,1*%
%TO.N,C26_1*%
X52742100Y-9614900D03*
%TD*%
D20*
%TO.P,X2,1*%
%TO.N,X2_1*%
X-494000Y-2164800D03*
%TO.P,X2,2*%
%TO.N,GND*%
X-494000Y-4365000D03*
%TO.P,X2,3*%
%TO.N,X2_3*%
X1256000Y-4365000D03*
%TO.P,X2,4*%
%TO.N,C254_1*%
X1256000Y-2164800D03*
%TD*%
D21*
%TO.P,BK4819,9*%
%TO.N,N/C*%
X6220000Y-6084000D03*
%TO.P,BK4819,10*%
X6620000Y-6084000D03*
%TO.P,BK4819,11*%
%TO.N,A3V3_4819*%
X7020100Y-6084000D03*
%TO.P,BK4819,12*%
%TO.N,N/C*%
X7420100Y-6084000D03*
%TO.P,BK4819,13*%
X7819900Y-6084000D03*
%TO.P,BK4819,14*%
X8219900Y-6084000D03*
%TO.P,BK4819,15*%
%TO.N,BK4819_15*%
X8620000Y-6084000D03*
%TO.P,BK4819,16*%
%TO.N,N/C*%
X9020000Y-6084000D03*
%TO.P,BK4819,25*%
%TO.N,SPI3_SCK*%
X9020000Y-1970000D03*
%TO.P,BK4819,26*%
%TO.N,LD_SPI3_CS*%
X8620000Y-1970000D03*
%TO.P,BK4819,27*%
%TO.N,SPI3_MOSI*%
X8219900Y-1970000D03*
%TO.P,BK4819,28*%
%TO.N,N/C*%
X7819900Y-1970000D03*
%TO.P,BK4819,29*%
X7420100Y-1970000D03*
%TO.P,BK4819,30*%
X7020100Y-1970000D03*
%TO.P,BK4819,31*%
X6620000Y-1970000D03*
%TO.P,BK4819,32*%
X6220000Y-1970000D03*
D22*
%TO.P,BK4819,33*%
%TO.N,GND*%
X7620000Y-4027200D03*
D23*
%TO.P,BK4819,1*%
%TO.N,N/C*%
X5563100Y-2627100D03*
%TO.P,BK4819,2*%
X5563100Y-3026900D03*
%TO.P,BK4819,3*%
%TO.N,A3V3_4819*%
X5563100Y-3427000D03*
%TO.P,BK4819,4*%
%TO.N,N/C*%
X5563100Y-3827000D03*
%TO.P,BK4819,5*%
%TO.N,XI*%
X5563100Y-4227100D03*
%TO.P,BK4819,6*%
%TO.N,N/C*%
X5563100Y-4627100D03*
%TO.P,BK4819,7*%
X5563100Y-5026900D03*
%TO.P,BK4819,8*%
X5563100Y-5426900D03*
%TO.P,BK4819,17*%
%TO.N,RF_TX_4819*%
X9676900Y-5426900D03*
%TO.P,BK4819,18*%
%TO.N,BK4819_18*%
X9676900Y-5026900D03*
%TO.P,BK4819,19*%
%TO.N,N/C*%
X9676900Y-4627100D03*
%TO.P,BK4819,20*%
X9676900Y-4227100D03*
%TO.P,BK4819,21*%
X9676900Y-3827000D03*
%TO.P,BK4819,22*%
X9676900Y-3427000D03*
%TO.P,BK4819,23*%
X9676900Y-3026900D03*
%TO.P,BK4819,24*%
X9676900Y-2627100D03*
%TD*%
D14*
%TO.P,C25,2*%
%TO.N,C105_2*%
X21171900Y1307100D03*
%TO.P,C25,1*%
%TO.N,C103_1*%
X22262100Y1307100D03*
%TD*%
D13*
%TO.P,C209,2*%
%TO.N,PE4259_6*%
X16256000Y-6783800D03*
%TO.P,C209,1*%
%TO.N,GND*%
X16256000Y-7874000D03*
%TD*%
%TO.P,C210,2*%
%TO.N,RF_TX_4819*%
X13716000Y-5334000D03*
%TO.P,C210,1*%
%TO.N,PE4259_5*%
X13716000Y-4243800D03*
%TD*%
%TO.P,C211,2*%
%TO.N,PE4259_4*%
X14859000Y-2159000D03*
%TO.P,C211,1*%
%TO.N,GND*%
X14859000Y-1068800D03*
%TD*%
%TO.P,C212,2*%
%TO.N,PE4259_3*%
X17907000Y-2921000D03*
%TO.P,C212,1*%
%TO.N,RF_TX*%
X17907000Y-1830800D03*
%TD*%
D14*
%TO.P,C213,2*%
%TO.N,PE4259_1*%
X18504900Y-5207000D03*
%TO.P,C213,1*%
%TO.N,3811_RXLO*%
X19595100Y-5207000D03*
%TD*%
%TO.P,C224,2*%
%TO.N,XI*%
X4101100Y-4280900D03*
%TO.P,C224,1*%
%TO.N,X2_3*%
X3010900Y-4280900D03*
%TD*%
D24*
%TO.P,C225,2*%
%TO.N,GND*%
X-2413000Y-3583900D03*
%TO.P,C225,1*%
%TO.N,X2_1*%
X-2413000Y-2183900D03*
%TD*%
D13*
%TO.P,C228,2*%
%TO.N,C228_2*%
X10287000Y-9779000D03*
%TO.P,C228,1*%
%TO.N,BK4819_15*%
X10287000Y-8688800D03*
%TD*%
%TO.P,C254,2*%
%TO.N,GND*%
X1397000Y1090200D03*
%TO.P,C254,1*%
%TO.N,C254_1*%
X1397000Y0D03*
%TD*%
D14*
%TO.P,L45,2*%
%TO.N,GND*%
X12864100Y-8598900D03*
%TO.P,L45,1*%
%TO.N,BK4819_15*%
X11773900Y-8598900D03*
%TD*%
%TO.P,L46,2*%
%TO.N,C228_2*%
X11773900Y-9995900D03*
%TO.P,L46,1*%
%TO.N,GND*%
X12864100Y-9995900D03*
%TD*%
D25*
%TO.P,PE4259,1*%
%TO.N,PE4259_1*%
X16588000Y-4930900D03*
%TO.P,PE4259,2*%
%TO.N,GND*%
X16588000Y-4280900D03*
%TO.P,PE4259,3*%
%TO.N,PE4259_3*%
X16588000Y-3630900D03*
%TO.P,PE4259,4*%
%TO.N,PE4259_4*%
X14908000Y-3630900D03*
%TO.P,PE4259,5*%
%TO.N,PE4259_5*%
X14908000Y-4280900D03*
%TO.P,PE4259,6*%
%TO.N,PE4259_6*%
X14908000Y-4930900D03*
%TD*%
D26*
%TO.P,R1,2*%
%TO.N,GND*%
X13589000Y-1308100D03*
%TO.P,R1,1*%
%TO.N,PE4259_4*%
X13589000Y-2173700D03*
%TD*%
D27*
%TO.P,R12,2*%
%TO.N,PE4259_CTL_LMX_CE*%
X16256000Y-733500D03*
%TO.P,R12,1*%
%TO.N,PE4259_4*%
X16256000Y-2240300D03*
%TD*%
%TO.P,R108,2*%
%TO.N,A3V3_4819*%
X14859000Y-8336300D03*
%TO.P,R108,1*%
%TO.N,PE4259_6*%
X14859000Y-6829500D03*
%TD*%
D26*
%TO.P,R115,2*%
%TO.N,X2_1*%
X-2413000Y1345200D03*
%TO.P,R115,1*%
%TO.N,MODR*%
X-2413000Y2210800D03*
%TD*%
D14*
%TO.P,C10,2*%
%TO.N,U44_5*%
X47714900Y-19266900D03*
%TO.P,C10,1*%
%TO.N,GND*%
X48805100Y-19266900D03*
%TD*%
%TO.P,C11,2*%
%TO.N,U44_8*%
X48349900Y-23584900D03*
%TO.P,C11,1*%
%TO.N,GND*%
X49440100Y-23584900D03*
%TD*%
D12*
%TO.P,R7,2*%
%TO.N,GND*%
X-710200Y-26162000D03*
%TO.P,R7,1*%
%TO.N,U44_8*%
X-1575800Y-26162000D03*
%TD*%
D14*
%TO.P,C8,2*%
%TO.N,A3V3_3811*%
X55461900Y-7493000D03*
%TO.P,C8,1*%
%TO.N,GND*%
X56552100Y-7493000D03*
%TD*%
%TO.P,C9,2*%
%TO.N,GND*%
X56552100Y-6223000D03*
%TO.P,C9,1*%
%TO.N,A3V3_3811*%
X55461900Y-6223000D03*
%TD*%
%TO.P,C6,2*%
%TO.N,C55_1*%
X55207900Y-16599900D03*
%TO.P,C6,1*%
%TO.N,C6_1*%
X56298100Y-16599900D03*
%TD*%
D28*
%TO.P,L2,2*%
%TO.N,GND*%
X59755000Y-16599900D03*
%TO.P,L2,1*%
%TO.N,C6_1*%
X58355000Y-16599900D03*
%TD*%
D13*
%TO.P,U1,2*%
%TO.N,A3V3_4819*%
X18415000Y-22404800D03*
%TO.P,U1,1*%
%TO.N,A3V3*%
X18415000Y-23495000D03*
%TD*%
D18*
%TO.P,ANT,1*%
%TO.N,GND*%
X59436000Y-28274000D03*
%TO.P,ANT,2*%
X59436000Y-33373800D03*
%TO.P,ANT,5*%
%TO.N,L4_1*%
X59436000Y-30823900D03*
%TD*%
D13*
%TO.P,C1,2*%
%TO.N,GND*%
X10414000Y-26199100D03*
%TO.P,C1,1*%
%TO.N,VBAT*%
X10414000Y-25108900D03*
%TD*%
D14*
%TO.P,C20,2*%
%TO.N,U23_34*%
X32347900Y-16091900D03*
%TO.P,C20,1*%
%TO.N,U23_35*%
X33438100Y-16091900D03*
%TD*%
D13*
%TO.P,C22,2*%
%TO.N,U23_1*%
X39370000Y-13768800D03*
%TO.P,C22,1*%
%TO.N,U23_40*%
X39370000Y-14859000D03*
%TD*%
D24*
%TO.P,C28,2*%
%TO.N,L3_1*%
X45847000Y-30507900D03*
%TO.P,C28,1*%
%TO.N,GND*%
X45847000Y-29107900D03*
%TD*%
D14*
%TO.P,C29,2*%
%TO.N,L3_1*%
X48349900Y-32601900D03*
%TO.P,C29,1*%
%TO.N,L4_1*%
X49440100Y-32601900D03*
%TD*%
%TO.P,C30,2*%
%TO.N,U44_7*%
X46900100Y-21806900D03*
%TO.P,C30,1*%
%TO.N,L5_2*%
X45809900Y-21806900D03*
%TD*%
D29*
%TO.P,C31,2*%
%TO.N,L3_2*%
X42734000Y-26378900D03*
%TO.P,C31,1*%
%TO.N,GND*%
X44134000Y-26378900D03*
%TD*%
D14*
%TO.P,C32,2*%
%TO.N,L5_2*%
X44233100Y-21806900D03*
%TO.P,C32,1*%
%TO.N,L3_2*%
X43142900Y-21806900D03*
%TD*%
D24*
%TO.P,C33,2*%
%TO.N,L3_2*%
X41148000Y-28853900D03*
%TO.P,C33,1*%
%TO.N,L3_1*%
X41148000Y-30253900D03*
%TD*%
D13*
%TO.P,C34,2*%
%TO.N,L5_2*%
X46228000Y-23547800D03*
%TO.P,C34,1*%
%TO.N,GND*%
X46228000Y-24638000D03*
%TD*%
D14*
%TO.P,C35,2*%
%TO.N,C35_2*%
X53504100Y-20536900D03*
%TO.P,C35,1*%
%TO.N,RX_IN*%
X52413900Y-20536900D03*
%TD*%
D24*
%TO.P,C41,2*%
%TO.N,GND*%
X52451000Y-29361900D03*
%TO.P,C41,1*%
%TO.N,L4_1*%
X52451000Y-30761900D03*
%TD*%
D14*
%TO.P,C54,2*%
%TO.N,C103_1*%
X53504100Y-23076900D03*
%TO.P,C54,1*%
%TO.N,U44_1*%
X52413900Y-23076900D03*
%TD*%
D13*
%TO.P,C55,2*%
%TO.N,C35_2*%
X53594000Y-19177000D03*
%TO.P,C55,1*%
%TO.N,C55_1*%
X53594000Y-18086800D03*
%TD*%
%TO.P,C58,2*%
%TO.N,GND*%
X50292000Y-10795000D03*
%TO.P,C58,1*%
%TO.N,L14_1*%
X50292000Y-9704800D03*
%TD*%
%TO.P,C59,2*%
%TO.N,GND*%
X46863000Y-10795000D03*
%TO.P,C59,1*%
%TO.N,L14_2*%
X46863000Y-9704800D03*
%TD*%
%TO.P,C60,2*%
%TO.N,GND*%
X41910000Y-9779000D03*
%TO.P,C60,1*%
%TO.N,L15_2*%
X41910000Y-8688800D03*
%TD*%
D24*
%TO.P,C61,2*%
%TO.N,L15_2*%
X45212000Y-8660900D03*
%TO.P,C61,1*%
%TO.N,L14_2*%
X45212000Y-10060900D03*
%TD*%
D13*
%TO.P,C103,2*%
%TO.N,GND*%
X21717000Y-3212100D03*
%TO.P,C103,1*%
%TO.N,C103_1*%
X21717000Y-2121900D03*
%TD*%
D14*
%TO.P,C105,2*%
%TO.N,C105_2*%
X19087100Y-216900D03*
%TO.P,C105,1*%
%TO.N,RF_TX*%
X17996900Y-216900D03*
%TD*%
D13*
%TO.P,C129,2*%
%TO.N,GND*%
X19304000Y-2921000D03*
%TO.P,C129,1*%
%TO.N,C105_2*%
X19304000Y-1830800D03*
%TD*%
%TO.P,C160,2*%
%TO.N,GND*%
X15748000Y-26162000D03*
%TO.P,C160,1*%
%TO.N,A3V3*%
X15748000Y-25071800D03*
%TD*%
%TO.P,C161,2*%
%TO.N,A3V3*%
X17018000Y-25071800D03*
%TO.P,C161,1*%
%TO.N,GND*%
X17018000Y-26162000D03*
%TD*%
%TO.P,C163,2*%
%TO.N,VBAT*%
X9017000Y-25108900D03*
%TO.P,C163,1*%
%TO.N,GND*%
X9017000Y-26199100D03*
%TD*%
D14*
%TO.P,C235,2*%
%TO.N,C235_2*%
X30898100Y-16091900D03*
%TO.P,C235,1*%
%TO.N,C235_1*%
X29807900Y-16091900D03*
%TD*%
D13*
%TO.P,C236,2*%
%TO.N,GND*%
X25654000Y-14351000D03*
%TO.P,C236,1*%
%TO.N,C236_1*%
X25654000Y-13260800D03*
%TD*%
%TO.P,C237,2*%
%TO.N,C236_1*%
X27051000Y-13260800D03*
%TO.P,C237,1*%
%TO.N,GND*%
X27051000Y-14351000D03*
%TD*%
D14*
%TO.P,C238,2*%
%TO.N,3811_RXLO*%
X27521900Y-2248900D03*
%TO.P,C238,1*%
%TO.N,C238_1*%
X28612100Y-2248900D03*
%TD*%
%TO.P,C239,2*%
%TO.N,GND*%
X34327100Y545100D03*
%TO.P,C239,1*%
%TO.N,C239_1*%
X33236900Y545100D03*
%TD*%
%TO.P,C240,2*%
%TO.N,GND*%
X31533100Y418100D03*
%TO.P,C240,1*%
%TO.N,C238_1*%
X30442900Y418100D03*
%TD*%
D13*
%TO.P,C241,2*%
%TO.N,GND*%
X35687000Y-1195800D03*
%TO.P,C241,1*%
%TO.N,C241_1*%
X35687000Y-2286000D03*
%TD*%
D14*
%TO.P,C242,2*%
%TO.N,C238_1*%
X30696900Y-2248900D03*
%TO.P,C242,1*%
%TO.N,C239_1*%
X31787100Y-2248900D03*
%TD*%
D13*
%TO.P,C243,2*%
%TO.N,C241_1*%
X33147000Y-2032000D03*
%TO.P,C243,1*%
%TO.N,C239_1*%
X33147000Y-941800D03*
%TD*%
%TO.P,C244,2*%
%TO.N,C241_1*%
X35052000Y-4116800D03*
%TO.P,C244,1*%
%TO.N,C244_1*%
X35052000Y-5207000D03*
%TD*%
D14*
%TO.P,C245,2*%
%TO.N,RF_RX_LNAOUT*%
X39153100Y-8598900D03*
%TO.P,C245,1*%
%TO.N,C245_1*%
X38062900Y-8598900D03*
%TD*%
D13*
%TO.P,C246,2*%
%TO.N,C246_2*%
X39370000Y-11101800D03*
%TO.P,C246,1*%
%TO.N,C246_1*%
X39370000Y-12192000D03*
%TD*%
D15*
%TO.P,L1,1*%
%TO.N,L1_1*%
X53594000Y-15010900D03*
%TO.P,L1,2*%
%TO.N,C55_1*%
X53594000Y-16410900D03*
%TD*%
D30*
%TO.P,L3,2*%
%TO.N,L3_2*%
X43434000Y-28538400D03*
%TO.P,L3,1*%
%TO.N,L3_1*%
X43434000Y-30823400D03*
%TD*%
D31*
%TO.P,L4,2*%
%TO.N,L3_1*%
X48006500Y-30569900D03*
%TO.P,L4,1*%
%TO.N,L4_1*%
X50291500Y-30569900D03*
%TD*%
%TO.P,L5,2*%
%TO.N,L5_2*%
X44322500Y-23838900D03*
%TO.P,L5,1*%
%TO.N,L3_2*%
X42037500Y-23838900D03*
%TD*%
D19*
%TO.P,L7,2*%
%TO.N,C239_1*%
X31692100Y-851900D03*
%TO.P,L7,1*%
%TO.N,C238_1*%
X30791900Y-851900D03*
%TD*%
D32*
%TO.P,L8,2*%
%TO.N,C241_1*%
X34417000Y-2572000D03*
%TO.P,L8,1*%
%TO.N,C239_1*%
X34417000Y-1671800D03*
%TD*%
D33*
%TO.P,L14,1*%
%TO.N,L14_1*%
X48947800Y-9614900D03*
%TO.P,L14,2*%
%TO.N,L14_2*%
X48080200Y-9614900D03*
%TD*%
D15*
%TO.P,L15,2*%
%TO.N,L15_2*%
X43434000Y-8660900D03*
%TO.P,L15,1*%
%TO.N,L14_2*%
X43434000Y-10060900D03*
%TD*%
D28*
%TO.P,L54,2*%
%TO.N,C103_1*%
X22544000Y-216900D03*
%TO.P,L54,1*%
%TO.N,C105_2*%
X21144000Y-216900D03*
%TD*%
D12*
%TO.P,R26,2*%
%TO.N,R26_2*%
X-3480800Y-10376900D03*
%TO.P,R26,1*%
%TO.N,N/C*%
X-2615200Y-10376900D03*
%TD*%
D26*
%TO.P,R27,2*%
%TO.N,R27_2*%
X31623000Y-27700700D03*
%TO.P,R27,1*%
%TO.N,N/C*%
X31623000Y-26835100D03*
%TD*%
D12*
%TO.P,R28,2*%
%TO.N,N/C*%
X-2615200Y-8852900D03*
%TO.P,R28,1*%
%TO.N,R28_1*%
X-3480800Y-8852900D03*
%TD*%
D34*
%TO.P,R31,2*%
%TO.N,TX_PDN*%
X-3293400Y-24638000D03*
%TO.P,R31,1*%
%TO.N,U44_8*%
X-1786600Y-24638000D03*
%TD*%
%TO.P,R32,2*%
%TO.N,U44_5*%
X-1786600Y-22987000D03*
%TO.P,R32,1*%
%TO.N,RX_PDN*%
X-3293400Y-22987000D03*
%TD*%
D12*
%TO.P,R116,2*%
%TO.N,R116_2*%
X28372800Y-16091900D03*
%TO.P,R116,1*%
%TO.N,GND*%
X27507200Y-16091900D03*
%TD*%
%TO.P,R117,2*%
%TO.N,C236_1*%
X26721800Y-11900900D03*
%TO.P,R117,1*%
%TO.N,A3V3_3811*%
X25856200Y-11900900D03*
%TD*%
D35*
%TO.P,U19,2*%
%TO.N,GND*%
X11853900Y-25997900D03*
%TO.P,U19,3*%
%TO.N,VBAT*%
X11853900Y-26947900D03*
%TO.P,U19,1*%
X11853900Y-25047900D03*
%TO.P,U19,4*%
%TO.N,N/C*%
X14054100Y-26947900D03*
%TO.P,U19,5*%
%TO.N,A3V3*%
X14054100Y-25047900D03*
%TD*%
D36*
%TO.P,U23,40*%
%TO.N,U23_40*%
X35395200Y-13128700D03*
%TO.P,U23,39*%
%TO.N,U23_39*%
X34895300Y-13128700D03*
%TO.P,U23,38*%
%TO.N,U23_38*%
X34395200Y-13128700D03*
%TO.P,U23,37*%
%TO.N,U23_37*%
X33895300Y-13128700D03*
%TO.P,U23,36*%
%TO.N,U23_36*%
X33395200Y-13128700D03*
%TO.P,U23,35*%
%TO.N,U23_35*%
X32895300Y-13128700D03*
%TO.P,U23,34*%
%TO.N,U23_34*%
X32395200Y-13128700D03*
%TO.P,U23,33*%
%TO.N,C235_2*%
X31895300Y-13128700D03*
%TO.P,U23,32*%
%TO.N,C235_1*%
X31395200Y-13128700D03*
%TO.P,U23,31*%
%TO.N,R116_2*%
X30895300Y-13128700D03*
D37*
%TO.P,U23,30*%
%TO.N,C236_1*%
X30395200Y-12628600D03*
%TO.P,U23,29*%
X30395200Y-12128700D03*
%TO.P,U23,28*%
X30395200Y-11628600D03*
%TO.P,U23,27*%
%TO.N,MSPI_MOSI*%
X30395200Y-11128700D03*
%TO.P,U23,26*%
%TO.N,MSPI_SCLK*%
X30395200Y-10628600D03*
%TO.P,U23,25*%
%TO.N,MSPI_MISO*%
X30395200Y-10128700D03*
%TO.P,U23,24*%
%TO.N,MSPI_CS1*%
X30395200Y-9628600D03*
%TO.P,U23,23*%
%TO.N,GND*%
X30395200Y-9128700D03*
%TO.P,U23,22*%
X30395200Y-8628600D03*
%TO.P,U23,21*%
X30395200Y-8128700D03*
D36*
%TO.P,U23,20*%
%TO.N,N/C*%
X30895300Y-7628600D03*
%TO.P,U23,19*%
X31395200Y-7628600D03*
%TO.P,U23,18*%
%TO.N,VCC_LO*%
X31895300Y-7628600D03*
%TO.P,U23,17*%
%TO.N,N/C*%
X32395200Y-7628600D03*
%TO.P,U23,16*%
X32895300Y-7628600D03*
%TO.P,U23,15*%
X33395200Y-7628600D03*
%TO.P,U23,14*%
X33895300Y-7628600D03*
%TO.P,U23,13*%
%TO.N,GND*%
X34395200Y-7628600D03*
%TO.P,U23,12*%
%TO.N,C244_1*%
X34895300Y-7628600D03*
%TO.P,U23,11*%
%TO.N,VCC_LO*%
X35395200Y-7628600D03*
D37*
%TO.P,U23,10*%
%TO.N,N/C*%
X35895300Y-8128700D03*
%TO.P,U23,9*%
%TO.N,C245_1*%
X35895300Y-8628600D03*
%TO.P,U23,8*%
%TO.N,VCC_RF*%
X35895300Y-9128700D03*
%TO.P,U23,7*%
%TO.N,N/C*%
X35895300Y-9628600D03*
%TO.P,U23,6*%
X35895300Y-10128700D03*
%TO.P,U23,5*%
%TO.N,VCC_LNA*%
X35895300Y-10628600D03*
%TO.P,U23,4*%
%TO.N,VCC_RXIF*%
X35895300Y-11128700D03*
%TO.P,U23,3*%
%TO.N,C246_2*%
X35895300Y-11628600D03*
%TO.P,U23,2*%
%TO.N,C246_1*%
X35895300Y-12128700D03*
%TO.P,U23,1*%
%TO.N,U23_1*%
X35881300Y-12621700D03*
%TD*%
D14*
%TO.P,U39,2*%
%TO.N,A3V3_3811*%
X19595100Y-24981900D03*
%TO.P,U39,1*%
%TO.N,A3V3*%
X18504900Y-24981900D03*
%TD*%
D38*
%TO.P,U44,1*%
%TO.N,U44_1*%
X50711600Y-22303000D03*
%TO.P,U44,2*%
%TO.N,GND*%
X50711600Y-21802800D03*
%TO.P,U44,3*%
X50711600Y-21303000D03*
%TO.P,U44,4*%
%TO.N,RX_IN*%
X50711600Y-20802800D03*
%TO.P,U44,5*%
%TO.N,U44_5*%
X48856400Y-20802800D03*
%TO.P,U44,6*%
%TO.N,GND*%
X48856400Y-21303000D03*
%TO.P,U44,7*%
%TO.N,U44_7*%
X48856400Y-21802800D03*
%TO.P,U44,8*%
%TO.N,U44_8*%
X48856400Y-22303000D03*
D39*
%TO.P,U44,9*%
%TO.N,GND*%
X49784000Y-21552900D03*
%TD*%
D26*
%TO.P,R2,2*%
%TO.N,U23_36*%
X26035000Y4901200D03*
%TO.P,R2,1*%
%TO.N,RINP*%
X26035000Y5766800D03*
%TD*%
%TO.P,R3,2*%
%TO.N,U23_37*%
X24638000Y4901200D03*
%TO.P,R3,1*%
%TO.N,RINN*%
X24638000Y5766800D03*
%TD*%
%TO.P,R4,2*%
%TO.N,U23_38*%
X22987000Y4901200D03*
%TO.P,R4,1*%
%TO.N,LINP*%
X22987000Y5766800D03*
%TD*%
%TO.P,R5,2*%
%TO.N,U23_39*%
X21336000Y5028200D03*
%TO.P,R5,1*%
%TO.N,LINN*%
X21336000Y5893800D03*
%TD*%
D40*
%TO.P,JP3,14*%
%TO.N,N/C*%
X13333200Y12481100D03*
%TO.P,JP3,13*%
X13333200Y15021100D03*
%TO.P,JP3,12*%
%TO.N,MODR*%
X15873200Y12481100D03*
%TO.P,JP3,11*%
%TO.N,N/C*%
X15873200Y15021100D03*
%TO.P,JP3,10*%
%TO.N,GND*%
X18413200Y12481100D03*
%TO.P,JP3,9*%
X18413200Y15021100D03*
%TO.P,JP3,8*%
%TO.N,LINP*%
X20953200Y12481100D03*
%TO.P,JP3,7*%
%TO.N,LINN*%
X20953200Y15021100D03*
%TO.P,JP3,6*%
%TO.N,RINN*%
X23493200Y12481100D03*
%TO.P,JP3,5*%
%TO.N,RINP*%
X23493200Y15021100D03*
%TO.P,JP3,4*%
%TO.N,GND*%
X26033200Y12481100D03*
%TO.P,JP3,3*%
X26033200Y15021100D03*
%TO.P,JP3,2*%
%TO.N,N/C*%
X28573200Y12481100D03*
%TO.P,JP3,1*%
X28573200Y15021100D03*
%TD*%
D41*
%TO.P,JP2,20*%
%TO.N,PE4259_CTL_LMX_CE*%
X-8510800Y-218900D03*
%TO.P,JP2,19*%
%TO.N,N/C*%
X-5970800Y-218900D03*
%TO.P,JP2,18*%
X-8510800Y-2758900D03*
%TO.P,JP2,17*%
%TO.N,GND*%
X-5970800Y-2758900D03*
%TO.P,JP2,16*%
%TO.N,N/C*%
X-8510800Y-5298900D03*
%TO.P,JP2,15*%
X-5970800Y-5298900D03*
%TO.P,JP2,14*%
%TO.N,R28_1*%
X-8510800Y-7838900D03*
%TO.P,JP2,13*%
%TO.N,N/C*%
X-5970800Y-7838900D03*
%TO.P,JP2,12*%
%TO.N,MSPI_MOSI*%
X-8510800Y-10378900D03*
%TO.P,JP2,11*%
%TO.N,R26_2*%
X-5970800Y-10378900D03*
%TO.P,JP2,10*%
%TO.N,MSPI_MISO*%
X-8510800Y-12918900D03*
%TO.P,JP2,9*%
%TO.N,MSPI_SCLK*%
X-5970800Y-12918900D03*
%TO.P,JP2,8*%
%TO.N,MSPI_CS1*%
X-8510800Y-15458900D03*
%TO.P,JP2,7*%
%TO.N,N/C*%
X-5970800Y-15458900D03*
%TO.P,JP2,6*%
%TO.N,LD_SPI3_CS*%
X-8510800Y-17998900D03*
%TO.P,JP2,5*%
%TO.N,SPI3_SCK*%
X-5970800Y-17998900D03*
%TO.P,JP2,4*%
%TO.N,N/C*%
X-8510800Y-20538900D03*
%TO.P,JP2,3*%
%TO.N,SPI3_MOSI*%
X-5970800Y-20538900D03*
%TO.P,JP2,2*%
%TO.N,TX_PDN*%
X-8510800Y-23078900D03*
D42*
%TO.P,JP2,1*%
%TO.N,RX_PDN*%
X-5970800Y-23078700D03*
%TD*%
D40*
%TO.P,JP1,30*%
%TO.N,GND*%
X-3938800Y-32730900D03*
%TO.P,JP1,29*%
X-3938800Y-30190900D03*
%TO.P,JP1,28*%
%TO.N,VBAT*%
X-1398800Y-32730900D03*
%TO.P,JP1,27*%
X-1398800Y-30190900D03*
%TO.P,JP1,26*%
%TO.N,N/C*%
X1141200Y-32730900D03*
%TO.P,JP1,25*%
X1141200Y-30190900D03*
%TO.P,JP1,24*%
X3681200Y-32730900D03*
%TO.P,JP1,23*%
X3681200Y-30190900D03*
%TO.P,JP1,22*%
X6221200Y-32730900D03*
%TO.P,JP1,21*%
X6221200Y-30190900D03*
%TO.P,JP1,20*%
X8761200Y-32730900D03*
%TO.P,JP1,19*%
X8761200Y-30190900D03*
%TO.P,JP1,18*%
X11301200Y-32730900D03*
%TO.P,JP1,17*%
X11301200Y-30190900D03*
%TO.P,JP1,16*%
X13841200Y-32730900D03*
%TO.P,JP1,15*%
X13841200Y-30190900D03*
%TO.P,JP1,14*%
X16381200Y-32730900D03*
%TO.P,JP1,13*%
X16381200Y-30190900D03*
%TO.P,JP1,12*%
X18921200Y-32730900D03*
%TO.P,JP1,11*%
X18921200Y-30190900D03*
%TO.P,JP1,10*%
X21461200Y-32730900D03*
%TO.P,JP1,9*%
X21461200Y-30190900D03*
%TO.P,JP1,8*%
X24001200Y-32730900D03*
%TO.P,JP1,7*%
X24001200Y-30190900D03*
%TO.P,JP1,6*%
X26541200Y-32730900D03*
%TO.P,JP1,5*%
X26541200Y-30190900D03*
%TO.P,JP1,4*%
X29081200Y-32730900D03*
%TO.P,JP1,3*%
X29081200Y-30190900D03*
%TO.P,JP1,2*%
%TO.N,GND*%
X31621200Y-32730900D03*
D43*
%TO.P,JP1,1*%
%TO.N,R27_2*%
X31621200Y-30190700D03*
%TD*%
D44*
%TO.P,Pad_gge111627,1*%
%TO.N,GND*%
X-6223000Y13499100D03*
%TD*%
%TO.P,Pad_gge189569,1*%
%TO.N,GND*%
X57150000Y13589000D03*
%TD*%
%TO.P,Pad_gge290440,1*%
%TO.N,GND*%
X59182000Y-24727900D03*
%TD*%
%TO.P,Pad_gge303765,1*%
%TO.N,GND*%
X-7620000Y-27813000D03*
%TD*%
D45*
%TO.N,GND*%
X2451636Y2158100D03*
D46*
X31623000Y-12154900D03*
X31623000Y-11265900D03*
X31623000Y-10376900D03*
X31623000Y-9487900D03*
X31623000Y-8598900D03*
X33147000Y-8598900D03*
X33147000Y-9487900D03*
X33147000Y-10376900D03*
X33147000Y-11265900D03*
X33147000Y-12154900D03*
X34544000Y-12154900D03*
X34544000Y-11265900D03*
X34544000Y-10376900D03*
X34544000Y-9487900D03*
X34544000Y-8598900D03*
%TO.N,U23_36*%
X33401000Y-14567900D03*
%TO.N,U23_37*%
X34036000Y-15367000D03*
%TO.N,U23_38*%
X34798000Y-15748000D03*
%TO.N,U23_39*%
X35433000Y-16256000D03*
D45*
%TO.N,U23_36*%
X26162000Y3302000D03*
%TO.N,U23_37*%
X24765000Y3302000D03*
%TO.N,U23_38*%
X23241000Y3302000D03*
%TO.N,U23_39*%
X21717000Y3175000D03*
D46*
%TO.N,VCC_LO*%
X31496000Y-6312900D03*
%TO.N,MSPI_CS1*%
X12700000Y-16599900D03*
%TO.N,MSPI_MISO*%
X11557000Y-15710900D03*
%TO.N,MSPI_SCLK*%
X9652000Y-13043900D03*
D47*
%TO.N,VBAT*%
X5969000Y-25108900D03*
D48*
%TO.N,A3V3_3811*%
X21717000Y-24981900D03*
X24257000Y-20066000D03*
D46*
%TO.N,VCC_LO*%
X36449000Y-5804900D03*
D45*
%TO.N,U44_8*%
X2921000Y-28410900D03*
D46*
X48133000Y-24384000D03*
D45*
%TO.N,U44_5*%
X3810000Y-27305000D03*
X45593000Y-19266900D03*
D48*
%TO.N,A3V3_3811*%
X40767000Y-5042900D03*
X54737000Y-4953000D03*
%TO.N,A3V3_4819*%
X18415000Y-20790900D03*
D49*
%TO.N,MODR*%
X-2413000Y3683000D03*
D46*
%TO.N,VCC_RXIF*%
X38227000Y-11138900D03*
%TO.N,VCC_LNA*%
X38100000Y-10376900D03*
%TO.N,VCC_RF*%
X37338000Y-9868900D03*
D45*
%TO.N,GND*%
X56261000Y-28283900D03*
X54737000Y-28283900D03*
D48*
X52400000Y-27902900D03*
D45*
X56388000Y-32728900D03*
X54991000Y-32728900D03*
X53721000Y-32855900D03*
X50927000Y-27902900D03*
X49530000Y-27902900D03*
X47879000Y-27902900D03*
D48*
X45800000Y-27648900D03*
X46228000Y-26101000D03*
D45*
X50673000Y-23584900D03*
X49657000Y-26543000D03*
X52197000Y-26543000D03*
X55372000Y-24727900D03*
X56007000Y-26543000D03*
X54356000Y-26543000D03*
X52324000Y-32982900D03*
X50927000Y-32982900D03*
X49911000Y-33871900D03*
X48260000Y-33871900D03*
X46736000Y-33871900D03*
X44831000Y-33871900D03*
X34163000Y-33655000D03*
X39624000Y-26924000D03*
X34290000Y-31623000D03*
X34163000Y-29718000D03*
X34290000Y-27940000D03*
X42926000Y-20320000D03*
X44450000Y-20320000D03*
X45974000Y-20320000D03*
X61214000Y-21336000D03*
X61087000Y-19177000D03*
X61087000Y-16980900D03*
X61087000Y-14605000D03*
X61087000Y-12700000D03*
X61087000Y-10414000D03*
X60960000Y-8255000D03*
X61087000Y-6096000D03*
X61214000Y-3937000D03*
X57531000Y-15075900D03*
X57531000Y-13932900D03*
X57785000Y-12573000D03*
X57785000Y-11176000D03*
X57785000Y-9652000D03*
X57658000Y-7366000D03*
X57658000Y-5969000D03*
X53975000Y-1905000D03*
X52070000Y-1905000D03*
X44196000Y-1740900D03*
X41656000Y-1740900D03*
X39878000Y-1740900D03*
X55372000Y-15456900D03*
X55626000Y-14059900D03*
X51181000Y-7874000D03*
X49657000Y-7874000D03*
X47371000Y-7874000D03*
X45974000Y-6985000D03*
X54737000Y-3429000D03*
X52705000Y-3556000D03*
X50673000Y-3556000D03*
X48768000Y-3683000D03*
X41910000Y-11011900D03*
X41910000Y-12700000D03*
X41783000Y-14097000D03*
X41656000Y-15583900D03*
X49276000Y-18123900D03*
X50292000Y-13297900D03*
X50292000Y-12154900D03*
X48514000Y-12154900D03*
X46863000Y-12408900D03*
X44704000Y-12281900D03*
X43307000Y-14097000D03*
X45974000Y-15456900D03*
X49657000Y-15494000D03*
X47371000Y-14859000D03*
X45085000Y-13932900D03*
X48260000Y-13932900D03*
X35052000Y-17907000D03*
X39116000Y-15964900D03*
X38227000Y-16764000D03*
X37338000Y-17488900D03*
X36195000Y-18415000D03*
X35179000Y-19431000D03*
X25654000Y-21044900D03*
X25654000Y-19304000D03*
X27178000Y-19177000D03*
X29464000Y-19050000D03*
X29083000Y-8852900D03*
X27559000Y-8852900D03*
X19050000Y-11049000D03*
X17653000Y-12446000D03*
X16002000Y-13043900D03*
X14732000Y-11900900D03*
X13970000Y-10795000D03*
X-1651000Y-15329900D03*
X3302000Y-22225000D03*
X5969000Y-23114000D03*
X7239000Y-21463000D03*
X10160000Y-22733000D03*
X8382000Y-19558000D03*
X10160000Y-19939000D03*
X11938000Y-20155900D03*
X14097000Y-20028900D03*
X16129000Y-19812000D03*
X12192000Y-22695900D03*
X13716000Y-22695900D03*
X19304000Y-15964900D03*
X17399000Y-10376900D03*
X16256000Y-9017000D03*
X15748000Y-10249900D03*
X27305000Y-5423900D03*
X28448000Y-4445000D03*
X29845000Y-4407900D03*
X29845000Y-5804900D03*
X27940000Y-6947900D03*
X28575000Y-851900D03*
X27178000Y-851900D03*
X17272000Y8546100D03*
X17145000Y6895100D03*
X16891000Y4990100D03*
X17145000Y2704100D03*
X30607000Y-20409900D03*
X33147000Y-19266900D03*
X53340000Y16039100D03*
X49784000Y16039100D03*
X46609000Y9689100D03*
X43180000Y16166100D03*
X46228000Y16039100D03*
X40640000Y16166100D03*
X38481000Y16166100D03*
X36322000Y16166100D03*
X34290000Y16166100D03*
X28956000Y6477000D03*
X30353000Y5207000D03*
X28702000Y2921000D03*
X28575000Y1270000D03*
X39243000Y799100D03*
X41529000Y1942100D03*
X49784000Y2794000D03*
X47752000Y2286000D03*
X59944000Y15912100D03*
X381000Y14261100D03*
X4699000Y14515100D03*
X8509000Y15023100D03*
X-7366000Y9562100D03*
X-8255000Y7403100D03*
X-8890000Y4609100D03*
X-8128000Y-32347900D03*
X-6477000Y-33363900D03*
X35687000Y127000D03*
X39751000Y5334000D03*
X41529000Y3847100D03*
X44196000Y3339100D03*
X45847000Y381000D03*
X762000Y11049000D03*
X3302000Y11811000D03*
X6096000Y11938000D03*
X8509000Y11938000D03*
X10795000Y11938000D03*
X-5334000Y1561100D03*
X-1270000Y-10541000D03*
X38989000Y3175000D03*
X36195000Y1524000D03*
X41529000Y-3556000D03*
X39243000Y-3645900D03*
X51562000Y-21552900D03*
D49*
X59182000Y-19177000D03*
D46*
X49784000Y-21552900D03*
D50*
%TO.N,A3V3_4819*%
X7620000Y-7963900D03*
%TO.N,BK4819_18*%
X11049000Y-4661900D03*
%TO.N,PE4259_CTL_LMX_CE*%
X11684000Y4863100D03*
D45*
%TO.N,SPI3_MOSI*%
X10414000Y508000D03*
%TO.N,LD_SPI3_CS*%
X10160000Y-635000D03*
%TO.N,SPI3_SCK*%
X9906000Y-1524000D03*
%TO.N,A3V3_4819*%
X3683000Y-2667000D03*
D50*
X254000Y2450100D03*
D45*
%TO.N,GND*%
X-1524000Y12827000D03*
X-3048000Y11303000D03*
X-4953000Y9017000D03*
X16891000Y10287000D03*
X14859000Y9017000D03*
X12319000Y8890000D03*
X9779000Y8890000D03*
X6858000Y9054100D03*
X4318000Y8927100D03*
X1270000Y6006100D03*
X4191000Y6133100D03*
X7366000Y6133100D03*
X11303000Y6387100D03*
X14859000Y6133100D03*
X13081000Y3085100D03*
X11049000Y3810000D03*
X13589000Y-381000D03*
X889000Y3847100D03*
X508000Y-10287000D03*
X3175000Y-10287000D03*
X1905000Y-8471900D03*
X762000Y-6350000D03*
X-1270000Y-8344900D03*
D50*
%TO.N,A3V3_4819*%
X13335000Y-7112000D03*
D45*
%TO.N,GND*%
X39751000Y-31458900D03*
X32258000Y6006100D03*
X61087000Y-33363900D03*
X59436000Y-33363900D03*
X57785000Y-33363900D03*
X57912000Y-28283900D03*
X59563000Y-28283900D03*
X61214000Y-28283900D03*
X43307000Y-33998900D03*
X41656000Y-33871900D03*
X40640000Y-32728900D03*
X39624000Y-29807900D03*
X39624000Y-28410900D03*
X57404000Y-3429000D03*
X56134000Y-1905000D03*
D46*
X7620000Y-4027200D03*
X7620000Y-3010900D03*
X8636000Y-3010900D03*
X8636000Y-4026900D03*
X8636000Y-5042900D03*
X7620000Y-5042900D03*
X6604000Y-3010900D03*
X6604000Y-4027200D03*
X6604000Y-5042900D03*
D45*
%TO.N,A3V3_3811*%
X40767000Y-16726900D03*
%TO.N,MSPI_MOSI*%
X2921000Y-12065000D03*
D49*
%TO.N,C103_1*%
X22987000Y-2667000D03*
X53467000Y-24384000D03*
D45*
%TO.N,GND*%
X14859000Y0D03*
X17526000Y-4318000D03*
X19812000Y-3937000D03*
X20955000Y-4064000D03*
X2413000Y1143000D03*
X54229000Y-7747000D03*
X13843000Y-9398000D03*
X17399000Y-8763000D03*
X27940000Y-14986000D03*
X28829000Y-14097000D03*
D49*
X8001000Y-26289000D03*
D45*
X254000Y-26162000D03*
X34417000Y1651000D03*
D49*
X31496000Y1524000D03*
D45*
X31496000Y3175000D03*
X35814000Y-26797000D03*
X37846000Y-26797000D03*
X40132000Y-22860000D03*
X41148000Y-21336000D03*
X59563000Y-2042000D03*
X60960000Y-2032000D03*
X58039000Y-2032000D03*
X58166000Y3048000D03*
X59690000Y3038000D03*
X61087000Y3048000D03*
X50038000Y-1778000D03*
X47752000Y-1905000D03*
X46482000Y-3683000D03*
X56388000Y2794000D03*
X53975000Y2794000D03*
X51816000Y2794000D03*
X37719000Y-2540000D03*
X43815000Y-3556000D03*
X51181000Y-6223000D03*
X49530000Y-6223000D03*
X47371000Y-6223000D03*
X44196000Y-7366000D03*
X51689000Y-14478000D03*
X51562000Y-16129000D03*
X51562000Y-17653000D03*
X51562000Y-19050000D03*
X48133000Y-16383000D03*
X46355000Y-17780000D03*
X44069000Y-16002000D03*
X37719000Y-1016000D03*
X37338000Y508000D03*
X28956000Y9017000D03*
X29083000Y10668000D03*
X27178000Y889000D03*
X27305000Y2667000D03*
X27305000Y4699000D03*
X27305000Y6604000D03*
X27178000Y8636000D03*
D47*
X27178000Y10541000D03*
D45*
X19304000Y9652000D03*
X19939000Y7366000D03*
X19812000Y4699000D03*
X20193000Y2921000D03*
X18796000Y2159000D03*
X17145000Y1270000D03*
X14605000Y1905000D03*
D48*
X-500000Y-6000000D03*
D45*
X-2159000Y-5715000D03*
X-3175000Y-4826000D03*
X-3937000Y-3556000D03*
X-3937000Y-2159000D03*
X-3937000Y-381000D03*
X-4064000Y1651000D03*
X-4064000Y3683000D03*
X-3556000Y6477000D03*
X-1905000Y8001000D03*
X-635000Y9271000D03*
X4699000Y127000D03*
X2507488Y3758100D03*
X3683000Y1778000D03*
X5588000Y1778000D03*
X7493000Y1651000D03*
X9144000Y1651000D03*
X21844000Y-8128000D03*
X21844000Y-6477000D03*
X25527000Y-23876000D03*
X27178000Y-23876000D03*
X29083000Y-23876000D03*
X30988000Y-23495000D03*
X32512000Y-22098000D03*
X33782000Y-20828000D03*
X28321000Y-22098000D03*
X28575000Y-20701000D03*
X20447000Y-14986000D03*
X21590000Y-13716000D03*
X22098000Y-15113000D03*
X21971000Y-17018000D03*
X21971000Y-18796000D03*
X21971000Y-20828000D03*
X21971000Y-22733000D03*
X4699000Y-11557000D03*
X508000Y-12319000D03*
X508000Y-15367000D03*
X2794000Y-15367000D03*
X-3429000Y-15367000D03*
X5080000Y-20574000D03*
X6858000Y-18288000D03*
X35433000Y10922000D03*
X37973000Y10795000D03*
X41021000Y10668000D03*
X46355000Y12065000D03*
X53594000Y9398000D03*
X48387000Y7112000D03*
X41529000Y7747000D03*
X36068000Y8128000D03*
X37084000Y12827000D03*
X42926000Y13462000D03*
X49784000Y13462000D03*
X51435000Y11176000D03*
X51689000Y5969000D03*
X50292000Y9525000D03*
X32385000Y12954000D03*
X32004000Y9906000D03*
X31242000Y8128000D03*
X47117000Y4699000D03*
X38354000Y6604000D03*
X36322000Y4572000D03*
X54737000Y5842000D03*
X56896000Y9779000D03*
X55372000Y-22987000D03*
X55372000Y-21336000D03*
X57277000Y-20447000D03*
X42672000Y508000D03*
X44450000Y7366000D03*
X2032000Y-26289000D03*
X20447000Y-9525000D03*
X12446000Y-13335000D03*
X13716000Y-15113000D03*
X8382000Y-9652000D03*
X7366000Y-10668000D03*
X6350000Y-12065000D03*
X9398000Y-15621000D03*
X3302000Y-7747000D03*
X5461000Y-9398000D03*
X2667000Y-6223000D03*
X36830000Y-29718000D03*
X36957000Y-32004000D03*
X37084000Y-34290000D03*
X19939000Y-7620000D03*
%TD*%
D51*
%TO.N,GND*%
X45950100Y-26378900D02*
X46228000Y-26101000D01*
X45800000Y-29060900D02*
X45847000Y-29107900D01*
X45800000Y-27648900D02*
X45800000Y-29060900D01*
D52*
X46228000Y-24638000D02*
X46228000Y-26101000D01*
D51*
X52451000Y-27953900D02*
X52400000Y-27902900D01*
D53*
X52451000Y-29361900D02*
X52451000Y-27953900D01*
X1449800Y1143000D02*
X1397000Y1090200D01*
X2413000Y1143000D02*
X1449800Y1143000D01*
D51*
X-494000Y-4365000D02*
X-500000Y-4371000D01*
D54*
X-500000Y-4371000D02*
X-500000Y-6000000D01*
D55*
X27051000Y-14351000D02*
X27686000Y-14986000D01*
X27686000Y-14986000D02*
X27940000Y-14986000D01*
D56*
X26032500Y12480500D02*
X26032500Y11685500D01*
X26032500Y11685500D02*
X27178000Y10540000D01*
D57*
%TO.N,U44_5*%
X48856900Y-20803600D02*
X48006000Y-20790900D01*
X48006000Y-20790900D02*
X47713900Y-20498800D01*
X47713900Y-20498800D02*
X47713900Y-19266900D01*
%TO.N,RX_IN*%
X50711100Y-20803600D02*
X51435000Y-20790900D01*
X51435000Y-20790900D02*
X51689000Y-20536900D01*
X51689000Y-20536900D02*
X52412900Y-20536900D01*
%TO.N,L5_2*%
X44322500Y-23838900D02*
X44233100Y-23749500D01*
X44233100Y-23749500D02*
X44233100Y-21806900D01*
X45808900Y-21806900D02*
X45808900Y-22403800D01*
X45808900Y-22403800D02*
X46228000Y-22822900D01*
X46228000Y-22822900D02*
X46228000Y-23546800D01*
%TO.N,U44_7*%
X48856900Y-21801800D02*
X46901100Y-21806900D01*
D52*
%TO.N,VBAT*%
X11853900Y-26947900D02*
X11914900Y-26886900D01*
X11914900Y-26886900D02*
X12573000Y-26886900D01*
X12573000Y-26886900D02*
X12827000Y-26632900D01*
X12827000Y-26632900D02*
X12827000Y-25489900D01*
X12827000Y-25489900D02*
X12385000Y-25048000D01*
X12385000Y-25048000D02*
X11853900Y-25048000D01*
D51*
%TO.N,GND*%
X30395200Y-8128700D02*
X30395200Y-9124200D01*
D57*
%TO.N,RINN*%
X24638000Y5766800D02*
X24638000Y8509000D01*
X24638000Y8509000D02*
X23493200Y9653800D01*
X23493200Y9653800D02*
X23493200Y12481100D01*
%TO.N,L15_2*%
X41910000Y-8688800D02*
X41937900Y-8660900D01*
X41937900Y-8660900D02*
X43434000Y-8660900D01*
D52*
%TO.N,GND*%
X31533100Y418100D02*
X31496000Y455200D01*
X31496000Y455200D02*
X31496000Y1524000D01*
X254000Y-26162000D02*
X-710200Y-26162000D01*
X-710200Y-26162000D02*
X-710200Y-26162000D01*
X11853900Y-25997900D02*
X11652800Y-26199100D01*
X11652800Y-26199100D02*
X10414000Y-26199100D01*
X10414000Y-26199100D02*
X9017000Y-26199100D01*
X8001000Y-26289000D02*
X8090900Y-26199100D01*
X8090900Y-26199100D02*
X9017000Y-26199100D01*
D57*
X27507200Y-16091900D02*
X27432000Y-16016700D01*
X27432000Y-16016700D02*
X27432000Y-15367000D01*
X27432000Y-15367000D02*
X27813000Y-14986000D01*
X27813000Y-14986000D02*
X27940000Y-14986000D01*
%TO.N,C236_1*%
X30396200Y-11629100D02*
X30396200Y-11900900D01*
X30396200Y-11900900D02*
X26720800Y-11900900D01*
D58*
X30396200Y-12627400D02*
X29763700Y-13259800D01*
X29763700Y-13259800D02*
X27051000Y-13259800D01*
D51*
%TO.N,MSPI_CS1*%
X30396200Y-9627600D02*
X21866900Y-9627600D01*
X21866900Y-9627600D02*
X14897100Y-16599900D01*
X14897100Y-16599900D02*
X12700000Y-16599900D01*
D53*
%TO.N,GND*%
X16256000Y-9017000D02*
X16256000Y-7874000D01*
X12864100Y-9995900D02*
X12864100Y-8598900D01*
X54229000Y-7747000D02*
X54229000Y-8852900D01*
D57*
X20955000Y-4064000D02*
X21717000Y-3302000D01*
X21717000Y-3302000D02*
X21717000Y-3212100D01*
X19812000Y-3937000D02*
X19304000Y-3429000D01*
X19304000Y-3429000D02*
X19304000Y-2921000D01*
X16588000Y-4280900D02*
X16625100Y-4318000D01*
X16625100Y-4318000D02*
X17526000Y-4318000D01*
%TO.N,PE4259_1*%
X16588700Y-4931200D02*
X16995100Y-4931200D01*
X16995100Y-4931200D02*
X17272000Y-5208000D01*
X17272000Y-5208000D02*
X18503900Y-5208000D01*
D53*
%TO.N,GND*%
X13589000Y-1308100D02*
X13589000Y-381000D01*
X14859000Y-1068800D02*
X14859000Y0D01*
D58*
%TO.N,U23_35*%
X33438100Y-16091900D02*
X32895300Y-15549100D01*
X32895300Y-15549100D02*
X32895300Y-13128800D01*
%TO.N,U23_36*%
X33395200Y-13128800D02*
X33401000Y-13134600D01*
X33401000Y-13134600D02*
X33401000Y-14567900D01*
%TO.N,U23_38*%
X34798000Y-15748000D02*
X34798000Y-14478000D01*
X34798000Y-14478000D02*
X34395200Y-14075200D01*
X34395200Y-14075200D02*
X34395200Y-13128800D01*
%TO.N,U23_37*%
X33895200Y-13128800D02*
X33909000Y-14097000D01*
X33909000Y-14097000D02*
X34036000Y-14224000D01*
X34036000Y-14224000D02*
X34036000Y-15367000D01*
D57*
%TO.N,LNA_IN_5*%
X45593000Y-1994900D02*
X48095900Y508000D01*
X48095900Y508000D02*
X59563000Y508000D01*
D59*
%TO.N,LINN*%
X21336000Y5893800D02*
X21336000Y9054100D01*
X21336000Y9054100D02*
X19685000Y10705100D01*
X19685000Y10705100D02*
X19685000Y13753100D01*
X19685000Y13753100D02*
X20952500Y15020500D01*
%TO.N,LINP*%
X22987000Y5767300D02*
X22987000Y8889000D01*
X22987000Y8889000D02*
X20952500Y10923500D01*
X20952500Y10923500D02*
X20952500Y12480500D01*
%TO.N,RINP*%
X26035000Y5766800D02*
X26035000Y9689100D01*
X26035000Y9689100D02*
X24765000Y10959100D01*
X24765000Y10959100D02*
X24765000Y14134100D01*
X24765000Y14134100D02*
X23876000Y15020500D01*
X23876000Y15020500D02*
X23492500Y15020500D01*
D52*
%TO.N,C103_1*%
X21717000Y-2121900D02*
X22441900Y-2121900D01*
X22441900Y-2121900D02*
X22987000Y-2667000D01*
X22545000Y-216900D02*
X22545000Y-1293900D01*
X22545000Y-1293900D02*
X21717000Y-2121900D01*
D51*
%TO.N,U23_39*%
X34895300Y-13128800D02*
X34925000Y-13158500D01*
X34925000Y-13158500D02*
X34925000Y-13841500D01*
X34925000Y-13841500D02*
X35433000Y-14349500D01*
X35433000Y-14349500D02*
X35433000Y-16256000D01*
D52*
%TO.N,C103_1*%
X53467000Y-24384000D02*
X53504100Y-24346900D01*
X53504100Y-24346900D02*
X53504100Y-23076900D01*
D57*
%TO.N,3811_RXLO*%
X27520900Y-2248900D02*
X27520900Y-3849100D01*
X27520900Y-3849100D02*
X26454100Y-4915900D01*
X26454100Y-4915900D02*
X20701000Y-4915900D01*
D59*
%TO.N,U44_5*%
X-1785600Y-22988000D02*
X2159000Y-22988000D01*
X2159000Y-22988000D02*
X3810000Y-24639000D01*
X3810000Y-24639000D02*
X3810000Y-27306000D01*
%TO.N,U44_8*%
X-1574800Y-26163000D02*
X-1574800Y-28245800D01*
X-1574800Y-28245800D02*
X-1270000Y-28448000D01*
X-1270000Y-28448000D02*
X2921000Y-28410900D01*
D52*
%TO.N,A3V3_3811*%
X52705000Y-5269200D02*
X53021200Y-4953000D01*
X53021200Y-4953000D02*
X54737000Y-4953000D01*
%TO.N,C26_1*%
X52705000Y-6669000D02*
X52742100Y-6706100D01*
X52742100Y-6706100D02*
X52742100Y-9614900D01*
%TO.N,U4_4*%
X56134000Y-11795000D02*
X55896000Y-11557000D01*
X55896000Y-11557000D02*
X54864000Y-11557000D01*
X54864000Y-11557000D02*
X54229000Y-10922000D01*
X54229000Y-10922000D02*
X54229000Y-9943100D01*
X53609000Y-11328900D02*
X54229000Y-10708900D01*
X54229000Y-10708900D02*
X54229000Y-9943100D01*
D53*
%TO.N,A3V3_3811*%
X55461900Y-7493000D02*
X55461900Y-9122900D01*
X55461900Y-9122900D02*
X56134000Y-9795000D01*
X55461900Y-7493000D02*
X55461900Y-6223000D01*
X55461900Y-6223000D02*
X55461900Y-6223000D01*
X54737000Y-4953000D02*
X55461900Y-5677900D01*
X55461900Y-5677900D02*
X55461900Y-6223000D01*
D59*
%TO.N,U23_39*%
X21717000Y3175000D02*
X21336000Y3556000D01*
X21336000Y3556000D02*
X21336000Y5028200D01*
D51*
%TO.N,MSPI_MOSI*%
X30396200Y-11128800D02*
X22743200Y-11128800D01*
X22743200Y-11128800D02*
X15367000Y-18504900D01*
X15367000Y-18504900D02*
X9359900Y-18504900D01*
X9359900Y-18504900D02*
X2921000Y-12066000D01*
%TO.N,LD_SPI3_CS*%
X8620800Y-1969500D02*
X8620800Y-905300D01*
X8620800Y-905300D02*
X8890000Y-636000D01*
X8890000Y-636000D02*
X10160000Y-636000D01*
%TO.N,SPI3_MOSI*%
X8219900Y-1970000D02*
X8219900Y-254000D01*
X8219900Y-254000D02*
X8981900Y508000D01*
X8981900Y508000D02*
X10414000Y508000D01*
D59*
%TO.N,SPI3_SCK*%
X9020000Y-1970000D02*
X9020000Y-1648000D01*
X9020000Y-1648000D02*
X9144000Y-1524000D01*
X9144000Y-1524000D02*
X9906000Y-1524000D01*
D57*
%TO.N,X2_1*%
X-2413000Y1345200D02*
X-2413000Y-2183900D01*
%TO.N,C254_1*%
X1397000Y0D02*
X1256000Y-141000D01*
X1256000Y-141000D02*
X1256000Y-2164800D01*
X0Y0D02*
X1397000Y0D01*
%TO.N,A3V3_4819*%
X254000Y2450100D02*
X0Y2196100D01*
X0Y2196100D02*
X0Y1090200D01*
%TO.N,X2_1*%
X-494000Y-2164800D02*
X-513100Y-2183900D01*
X-513100Y-2183900D02*
X-2413000Y-2183900D01*
%TO.N,X2_3*%
X1256000Y-4365000D02*
X1340100Y-4280900D01*
X1340100Y-4280900D02*
X3010900Y-4280900D01*
%TO.N,LNA_IN_5*%
X43091100Y-6439900D02*
X44577000Y-6439900D01*
X44577000Y-6439900D02*
X45339000Y-5677900D01*
X45339000Y-5677900D02*
X45339000Y-2248900D01*
X45339000Y-2248900D02*
X45593000Y-1994900D01*
%TO.N,RF_RX_LNAOUT*%
X40640000Y-7799800D02*
X40640000Y-6947900D01*
X40640000Y-6947900D02*
X41148000Y-6439900D01*
X41148000Y-6439900D02*
X41999900Y-6439900D01*
%TO.N,L15_2*%
X40640000Y-8890000D02*
X40841200Y-8688800D01*
X40841200Y-8688800D02*
X41910000Y-8688800D01*
%TO.N,RF_RX_LNAOUT*%
X39153100Y-8598900D02*
X39952200Y-7799800D01*
X39952200Y-7799800D02*
X40640000Y-7799800D01*
%TO.N,L15_2*%
X45212000Y-8660900D02*
X43434000Y-8660900D01*
X43434000Y-8660900D02*
X43434000Y-8660900D01*
%TO.N,L14_2*%
X45212000Y-10060900D02*
X43434000Y-10060900D01*
X43434000Y-10060900D02*
X43434000Y-10061000D01*
X46863000Y-9704800D02*
X46506900Y-10060900D01*
X46506900Y-10060900D02*
X45212000Y-10060900D01*
X48080200Y-9614900D02*
X47990300Y-9704800D01*
X47990300Y-9704800D02*
X46863000Y-9704800D01*
%TO.N,C26_1*%
X52309000Y-11328900D02*
X52309000Y-10772900D01*
X52309000Y-10772900D02*
X52742100Y-10339800D01*
X52742100Y-10339800D02*
X52742100Y-9614900D01*
%TO.N,L4_1*%
X52451000Y-30761900D02*
X52513000Y-30823900D01*
X52513000Y-30823900D02*
X59436000Y-30823900D01*
D51*
%TO.N,A3V3_4819*%
X5563100Y-3426900D02*
X4442900Y-3426900D01*
X4442900Y-3426900D02*
X3683000Y-2667000D01*
%TO.N,C245_1*%
X35895200Y-8628700D02*
X35925000Y-8598900D01*
X35925000Y-8598900D02*
X38062900Y-8598900D01*
D59*
%TO.N,U44_5*%
X43104800Y-17742900D02*
X44069000Y-17742900D01*
X44069000Y-17742900D02*
X45593000Y-19266900D01*
D53*
%TO.N,A3V3_3811*%
X40767000Y-16726900D02*
X41783000Y-17742900D01*
X41783000Y-17742900D02*
X42239200Y-17742900D01*
D58*
%TO.N,R28_1*%
X-3480800Y-8852900D02*
X-4168200Y-8852900D01*
X-4168200Y-8852900D02*
X-4422200Y-9106900D01*
X-4422200Y-9106900D02*
X-7244100Y-9106900D01*
X-7244100Y-9106900D02*
X-8511500Y-7839500D01*
D57*
%TO.N,PE4259_3*%
X16588700Y-3630700D02*
X17198300Y-3630700D01*
X17198300Y-3630700D02*
X17907000Y-2922000D01*
D53*
%TO.N,VBAT*%
X9017000Y-25108900D02*
X9077800Y-25048100D01*
X9077800Y-25048100D02*
X11854000Y-25048100D01*
X5969000Y-25108900D02*
X9476400Y-25108900D01*
X9476400Y-25108900D02*
X9537300Y-25048100D01*
%TO.N,A3V3*%
X17018000Y-25071800D02*
X16993900Y-25047800D01*
X16993900Y-25047800D02*
X14054200Y-25047800D01*
X17018000Y-25071800D02*
X17107900Y-24981900D01*
X17107900Y-24981900D02*
X18504900Y-24981900D01*
X18415000Y-23495000D02*
X18504900Y-23584900D01*
X18504900Y-23584900D02*
X18504900Y-24981900D01*
%TO.N,A3V3_3811*%
X19595100Y-24981900D02*
X21717000Y-24981900D01*
D59*
%TO.N,U23_38*%
X23241000Y3302000D02*
X22987000Y3556000D01*
X22987000Y3556000D02*
X22987000Y4901200D01*
%TO.N,U23_37*%
X24765000Y3302000D02*
X24765000Y4774200D01*
X24765000Y4774200D02*
X24638000Y4901200D01*
%TO.N,TX_PDN*%
X-3293400Y-24638000D02*
X-8090900Y-24638000D01*
X-8090900Y-24638000D02*
X-8511500Y-24217400D01*
X-8511500Y-24217400D02*
X-8511500Y-23079500D01*
%TO.N,RX_PDN*%
X-5971500Y-23079500D02*
X-5879000Y-22987000D01*
X-5879000Y-22987000D02*
X-3293400Y-22987000D01*
D53*
%TO.N,U44_8*%
X48133000Y-24384000D02*
X48349900Y-24167100D01*
X48349900Y-24167100D02*
X48349900Y-23584900D01*
X-1786600Y-24638000D02*
X-1575800Y-24848800D01*
X-1575800Y-24848800D02*
X-1575800Y-26162000D01*
D52*
%TO.N,MODR*%
X15746100Y12354200D02*
X15873100Y12481200D01*
D51*
%TO.N,GND*%
X34395200Y-7628700D02*
X34395200Y-8450000D01*
X34395200Y-8450000D02*
X34544000Y-8598900D01*
X34395200Y-7628700D02*
X34395200Y-6672000D01*
X34395200Y-6672000D02*
X33147000Y-5423900D01*
X33147000Y-5423900D02*
X33147000Y-4534900D01*
%TO.N,VCC_LO*%
X31895200Y-7628700D02*
X31895200Y-6712200D01*
X31895200Y-6712200D02*
X31496000Y-6312900D01*
%TO.N,MSPI_MISO*%
X30395200Y-10128800D02*
X22346200Y-10128800D01*
X22346200Y-10128800D02*
X15113000Y-17361900D01*
X15113000Y-17361900D02*
X11811000Y-17361900D01*
X11811000Y-17361900D02*
X11557000Y-17107900D01*
X11557000Y-17107900D02*
X11557000Y-15964900D01*
X11557000Y-15964900D02*
X11557000Y-15710900D01*
%TO.N,MSPI_SCLK*%
X30395200Y-10628700D02*
X22481200Y-10628700D01*
X22481200Y-10628700D02*
X22352000Y-10757900D01*
X22352000Y-10757900D02*
X15113000Y-17996900D01*
X15113000Y-17996900D02*
X13970000Y-17996900D01*
X13970000Y-17996900D02*
X11430000Y-17996900D01*
X11430000Y-17996900D02*
X10541000Y-17107900D01*
X10541000Y-17107900D02*
X10541000Y-13805900D01*
X10541000Y-13805900D02*
X9779000Y-13043900D01*
X9779000Y-13043900D02*
X9652000Y-13043900D01*
D53*
%TO.N,A3V3_3811*%
X24257000Y-20066000D02*
X24257000Y-12408900D01*
X24257000Y-12408900D02*
X24765000Y-11900900D01*
X24765000Y-11900900D02*
X25856200Y-11900900D01*
D58*
%TO.N,C246_2*%
X39370000Y-11101800D02*
X38843200Y-11628700D01*
X38843200Y-11628700D02*
X35895300Y-11628700D01*
%TO.N,C246_1*%
X39370000Y-12192000D02*
X39306800Y-12128800D01*
X39306800Y-12128800D02*
X35895300Y-12128800D01*
%TO.N,U23_1*%
X39370000Y-13768800D02*
X38223000Y-12621800D01*
X38223000Y-12621800D02*
X35881300Y-12621800D01*
%TO.N,U23_40*%
X39370000Y-14859000D02*
X36486100Y-14859000D01*
X36486100Y-14859000D02*
X35395200Y-13768000D01*
X35395200Y-13768000D02*
X35395200Y-13128800D01*
%TO.N,U23_34*%
X32395200Y-13128800D02*
X32347900Y-13176000D01*
X32347900Y-13176000D02*
X32347900Y-16091900D01*
%TO.N,C235_2*%
X31895200Y-13128800D02*
X31895200Y-15094800D01*
X31895200Y-15094800D02*
X30898100Y-16091900D01*
%TO.N,C235_1*%
X31394400Y-13127800D02*
X31394400Y-14034500D01*
X31394400Y-14034500D02*
X29807900Y-15621000D01*
X29807900Y-15621000D02*
X29807900Y-16091900D01*
%TO.N,R116_2*%
X30895200Y-13128800D02*
X28372800Y-15651200D01*
X28372800Y-15651200D02*
X28372800Y-16091900D01*
%TO.N,C236_1*%
X30395100Y-12128800D02*
X30395100Y-12628700D01*
X30395100Y-11628700D02*
X30395100Y-12128800D01*
D53*
%TO.N,A3V3_4819*%
X18415000Y-22404800D02*
X18415000Y-20790900D01*
D59*
%TO.N,C238_1*%
X30696900Y-2248900D02*
X30791900Y-2153900D01*
X30791900Y-2153900D02*
X30791900Y-851900D01*
X30791900Y-851900D02*
X30442900Y-502900D01*
X30442900Y-502900D02*
X30442900Y418100D01*
%TO.N,C239_1*%
X31692100Y-851900D02*
X31787100Y-946900D01*
X31787100Y-946900D02*
X31787100Y-2248900D01*
X31692100Y-851900D02*
X31782000Y-941800D01*
X31782000Y-941800D02*
X33147000Y-941800D01*
X33147000Y-941800D02*
X33236900Y-851900D01*
X33236900Y-851900D02*
X33236900Y545100D01*
X33147000Y-941800D02*
X33236900Y-851900D01*
X33236900Y-851900D02*
X33909000Y-851900D01*
X33909000Y-851900D02*
X34417000Y-1359900D01*
X34417000Y-1359900D02*
X34417000Y-1671800D01*
%TO.N,C241_1*%
X33147000Y-2032000D02*
X33687000Y-2572000D01*
X33687000Y-2572000D02*
X34417000Y-2572000D01*
X34417000Y-2572000D02*
X34703000Y-2286000D01*
X34703000Y-2286000D02*
X35687000Y-2286000D01*
X35052000Y-4116800D02*
X34925000Y-3989800D01*
X34925000Y-3989800D02*
X34925000Y-2883900D01*
X34925000Y-2883900D02*
X34613100Y-2572000D01*
X34613100Y-2572000D02*
X34417000Y-2572000D01*
D51*
%TO.N,VCC_LO*%
X35395200Y-7628700D02*
X36449000Y-6574900D01*
X36449000Y-6574900D02*
X36449000Y-5804900D01*
%TO.N,C244_1*%
X34895200Y-7628700D02*
X34895200Y-5363800D01*
X34895200Y-5363800D02*
X35052000Y-5207000D01*
%TO.N,VCC_RXIF*%
X35895200Y-11128800D02*
X35905400Y-11138900D01*
X35905400Y-11138900D02*
X37338000Y-11138900D01*
X37338000Y-11138900D02*
X38227000Y-11138900D01*
%TO.N,VCC_LNA*%
X35895200Y-10628600D02*
X37848300Y-10628600D01*
X37848300Y-10628600D02*
X38100000Y-10376900D01*
%TO.N,VCC_RF*%
X35895300Y-9128800D02*
X35917100Y-9106900D01*
X35917100Y-9106900D02*
X36957000Y-9106900D01*
X36957000Y-9106900D02*
X37338000Y-9487900D01*
X37338000Y-9487900D02*
X37338000Y-9868900D01*
D57*
%TO.N,L1_1*%
X53609000Y-13309100D02*
X53609000Y-14994900D01*
X53609000Y-14994900D02*
X53594000Y-15009900D01*
%TO.N,C55_1*%
X53594000Y-16410900D02*
X53783000Y-16599900D01*
X53783000Y-16599900D02*
X55207900Y-16599900D01*
X53594000Y-16410900D02*
X53594000Y-18086800D01*
%TO.N,C35_2*%
X53504100Y-20536900D02*
X53504100Y-19266900D01*
X53504100Y-19266900D02*
X53594000Y-19177000D01*
%TO.N,GND*%
X48856400Y-21303000D02*
X49534100Y-21303000D01*
X49534100Y-21303000D02*
X49784000Y-21552900D01*
%TO.N,U44_8*%
X48349900Y-23584900D02*
X48133000Y-23368000D01*
X48133000Y-23368000D02*
X48133000Y-22695900D01*
X48133000Y-22695900D02*
X48525900Y-22303000D01*
X48525900Y-22303000D02*
X48856400Y-22303000D01*
%TO.N,R27_2*%
X31623000Y-27699700D02*
X31620500Y-30191500D01*
%TO.N,NC_2*%
X56171100Y-19139900D02*
X56208200Y-19177000D01*
X56208200Y-19177000D02*
X57461900Y-19177000D01*
%TO.N,C236_1*%
X25654000Y-13260800D02*
X27051000Y-13260800D01*
%TO.N,U23_36*%
X26162000Y3302000D02*
X26035000Y3429000D01*
X26035000Y3429000D02*
X26035000Y4901200D01*
%TO.N,GND*%
X52959000Y-13309100D02*
X52409200Y-13309100D01*
X52409200Y-13309100D02*
X52309000Y-13208900D01*
X50711600Y-21802900D02*
X50711600Y-21303000D01*
%TO.N,U44_5*%
X45593000Y-19266900D02*
X47714900Y-19266900D01*
D52*
%TO.N,C35_2*%
X53594000Y-19177000D02*
X53631100Y-19139900D01*
X53631100Y-19139900D02*
X55080900Y-19139900D01*
%TO.N,C6_1*%
X56298100Y-16599900D02*
X58355000Y-16599900D01*
D57*
%TO.N,GND*%
X52959000Y-13208900D02*
X52959000Y-11328900D01*
D52*
%TO.N,L14_1*%
X48947800Y-9614900D02*
X51651900Y-9614900D01*
%TO.N,GND*%
X50292000Y-10795000D02*
X50292000Y-12154900D01*
X46863000Y-10795000D02*
X46863000Y-12408900D01*
X59182000Y-19177000D02*
X59182000Y-19177000D01*
X59182000Y-19177000D02*
X58361800Y-19177000D01*
X49276000Y-18123900D02*
X49276000Y-19012900D01*
X49276000Y-19012900D02*
X49022000Y-19266900D01*
X49022000Y-19266900D02*
X48806100Y-19266900D01*
X51562000Y-21552900D02*
X50711600Y-21552900D01*
X35687000Y-1195800D02*
X35687000Y127000D01*
X50673000Y-23584900D02*
X49440100Y-23584900D01*
X50711600Y-21552900D02*
X49784000Y-21552900D01*
X41910000Y-9779000D02*
X41910000Y-11011900D01*
X29083000Y-8852900D02*
X30395200Y-8852900D01*
X31623000Y-8598900D02*
X31593300Y-8628600D01*
X31593300Y-8628600D02*
X30395200Y-8628600D01*
%TO.N,MODR*%
X-2413000Y2210800D02*
X-2413000Y3683000D01*
D58*
%TO.N,A3V3_4819*%
X7020100Y-6084100D02*
X7020100Y-7364000D01*
X7020100Y-7364000D02*
X7620000Y-7963900D01*
D51*
%TO.N,BK4819_18*%
X9676900Y-5026900D02*
X10684000Y-5026900D01*
X10684000Y-5026900D02*
X11049000Y-4661900D01*
%TO.N,RF_TX_4819*%
X9676900Y-5427000D02*
X13623000Y-5427000D01*
X13623000Y-5427000D02*
X13716000Y-5334000D01*
D52*
%TO.N,PE4259_4*%
X13589000Y-2173700D02*
X13655500Y-2240300D01*
X13655500Y-2240300D02*
X16256000Y-2240300D01*
X14908000Y-3630900D02*
X14080000Y-2802900D01*
X14080000Y-2802900D02*
X14080000Y-2240300D01*
%TO.N,PE4259_6*%
X14908000Y-4930900D02*
X14859000Y-4979900D01*
X14859000Y-4979900D02*
X14859000Y-6829600D01*
X14859000Y-6829600D02*
X14904700Y-6783800D01*
X14904700Y-6783800D02*
X16256000Y-6783800D01*
%TO.N,C105_2*%
X19304000Y-1830800D02*
X19087100Y-1613900D01*
X19087100Y-1613900D02*
X19087100Y-216900D01*
%TO.N,RF_TX*%
X17907000Y-1830800D02*
X17996900Y-1740900D01*
X17996900Y-1740900D02*
X17996900Y-216900D01*
%TO.N,C105_2*%
X21144000Y-216900D02*
X21171900Y-189000D01*
X21171900Y-189000D02*
X21171900Y1307100D01*
%TO.N,C103_1*%
X22544000Y-216900D02*
X22262100Y65000D01*
X22262100Y65000D02*
X22262100Y1307100D01*
%TO.N,C105_2*%
X19087100Y-216900D02*
X21144000Y-216900D01*
%TO.N,PE4259_CTL_LMX_CE*%
X16256000Y-733500D02*
X16129000Y-606500D01*
X16129000Y-606500D02*
X16129000Y2577100D01*
X16129000Y2577100D02*
X13843000Y4863100D01*
X13843000Y4863100D02*
X11684000Y4863100D01*
D58*
%TO.N,SPI3_MOSI*%
X8219400Y-1969500D02*
X8255000Y-1969500D01*
D57*
%TO.N,BK4819_15*%
X10287000Y-8688800D02*
X10376900Y-8598900D01*
X10376900Y-8598900D02*
X11773900Y-8598900D01*
D58*
X8620000Y-6084100D02*
X8620000Y-6677900D01*
X8620000Y-6677900D02*
X10287000Y-8344900D01*
X10287000Y-8344900D02*
X10287000Y-8688800D01*
%TO.N,XI*%
X4101100Y-4280900D02*
X4154900Y-4227100D01*
X4154900Y-4227100D02*
X5563100Y-4227100D01*
D59*
%TO.N,PE4259_5*%
X13716000Y-4243800D02*
X13753100Y-4280900D01*
X13753100Y-4280900D02*
X14908000Y-4280900D01*
%TO.N,R26_2*%
X-3479800Y-10376900D02*
X-5971500Y-10379500D01*
D57*
%TO.N,3811_RXLO*%
X20701000Y-4915900D02*
X20409900Y-5207000D01*
X20409900Y-5207000D02*
X19595100Y-5207000D01*
%TO.N,A3V3_4819*%
X14859000Y-8336300D02*
X14486700Y-7963900D01*
X14486700Y-7963900D02*
X14186900Y-7963900D01*
X14186900Y-7963900D02*
X13335000Y-7112000D01*
D52*
%TO.N,C228_2*%
X10287000Y-9779000D02*
X10503900Y-9995900D01*
X10503900Y-9995900D02*
X11773900Y-9995900D01*
D59*
%TO.N,C238_1*%
X28612100Y-2248900D02*
X30696900Y-2248900D01*
D57*
%TO.N,L4_1*%
X50291500Y-30569900D02*
X50483500Y-30761900D01*
X50483500Y-30761900D02*
X52451000Y-30761900D01*
%TO.N,L3_1*%
X48006500Y-30569900D02*
X48349900Y-30913300D01*
X48349900Y-30913300D02*
X48349900Y-32601900D01*
X45847000Y-30507900D02*
X45909000Y-30569900D01*
X45909000Y-30569900D02*
X48006500Y-30569900D01*
X43434000Y-30823400D02*
X43749500Y-30507900D01*
X43749500Y-30507900D02*
X45847000Y-30507900D01*
X43434000Y-30823400D02*
X42864500Y-30253900D01*
X42864500Y-30253900D02*
X41148000Y-30253900D01*
%TO.N,L4_1*%
X50291500Y-30569900D02*
X49440100Y-31421300D01*
X49440100Y-31421300D02*
X49440100Y-32601900D01*
%TO.N,L3_2*%
X41148000Y-28853900D02*
X41463500Y-28538400D01*
X41463500Y-28538400D02*
X43434000Y-28538400D01*
X42734000Y-26378900D02*
X42037500Y-25682400D01*
X42037500Y-25682400D02*
X42037500Y-23838900D01*
X43434000Y-28538400D02*
X42734000Y-27838400D01*
X42734000Y-27838400D02*
X42734000Y-26378900D01*
X43141900Y-21806900D02*
X42545000Y-21806900D01*
X42545000Y-21806900D02*
X42037000Y-22314900D01*
X42037000Y-22314900D02*
X42037000Y-23838900D01*
%TO.N,L5_2*%
X46228000Y-23546800D02*
X44323000Y-23546800D01*
X44323000Y-23546800D02*
X44323000Y-23838900D01*
%TO.N,U44_1*%
X50711100Y-22302200D02*
X51168300Y-22302200D01*
X51168300Y-22302200D02*
X51943000Y-23076900D01*
X51943000Y-23076900D02*
X52412900Y-23076900D01*
%TD*%
M02*
