%TF.GenerationSoftware,KiCad,Pcbnew,8.0.6*%
%TF.CreationDate,2024-11-23T19:50:46+06:00*%
%TF.ProjectId,sicomm_slaveboard_BK4819_v2,7369636f-6d6d-45f7-936c-617665626f61,rev?*%
%TF.SameCoordinates,Original*%
%TF.FileFunction,Copper,L2,Inr*%
%TF.FilePolarity,Positive*%
%FSLAX46Y46*%
G04 Gerber Fmt 4.6, Leading zero omitted, Abs format (unit mm)*
G04 Created by KiCad (PCBNEW 8.0.6) date 2024-11-23 19:50:46*
%MOMM*%
%LPD*%
G01*
G04 APERTURE LIST*
%TA.AperFunction,ComponentPad*%
%ADD10O,1.800000X1.800000*%
%TD*%
%TA.AperFunction,ComponentPad*%
%ADD11O,1.700000X1.700000*%
%TD*%
%TA.AperFunction,ComponentPad*%
%ADD12R,1.700000X1.700000*%
%TD*%
%TA.AperFunction,ComponentPad*%
%ADD13R,1.800000X1.574800*%
%TD*%
%TA.AperFunction,ComponentPad*%
%ADD14O,5.000000X5.000000*%
%TD*%
%TA.AperFunction,ViaPad*%
%ADD15C,0.600000*%
%TD*%
%TA.AperFunction,ViaPad*%
%ADD16C,0.500000*%
%TD*%
%TA.AperFunction,ViaPad*%
%ADD17C,1.200000*%
%TD*%
%TA.AperFunction,ViaPad*%
%ADD18C,1.000000*%
%TD*%
%TA.AperFunction,ViaPad*%
%ADD19C,0.800000*%
%TD*%
%TA.AperFunction,ViaPad*%
%ADD20C,0.620000*%
%TD*%
%TA.AperFunction,Conductor*%
%ADD21C,0.600000*%
%TD*%
G04 APERTURE END LIST*
D10*
%TO.N,N/C*%
%TO.C,JP3*%
X13333200Y12481100D03*
X13333200Y15021100D03*
%TO.N,MODR*%
X15873200Y12481100D03*
%TO.N,N/C*%
X15873200Y15021100D03*
%TO.N,GND*%
X18413200Y12481100D03*
X18413200Y15021100D03*
%TO.N,LINP*%
X20953200Y12481100D03*
%TO.N,LINN*%
X20953200Y15021100D03*
%TO.N,RINN*%
X23493200Y12481100D03*
%TO.N,RINP*%
X23493200Y15021100D03*
%TO.N,GND*%
X26033200Y12481100D03*
X26033200Y15021100D03*
%TO.N,N/C*%
X28573200Y12481100D03*
X28573200Y15021100D03*
%TD*%
D11*
%TO.N,PE4259_CTL_LMX_CE*%
%TO.C,JP2*%
X-8510800Y-218900D03*
%TO.N,N/C*%
X-5970800Y-218900D03*
X-8510800Y-2758900D03*
%TO.N,GND*%
X-5970800Y-2758900D03*
%TO.N,N/C*%
X-8510800Y-5298900D03*
X-5970800Y-5298900D03*
%TO.N,R28_1*%
X-8510800Y-7838900D03*
%TO.N,N/C*%
X-5970800Y-7838900D03*
%TO.N,MSPI_MOSI*%
X-8510800Y-10378900D03*
%TO.N,R26_2*%
X-5970800Y-10378900D03*
%TO.N,MSPI_MISO*%
X-8510800Y-12918900D03*
%TO.N,MSPI_SCLK*%
X-5970800Y-12918900D03*
%TO.N,MSPI_CS1*%
X-8510800Y-15458900D03*
%TO.N,N/C*%
X-5970800Y-15458900D03*
%TO.N,LD_SPI3_CS*%
X-8510800Y-17998900D03*
%TO.N,SPI3_SCK*%
X-5970800Y-17998900D03*
%TO.N,N/C*%
X-8510800Y-20538900D03*
%TO.N,SPI3_MOSI*%
X-5970800Y-20538900D03*
%TO.N,TX_PDN*%
X-8510800Y-23078900D03*
D12*
%TO.N,RX_PDN*%
X-5970800Y-23078700D03*
%TD*%
D10*
%TO.N,GND*%
%TO.C,JP1*%
X-3938800Y-32730900D03*
X-3938800Y-30190900D03*
%TO.N,VBAT*%
X-1398800Y-32730900D03*
X-1398800Y-30190900D03*
%TO.N,N/C*%
X1141200Y-32730900D03*
X1141200Y-30190900D03*
X3681200Y-32730900D03*
X3681200Y-30190900D03*
X6221200Y-32730900D03*
X6221200Y-30190900D03*
X8761200Y-32730900D03*
X8761200Y-30190900D03*
X11301200Y-32730900D03*
X11301200Y-30190900D03*
X13841200Y-32730900D03*
X13841200Y-30190900D03*
X16381200Y-32730900D03*
X16381200Y-30190900D03*
X18921200Y-32730900D03*
X18921200Y-30190900D03*
X21461200Y-32730900D03*
X21461200Y-30190900D03*
X24001200Y-32730900D03*
X24001200Y-30190900D03*
X26541200Y-32730900D03*
X26541200Y-30190900D03*
X29081200Y-32730900D03*
X29081200Y-30190900D03*
%TO.N,GND*%
X31621200Y-32730900D03*
D13*
%TO.N,R27_2*%
X31621200Y-30190700D03*
%TD*%
D14*
%TO.N,GND*%
%TO.C,Pad_gge111627*%
X-6223000Y13499100D03*
%TD*%
%TO.N,GND*%
%TO.C,Pad_gge189569*%
X57150000Y13589000D03*
%TD*%
%TO.N,GND*%
%TO.C,Pad_gge290440*%
X59182000Y-24727900D03*
%TD*%
%TO.N,GND*%
%TO.C,Pad_gge303765*%
X-7620000Y-27813000D03*
%TD*%
D15*
%TO.N,GND*%
X2451636Y2158100D03*
D16*
X31623000Y-12154900D03*
X31623000Y-11265900D03*
X31623000Y-10376900D03*
X31623000Y-9487900D03*
X31623000Y-8598900D03*
X33147000Y-8598900D03*
X33147000Y-9487900D03*
X33147000Y-10376900D03*
X33147000Y-11265900D03*
X33147000Y-12154900D03*
X34544000Y-12154900D03*
X34544000Y-11265900D03*
X34544000Y-10376900D03*
X34544000Y-9487900D03*
X34544000Y-8598900D03*
%TO.N,U23_36*%
X33401000Y-14567900D03*
%TO.N,U23_37*%
X34036000Y-15367000D03*
%TO.N,U23_38*%
X34798000Y-15748000D03*
%TO.N,U23_39*%
X35433000Y-16256000D03*
D15*
%TO.N,U23_36*%
X26162000Y3302000D03*
%TO.N,U23_37*%
X24765000Y3302000D03*
%TO.N,U23_38*%
X23241000Y3302000D03*
%TO.N,U23_39*%
X21717000Y3175000D03*
D16*
%TO.N,VCC_LO*%
X31496000Y-6312900D03*
%TO.N,MSPI_CS1*%
X12700000Y-16599900D03*
%TO.N,MSPI_MISO*%
X11557000Y-15710900D03*
%TO.N,MSPI_SCLK*%
X9652000Y-13043900D03*
D17*
%TO.N,VBAT*%
X5969000Y-25108900D03*
D18*
%TO.N,A3V3_3811*%
X21717000Y-24981900D03*
X24257000Y-20066000D03*
D16*
%TO.N,VCC_LO*%
X36449000Y-5804900D03*
D15*
%TO.N,U44_8*%
X2921000Y-28410900D03*
D16*
X48133000Y-24384000D03*
D15*
%TO.N,U44_5*%
X3810000Y-27305000D03*
X45593000Y-19266900D03*
D18*
%TO.N,A3V3_3811*%
X40767000Y-5042900D03*
X54737000Y-4953000D03*
%TO.N,A3V3_4819*%
X18415000Y-20790900D03*
D19*
%TO.N,MODR*%
X-2413000Y3683000D03*
D16*
%TO.N,VCC_RXIF*%
X38227000Y-11138900D03*
%TO.N,VCC_LNA*%
X38100000Y-10376900D03*
%TO.N,VCC_RF*%
X37338000Y-9868900D03*
D15*
%TO.N,GND*%
X56261000Y-28283900D03*
X54737000Y-28283900D03*
D18*
X52400000Y-27902900D03*
D15*
X56388000Y-32728900D03*
X54991000Y-32728900D03*
X53721000Y-32855900D03*
X50927000Y-27902900D03*
X49530000Y-27902900D03*
X47879000Y-27902900D03*
D18*
X45800000Y-27648900D03*
X46228000Y-26101000D03*
D15*
X50673000Y-23584900D03*
X49657000Y-26543000D03*
X52197000Y-26543000D03*
X55372000Y-24727900D03*
X56007000Y-26543000D03*
X54356000Y-26543000D03*
X52324000Y-32982900D03*
X50927000Y-32982900D03*
X49911000Y-33871900D03*
X48260000Y-33871900D03*
X46736000Y-33871900D03*
X44831000Y-33871900D03*
X34163000Y-33655000D03*
X39624000Y-26924000D03*
X34290000Y-31623000D03*
X34163000Y-29718000D03*
X34290000Y-27940000D03*
X42926000Y-20320000D03*
X44450000Y-20320000D03*
X45974000Y-20320000D03*
X61214000Y-21336000D03*
X61087000Y-19177000D03*
X61087000Y-16980900D03*
X61087000Y-14605000D03*
X61087000Y-12700000D03*
X61087000Y-10414000D03*
X60960000Y-8255000D03*
X61087000Y-6096000D03*
X61214000Y-3937000D03*
X57531000Y-15075900D03*
X57531000Y-13932900D03*
X57785000Y-12573000D03*
X57785000Y-11176000D03*
X57785000Y-9652000D03*
X57658000Y-7366000D03*
X57658000Y-5969000D03*
X53975000Y-1905000D03*
X52070000Y-1905000D03*
X44196000Y-1740900D03*
X41656000Y-1740900D03*
X39878000Y-1740900D03*
X55372000Y-15456900D03*
X55626000Y-14059900D03*
X51181000Y-7874000D03*
X49657000Y-7874000D03*
X47371000Y-7874000D03*
X45974000Y-6985000D03*
X54737000Y-3429000D03*
X52705000Y-3556000D03*
X50673000Y-3556000D03*
X48768000Y-3683000D03*
X41910000Y-11011900D03*
X41910000Y-12700000D03*
X41783000Y-14097000D03*
X41656000Y-15583900D03*
X49276000Y-18123900D03*
X50292000Y-13297900D03*
X50292000Y-12154900D03*
X48514000Y-12154900D03*
X46863000Y-12408900D03*
X44704000Y-12281900D03*
X43307000Y-14097000D03*
X45974000Y-15456900D03*
X49657000Y-15494000D03*
X47371000Y-14859000D03*
X45085000Y-13932900D03*
X48260000Y-13932900D03*
X35052000Y-17907000D03*
X39116000Y-15964900D03*
X38227000Y-16764000D03*
X37338000Y-17488900D03*
X36195000Y-18415000D03*
X35179000Y-19431000D03*
X25654000Y-21044900D03*
X25654000Y-19304000D03*
X27178000Y-19177000D03*
X29464000Y-19050000D03*
X29083000Y-8852900D03*
X27559000Y-8852900D03*
X19050000Y-11049000D03*
X17653000Y-12446000D03*
X16002000Y-13043900D03*
X14732000Y-11900900D03*
X13970000Y-10795000D03*
X-1651000Y-15329900D03*
X3302000Y-22225000D03*
X5969000Y-23114000D03*
X7239000Y-21463000D03*
X10160000Y-22733000D03*
X8382000Y-19558000D03*
X10160000Y-19939000D03*
X11938000Y-20155900D03*
X14097000Y-20028900D03*
X16129000Y-19812000D03*
X12192000Y-22695900D03*
X13716000Y-22695900D03*
X19304000Y-15964900D03*
X17399000Y-10376900D03*
X16256000Y-9017000D03*
X15748000Y-10249900D03*
X27305000Y-5423900D03*
X28448000Y-4445000D03*
X29845000Y-4407900D03*
X29845000Y-5804900D03*
X27940000Y-6947900D03*
X28575000Y-851900D03*
X27178000Y-851900D03*
X17272000Y8546100D03*
X17145000Y6895100D03*
X16891000Y4990100D03*
X17145000Y2704100D03*
X30607000Y-20409900D03*
X33147000Y-19266900D03*
X53340000Y16039100D03*
X49784000Y16039100D03*
X46609000Y9689100D03*
X43180000Y16166100D03*
X46228000Y16039100D03*
X40640000Y16166100D03*
X38481000Y16166100D03*
X36322000Y16166100D03*
X34290000Y16166100D03*
X28956000Y6477000D03*
X30353000Y5207000D03*
X28702000Y2921000D03*
X28575000Y1270000D03*
X39243000Y799100D03*
X41529000Y1942100D03*
X49784000Y2794000D03*
X47752000Y2286000D03*
X59944000Y15912100D03*
X381000Y14261100D03*
X4699000Y14515100D03*
X8509000Y15023100D03*
X-7366000Y9562100D03*
X-8255000Y7403100D03*
X-8890000Y4609100D03*
X-8128000Y-32347900D03*
X-6477000Y-33363900D03*
X35687000Y127000D03*
X39751000Y5334000D03*
X41529000Y3847100D03*
X44196000Y3339100D03*
X45847000Y381000D03*
X762000Y11049000D03*
X3302000Y11811000D03*
X6096000Y11938000D03*
X8509000Y11938000D03*
X10795000Y11938000D03*
X-5334000Y1561100D03*
X-1270000Y-10541000D03*
X38989000Y3175000D03*
X36195000Y1524000D03*
X41529000Y-3556000D03*
X39243000Y-3645900D03*
X51562000Y-21552900D03*
D19*
X59182000Y-19177000D03*
D16*
X49784000Y-21552900D03*
D20*
%TO.N,A3V3_4819*%
X7620000Y-7963900D03*
%TO.N,BK4819_18*%
X11049000Y-4661900D03*
%TO.N,PE4259_CTL_LMX_CE*%
X11684000Y4863100D03*
D15*
%TO.N,SPI3_MOSI*%
X10414000Y508000D03*
%TO.N,LD_SPI3_CS*%
X10160000Y-635000D03*
%TO.N,SPI3_SCK*%
X9906000Y-1524000D03*
%TO.N,A3V3_4819*%
X3683000Y-2667000D03*
D20*
X254000Y2450100D03*
D15*
%TO.N,GND*%
X-1524000Y12827000D03*
X-3048000Y11303000D03*
X-4953000Y9017000D03*
X16891000Y10287000D03*
X14859000Y9017000D03*
X12319000Y8890000D03*
X9779000Y8890000D03*
X6858000Y9054100D03*
X4318000Y8927100D03*
X1270000Y6006100D03*
X4191000Y6133100D03*
X7366000Y6133100D03*
X11303000Y6387100D03*
X14859000Y6133100D03*
X13081000Y3085100D03*
X11049000Y3810000D03*
X13589000Y-381000D03*
X889000Y3847100D03*
X508000Y-10287000D03*
X3175000Y-10287000D03*
X1905000Y-8471900D03*
X762000Y-6350000D03*
X-1270000Y-8344900D03*
D20*
%TO.N,A3V3_4819*%
X13335000Y-7112000D03*
D15*
%TO.N,GND*%
X39751000Y-31458900D03*
X32258000Y6006100D03*
X61087000Y-33363900D03*
X59436000Y-33363900D03*
X57785000Y-33363900D03*
X57912000Y-28283900D03*
X59563000Y-28283900D03*
X61214000Y-28283900D03*
X43307000Y-33998900D03*
X41656000Y-33871900D03*
X40640000Y-32728900D03*
X39624000Y-29807900D03*
X39624000Y-28410900D03*
X57404000Y-3429000D03*
X56134000Y-1905000D03*
D16*
X7620000Y-4027200D03*
X7620000Y-3010900D03*
X8636000Y-3010900D03*
X8636000Y-4026900D03*
X8636000Y-5042900D03*
X7620000Y-5042900D03*
X6604000Y-3010900D03*
X6604000Y-4027200D03*
X6604000Y-5042900D03*
D15*
%TO.N,A3V3_3811*%
X40767000Y-16726900D03*
%TO.N,MSPI_MOSI*%
X2921000Y-12065000D03*
D19*
%TO.N,C103_1*%
X22987000Y-2667000D03*
X53467000Y-24384000D03*
D15*
%TO.N,GND*%
X14859000Y0D03*
X17526000Y-4318000D03*
X19812000Y-3937000D03*
X20955000Y-4064000D03*
X2413000Y1143000D03*
X54229000Y-7747000D03*
X13843000Y-9398000D03*
X17399000Y-8763000D03*
X27940000Y-14986000D03*
X28829000Y-14097000D03*
D19*
X8001000Y-26289000D03*
D15*
X254000Y-26162000D03*
X34417000Y1651000D03*
D19*
X31496000Y1524000D03*
D15*
X31496000Y3175000D03*
X35814000Y-26797000D03*
X37846000Y-26797000D03*
X40132000Y-22860000D03*
X41148000Y-21336000D03*
X59563000Y-2042000D03*
X60960000Y-2032000D03*
X58039000Y-2032000D03*
X58166000Y3048000D03*
X59690000Y3038000D03*
X61087000Y3048000D03*
X50038000Y-1778000D03*
X47752000Y-1905000D03*
X46482000Y-3683000D03*
X56388000Y2794000D03*
X53975000Y2794000D03*
X51816000Y2794000D03*
X37719000Y-2540000D03*
X43815000Y-3556000D03*
X51181000Y-6223000D03*
X49530000Y-6223000D03*
X47371000Y-6223000D03*
X44196000Y-7366000D03*
X51689000Y-14478000D03*
X51562000Y-16129000D03*
X51562000Y-17653000D03*
X51562000Y-19050000D03*
X48133000Y-16383000D03*
X46355000Y-17780000D03*
X44069000Y-16002000D03*
X37719000Y-1016000D03*
X37338000Y508000D03*
X28956000Y9017000D03*
X29083000Y10668000D03*
X27178000Y889000D03*
X27305000Y2667000D03*
X27305000Y4699000D03*
X27305000Y6604000D03*
X27178000Y8636000D03*
D17*
X27178000Y10541000D03*
D15*
X19304000Y9652000D03*
X19939000Y7366000D03*
X19812000Y4699000D03*
X20193000Y2921000D03*
X18796000Y2159000D03*
X17145000Y1270000D03*
X14605000Y1905000D03*
D18*
X-500000Y-6000000D03*
D15*
X-2159000Y-5715000D03*
X-3175000Y-4826000D03*
X-3937000Y-3556000D03*
X-3937000Y-2159000D03*
X-3937000Y-381000D03*
X-4064000Y1651000D03*
X-4064000Y3683000D03*
X-3556000Y6477000D03*
X-1905000Y8001000D03*
X-635000Y9271000D03*
X4699000Y127000D03*
X2507488Y3758100D03*
X3683000Y1778000D03*
X5588000Y1778000D03*
X7493000Y1651000D03*
X9144000Y1651000D03*
X21844000Y-8128000D03*
X21844000Y-6477000D03*
X25527000Y-23876000D03*
X27178000Y-23876000D03*
X29083000Y-23876000D03*
X30988000Y-23495000D03*
X32512000Y-22098000D03*
X33782000Y-20828000D03*
X28321000Y-22098000D03*
X28575000Y-20701000D03*
X20447000Y-14986000D03*
X21590000Y-13716000D03*
X22098000Y-15113000D03*
X21971000Y-17018000D03*
X21971000Y-18796000D03*
X21971000Y-20828000D03*
X21971000Y-22733000D03*
X4699000Y-11557000D03*
X508000Y-12319000D03*
X508000Y-15367000D03*
X2794000Y-15367000D03*
X-3429000Y-15367000D03*
X5080000Y-20574000D03*
X6858000Y-18288000D03*
X35433000Y10922000D03*
X37973000Y10795000D03*
X41021000Y10668000D03*
X46355000Y12065000D03*
X53594000Y9398000D03*
X48387000Y7112000D03*
X41529000Y7747000D03*
X36068000Y8128000D03*
X37084000Y12827000D03*
X42926000Y13462000D03*
X49784000Y13462000D03*
X51435000Y11176000D03*
X51689000Y5969000D03*
X50292000Y9525000D03*
X32385000Y12954000D03*
X32004000Y9906000D03*
X31242000Y8128000D03*
X47117000Y4699000D03*
X38354000Y6604000D03*
X36322000Y4572000D03*
X54737000Y5842000D03*
X56896000Y9779000D03*
X55372000Y-22987000D03*
X55372000Y-21336000D03*
X57277000Y-20447000D03*
X42672000Y508000D03*
X44450000Y7366000D03*
X2032000Y-26289000D03*
X20447000Y-9525000D03*
X12446000Y-13335000D03*
X13716000Y-15113000D03*
X8382000Y-9652000D03*
X7366000Y-10668000D03*
X6350000Y-12065000D03*
X9398000Y-15621000D03*
X3302000Y-7747000D03*
X5461000Y-9398000D03*
X2667000Y-6223000D03*
X36830000Y-29718000D03*
X36957000Y-32004000D03*
X37084000Y-34290000D03*
X19939000Y-7620000D03*
%TD*%
D21*
%TO.N,MODR*%
X-2413000Y3682000D02*
X-2413000Y5460000D01*
X-2413000Y5460000D02*
X2451100Y10324100D01*
X2451100Y10324100D02*
X14605000Y10324100D01*
X14605000Y10324100D02*
X15872500Y11591500D01*
X15872500Y11591500D02*
X15872500Y12480500D01*
%TD*%
%TA.AperFunction,Conductor*%
%TO.N,GND*%
G36*
X61420121Y16280598D02*
G01*
X61466614Y16226942D01*
X61478000Y16174600D01*
X61478000Y-22472865D01*
X61457998Y-22540986D01*
X61404342Y-22587479D01*
X61334068Y-22597583D01*
X61269488Y-22568089D01*
X61260351Y-22559332D01*
X61244141Y-22542150D01*
X60976453Y-22317534D01*
X60684493Y-22125509D01*
X60372209Y-21968673D01*
X60043847Y-21849159D01*
X60043842Y-21849158D01*
X59703811Y-21768568D01*
X59703805Y-21768567D01*
X59356727Y-21728000D01*
X59309000Y-21728000D01*
X59309000Y-23229317D01*
X59300053Y-23227900D01*
X59063947Y-23227900D01*
X59055000Y-23229317D01*
X59055000Y-21728000D01*
X59007273Y-21728000D01*
X58660194Y-21768567D01*
X58660188Y-21768568D01*
X58320157Y-21849158D01*
X58320152Y-21849159D01*
X57991790Y-21968673D01*
X57679506Y-22125509D01*
X57387546Y-22317534D01*
X57119857Y-22542152D01*
X57119851Y-22542157D01*
X56880049Y-22796332D01*
X56880049Y-22796333D01*
X56671382Y-23076618D01*
X56671365Y-23076645D01*
X56496649Y-23379263D01*
X56496646Y-23379268D01*
X56358242Y-23700127D01*
X56358240Y-23700133D01*
X56258016Y-24034902D01*
X56197334Y-24379047D01*
X56197334Y-24379053D01*
X56184413Y-24600899D01*
X56184413Y-24600900D01*
X57683417Y-24600900D01*
X57682000Y-24609847D01*
X57682000Y-24845953D01*
X57683417Y-24854900D01*
X56184413Y-24854900D01*
X56197334Y-25076746D01*
X56197334Y-25076752D01*
X56258016Y-25420897D01*
X56358240Y-25755666D01*
X56358242Y-25755672D01*
X56496646Y-26076531D01*
X56496649Y-26076536D01*
X56671365Y-26379154D01*
X56671382Y-26379181D01*
X56880049Y-26659466D01*
X56880049Y-26659467D01*
X57119851Y-26913642D01*
X57119857Y-26913647D01*
X57387546Y-27138265D01*
X57679506Y-27330290D01*
X57991790Y-27487126D01*
X58320152Y-27606640D01*
X58320157Y-27606641D01*
X58660188Y-27687231D01*
X58660194Y-27687232D01*
X59007273Y-27727800D01*
X59055000Y-27727800D01*
X59055000Y-26226482D01*
X59063947Y-26227900D01*
X59300053Y-26227900D01*
X59309000Y-26226482D01*
X59309000Y-27727800D01*
X59356727Y-27727800D01*
X59703805Y-27687232D01*
X59703811Y-27687231D01*
X60043842Y-27606641D01*
X60043847Y-27606640D01*
X60372209Y-27487126D01*
X60684493Y-27330290D01*
X60976453Y-27138265D01*
X61244140Y-26913650D01*
X61260349Y-26896469D01*
X61321645Y-26860645D01*
X61392578Y-26863647D01*
X61450628Y-26904521D01*
X61477364Y-26970291D01*
X61478000Y-26982934D01*
X61478000Y-34769400D01*
X61457998Y-34837521D01*
X61404342Y-34884014D01*
X61352000Y-34895400D01*
X-9782933Y-34895400D01*
X-9851054Y-34875398D01*
X-9897547Y-34821742D01*
X-9908930Y-34768485D01*
X-9900398Y-33593681D01*
X-9875068Y-30106151D01*
X-9854571Y-30038180D01*
X-9800580Y-29992078D01*
X-9730234Y-29982485D01*
X-9668080Y-30010548D01*
X-9414459Y-30223362D01*
X-9122494Y-30415390D01*
X-8810210Y-30572226D01*
X-8481848Y-30691740D01*
X-8481843Y-30691741D01*
X-8141812Y-30772331D01*
X-8141806Y-30772332D01*
X-7794727Y-30812900D01*
X-7747000Y-30812900D01*
X-7747000Y-29311582D01*
X-7738053Y-29313000D01*
X-7501947Y-29313000D01*
X-7493000Y-29311582D01*
X-7493000Y-30812900D01*
X-7445273Y-30812900D01*
X-7098195Y-30772332D01*
X-7098189Y-30772331D01*
X-6758158Y-30691741D01*
X-6758153Y-30691740D01*
X-6429791Y-30572226D01*
X-6117507Y-30415390D01*
X-5825547Y-30223365D01*
X-5557859Y-29998749D01*
X-5552346Y-29992905D01*
X-5491053Y-29957076D01*
X-5420119Y-29960073D01*
X-5362067Y-30000943D01*
X-5339234Y-30057101D01*
X-5332975Y-30063900D01*
X-4422408Y-30063900D01*
X-4438800Y-30125074D01*
X-4438800Y-30256726D01*
X-4422408Y-30317900D01*
X-5332975Y-30317900D01*
X-5324339Y-30422113D01*
X-5267390Y-30647001D01*
X-5267387Y-30647008D01*
X-5174196Y-30859461D01*
X-5047307Y-31053679D01*
X-4890179Y-31224367D01*
X-4714032Y-31361468D01*
X-4672561Y-31419093D01*
X-4668827Y-31489992D01*
X-4704017Y-31551654D01*
X-4714032Y-31560332D01*
X-4890179Y-31697432D01*
X-5047307Y-31868120D01*
X-5174196Y-32062338D01*
X-5267387Y-32274791D01*
X-5267390Y-32274798D01*
X-5324339Y-32499686D01*
X-5332975Y-32603900D01*
X-4422408Y-32603900D01*
X-4438800Y-32665074D01*
X-4438800Y-32796726D01*
X-4422408Y-32857900D01*
X-5332975Y-32857900D01*
X-5324339Y-32962113D01*
X-5267390Y-33187001D01*
X-5267387Y-33187008D01*
X-5174196Y-33399461D01*
X-5047307Y-33593679D01*
X-4890179Y-33764367D01*
X-4707098Y-33906865D01*
X-4707097Y-33906866D01*
X-4503061Y-34017285D01*
X-4503058Y-34017286D01*
X-4283638Y-34092613D01*
X-4283629Y-34092615D01*
X-4065801Y-34128963D01*
X-4065800Y-34128963D01*
X-4065800Y-33214508D01*
X-4004626Y-33230900D01*
X-3872974Y-33230900D01*
X-3811800Y-33214508D01*
X-3811800Y-34128963D01*
X-3593972Y-34092615D01*
X-3593963Y-34092613D01*
X-3374543Y-34017286D01*
X-3374540Y-34017285D01*
X-3170504Y-33906866D01*
X-3170503Y-33906865D01*
X-2987422Y-33764367D01*
X-2830295Y-33593681D01*
X-2774583Y-33508406D01*
X-2720580Y-33462317D01*
X-2650232Y-33452741D01*
X-2585874Y-33482717D01*
X-2563617Y-33508402D01*
X-2507699Y-33593991D01*
X-2350858Y-33764367D01*
X-2350515Y-33764739D01*
X-2228724Y-33859532D01*
X-2167910Y-33906866D01*
X-2167371Y-33907285D01*
X-1963262Y-34017744D01*
X-1743756Y-34093100D01*
X-1514840Y-34131300D01*
X-1514836Y-34131300D01*
X-1282764Y-34131300D01*
X-1282760Y-34131300D01*
X-1053844Y-34093100D01*
X-834338Y-34017744D01*
X-630229Y-33907285D01*
X-447085Y-33764739D01*
X-289901Y-33593991D01*
X-234282Y-33508859D01*
X-180279Y-33462773D01*
X-109931Y-33453198D01*
X-45574Y-33483176D01*
X-23320Y-33508857D01*
X32301Y-33593991D01*
X189142Y-33764367D01*
X189485Y-33764739D01*
X311276Y-33859532D01*
X372090Y-33906866D01*
X372629Y-33907285D01*
X576738Y-34017744D01*
X796244Y-34093100D01*
X1025160Y-34131300D01*
X1025164Y-34131300D01*
X1257236Y-34131300D01*
X1257240Y-34131300D01*
X1486156Y-34093100D01*
X1705662Y-34017744D01*
X1909771Y-33907285D01*
X2092915Y-33764739D01*
X2250099Y-33593991D01*
X2305718Y-33508859D01*
X2359721Y-33462773D01*
X2430069Y-33453198D01*
X2494426Y-33483176D01*
X2516680Y-33508857D01*
X2572301Y-33593991D01*
X2729142Y-33764367D01*
X2729485Y-33764739D01*
X2851276Y-33859532D01*
X2912090Y-33906866D01*
X2912629Y-33907285D01*
X3116738Y-34017744D01*
X3336244Y-34093100D01*
X3565160Y-34131300D01*
X3565164Y-34131300D01*
X3797236Y-34131300D01*
X3797240Y-34131300D01*
X4026156Y-34093100D01*
X4245662Y-34017744D01*
X4449771Y-33907285D01*
X4632915Y-33764739D01*
X4790099Y-33593991D01*
X4845718Y-33508859D01*
X4899721Y-33462773D01*
X4970069Y-33453198D01*
X5034426Y-33483176D01*
X5056680Y-33508857D01*
X5112301Y-33593991D01*
X5269142Y-33764367D01*
X5269485Y-33764739D01*
X5391276Y-33859532D01*
X5452090Y-33906866D01*
X5452629Y-33907285D01*
X5656738Y-34017744D01*
X5876244Y-34093100D01*
X6105160Y-34131300D01*
X6105164Y-34131300D01*
X6337236Y-34131300D01*
X6337240Y-34131300D01*
X6566156Y-34093100D01*
X6785662Y-34017744D01*
X6989771Y-33907285D01*
X7172915Y-33764739D01*
X7330099Y-33593991D01*
X7385718Y-33508859D01*
X7439721Y-33462773D01*
X7510069Y-33453198D01*
X7574426Y-33483176D01*
X7596680Y-33508857D01*
X7652301Y-33593991D01*
X7809142Y-33764367D01*
X7809485Y-33764739D01*
X7931276Y-33859532D01*
X7992090Y-33906866D01*
X7992629Y-33907285D01*
X8196738Y-34017744D01*
X8416244Y-34093100D01*
X8645160Y-34131300D01*
X8645164Y-34131300D01*
X8877236Y-34131300D01*
X8877240Y-34131300D01*
X9106156Y-34093100D01*
X9325662Y-34017744D01*
X9529771Y-33907285D01*
X9712915Y-33764739D01*
X9870099Y-33593991D01*
X9925718Y-33508859D01*
X9979721Y-33462773D01*
X10050069Y-33453198D01*
X10114426Y-33483176D01*
X10136680Y-33508857D01*
X10192301Y-33593991D01*
X10349142Y-33764367D01*
X10349485Y-33764739D01*
X10471276Y-33859532D01*
X10532090Y-33906866D01*
X10532629Y-33907285D01*
X10736738Y-34017744D01*
X10956244Y-34093100D01*
X11185160Y-34131300D01*
X11185164Y-34131300D01*
X11417236Y-34131300D01*
X11417240Y-34131300D01*
X11646156Y-34093100D01*
X11865662Y-34017744D01*
X12069771Y-33907285D01*
X12252915Y-33764739D01*
X12410099Y-33593991D01*
X12465718Y-33508859D01*
X12519721Y-33462773D01*
X12590069Y-33453198D01*
X12654426Y-33483176D01*
X12676680Y-33508857D01*
X12732301Y-33593991D01*
X12889142Y-33764367D01*
X12889485Y-33764739D01*
X13011276Y-33859532D01*
X13072090Y-33906866D01*
X13072629Y-33907285D01*
X13276738Y-34017744D01*
X13496244Y-34093100D01*
X13725160Y-34131300D01*
X13725164Y-34131300D01*
X13957236Y-34131300D01*
X13957240Y-34131300D01*
X14186156Y-34093100D01*
X14405662Y-34017744D01*
X14609771Y-33907285D01*
X14792915Y-33764739D01*
X14950099Y-33593991D01*
X15005718Y-33508859D01*
X15059721Y-33462773D01*
X15130069Y-33453198D01*
X15194426Y-33483176D01*
X15216680Y-33508857D01*
X15272301Y-33593991D01*
X15429142Y-33764367D01*
X15429485Y-33764739D01*
X15551276Y-33859532D01*
X15612090Y-33906866D01*
X15612629Y-33907285D01*
X15816738Y-34017744D01*
X16036244Y-34093100D01*
X16265160Y-34131300D01*
X16265164Y-34131300D01*
X16497236Y-34131300D01*
X16497240Y-34131300D01*
X16726156Y-34093100D01*
X16945662Y-34017744D01*
X17149771Y-33907285D01*
X17332915Y-33764739D01*
X17490099Y-33593991D01*
X17545718Y-33508859D01*
X17599721Y-33462773D01*
X17670069Y-33453198D01*
X17734426Y-33483176D01*
X17756680Y-33508857D01*
X17812301Y-33593991D01*
X17969142Y-33764367D01*
X17969485Y-33764739D01*
X18091276Y-33859532D01*
X18152090Y-33906866D01*
X18152629Y-33907285D01*
X18356738Y-34017744D01*
X18576244Y-34093100D01*
X18805160Y-34131300D01*
X18805164Y-34131300D01*
X19037236Y-34131300D01*
X19037240Y-34131300D01*
X19266156Y-34093100D01*
X19485662Y-34017744D01*
X19689771Y-33907285D01*
X19872915Y-33764739D01*
X20030099Y-33593991D01*
X20085718Y-33508859D01*
X20139721Y-33462773D01*
X20210069Y-33453198D01*
X20274426Y-33483176D01*
X20296680Y-33508857D01*
X20352301Y-33593991D01*
X20509142Y-33764367D01*
X20509485Y-33764739D01*
X20631276Y-33859532D01*
X20692090Y-33906866D01*
X20692629Y-33907285D01*
X20896738Y-34017744D01*
X21116244Y-34093100D01*
X21345160Y-34131300D01*
X21345164Y-34131300D01*
X21577236Y-34131300D01*
X21577240Y-34131300D01*
X21806156Y-34093100D01*
X22025662Y-34017744D01*
X22229771Y-33907285D01*
X22412915Y-33764739D01*
X22570099Y-33593991D01*
X22625718Y-33508859D01*
X22679721Y-33462773D01*
X22750069Y-33453198D01*
X22814426Y-33483176D01*
X22836680Y-33508857D01*
X22892301Y-33593991D01*
X23049142Y-33764367D01*
X23049485Y-33764739D01*
X23171276Y-33859532D01*
X23232090Y-33906866D01*
X23232629Y-33907285D01*
X23436738Y-34017744D01*
X23656244Y-34093100D01*
X23885160Y-34131300D01*
X23885164Y-34131300D01*
X24117236Y-34131300D01*
X24117240Y-34131300D01*
X24346156Y-34093100D01*
X24565662Y-34017744D01*
X24769771Y-33907285D01*
X24952915Y-33764739D01*
X25110099Y-33593991D01*
X25165718Y-33508859D01*
X25219721Y-33462773D01*
X25290069Y-33453198D01*
X25354426Y-33483176D01*
X25376680Y-33508857D01*
X25432301Y-33593991D01*
X25589142Y-33764367D01*
X25589485Y-33764739D01*
X25711276Y-33859532D01*
X25772090Y-33906866D01*
X25772629Y-33907285D01*
X25976738Y-34017744D01*
X26196244Y-34093100D01*
X26425160Y-34131300D01*
X26425164Y-34131300D01*
X26657236Y-34131300D01*
X26657240Y-34131300D01*
X26886156Y-34093100D01*
X27105662Y-34017744D01*
X27309771Y-33907285D01*
X27492915Y-33764739D01*
X27650099Y-33593991D01*
X27705718Y-33508859D01*
X27759721Y-33462773D01*
X27830069Y-33453198D01*
X27894426Y-33483176D01*
X27916680Y-33508857D01*
X27972301Y-33593991D01*
X28129142Y-33764367D01*
X28129485Y-33764739D01*
X28251276Y-33859532D01*
X28312090Y-33906866D01*
X28312629Y-33907285D01*
X28516738Y-34017744D01*
X28736244Y-34093100D01*
X28965160Y-34131300D01*
X28965164Y-34131300D01*
X29197236Y-34131300D01*
X29197240Y-34131300D01*
X29426156Y-34093100D01*
X29645662Y-34017744D01*
X29849771Y-33907285D01*
X30032915Y-33764739D01*
X30190099Y-33593991D01*
X30246016Y-33508403D01*
X30300018Y-33462316D01*
X30370366Y-33452741D01*
X30434724Y-33482718D01*
X30456981Y-33508405D01*
X30512693Y-33593679D01*
X30669821Y-33764367D01*
X30852902Y-33906865D01*
X30852903Y-33906866D01*
X31056939Y-34017285D01*
X31056942Y-34017286D01*
X31276362Y-34092613D01*
X31276371Y-34092615D01*
X31494199Y-34128963D01*
X31494200Y-34128963D01*
X31494200Y-33214508D01*
X31555374Y-33230900D01*
X31687026Y-33230900D01*
X31748200Y-33214508D01*
X31748200Y-34128963D01*
X31966028Y-34092615D01*
X31966037Y-34092613D01*
X32185457Y-34017286D01*
X32185460Y-34017285D01*
X32389496Y-33906866D01*
X32389497Y-33906865D01*
X32572578Y-33764367D01*
X32729706Y-33593679D01*
X32856595Y-33399461D01*
X32949786Y-33187008D01*
X32949789Y-33187001D01*
X33006738Y-32962113D01*
X33015375Y-32857900D01*
X32104808Y-32857900D01*
X32121200Y-32796726D01*
X32121200Y-32665074D01*
X32104808Y-32603900D01*
X33015374Y-32603900D01*
X33006738Y-32499686D01*
X32949789Y-32274798D01*
X32949786Y-32274791D01*
X32856595Y-32062338D01*
X32729706Y-31868120D01*
X32572576Y-31697430D01*
X32570915Y-31696137D01*
X32570411Y-31695436D01*
X32568747Y-31693905D01*
X32569062Y-31693562D01*
X32529445Y-31638510D01*
X32525713Y-31567612D01*
X32560905Y-31505951D01*
X32621131Y-31474520D01*
X32620987Y-31473907D01*
X32623400Y-31473336D01*
X32623846Y-31473104D01*
X32625359Y-31472873D01*
X32628659Y-31472093D01*
X32628662Y-31472093D01*
X32763482Y-31421807D01*
X32767108Y-31419093D01*
X32878675Y-31335575D01*
X32964905Y-31220385D01*
X32964905Y-31220384D01*
X32964907Y-31220382D01*
X33015193Y-31085562D01*
X33018588Y-31053990D01*
X33021599Y-31025977D01*
X33021600Y-31025960D01*
X33021600Y-29355439D01*
X33021599Y-29355422D01*
X33015194Y-29295842D01*
X33015192Y-29295834D01*
X32967855Y-29168923D01*
X32964907Y-29161018D01*
X32964906Y-29161016D01*
X32964905Y-29161014D01*
X32878675Y-29045824D01*
X32763485Y-28959594D01*
X32763480Y-28959592D01*
X32628665Y-28909307D01*
X32628657Y-28909305D01*
X32569077Y-28902900D01*
X32569066Y-28902900D01*
X30673334Y-28902900D01*
X30673322Y-28902900D01*
X30613742Y-28909305D01*
X30613734Y-28909307D01*
X30478919Y-28959592D01*
X30478914Y-28959594D01*
X30363724Y-29045824D01*
X30277494Y-29161014D01*
X30273177Y-29168923D01*
X30270429Y-29167422D01*
X30237169Y-29211818D01*
X30170639Y-29236602D01*
X30101271Y-29221484D01*
X30068997Y-29196257D01*
X30032917Y-29157063D01*
X30032916Y-29157062D01*
X30032915Y-29157061D01*
X29951721Y-29093865D01*
X29849773Y-29014516D01*
X29778441Y-28975913D01*
X29645662Y-28904056D01*
X29645658Y-28904054D01*
X29645657Y-28904054D01*
X29426160Y-28828701D01*
X29426153Y-28828699D01*
X29328184Y-28812351D01*
X29197240Y-28790500D01*
X28965160Y-28790500D01*
X28850598Y-28809617D01*
X28736246Y-28828699D01*
X28736239Y-28828701D01*
X28516742Y-28904054D01*
X28516738Y-28904055D01*
X28516738Y-28904056D01*
X28474090Y-28927135D01*
X28312626Y-29014516D01*
X28129482Y-29157063D01*
X27972301Y-29327808D01*
X27972295Y-29327817D01*
X27916682Y-29412938D01*
X27862679Y-29459026D01*
X27792331Y-29468601D01*
X27727973Y-29438623D01*
X27705718Y-29412938D01*
X27650104Y-29327817D01*
X27650101Y-29327812D01*
X27650099Y-29327809D01*
X27528997Y-29196257D01*
X27492917Y-29157063D01*
X27492916Y-29157062D01*
X27492915Y-29157061D01*
X27411721Y-29093865D01*
X27309773Y-29014516D01*
X27238441Y-28975913D01*
X27105662Y-28904056D01*
X27105658Y-28904054D01*
X27105657Y-28904054D01*
X26886160Y-28828701D01*
X26886153Y-28828699D01*
X26788184Y-28812351D01*
X26657240Y-28790500D01*
X26425160Y-28790500D01*
X26310598Y-28809617D01*
X26196246Y-28828699D01*
X26196239Y-28828701D01*
X25976742Y-28904054D01*
X25976738Y-28904055D01*
X25976738Y-28904056D01*
X25934090Y-28927135D01*
X25772626Y-29014516D01*
X25589482Y-29157063D01*
X25432301Y-29327808D01*
X25432295Y-29327817D01*
X25376682Y-29412938D01*
X25322679Y-29459026D01*
X25252331Y-29468601D01*
X25187973Y-29438623D01*
X25165718Y-29412938D01*
X25110104Y-29327817D01*
X25110101Y-29327812D01*
X25110099Y-29327809D01*
X24988997Y-29196257D01*
X24952917Y-29157063D01*
X24952916Y-29157062D01*
X24952915Y-29157061D01*
X24871721Y-29093865D01*
X24769773Y-29014516D01*
X24698441Y-28975913D01*
X24565662Y-28904056D01*
X24565658Y-28904054D01*
X24565657Y-28904054D01*
X24346160Y-28828701D01*
X24346153Y-28828699D01*
X24248184Y-28812351D01*
X24117240Y-28790500D01*
X23885160Y-28790500D01*
X23770598Y-28809617D01*
X23656246Y-28828699D01*
X23656239Y-28828701D01*
X23436742Y-28904054D01*
X23436738Y-28904055D01*
X23436738Y-28904056D01*
X23394090Y-28927135D01*
X23232626Y-29014516D01*
X23049482Y-29157063D01*
X22892301Y-29327808D01*
X22892295Y-29327817D01*
X22836682Y-29412938D01*
X22782679Y-29459026D01*
X22712331Y-29468601D01*
X22647973Y-29438623D01*
X22625718Y-29412938D01*
X22570104Y-29327817D01*
X22570101Y-29327812D01*
X22570099Y-29327809D01*
X22448997Y-29196257D01*
X22412917Y-29157063D01*
X22412916Y-29157062D01*
X22412915Y-29157061D01*
X22331721Y-29093865D01*
X22229773Y-29014516D01*
X22158441Y-28975913D01*
X22025662Y-28904056D01*
X22025658Y-28904054D01*
X22025657Y-28904054D01*
X21806160Y-28828701D01*
X21806153Y-28828699D01*
X21708184Y-28812351D01*
X21577240Y-28790500D01*
X21345160Y-28790500D01*
X21230598Y-28809617D01*
X21116246Y-28828699D01*
X21116239Y-28828701D01*
X20896742Y-28904054D01*
X20896738Y-28904055D01*
X20896738Y-28904056D01*
X20854090Y-28927135D01*
X20692626Y-29014516D01*
X20509482Y-29157063D01*
X20352301Y-29327808D01*
X20352295Y-29327817D01*
X20296682Y-29412938D01*
X20242679Y-29459026D01*
X20172331Y-29468601D01*
X20107973Y-29438623D01*
X20085718Y-29412938D01*
X20030104Y-29327817D01*
X20030101Y-29327812D01*
X20030099Y-29327809D01*
X19908997Y-29196257D01*
X19872917Y-29157063D01*
X19872916Y-29157062D01*
X19872915Y-29157061D01*
X19791721Y-29093865D01*
X19689773Y-29014516D01*
X19618441Y-28975913D01*
X19485662Y-28904056D01*
X19485658Y-28904054D01*
X19485657Y-28904054D01*
X19266160Y-28828701D01*
X19266153Y-28828699D01*
X19168184Y-28812351D01*
X19037240Y-28790500D01*
X18805160Y-28790500D01*
X18690598Y-28809617D01*
X18576246Y-28828699D01*
X18576239Y-28828701D01*
X18356742Y-28904054D01*
X18356738Y-28904055D01*
X18356738Y-28904056D01*
X18314090Y-28927135D01*
X18152626Y-29014516D01*
X17969482Y-29157063D01*
X17812301Y-29327808D01*
X17812295Y-29327817D01*
X17756682Y-29412938D01*
X17702679Y-29459026D01*
X17632331Y-29468601D01*
X17567973Y-29438623D01*
X17545718Y-29412938D01*
X17490104Y-29327817D01*
X17490101Y-29327812D01*
X17490099Y-29327809D01*
X17368997Y-29196257D01*
X17332917Y-29157063D01*
X17332916Y-29157062D01*
X17332915Y-29157061D01*
X17251721Y-29093865D01*
X17149773Y-29014516D01*
X17078441Y-28975913D01*
X16945662Y-28904056D01*
X16945658Y-28904054D01*
X16945657Y-28904054D01*
X16726160Y-28828701D01*
X16726153Y-28828699D01*
X16628184Y-28812351D01*
X16497240Y-28790500D01*
X16265160Y-28790500D01*
X16150598Y-28809617D01*
X16036246Y-28828699D01*
X16036239Y-28828701D01*
X15816742Y-28904054D01*
X15816738Y-28904055D01*
X15816738Y-28904056D01*
X15774090Y-28927135D01*
X15612626Y-29014516D01*
X15429482Y-29157063D01*
X15272301Y-29327808D01*
X15272295Y-29327817D01*
X15216682Y-29412938D01*
X15162679Y-29459026D01*
X15092331Y-29468601D01*
X15027973Y-29438623D01*
X15005718Y-29412938D01*
X14950104Y-29327817D01*
X14950101Y-29327812D01*
X14950099Y-29327809D01*
X14828997Y-29196257D01*
X14792917Y-29157063D01*
X14792916Y-29157062D01*
X14792915Y-29157061D01*
X14711721Y-29093865D01*
X14609773Y-29014516D01*
X14538441Y-28975913D01*
X14405662Y-28904056D01*
X14405658Y-28904054D01*
X14405657Y-28904054D01*
X14186160Y-28828701D01*
X14186153Y-28828699D01*
X14088184Y-28812351D01*
X13957240Y-28790500D01*
X13725160Y-28790500D01*
X13610598Y-28809617D01*
X13496246Y-28828699D01*
X13496239Y-28828701D01*
X13276742Y-28904054D01*
X13276738Y-28904055D01*
X13276738Y-28904056D01*
X13234090Y-28927135D01*
X13072626Y-29014516D01*
X12889482Y-29157063D01*
X12732301Y-29327808D01*
X12732295Y-29327817D01*
X12676682Y-29412938D01*
X12622679Y-29459026D01*
X12552331Y-29468601D01*
X12487973Y-29438623D01*
X12465718Y-29412938D01*
X12410104Y-29327817D01*
X12410101Y-29327812D01*
X12410099Y-29327809D01*
X12288997Y-29196257D01*
X12252917Y-29157063D01*
X12252916Y-29157062D01*
X12252915Y-29157061D01*
X12171721Y-29093865D01*
X12069773Y-29014516D01*
X11998441Y-28975913D01*
X11865662Y-28904056D01*
X11865658Y-28904054D01*
X11865657Y-28904054D01*
X11646160Y-28828701D01*
X11646153Y-28828699D01*
X11548184Y-28812351D01*
X11417240Y-28790500D01*
X11185160Y-28790500D01*
X11070598Y-28809617D01*
X10956246Y-28828699D01*
X10956239Y-28828701D01*
X10736742Y-28904054D01*
X10736738Y-28904055D01*
X10736738Y-28904056D01*
X10694090Y-28927135D01*
X10532626Y-29014516D01*
X10349482Y-29157063D01*
X10192301Y-29327808D01*
X10192295Y-29327817D01*
X10136682Y-29412938D01*
X10082679Y-29459026D01*
X10012331Y-29468601D01*
X9947973Y-29438623D01*
X9925718Y-29412938D01*
X9870104Y-29327817D01*
X9870101Y-29327812D01*
X9870099Y-29327809D01*
X9748997Y-29196257D01*
X9712917Y-29157063D01*
X9712916Y-29157062D01*
X9712915Y-29157061D01*
X9631721Y-29093865D01*
X9529773Y-29014516D01*
X9458441Y-28975913D01*
X9325662Y-28904056D01*
X9325658Y-28904054D01*
X9325657Y-28904054D01*
X9106160Y-28828701D01*
X9106153Y-28828699D01*
X9008184Y-28812351D01*
X8877240Y-28790500D01*
X8645160Y-28790500D01*
X8530598Y-28809617D01*
X8416246Y-28828699D01*
X8416239Y-28828701D01*
X8196742Y-28904054D01*
X8196738Y-28904055D01*
X8196738Y-28904056D01*
X8154090Y-28927135D01*
X7992626Y-29014516D01*
X7809482Y-29157063D01*
X7652301Y-29327808D01*
X7652295Y-29327817D01*
X7596682Y-29412938D01*
X7542679Y-29459026D01*
X7472331Y-29468601D01*
X7407973Y-29438623D01*
X7385718Y-29412938D01*
X7330104Y-29327817D01*
X7330101Y-29327812D01*
X7330099Y-29327809D01*
X7208997Y-29196257D01*
X7172917Y-29157063D01*
X7172916Y-29157062D01*
X7172915Y-29157061D01*
X7091721Y-29093865D01*
X6989773Y-29014516D01*
X6918441Y-28975913D01*
X6785662Y-28904056D01*
X6785658Y-28904054D01*
X6785657Y-28904054D01*
X6566160Y-28828701D01*
X6566153Y-28828699D01*
X6468184Y-28812351D01*
X6337240Y-28790500D01*
X6105160Y-28790500D01*
X5990598Y-28809617D01*
X5876246Y-28828699D01*
X5876239Y-28828701D01*
X5656742Y-28904054D01*
X5656738Y-28904055D01*
X5656738Y-28904056D01*
X5614090Y-28927135D01*
X5452626Y-29014516D01*
X5269482Y-29157063D01*
X5112301Y-29327808D01*
X5112295Y-29327817D01*
X5056682Y-29412938D01*
X5002679Y-29459026D01*
X4932331Y-29468601D01*
X4867973Y-29438623D01*
X4845718Y-29412938D01*
X4790104Y-29327817D01*
X4790101Y-29327812D01*
X4790099Y-29327809D01*
X4668997Y-29196257D01*
X4632917Y-29157063D01*
X4632916Y-29157062D01*
X4632915Y-29157061D01*
X4551721Y-29093865D01*
X4449773Y-29014516D01*
X4378441Y-28975913D01*
X4245662Y-28904056D01*
X4245658Y-28904054D01*
X4245657Y-28904054D01*
X4026160Y-28828701D01*
X4026141Y-28828696D01*
X3792665Y-28789736D01*
X3728765Y-28758795D01*
X3691738Y-28698218D01*
X3693339Y-28627240D01*
X3694457Y-28623890D01*
X3706270Y-28590133D01*
X3726465Y-28410900D01*
X3708192Y-28248729D01*
X3720441Y-28178801D01*
X3768554Y-28126593D01*
X3819287Y-28109418D01*
X3989233Y-28090270D01*
X4159478Y-28030699D01*
X4312199Y-27934738D01*
X4439738Y-27807199D01*
X4535699Y-27654478D01*
X4595270Y-27484233D01*
X4615465Y-27305000D01*
X4595270Y-27125767D01*
X4535699Y-26955522D01*
X4439738Y-26802801D01*
X4439736Y-26802798D01*
X4312201Y-26675263D01*
X4312198Y-26675261D01*
X4159480Y-26579302D01*
X4159478Y-26579301D01*
X3989233Y-26519730D01*
X3810000Y-26499535D01*
X3630767Y-26519730D01*
X3630764Y-26519730D01*
X3630764Y-26519731D01*
X3460521Y-26579301D01*
X3460519Y-26579302D01*
X3307801Y-26675261D01*
X3307798Y-26675263D01*
X3180263Y-26802798D01*
X3180261Y-26802801D01*
X3084302Y-26955519D01*
X3084301Y-26955521D01*
X3084301Y-26955522D01*
X3024730Y-27125767D01*
X3004535Y-27305000D01*
X3022807Y-27467167D01*
X3010558Y-27537098D01*
X2962445Y-27589307D01*
X2911707Y-27606482D01*
X2892426Y-27608654D01*
X2741767Y-27625630D01*
X2741764Y-27625630D01*
X2741764Y-27625631D01*
X2571521Y-27685201D01*
X2571519Y-27685202D01*
X2418801Y-27781161D01*
X2418798Y-27781163D01*
X2291263Y-27908698D01*
X2291261Y-27908701D01*
X2195302Y-28061419D01*
X2195301Y-28061421D01*
X2135731Y-28231664D01*
X2135730Y-28231667D01*
X2115535Y-28410900D01*
X2135730Y-28590133D01*
X2135731Y-28590135D01*
X2195301Y-28760378D01*
X2195302Y-28760380D01*
X2291261Y-28913098D01*
X2291263Y-28913101D01*
X2418798Y-29040636D01*
X2418801Y-29040638D01*
X2555280Y-29126394D01*
X2602318Y-29179572D01*
X2613138Y-29249740D01*
X2584305Y-29314618D01*
X2580947Y-29318417D01*
X2572300Y-29327810D01*
X2516682Y-29412939D01*
X2462679Y-29459027D01*
X2392331Y-29468602D01*
X2327973Y-29438624D01*
X2305719Y-29412942D01*
X2250099Y-29327809D01*
X2128997Y-29196257D01*
X2092917Y-29157063D01*
X2092916Y-29157062D01*
X2092915Y-29157061D01*
X2011721Y-29093865D01*
X1909773Y-29014516D01*
X1838441Y-28975913D01*
X1705662Y-28904056D01*
X1705658Y-28904054D01*
X1705657Y-28904054D01*
X1486160Y-28828701D01*
X1486153Y-28828699D01*
X1388184Y-28812351D01*
X1257240Y-28790500D01*
X1025160Y-28790500D01*
X910598Y-28809617D01*
X796246Y-28828699D01*
X796239Y-28828701D01*
X576742Y-28904054D01*
X576738Y-28904055D01*
X576738Y-28904056D01*
X534090Y-28927135D01*
X372626Y-29014516D01*
X189482Y-29157063D01*
X32301Y-29327808D01*
X32295Y-29327817D01*
X-23318Y-29412938D01*
X-77321Y-29459026D01*
X-147669Y-29468601D01*
X-212027Y-29438623D01*
X-234282Y-29412938D01*
X-289896Y-29327817D01*
X-289899Y-29327812D01*
X-289901Y-29327809D01*
X-411003Y-29196257D01*
X-447083Y-29157063D01*
X-447084Y-29157062D01*
X-447085Y-29157061D01*
X-528279Y-29093865D01*
X-630227Y-29014516D01*
X-701559Y-28975913D01*
X-834338Y-28904056D01*
X-834342Y-28904054D01*
X-834343Y-28904054D01*
X-1053840Y-28828701D01*
X-1053847Y-28828699D01*
X-1151816Y-28812351D01*
X-1282760Y-28790500D01*
X-1514840Y-28790500D01*
X-1629402Y-28809617D01*
X-1743754Y-28828699D01*
X-1743761Y-28828701D01*
X-1963258Y-28904054D01*
X-1963262Y-28904055D01*
X-1963262Y-28904056D01*
X-2005910Y-28927135D01*
X-2167374Y-29014516D01*
X-2350518Y-29157063D01*
X-2507699Y-29327808D01*
X-2507702Y-29327812D01*
X-2563617Y-29413396D01*
X-2617621Y-29459483D01*
X-2687969Y-29469058D01*
X-2752326Y-29439080D01*
X-2774582Y-29413394D01*
X-2830294Y-29328120D01*
X-2987422Y-29157432D01*
X-3170503Y-29014934D01*
X-3170504Y-29014933D01*
X-3374540Y-28904514D01*
X-3374543Y-28904513D01*
X-3593963Y-28829186D01*
X-3593970Y-28829184D01*
X-3811800Y-28792835D01*
X-3811800Y-29707291D01*
X-3872974Y-29690900D01*
X-4004626Y-29690900D01*
X-4065800Y-29707291D01*
X-4065800Y-28792835D01*
X-4283631Y-28829184D01*
X-4283638Y-28829186D01*
X-4503058Y-28904513D01*
X-4503062Y-28904515D01*
X-4607591Y-28961083D01*
X-4677022Y-28975913D01*
X-4743448Y-28950852D01*
X-4785781Y-28893857D01*
X-4790579Y-28823022D01*
X-4788267Y-28814131D01*
X-4696017Y-28505994D01*
X-4635335Y-28161852D01*
X-4635335Y-28161846D01*
X-4622413Y-27940000D01*
X-6121417Y-27940000D01*
X-6120000Y-27931053D01*
X-6120000Y-27694947D01*
X-6121417Y-27686000D01*
X-4622413Y-27686000D01*
X-4622414Y-27685999D01*
X-4635335Y-27464153D01*
X-4635335Y-27464147D01*
X-4696017Y-27120002D01*
X-4796241Y-26785233D01*
X-4796243Y-26785227D01*
X-4934647Y-26464368D01*
X-4934650Y-26464363D01*
X-5109366Y-26161745D01*
X-5109383Y-26161718D01*
X-5318050Y-25881433D01*
X-5318050Y-25881432D01*
X-5557852Y-25627257D01*
X-5557858Y-25627252D01*
X-5825547Y-25402634D01*
X-6117507Y-25210609D01*
X-6320035Y-25108895D01*
X4863886Y-25108895D01*
X4863886Y-25108904D01*
X4882702Y-25311962D01*
X4933324Y-25489881D01*
X4938512Y-25508113D01*
X5029413Y-25690668D01*
X5040300Y-25705084D01*
X5152312Y-25853412D01*
X5303020Y-25990800D01*
X5303021Y-25990801D01*
X5476398Y-26098152D01*
X5476405Y-26098155D01*
X5476408Y-26098157D01*
X5476412Y-26098158D01*
X5476413Y-26098159D01*
X5666564Y-26171825D01*
X5666567Y-26171825D01*
X5666571Y-26171827D01*
X5867033Y-26209300D01*
X5867036Y-26209300D01*
X6070964Y-26209300D01*
X6070967Y-26209300D01*
X6271429Y-26171827D01*
X6271433Y-26171825D01*
X6271435Y-26171825D01*
X6410361Y-26118004D01*
X6461592Y-26098157D01*
X6461597Y-26098153D01*
X6461601Y-26098152D01*
X6584017Y-26022354D01*
X6634980Y-25990800D01*
X6785689Y-25853410D01*
X6908587Y-25690668D01*
X6999488Y-25508113D01*
X7055297Y-25311964D01*
X7067710Y-25178013D01*
X7074114Y-25108904D01*
X7074114Y-25108895D01*
X7062345Y-24981896D01*
X20711759Y-24981896D01*
X20711759Y-24981903D01*
X20731072Y-25178004D01*
X20731073Y-25178009D01*
X20731074Y-25178013D01*
X20763346Y-25284400D01*
X20788278Y-25366590D01*
X20867109Y-25514071D01*
X20881173Y-25540382D01*
X21006187Y-25692713D01*
X21158518Y-25817727D01*
X21332311Y-25910622D01*
X21520887Y-25967826D01*
X21520893Y-25967826D01*
X21520895Y-25967827D01*
X21716997Y-25987141D01*
X21717000Y-25987141D01*
X21717003Y-25987141D01*
X21913104Y-25967827D01*
X21913104Y-25967826D01*
X21913113Y-25967826D01*
X22101689Y-25910622D01*
X22275482Y-25817727D01*
X22427813Y-25692713D01*
X22552827Y-25540382D01*
X22645722Y-25366589D01*
X22702926Y-25178013D01*
X22706754Y-25139147D01*
X22722241Y-24981903D01*
X22722241Y-24981896D01*
X22702927Y-24785795D01*
X22702926Y-24785793D01*
X22702926Y-24785787D01*
X22645722Y-24597211D01*
X22552827Y-24423418D01*
X22520478Y-24384000D01*
X47377852Y-24384000D01*
X47396785Y-24552036D01*
X47396786Y-24552038D01*
X47452634Y-24711645D01*
X47452635Y-24711646D01*
X47542602Y-24854827D01*
X47542605Y-24854830D01*
X47542605Y-24854831D01*
X47662168Y-24974394D01*
X47662170Y-24974395D01*
X47662173Y-24974398D01*
X47805354Y-25064365D01*
X47964964Y-25120215D01*
X48133000Y-25139148D01*
X48301036Y-25120215D01*
X48460646Y-25064365D01*
X48603827Y-24974398D01*
X48723398Y-24854827D01*
X48813365Y-24711646D01*
X48869215Y-24552036D01*
X48888148Y-24384000D01*
X52561640Y-24384000D01*
X52581423Y-24572235D01*
X52639909Y-24752237D01*
X52639912Y-24752244D01*
X52734546Y-24916154D01*
X52734553Y-24916164D01*
X52861193Y-25056812D01*
X52861196Y-25056814D01*
X53014320Y-25168065D01*
X53109875Y-25210609D01*
X53187228Y-25245049D01*
X53372363Y-25284400D01*
X53372364Y-25284400D01*
X53561637Y-25284400D01*
X53654204Y-25264724D01*
X53746772Y-25245049D01*
X53919680Y-25168065D01*
X54072804Y-25056814D01*
X54140257Y-24981900D01*
X54199446Y-24916164D01*
X54199447Y-24916162D01*
X54199452Y-24916157D01*
X54294088Y-24752243D01*
X54352576Y-24572235D01*
X54372360Y-24384000D01*
X54352576Y-24195765D01*
X54344523Y-24170980D01*
X54294090Y-24015762D01*
X54294087Y-24015755D01*
X54215411Y-23879485D01*
X54199452Y-23851843D01*
X54199450Y-23851841D01*
X54199446Y-23851835D01*
X54072806Y-23711187D01*
X53919680Y-23599935D01*
X53746771Y-23522950D01*
X53561637Y-23483600D01*
X53561636Y-23483600D01*
X53372364Y-23483600D01*
X53372363Y-23483600D01*
X53187228Y-23522950D01*
X53014319Y-23599935D01*
X52861193Y-23711187D01*
X52734553Y-23851835D01*
X52734546Y-23851845D01*
X52639912Y-24015755D01*
X52639909Y-24015762D01*
X52581423Y-24195764D01*
X52561640Y-24384000D01*
X48888148Y-24384000D01*
X48869215Y-24215964D01*
X48813365Y-24056354D01*
X48723398Y-23913173D01*
X48723394Y-23913169D01*
X48723394Y-23913168D01*
X48603831Y-23793605D01*
X48603828Y-23793603D01*
X48603827Y-23793602D01*
X48472665Y-23711187D01*
X48460645Y-23703634D01*
X48351455Y-23665427D01*
X48301036Y-23647785D01*
X48133000Y-23628852D01*
X47964964Y-23647785D01*
X47964961Y-23647785D01*
X47964961Y-23647786D01*
X47805354Y-23703634D01*
X47730425Y-23750716D01*
X47662173Y-23793602D01*
X47662171Y-23793603D01*
X47662169Y-23793605D01*
X47662168Y-23793605D01*
X47542605Y-23913168D01*
X47542605Y-23913169D01*
X47542603Y-23913171D01*
X47542602Y-23913173D01*
X47513154Y-23960038D01*
X47452634Y-24056354D01*
X47412525Y-24170982D01*
X47396785Y-24215964D01*
X47377852Y-24384000D01*
X22520478Y-24384000D01*
X22427813Y-24271087D01*
X22275482Y-24146073D01*
X22275480Y-24146072D01*
X22275479Y-24146071D01*
X22101690Y-24053178D01*
X22041441Y-24034902D01*
X21913113Y-23995974D01*
X21913109Y-23995973D01*
X21913104Y-23995972D01*
X21717003Y-23976659D01*
X21716997Y-23976659D01*
X21520895Y-23995972D01*
X21520889Y-23995973D01*
X21520887Y-23995974D01*
X21455655Y-24015762D01*
X21332309Y-24053178D01*
X21158520Y-24146071D01*
X21006187Y-24271087D01*
X20881171Y-24423420D01*
X20788278Y-24597209D01*
X20754695Y-24707917D01*
X20741250Y-24752243D01*
X20731072Y-24785795D01*
X20711759Y-24981896D01*
X7062345Y-24981896D01*
X7055297Y-24905837D01*
X7040804Y-24854900D01*
X6999488Y-24709687D01*
X6908587Y-24527132D01*
X6785689Y-24364390D01*
X6785687Y-24364387D01*
X6634979Y-24226999D01*
X6634978Y-24226998D01*
X6461601Y-24119647D01*
X6461586Y-24119640D01*
X6271435Y-24045974D01*
X6218918Y-24036157D01*
X6070967Y-24008500D01*
X5867033Y-24008500D01*
X5737712Y-24032674D01*
X5666564Y-24045974D01*
X5476413Y-24119640D01*
X5476398Y-24119647D01*
X5303021Y-24226998D01*
X5303020Y-24226999D01*
X5152312Y-24364387D01*
X5029414Y-24527130D01*
X4938512Y-24709687D01*
X4938509Y-24709695D01*
X4882702Y-24905837D01*
X4863886Y-25108895D01*
X-6320035Y-25108895D01*
X-6429791Y-25053773D01*
X-6758153Y-24934259D01*
X-6758158Y-24934258D01*
X-7098189Y-24853668D01*
X-7098195Y-24853667D01*
X-7445273Y-24813100D01*
X-7493000Y-24813100D01*
X-7493000Y-26314417D01*
X-7501947Y-26313000D01*
X-7738053Y-26313000D01*
X-7747000Y-26314417D01*
X-7747000Y-24813100D01*
X-7794727Y-24813100D01*
X-8141806Y-24853667D01*
X-8141812Y-24853668D01*
X-8481843Y-24934258D01*
X-8481848Y-24934259D01*
X-8810210Y-25053773D01*
X-9122494Y-25210609D01*
X-9414454Y-25402634D01*
X-9634552Y-25587318D01*
X-9699593Y-25615782D01*
X-9769697Y-25604565D01*
X-9822609Y-25557226D01*
X-9841539Y-25489884D01*
X-9830337Y-23947456D01*
X-9809840Y-23879485D01*
X-9755848Y-23833383D01*
X-9685503Y-23823790D01*
X-9621138Y-23853751D01*
X-9601127Y-23876103D01*
X-9549221Y-23950232D01*
X-9549218Y-23950236D01*
X-9382136Y-24117318D01*
X-9188579Y-24252848D01*
X-8974428Y-24352708D01*
X-8746190Y-24413864D01*
X-8510800Y-24434458D01*
X-8275410Y-24413864D01*
X-8047172Y-24352708D01*
X-7833021Y-24252848D01*
X-7639464Y-24117318D01*
X-7519578Y-23997431D01*
X-7457270Y-23963409D01*
X-7386454Y-23968473D01*
X-7329618Y-24011020D01*
X-7312431Y-24042496D01*
X-7264508Y-24170980D01*
X-7264506Y-24170985D01*
X-7178276Y-24286175D01*
X-7063086Y-24372405D01*
X-7063084Y-24372406D01*
X-7063082Y-24372407D01*
X-7032000Y-24384000D01*
X-6928266Y-24422692D01*
X-6928258Y-24422694D01*
X-6868678Y-24429099D01*
X-6868673Y-24429099D01*
X-6868666Y-24429100D01*
X-6868660Y-24429100D01*
X-5072940Y-24429100D01*
X-5072934Y-24429100D01*
X-5072927Y-24429099D01*
X-5072923Y-24429099D01*
X-5013343Y-24422694D01*
X-5013340Y-24422693D01*
X-5013338Y-24422693D01*
X-4878518Y-24372407D01*
X-4763325Y-24286175D01*
X-4719027Y-24227000D01*
X-4677095Y-24170985D01*
X-4677095Y-24170984D01*
X-4677093Y-24170982D01*
X-4626807Y-24036162D01*
X-4626671Y-24034902D01*
X-4620401Y-23976577D01*
X-4620400Y-23976560D01*
X-4620400Y-22180839D01*
X-4620401Y-22180822D01*
X-4626806Y-22121242D01*
X-4626808Y-22121234D01*
X-4677093Y-21986419D01*
X-4677095Y-21986414D01*
X-4763325Y-21871224D01*
X-4878515Y-21784994D01*
X-4878520Y-21784992D01*
X-5007004Y-21737069D01*
X-5063840Y-21694522D01*
X-5088650Y-21628002D01*
X-5073558Y-21558628D01*
X-5052072Y-21529925D01*
X-4932382Y-21410236D01*
X-4796852Y-21216679D01*
X-4696992Y-21002528D01*
X-4640286Y-20790896D01*
X17409759Y-20790896D01*
X17409759Y-20790903D01*
X17429072Y-20987004D01*
X17429073Y-20987009D01*
X17429074Y-20987013D01*
X17469486Y-21120235D01*
X17486278Y-21175590D01*
X17563179Y-21319460D01*
X17579173Y-21349382D01*
X17704187Y-21501713D01*
X17856518Y-21626727D01*
X18030311Y-21719622D01*
X18218887Y-21776826D01*
X18218893Y-21776826D01*
X18218895Y-21776827D01*
X18414997Y-21796141D01*
X18415000Y-21796141D01*
X18415003Y-21796141D01*
X18611104Y-21776827D01*
X18611104Y-21776826D01*
X18611113Y-21776826D01*
X18799689Y-21719622D01*
X18973482Y-21626727D01*
X19125813Y-21501713D01*
X19250827Y-21349382D01*
X19343722Y-21175589D01*
X19400926Y-20987013D01*
X19420241Y-20790900D01*
X19418853Y-20776812D01*
X19400927Y-20594795D01*
X19400926Y-20594793D01*
X19400926Y-20594787D01*
X19343722Y-20406211D01*
X19250827Y-20232418D01*
X19125813Y-20080087D01*
X19108643Y-20065996D01*
X23251759Y-20065996D01*
X23251759Y-20066003D01*
X23271072Y-20262104D01*
X23271073Y-20262109D01*
X23271074Y-20262113D01*
X23283632Y-20303510D01*
X23328278Y-20450690D01*
X23421171Y-20624479D01*
X23421173Y-20624482D01*
X23546187Y-20776813D01*
X23698518Y-20901827D01*
X23698520Y-20901828D01*
X23857888Y-20987013D01*
X23872311Y-20994722D01*
X24060887Y-21051926D01*
X24060893Y-21051926D01*
X24060895Y-21051927D01*
X24256997Y-21071241D01*
X24257000Y-21071241D01*
X24257003Y-21071241D01*
X24453104Y-21051927D01*
X24453104Y-21051926D01*
X24453113Y-21051926D01*
X24641689Y-20994722D01*
X24815482Y-20901827D01*
X24967813Y-20776813D01*
X25092827Y-20624482D01*
X25185722Y-20450689D01*
X25242926Y-20262113D01*
X25242927Y-20262104D01*
X25262241Y-20066003D01*
X25262241Y-20065996D01*
X25242927Y-19869895D01*
X25242926Y-19869893D01*
X25242926Y-19869887D01*
X25185722Y-19681311D01*
X25092827Y-19507518D01*
X24967813Y-19355187D01*
X24860234Y-19266900D01*
X44787535Y-19266900D01*
X44807730Y-19446133D01*
X44829210Y-19507520D01*
X44867301Y-19616378D01*
X44867302Y-19616380D01*
X44963261Y-19769098D01*
X44963263Y-19769101D01*
X45090798Y-19896636D01*
X45090801Y-19896638D01*
X45243522Y-19992599D01*
X45413767Y-20052170D01*
X45593000Y-20072365D01*
X45772233Y-20052170D01*
X45942478Y-19992599D01*
X46095199Y-19896638D01*
X46222738Y-19769099D01*
X46318699Y-19616378D01*
X46378270Y-19446133D01*
X46398465Y-19266900D01*
X46378270Y-19087667D01*
X46318699Y-18917422D01*
X46222738Y-18764701D01*
X46222736Y-18764698D01*
X46095201Y-18637163D01*
X46095198Y-18637161D01*
X45942480Y-18541202D01*
X45942478Y-18541201D01*
X45772233Y-18481630D01*
X45593000Y-18461435D01*
X45413767Y-18481630D01*
X45413764Y-18481630D01*
X45413764Y-18481631D01*
X45243521Y-18541201D01*
X45243519Y-18541202D01*
X45090801Y-18637161D01*
X45090798Y-18637163D01*
X44963263Y-18764698D01*
X44963261Y-18764701D01*
X44867302Y-18917419D01*
X44867301Y-18917421D01*
X44825349Y-19037315D01*
X44807730Y-19087667D01*
X44787535Y-19266900D01*
X24860234Y-19266900D01*
X24815482Y-19230173D01*
X24815480Y-19230172D01*
X24815479Y-19230171D01*
X24641690Y-19137278D01*
X24586335Y-19120486D01*
X24453113Y-19080074D01*
X24453109Y-19080073D01*
X24453104Y-19080072D01*
X24257003Y-19060759D01*
X24256997Y-19060759D01*
X24060895Y-19080072D01*
X24060889Y-19080073D01*
X24060887Y-19080074D01*
X23983017Y-19103695D01*
X23872309Y-19137278D01*
X23698520Y-19230171D01*
X23546187Y-19355187D01*
X23421171Y-19507520D01*
X23328278Y-19681309D01*
X23307902Y-19748482D01*
X23273734Y-19861121D01*
X23271072Y-19869895D01*
X23251759Y-20065996D01*
X19108643Y-20065996D01*
X18973482Y-19955073D01*
X18973480Y-19955072D01*
X18973479Y-19955071D01*
X18799690Y-19862178D01*
X18744335Y-19845386D01*
X18611113Y-19804974D01*
X18611109Y-19804973D01*
X18611104Y-19804972D01*
X18415003Y-19785659D01*
X18414997Y-19785659D01*
X18218895Y-19804972D01*
X18218889Y-19804973D01*
X18218887Y-19804974D01*
X18141017Y-19828595D01*
X18030309Y-19862178D01*
X17856520Y-19955071D01*
X17704187Y-20080087D01*
X17579171Y-20232420D01*
X17486278Y-20406209D01*
X17429072Y-20594795D01*
X17409759Y-20790896D01*
X-4640286Y-20790896D01*
X-4635836Y-20774290D01*
X-4615242Y-20538900D01*
X-4635836Y-20303510D01*
X-4696992Y-20075272D01*
X-4796852Y-19861121D01*
X-4932382Y-19667564D01*
X-5099464Y-19500482D01*
X-5177080Y-19446135D01*
X-5282794Y-19372113D01*
X-5327122Y-19316656D01*
X-5334431Y-19246037D01*
X-5302400Y-19182676D01*
X-5282794Y-19165687D01*
X-5242222Y-19137278D01*
X-5099464Y-19037318D01*
X-4932382Y-18870236D01*
X-4796852Y-18676679D01*
X-4696992Y-18462528D01*
X-4635836Y-18234290D01*
X-4615242Y-17998900D01*
X-4635836Y-17763510D01*
X-4696992Y-17535272D01*
X-4796852Y-17321121D01*
X-4932382Y-17127564D01*
X-5099464Y-16960482D01*
X-5133907Y-16936365D01*
X-5282794Y-16832113D01*
X-5327122Y-16776656D01*
X-5334431Y-16706037D01*
X-5302400Y-16642676D01*
X-5282794Y-16625687D01*
X-5278596Y-16622747D01*
X-5099464Y-16497318D01*
X-4932382Y-16330236D01*
X-4796852Y-16136679D01*
X-4696992Y-15922528D01*
X-4640287Y-15710900D01*
X10801852Y-15710900D01*
X10820785Y-15878936D01*
X10836039Y-15922528D01*
X10876634Y-16038545D01*
X10876635Y-16038546D01*
X10966602Y-16181727D01*
X10966605Y-16181730D01*
X10966605Y-16181731D01*
X11086168Y-16301294D01*
X11086170Y-16301295D01*
X11086173Y-16301298D01*
X11229354Y-16391265D01*
X11388964Y-16447115D01*
X11557000Y-16466048D01*
X11725036Y-16447115D01*
X11782521Y-16426999D01*
X11853423Y-16423380D01*
X11915029Y-16458669D01*
X11947776Y-16521662D01*
X11949343Y-16560034D01*
X11948305Y-16569251D01*
X11944852Y-16599900D01*
X11963785Y-16767936D01*
X11980297Y-16815124D01*
X12019634Y-16927545D01*
X12019635Y-16927546D01*
X12109602Y-17070727D01*
X12109605Y-17070730D01*
X12109605Y-17070731D01*
X12229168Y-17190294D01*
X12229170Y-17190295D01*
X12229173Y-17190298D01*
X12372354Y-17280265D01*
X12531964Y-17336115D01*
X12700000Y-17355048D01*
X12868036Y-17336115D01*
X13027646Y-17280265D01*
X13170827Y-17190298D01*
X13290398Y-17070727D01*
X13380365Y-16927546D01*
X13436215Y-16767936D01*
X13455148Y-16599900D01*
X13436215Y-16431864D01*
X13380365Y-16272254D01*
X13290398Y-16129073D01*
X13290394Y-16129069D01*
X13290394Y-16129068D01*
X13170831Y-16009505D01*
X13170828Y-16009503D01*
X13170827Y-16009502D01*
X13074614Y-15949047D01*
X13027645Y-15919534D01*
X12918455Y-15881327D01*
X12868036Y-15863685D01*
X12700000Y-15844752D01*
X12531963Y-15863685D01*
X12474478Y-15883800D01*
X12403573Y-15887418D01*
X12341969Y-15852128D01*
X12309222Y-15789135D01*
X12307656Y-15750766D01*
X12312148Y-15710900D01*
X12293215Y-15542864D01*
X12237365Y-15383254D01*
X12147398Y-15240073D01*
X12147394Y-15240069D01*
X12147394Y-15240068D01*
X12027831Y-15120505D01*
X12027828Y-15120503D01*
X12027827Y-15120502D01*
X11897690Y-15038731D01*
X11884645Y-15030534D01*
X11760530Y-14987105D01*
X11725036Y-14974685D01*
X11557000Y-14955752D01*
X11388964Y-14974685D01*
X11388961Y-14974685D01*
X11388961Y-14974686D01*
X11229354Y-15030534D01*
X11133038Y-15091054D01*
X11086173Y-15120502D01*
X11086171Y-15120503D01*
X11086169Y-15120505D01*
X11086168Y-15120505D01*
X10966605Y-15240068D01*
X10966605Y-15240069D01*
X10966603Y-15240071D01*
X10966602Y-15240073D01*
X10937154Y-15286938D01*
X10876634Y-15383254D01*
X10829366Y-15518340D01*
X10820785Y-15542864D01*
X10801852Y-15710900D01*
X-4640287Y-15710900D01*
X-4635836Y-15694290D01*
X-4615242Y-15458900D01*
X-4635836Y-15223510D01*
X-4696992Y-14995272D01*
X-4796852Y-14781121D01*
X-4932382Y-14587564D01*
X-4952046Y-14567900D01*
X32645852Y-14567900D01*
X32664785Y-14735936D01*
X32664786Y-14735938D01*
X32720634Y-14895545D01*
X32721029Y-14896173D01*
X32810602Y-15038727D01*
X32810605Y-15038730D01*
X32810605Y-15038731D01*
X32930168Y-15158294D01*
X32930170Y-15158295D01*
X32930173Y-15158298D01*
X33073354Y-15248265D01*
X33200713Y-15292830D01*
X33258404Y-15334207D01*
X33284305Y-15397650D01*
X33288485Y-15434749D01*
X33299785Y-15535036D01*
X33299786Y-15535038D01*
X33355634Y-15694645D01*
X33355635Y-15694646D01*
X33445602Y-15837827D01*
X33445605Y-15837830D01*
X33445605Y-15837831D01*
X33565168Y-15957394D01*
X33565170Y-15957395D01*
X33565173Y-15957398D01*
X33708354Y-16047365D01*
X33867964Y-16103215D01*
X34036000Y-16122148D01*
X34036001Y-16122147D01*
X34036003Y-16122148D01*
X34036004Y-16122148D01*
X34057846Y-16119686D01*
X34060849Y-16119348D01*
X34130781Y-16131595D01*
X34181646Y-16177519D01*
X34207601Y-16218826D01*
X34207603Y-16218829D01*
X34327168Y-16338394D01*
X34327170Y-16338395D01*
X34327173Y-16338398D01*
X34470354Y-16428365D01*
X34629964Y-16484215D01*
X34629971Y-16484215D01*
X34629972Y-16484216D01*
X34642772Y-16485658D01*
X34708226Y-16513159D01*
X34747598Y-16569251D01*
X34752634Y-16583645D01*
X34752635Y-16583646D01*
X34842602Y-16726827D01*
X34842605Y-16726830D01*
X34842605Y-16726831D01*
X34962168Y-16846394D01*
X34962170Y-16846395D01*
X34962173Y-16846398D01*
X35105354Y-16936365D01*
X35264964Y-16992215D01*
X35433000Y-17011148D01*
X35601036Y-16992215D01*
X35760646Y-16936365D01*
X35903827Y-16846398D01*
X36023325Y-16726900D01*
X39961535Y-16726900D01*
X39981730Y-16906133D01*
X40000748Y-16960484D01*
X40041301Y-17076378D01*
X40041302Y-17076380D01*
X40137261Y-17229098D01*
X40137263Y-17229101D01*
X40264798Y-17356636D01*
X40264801Y-17356638D01*
X40417522Y-17452599D01*
X40587767Y-17512170D01*
X40767000Y-17532365D01*
X40946233Y-17512170D01*
X41116478Y-17452599D01*
X41269199Y-17356638D01*
X41396738Y-17229099D01*
X41492699Y-17076378D01*
X41552270Y-16906133D01*
X41572465Y-16726900D01*
X41552270Y-16547667D01*
X41492699Y-16377422D01*
X41396738Y-16224701D01*
X41396736Y-16224698D01*
X41269201Y-16097163D01*
X41269198Y-16097161D01*
X41116480Y-16001202D01*
X41116478Y-16001201D01*
X40946233Y-15941630D01*
X40767000Y-15921435D01*
X40587767Y-15941630D01*
X40587764Y-15941630D01*
X40587764Y-15941631D01*
X40417521Y-16001201D01*
X40417519Y-16001202D01*
X40264801Y-16097161D01*
X40264798Y-16097163D01*
X40137263Y-16224698D01*
X40137261Y-16224701D01*
X40041302Y-16377419D01*
X40041301Y-16377421D01*
X40003933Y-16484213D01*
X39981730Y-16547667D01*
X39961535Y-16726900D01*
X36023325Y-16726900D01*
X36023398Y-16726827D01*
X36113365Y-16583646D01*
X36169215Y-16424036D01*
X36188148Y-16256000D01*
X36169215Y-16087964D01*
X36113365Y-15928354D01*
X36023398Y-15785173D01*
X36023394Y-15785169D01*
X36023394Y-15785168D01*
X35903831Y-15665605D01*
X35903828Y-15665603D01*
X35903827Y-15665602D01*
X35822648Y-15614593D01*
X35760645Y-15575634D01*
X35601038Y-15519785D01*
X35601033Y-15519784D01*
X35588217Y-15518340D01*
X35522765Y-15490833D01*
X35483402Y-15434749D01*
X35483040Y-15433716D01*
X35478365Y-15420354D01*
X35388398Y-15277173D01*
X35388394Y-15277169D01*
X35388394Y-15277168D01*
X35268831Y-15157605D01*
X35268828Y-15157603D01*
X35268827Y-15157602D01*
X35187648Y-15106593D01*
X35125645Y-15067634D01*
X35016455Y-15029427D01*
X34966036Y-15011785D01*
X34798000Y-14992852D01*
X34797998Y-14992852D01*
X34773146Y-14995652D01*
X34703214Y-14983402D01*
X34652353Y-14937481D01*
X34626398Y-14896173D01*
X34626395Y-14896170D01*
X34626394Y-14896168D01*
X34506831Y-14776605D01*
X34506828Y-14776603D01*
X34506827Y-14776602D01*
X34363646Y-14686635D01*
X34236286Y-14642069D01*
X34178595Y-14600690D01*
X34152694Y-14537248D01*
X34137215Y-14399864D01*
X34081365Y-14240254D01*
X33991398Y-14097073D01*
X33991394Y-14097069D01*
X33991394Y-14097068D01*
X33871831Y-13977505D01*
X33871828Y-13977503D01*
X33871827Y-13977502D01*
X33790648Y-13926493D01*
X33728645Y-13887534D01*
X33619455Y-13849327D01*
X33569036Y-13831685D01*
X33401000Y-13812752D01*
X33232964Y-13831685D01*
X33232961Y-13831685D01*
X33232961Y-13831686D01*
X33073354Y-13887534D01*
X32977038Y-13948054D01*
X32930173Y-13977502D01*
X32930171Y-13977503D01*
X32930169Y-13977505D01*
X32930168Y-13977505D01*
X32810605Y-14097068D01*
X32810605Y-14097069D01*
X32810603Y-14097071D01*
X32810602Y-14097073D01*
X32782910Y-14141144D01*
X32720634Y-14240254D01*
X32664786Y-14399861D01*
X32664785Y-14399864D01*
X32645852Y-14567900D01*
X-4952046Y-14567900D01*
X-5099464Y-14420482D01*
X-5128910Y-14399864D01*
X-5282794Y-14292113D01*
X-5327122Y-14236656D01*
X-5334431Y-14166037D01*
X-5302400Y-14102676D01*
X-5282794Y-14085687D01*
X-5278596Y-14082747D01*
X-5099464Y-13957318D01*
X-4932382Y-13790236D01*
X-4796852Y-13596679D01*
X-4696992Y-13382528D01*
X-4635836Y-13154290D01*
X-4626178Y-13043900D01*
X8896852Y-13043900D01*
X8915785Y-13211936D01*
X8915786Y-13211938D01*
X8971634Y-13371545D01*
X8994126Y-13407341D01*
X9061602Y-13514727D01*
X9061605Y-13514730D01*
X9061605Y-13514731D01*
X9181168Y-13634294D01*
X9181170Y-13634295D01*
X9181173Y-13634298D01*
X9324354Y-13724265D01*
X9483964Y-13780115D01*
X9652000Y-13799048D01*
X9820036Y-13780115D01*
X9979646Y-13724265D01*
X10122827Y-13634298D01*
X10242398Y-13514727D01*
X10332365Y-13371546D01*
X10388215Y-13211936D01*
X10407148Y-13043900D01*
X10388215Y-12875864D01*
X10332365Y-12716254D01*
X10242398Y-12573073D01*
X10242394Y-12573069D01*
X10242394Y-12573068D01*
X10122831Y-12453505D01*
X10122828Y-12453503D01*
X10122827Y-12453502D01*
X9994794Y-12373053D01*
X9979645Y-12363534D01*
X9870455Y-12325327D01*
X9820036Y-12307685D01*
X9652000Y-12288752D01*
X9483964Y-12307685D01*
X9483961Y-12307685D01*
X9483961Y-12307686D01*
X9324354Y-12363534D01*
X9243279Y-12414478D01*
X9181173Y-12453502D01*
X9181171Y-12453503D01*
X9181169Y-12453505D01*
X9181168Y-12453505D01*
X9061605Y-12573068D01*
X9061605Y-12573069D01*
X8971634Y-12716254D01*
X8917674Y-12870465D01*
X8915785Y-12875864D01*
X8896852Y-13043900D01*
X-4626178Y-13043900D01*
X-4615242Y-12918900D01*
X-4635836Y-12683510D01*
X-4696992Y-12455272D01*
X-4796852Y-12241121D01*
X-4920173Y-12065000D01*
X2115535Y-12065000D01*
X2135730Y-12244233D01*
X2135731Y-12244235D01*
X2195301Y-12414478D01*
X2195302Y-12414480D01*
X2291261Y-12567198D01*
X2291263Y-12567201D01*
X2418798Y-12694736D01*
X2418801Y-12694738D01*
X2571522Y-12790699D01*
X2741767Y-12850270D01*
X2921000Y-12870465D01*
X3100233Y-12850270D01*
X3270478Y-12790699D01*
X3423199Y-12694738D01*
X3550738Y-12567199D01*
X3646699Y-12414478D01*
X3706270Y-12244233D01*
X3726465Y-12065000D01*
X3706270Y-11885767D01*
X3646699Y-11715522D01*
X3550738Y-11562801D01*
X3550736Y-11562798D01*
X3423201Y-11435263D01*
X3423198Y-11435261D01*
X3270480Y-11339302D01*
X3270478Y-11339301D01*
X3177989Y-11306938D01*
X3100233Y-11279730D01*
X2921000Y-11259535D01*
X2741767Y-11279730D01*
X2741764Y-11279730D01*
X2741764Y-11279731D01*
X2571521Y-11339301D01*
X2571519Y-11339302D01*
X2418801Y-11435261D01*
X2418798Y-11435263D01*
X2291263Y-11562798D01*
X2291261Y-11562801D01*
X2195302Y-11715519D01*
X2195301Y-11715521D01*
X2188442Y-11735124D01*
X2135730Y-11885767D01*
X2115535Y-12065000D01*
X-4920173Y-12065000D01*
X-4932382Y-12047564D01*
X-5099464Y-11880482D01*
X-5107132Y-11875113D01*
X-5282794Y-11752113D01*
X-5327122Y-11696656D01*
X-5334431Y-11626037D01*
X-5302400Y-11562676D01*
X-5282794Y-11545687D01*
X-5278596Y-11542747D01*
X-5099464Y-11417318D01*
X-4932382Y-11250236D01*
X-4796852Y-11056679D01*
X-4696992Y-10842528D01*
X-4635836Y-10614290D01*
X-4615242Y-10378900D01*
X-4635836Y-10143510D01*
X-4696992Y-9915272D01*
X-4718616Y-9868900D01*
X36582852Y-9868900D01*
X36601785Y-10036936D01*
X36601786Y-10036938D01*
X36657634Y-10196545D01*
X36657635Y-10196546D01*
X36747602Y-10339727D01*
X36747605Y-10339730D01*
X36747605Y-10339731D01*
X36867168Y-10459294D01*
X36867170Y-10459295D01*
X36867173Y-10459298D01*
X37010354Y-10549265D01*
X37169964Y-10605115D01*
X37314991Y-10621455D01*
X37380441Y-10648957D01*
X37415383Y-10698740D01*
X37416565Y-10698172D01*
X37419632Y-10704542D01*
X37419635Y-10704546D01*
X37486684Y-10811254D01*
X37492908Y-10821158D01*
X37512214Y-10889480D01*
X37505151Y-10929806D01*
X37490785Y-10970864D01*
X37471852Y-11138900D01*
X37490785Y-11306936D01*
X37490786Y-11306938D01*
X37546634Y-11466545D01*
X37546635Y-11466546D01*
X37636602Y-11609727D01*
X37636605Y-11609730D01*
X37636605Y-11609731D01*
X37756168Y-11729294D01*
X37756170Y-11729295D01*
X37756173Y-11729298D01*
X37899354Y-11819265D01*
X38058964Y-11875115D01*
X38227000Y-11894048D01*
X38395036Y-11875115D01*
X38554646Y-11819265D01*
X38697827Y-11729298D01*
X38817398Y-11609727D01*
X38907365Y-11466546D01*
X38963215Y-11306936D01*
X38982148Y-11138900D01*
X38963215Y-10970864D01*
X38907365Y-10811254D01*
X38834090Y-10694638D01*
X38814785Y-10626320D01*
X38821849Y-10585989D01*
X38836215Y-10544936D01*
X38855148Y-10376900D01*
X38836215Y-10208864D01*
X38780365Y-10049254D01*
X38690398Y-9906073D01*
X38690394Y-9906069D01*
X38690394Y-9906068D01*
X38570831Y-9786505D01*
X38570828Y-9786503D01*
X38570827Y-9786502D01*
X38489214Y-9735221D01*
X38427645Y-9696534D01*
X38318455Y-9658327D01*
X38268036Y-9640685D01*
X38123008Y-9624344D01*
X38057557Y-9596841D01*
X38022615Y-9547055D01*
X38021433Y-9547625D01*
X38018365Y-9541255D01*
X38018365Y-9541254D01*
X37928398Y-9398073D01*
X37928394Y-9398069D01*
X37928394Y-9398068D01*
X37808831Y-9278505D01*
X37808828Y-9278503D01*
X37808827Y-9278502D01*
X37703170Y-9212113D01*
X37665645Y-9188534D01*
X37556455Y-9150327D01*
X37506036Y-9132685D01*
X37338000Y-9113752D01*
X37169964Y-9132685D01*
X37169961Y-9132685D01*
X37169961Y-9132686D01*
X37010354Y-9188534D01*
X36914038Y-9249054D01*
X36867173Y-9278502D01*
X36867171Y-9278503D01*
X36867169Y-9278505D01*
X36867168Y-9278505D01*
X36747605Y-9398068D01*
X36747605Y-9398069D01*
X36657634Y-9541254D01*
X36622842Y-9640686D01*
X36601785Y-9700864D01*
X36582852Y-9868900D01*
X-4718616Y-9868900D01*
X-4796852Y-9701121D01*
X-4932382Y-9507564D01*
X-5099464Y-9340482D01*
X-5187981Y-9278502D01*
X-5282794Y-9212113D01*
X-5327122Y-9156656D01*
X-5334431Y-9086037D01*
X-5302400Y-9022676D01*
X-5282794Y-9005687D01*
X-5278596Y-9002747D01*
X-5099464Y-8877318D01*
X-4932382Y-8710236D01*
X-4796852Y-8516679D01*
X-4696992Y-8302528D01*
X-4635836Y-8074290D01*
X-4626178Y-7963900D01*
X6804472Y-7963900D01*
X6824919Y-8145372D01*
X6824920Y-8145374D01*
X6885235Y-8317744D01*
X6885236Y-8317747D01*
X6982393Y-8472371D01*
X6982394Y-8472373D01*
X7111526Y-8601505D01*
X7111528Y-8601506D01*
X7266152Y-8698663D01*
X7266153Y-8698663D01*
X7266156Y-8698665D01*
X7438528Y-8758981D01*
X7620000Y-8779428D01*
X7801472Y-8758981D01*
X7973844Y-8698665D01*
X8128473Y-8601505D01*
X8257605Y-8472373D01*
X8354765Y-8317744D01*
X8415081Y-8145372D01*
X8435528Y-7963900D01*
X8415081Y-7782428D01*
X8354765Y-7610056D01*
X8354763Y-7610053D01*
X8354763Y-7610052D01*
X8257606Y-7455428D01*
X8257605Y-7455426D01*
X8128473Y-7326294D01*
X8128471Y-7326293D01*
X7973847Y-7229136D01*
X7973844Y-7229135D01*
X7926804Y-7212675D01*
X7801472Y-7168819D01*
X7620000Y-7148372D01*
X7438528Y-7168819D01*
X7438525Y-7168819D01*
X7438525Y-7168820D01*
X7266155Y-7229135D01*
X7266152Y-7229136D01*
X7111528Y-7326293D01*
X7111526Y-7326294D01*
X6982394Y-7455426D01*
X6982393Y-7455428D01*
X6885236Y-7610052D01*
X6885235Y-7610055D01*
X6881590Y-7620473D01*
X6824919Y-7782428D01*
X6804472Y-7963900D01*
X-4626178Y-7963900D01*
X-4615242Y-7838900D01*
X-4635836Y-7603510D01*
X-4696992Y-7375272D01*
X-4796852Y-7161121D01*
X-4831247Y-7112000D01*
X12519472Y-7112000D01*
X12539919Y-7293472D01*
X12568541Y-7375268D01*
X12600235Y-7465844D01*
X12600236Y-7465847D01*
X12697393Y-7620471D01*
X12697394Y-7620473D01*
X12826526Y-7749605D01*
X12826528Y-7749606D01*
X12981152Y-7846763D01*
X12981153Y-7846763D01*
X12981156Y-7846765D01*
X13153528Y-7907081D01*
X13335000Y-7927528D01*
X13516472Y-7907081D01*
X13688844Y-7846765D01*
X13843473Y-7749605D01*
X13972605Y-7620473D01*
X14069765Y-7465844D01*
X14130081Y-7293472D01*
X14150528Y-7112000D01*
X14130081Y-6930528D01*
X14069765Y-6758156D01*
X14069763Y-6758153D01*
X14069763Y-6758152D01*
X13972606Y-6603528D01*
X13972605Y-6603526D01*
X13843473Y-6474394D01*
X13843471Y-6474393D01*
X13688847Y-6377236D01*
X13688844Y-6377235D01*
X13574774Y-6337320D01*
X13516472Y-6316919D01*
X13480802Y-6312900D01*
X30740852Y-6312900D01*
X30759785Y-6480936D01*
X30759786Y-6480938D01*
X30815634Y-6640545D01*
X30815635Y-6640546D01*
X30905602Y-6783727D01*
X30905605Y-6783730D01*
X30905605Y-6783731D01*
X31025168Y-6903294D01*
X31025170Y-6903295D01*
X31025173Y-6903298D01*
X31168354Y-6993265D01*
X31327964Y-7049115D01*
X31496000Y-7068048D01*
X31664036Y-7049115D01*
X31823646Y-6993265D01*
X31966827Y-6903298D01*
X32086398Y-6783727D01*
X32176365Y-6640546D01*
X32232215Y-6480936D01*
X32251148Y-6312900D01*
X32232215Y-6144864D01*
X32176365Y-5985254D01*
X32086398Y-5842073D01*
X32086394Y-5842069D01*
X32086394Y-5842068D01*
X32049226Y-5804900D01*
X35693852Y-5804900D01*
X35712785Y-5972936D01*
X35730427Y-6023355D01*
X35768634Y-6132545D01*
X35768635Y-6132546D01*
X35858602Y-6275727D01*
X35858605Y-6275730D01*
X35858605Y-6275731D01*
X35978168Y-6395294D01*
X35978170Y-6395295D01*
X35978173Y-6395298D01*
X36121354Y-6485265D01*
X36280964Y-6541115D01*
X36449000Y-6560048D01*
X36617036Y-6541115D01*
X36776646Y-6485265D01*
X36919827Y-6395298D01*
X37039398Y-6275727D01*
X37129365Y-6132546D01*
X37185215Y-5972936D01*
X37204148Y-5804900D01*
X37185215Y-5636864D01*
X37129365Y-5477254D01*
X37039398Y-5334073D01*
X37039394Y-5334069D01*
X37039394Y-5334068D01*
X36919831Y-5214505D01*
X36919828Y-5214503D01*
X36919827Y-5214502D01*
X36838648Y-5163493D01*
X36776645Y-5124534D01*
X36667455Y-5086327D01*
X36617036Y-5068685D01*
X36449000Y-5049752D01*
X36280964Y-5068685D01*
X36280961Y-5068685D01*
X36280961Y-5068686D01*
X36121354Y-5124534D01*
X36025038Y-5185054D01*
X35978173Y-5214502D01*
X35978171Y-5214503D01*
X35978169Y-5214505D01*
X35978168Y-5214505D01*
X35858605Y-5334068D01*
X35858605Y-5334069D01*
X35858603Y-5334071D01*
X35858602Y-5334073D01*
X35829154Y-5380938D01*
X35768634Y-5477254D01*
X35714300Y-5632534D01*
X35712785Y-5636864D01*
X35693852Y-5804900D01*
X32049226Y-5804900D01*
X31966831Y-5722505D01*
X31966828Y-5722503D01*
X31966827Y-5722502D01*
X31885648Y-5671493D01*
X31823645Y-5632534D01*
X31714455Y-5594327D01*
X31664036Y-5576685D01*
X31496000Y-5557752D01*
X31327964Y-5576685D01*
X31327961Y-5576685D01*
X31327961Y-5576686D01*
X31168354Y-5632534D01*
X31072038Y-5693054D01*
X31025173Y-5722502D01*
X31025171Y-5722503D01*
X31025169Y-5722505D01*
X31025168Y-5722505D01*
X30905605Y-5842068D01*
X30905605Y-5842069D01*
X30815634Y-5985254D01*
X30764095Y-6132546D01*
X30759785Y-6144864D01*
X30740852Y-6312900D01*
X13480802Y-6312900D01*
X13335000Y-6296472D01*
X13153528Y-6316919D01*
X13153525Y-6316919D01*
X13153525Y-6316920D01*
X12981155Y-6377235D01*
X12981152Y-6377236D01*
X12826528Y-6474393D01*
X12826526Y-6474394D01*
X12697394Y-6603526D01*
X12697393Y-6603528D01*
X12600236Y-6758152D01*
X12600235Y-6758155D01*
X12578883Y-6819175D01*
X12539919Y-6930528D01*
X12519472Y-7112000D01*
X-4831247Y-7112000D01*
X-4932382Y-6967564D01*
X-5099464Y-6800482D01*
X-5123393Y-6783727D01*
X-5282794Y-6672113D01*
X-5327122Y-6616656D01*
X-5334431Y-6546037D01*
X-5302400Y-6482676D01*
X-5282794Y-6465687D01*
X-5278596Y-6462747D01*
X-5099464Y-6337318D01*
X-4932382Y-6170236D01*
X-4796852Y-5976679D01*
X-4696992Y-5762528D01*
X-4635836Y-5534290D01*
X-4615242Y-5298900D01*
X-4635836Y-5063510D01*
X-4696992Y-4835272D01*
X-4777836Y-4661900D01*
X10233472Y-4661900D01*
X10253919Y-4843372D01*
X10253920Y-4843374D01*
X10314235Y-5015744D01*
X10314236Y-5015747D01*
X10411393Y-5170371D01*
X10411394Y-5170373D01*
X10540526Y-5299505D01*
X10540528Y-5299506D01*
X10695152Y-5396663D01*
X10695153Y-5396663D01*
X10695156Y-5396665D01*
X10867528Y-5456981D01*
X11049000Y-5477428D01*
X11230472Y-5456981D01*
X11402844Y-5396665D01*
X11557473Y-5299505D01*
X11686605Y-5170373D01*
X11766704Y-5042896D01*
X39761759Y-5042896D01*
X39761759Y-5042903D01*
X39781072Y-5239004D01*
X39781073Y-5239009D01*
X39781074Y-5239013D01*
X39821486Y-5372235D01*
X39838278Y-5427590D01*
X39931171Y-5601379D01*
X39931173Y-5601382D01*
X40056187Y-5753713D01*
X40208518Y-5878727D01*
X40382311Y-5971622D01*
X40570887Y-6028826D01*
X40570893Y-6028826D01*
X40570895Y-6028827D01*
X40766997Y-6048141D01*
X40767000Y-6048141D01*
X40767003Y-6048141D01*
X40963104Y-6028827D01*
X40963104Y-6028826D01*
X40963113Y-6028826D01*
X41151689Y-5971622D01*
X41325482Y-5878727D01*
X41477813Y-5753713D01*
X41602827Y-5601382D01*
X41695722Y-5427589D01*
X41752926Y-5239013D01*
X41759686Y-5170373D01*
X41772241Y-5042903D01*
X41772241Y-5042896D01*
X41763387Y-4952996D01*
X53731759Y-4952996D01*
X53731759Y-4953003D01*
X53751072Y-5149104D01*
X53751073Y-5149109D01*
X53751074Y-5149113D01*
X53778342Y-5239004D01*
X53808278Y-5337690D01*
X53901171Y-5511479D01*
X53901173Y-5511482D01*
X54026187Y-5663813D01*
X54178518Y-5788827D01*
X54178520Y-5788828D01*
X54278133Y-5842073D01*
X54352311Y-5881722D01*
X54540887Y-5938926D01*
X54540893Y-5938926D01*
X54540895Y-5938927D01*
X54736997Y-5958241D01*
X54737000Y-5958241D01*
X54737003Y-5958241D01*
X54933104Y-5938927D01*
X54933104Y-5938926D01*
X54933113Y-5938926D01*
X55121689Y-5881722D01*
X55295482Y-5788827D01*
X55447813Y-5663813D01*
X55572827Y-5511482D01*
X55665722Y-5337689D01*
X55722926Y-5149113D01*
X55731357Y-5063510D01*
X55742241Y-4953003D01*
X55742241Y-4952996D01*
X55722927Y-4756895D01*
X55722926Y-4756893D01*
X55722926Y-4756887D01*
X55665722Y-4568311D01*
X55572827Y-4394518D01*
X55447813Y-4242187D01*
X55295482Y-4117173D01*
X55295480Y-4117172D01*
X55295479Y-4117171D01*
X55121690Y-4024278D01*
X55066335Y-4007486D01*
X54933113Y-3967074D01*
X54933109Y-3967073D01*
X54933104Y-3967072D01*
X54737003Y-3947759D01*
X54736997Y-3947759D01*
X54540895Y-3967072D01*
X54540889Y-3967073D01*
X54540887Y-3967074D01*
X54494505Y-3981144D01*
X54352309Y-4024278D01*
X54178520Y-4117171D01*
X54026187Y-4242187D01*
X53901171Y-4394520D01*
X53808278Y-4568309D01*
X53751072Y-4756895D01*
X53731759Y-4952996D01*
X41763387Y-4952996D01*
X41752927Y-4846795D01*
X41752926Y-4846793D01*
X41752926Y-4846787D01*
X41695722Y-4658211D01*
X41602827Y-4484418D01*
X41477813Y-4332087D01*
X41325482Y-4207073D01*
X41325480Y-4207072D01*
X41325479Y-4207071D01*
X41151690Y-4114178D01*
X41096335Y-4097386D01*
X40963113Y-4056974D01*
X40963109Y-4056973D01*
X40963104Y-4056972D01*
X40767003Y-4037659D01*
X40766997Y-4037659D01*
X40570895Y-4056972D01*
X40570889Y-4056973D01*
X40570887Y-4056974D01*
X40507013Y-4076350D01*
X40382309Y-4114178D01*
X40208520Y-4207071D01*
X40056187Y-4332087D01*
X39931171Y-4484420D01*
X39838278Y-4658209D01*
X39808345Y-4756887D01*
X39782110Y-4843374D01*
X39781072Y-4846795D01*
X39761759Y-5042896D01*
X11766704Y-5042896D01*
X11783765Y-5015744D01*
X11844081Y-4843372D01*
X11864528Y-4661900D01*
X11844081Y-4480428D01*
X11783765Y-4308056D01*
X11783763Y-4308053D01*
X11783763Y-4308052D01*
X11686606Y-4153428D01*
X11686605Y-4153426D01*
X11557473Y-4024294D01*
X11557471Y-4024293D01*
X11402847Y-3927136D01*
X11402844Y-3927135D01*
X11397831Y-3925381D01*
X11230472Y-3866819D01*
X11049000Y-3846372D01*
X10867528Y-3866819D01*
X10867525Y-3866819D01*
X10867525Y-3866820D01*
X10695155Y-3927135D01*
X10695152Y-3927136D01*
X10540528Y-4024293D01*
X10540526Y-4024294D01*
X10411394Y-4153426D01*
X10411393Y-4153428D01*
X10314236Y-4308052D01*
X10314235Y-4308055D01*
X10314235Y-4308056D01*
X10253919Y-4480428D01*
X10233472Y-4661900D01*
X-4777836Y-4661900D01*
X-4796852Y-4621121D01*
X-4932382Y-4427564D01*
X-5099464Y-4260482D01*
X-5125592Y-4242187D01*
X-5283230Y-4131807D01*
X-5327558Y-4076350D01*
X-5334867Y-4005730D01*
X-5302836Y-3942370D01*
X-5283230Y-3925381D01*
X-5099791Y-3796935D01*
X-5099785Y-3796930D01*
X-4932770Y-3629915D01*
X-4932765Y-3629909D01*
X-4797288Y-3436428D01*
X-4697466Y-3222359D01*
X-4697464Y-3222353D01*
X-4636331Y-2994202D01*
X-4626856Y-2885900D01*
X-5435428Y-2885900D01*
X-5420800Y-2831309D01*
X-5420800Y-2686491D01*
X-5426023Y-2667000D01*
X2877535Y-2667000D01*
X2897730Y-2846233D01*
X2897731Y-2846235D01*
X2957301Y-3016478D01*
X2957302Y-3016480D01*
X3053261Y-3169198D01*
X3053263Y-3169201D01*
X3180798Y-3296736D01*
X3180801Y-3296738D01*
X3333522Y-3392699D01*
X3503767Y-3452270D01*
X3683000Y-3472465D01*
X3862233Y-3452270D01*
X4032478Y-3392699D01*
X4185199Y-3296738D01*
X4312738Y-3169199D01*
X4408699Y-3016478D01*
X4468270Y-2846233D01*
X4488465Y-2667000D01*
X22081640Y-2667000D01*
X22101423Y-2855235D01*
X22159909Y-3035237D01*
X22159912Y-3035244D01*
X22254546Y-3199154D01*
X22254553Y-3199164D01*
X22381193Y-3339812D01*
X22381196Y-3339814D01*
X22534320Y-3451065D01*
X22707228Y-3528049D01*
X22892363Y-3567400D01*
X22892364Y-3567400D01*
X23081637Y-3567400D01*
X23174204Y-3547724D01*
X23266772Y-3528049D01*
X23439680Y-3451065D01*
X23592804Y-3339814D01*
X23698561Y-3222359D01*
X23719446Y-3199164D01*
X23719447Y-3199162D01*
X23719452Y-3199157D01*
X23814088Y-3035243D01*
X23872576Y-2855235D01*
X23892360Y-2667000D01*
X23872576Y-2478765D01*
X23872576Y-2478764D01*
X23814090Y-2298762D01*
X23814087Y-2298755D01*
X23736748Y-2164801D01*
X23719452Y-2134843D01*
X23719450Y-2134841D01*
X23719446Y-2134835D01*
X23592806Y-1994187D01*
X23439680Y-1882935D01*
X23266771Y-1805950D01*
X23081637Y-1766600D01*
X23081636Y-1766600D01*
X22892364Y-1766600D01*
X22892363Y-1766600D01*
X22707228Y-1805950D01*
X22534319Y-1882935D01*
X22381193Y-1994187D01*
X22254553Y-2134835D01*
X22254546Y-2134845D01*
X22159912Y-2298755D01*
X22159909Y-2298762D01*
X22101423Y-2478764D01*
X22081640Y-2667000D01*
X4488465Y-2667000D01*
X4468270Y-2487767D01*
X4408699Y-2317522D01*
X4312738Y-2164801D01*
X4312736Y-2164798D01*
X4185201Y-2037263D01*
X4185198Y-2037261D01*
X4032480Y-1941302D01*
X4032478Y-1941301D01*
X3879837Y-1887890D01*
X3862233Y-1881730D01*
X3683000Y-1861535D01*
X3503767Y-1881730D01*
X3503764Y-1881730D01*
X3503764Y-1881731D01*
X3333521Y-1941301D01*
X3333519Y-1941302D01*
X3180801Y-2037261D01*
X3180798Y-2037263D01*
X3053263Y-2164798D01*
X3053261Y-2164801D01*
X2957302Y-2317519D01*
X2957301Y-2317521D01*
X2957301Y-2317522D01*
X2897730Y-2487767D01*
X2877535Y-2667000D01*
X-5426023Y-2667000D01*
X-5435428Y-2631900D01*
X-4626856Y-2631900D01*
X-4636331Y-2523597D01*
X-4697464Y-2295446D01*
X-4697466Y-2295440D01*
X-4797288Y-2081371D01*
X-4932765Y-1887890D01*
X-4932770Y-1887884D01*
X-5099785Y-1720869D01*
X-5099791Y-1720864D01*
X-5283230Y-1592418D01*
X-5327558Y-1536961D01*
X-5328899Y-1524000D01*
X9100535Y-1524000D01*
X9120730Y-1703233D01*
X9161930Y-1820977D01*
X9180301Y-1873478D01*
X9180302Y-1873480D01*
X9276261Y-2026198D01*
X9276263Y-2026201D01*
X9403798Y-2153736D01*
X9403801Y-2153738D01*
X9556522Y-2249699D01*
X9726767Y-2309270D01*
X9906000Y-2329465D01*
X10085233Y-2309270D01*
X10255478Y-2249699D01*
X10408199Y-2153738D01*
X10535738Y-2026199D01*
X10631699Y-1873478D01*
X10691270Y-1703233D01*
X10711465Y-1524000D01*
X10691270Y-1344767D01*
X10689136Y-1338670D01*
X10685519Y-1267769D01*
X10718971Y-1207965D01*
X10789738Y-1137199D01*
X10885699Y-984478D01*
X10945270Y-814233D01*
X10965465Y-635000D01*
X10945270Y-455767D01*
X10885699Y-285522D01*
X10885696Y-285518D01*
X10882627Y-279142D01*
X10884485Y-278247D01*
X10867923Y-219635D01*
X10888619Y-151721D01*
X10911306Y-126852D01*
X10911196Y-126742D01*
X10913597Y-124340D01*
X10915365Y-122403D01*
X10916194Y-121740D01*
X10916199Y-121738D01*
X11043738Y5801D01*
X11139699Y158522D01*
X11199270Y328767D01*
X11219465Y508000D01*
X11199270Y687233D01*
X11139699Y857478D01*
X11043738Y1010199D01*
X11043736Y1010202D01*
X10916201Y1137737D01*
X10916198Y1137739D01*
X10763480Y1233698D01*
X10763478Y1233699D01*
X10593233Y1293270D01*
X10414000Y1313465D01*
X10234767Y1293270D01*
X10234764Y1293270D01*
X10234764Y1293269D01*
X10064521Y1233699D01*
X10064519Y1233698D01*
X9911801Y1137739D01*
X9911798Y1137737D01*
X9784263Y1010202D01*
X9784261Y1010199D01*
X9688302Y857481D01*
X9688301Y857479D01*
X9628731Y687236D01*
X9628730Y687233D01*
X9608535Y508000D01*
X9628730Y328767D01*
X9628731Y328765D01*
X9688300Y158523D01*
X9691371Y152147D01*
X9689513Y151253D01*
X9706077Y92636D01*
X9685381Y24722D01*
X9662694Y-148D01*
X9662804Y-258D01*
X9660430Y-2631D01*
X9658645Y-4589D01*
X9657795Y-5266D01*
X9530263Y-132798D01*
X9530261Y-132801D01*
X9434302Y-285519D01*
X9434301Y-285521D01*
X9434301Y-285522D01*
X9374730Y-455767D01*
X9354535Y-635000D01*
X9374730Y-814233D01*
X9374730Y-814235D01*
X9374731Y-814236D01*
X9376863Y-820330D01*
X9380478Y-891235D01*
X9347028Y-951033D01*
X9276261Y-1021801D01*
X9180302Y-1174519D01*
X9180301Y-1174521D01*
X9144426Y-1277048D01*
X9120730Y-1344767D01*
X9100535Y-1524000D01*
X-5328899Y-1524000D01*
X-5334867Y-1466341D01*
X-5302836Y-1402981D01*
X-5283229Y-1385992D01*
X-5175406Y-1310492D01*
X-5099464Y-1257318D01*
X-4932382Y-1090236D01*
X-4796852Y-896679D01*
X-4696992Y-682528D01*
X-4635836Y-454290D01*
X-4615242Y-218900D01*
X-4635836Y16490D01*
X-4696992Y244728D01*
X-4796852Y458879D01*
X-4932382Y652436D01*
X-5099464Y819518D01*
X-5153677Y857478D01*
X-5293021Y955048D01*
X-5507169Y1054907D01*
X-5507175Y1054909D01*
X-5735407Y1116064D01*
X-5970800Y1136658D01*
X-6206194Y1116064D01*
X-6434426Y1054909D01*
X-6434432Y1054907D01*
X-6648580Y955048D01*
X-6842133Y819521D01*
X-6842139Y819516D01*
X-7009216Y652439D01*
X-7009221Y652433D01*
X-7137587Y469107D01*
X-7193044Y424779D01*
X-7263664Y417470D01*
X-7327024Y449501D01*
X-7344013Y469107D01*
X-7472380Y652433D01*
X-7472385Y652439D01*
X-7639462Y819516D01*
X-7639468Y819521D01*
X-7833021Y955048D01*
X-8047169Y1054907D01*
X-8047175Y1054909D01*
X-8275407Y1116064D01*
X-8510800Y1136658D01*
X-8746194Y1116064D01*
X-8974426Y1054909D01*
X-8974432Y1054907D01*
X-9188580Y955048D01*
X-9382133Y819521D01*
X-9435089Y766565D01*
X-9497402Y732540D01*
X-9568218Y737606D01*
X-9625053Y780153D01*
X-9649863Y846673D01*
X-9650181Y856576D01*
X-9650174Y857481D01*
X-9638607Y2450100D01*
X-561528Y2450100D01*
X-541081Y2268628D01*
X-541080Y2268626D01*
X-480765Y2096256D01*
X-480764Y2096253D01*
X-383607Y1941629D01*
X-383606Y1941627D01*
X-254474Y1812495D01*
X-254472Y1812494D01*
X-99848Y1715337D01*
X-99847Y1715337D01*
X-99844Y1715335D01*
X72528Y1655019D01*
X254000Y1634572D01*
X435472Y1655019D01*
X607844Y1715335D01*
X762473Y1812495D01*
X891605Y1941627D01*
X988765Y2096256D01*
X1049081Y2268628D01*
X1069528Y2450100D01*
X1049081Y2631572D01*
X988765Y2803944D01*
X988763Y2803947D01*
X988763Y2803948D01*
X891606Y2958572D01*
X891605Y2958574D01*
X762473Y3087706D01*
X762471Y3087707D01*
X623545Y3175000D01*
X20911535Y3175000D01*
X20931730Y2995767D01*
X20965613Y2898935D01*
X20991301Y2825522D01*
X20991302Y2825520D01*
X21087261Y2672802D01*
X21087263Y2672799D01*
X21214798Y2545264D01*
X21214801Y2545262D01*
X21367522Y2449301D01*
X21537767Y2389730D01*
X21717000Y2369535D01*
X21896233Y2389730D01*
X22066478Y2449301D01*
X22219199Y2545262D01*
X22346738Y2672801D01*
X22413758Y2779464D01*
X22466936Y2826501D01*
X22537103Y2837321D01*
X22601982Y2808488D01*
X22609540Y2801522D01*
X22738798Y2672264D01*
X22738801Y2672262D01*
X22891522Y2576301D01*
X23061767Y2516730D01*
X23241000Y2496535D01*
X23420233Y2516730D01*
X23590478Y2576301D01*
X23743199Y2672262D01*
X23870738Y2799801D01*
X23887515Y2826501D01*
X23896313Y2840503D01*
X23949491Y2887541D01*
X24019658Y2898361D01*
X24084537Y2869528D01*
X24109687Y2840503D01*
X24135261Y2799801D01*
X24262798Y2672264D01*
X24262801Y2672262D01*
X24415522Y2576301D01*
X24585767Y2516730D01*
X24765000Y2496535D01*
X24944233Y2516730D01*
X25114478Y2576301D01*
X25267199Y2672262D01*
X25267739Y2672802D01*
X25374405Y2779467D01*
X25436717Y2813493D01*
X25507532Y2808428D01*
X25552595Y2779467D01*
X25659798Y2672264D01*
X25659801Y2672262D01*
X25812522Y2576301D01*
X25982767Y2516730D01*
X26162000Y2496535D01*
X26341233Y2516730D01*
X26511478Y2576301D01*
X26664199Y2672262D01*
X26791738Y2799801D01*
X26887699Y2952522D01*
X26947270Y3122767D01*
X26967465Y3302000D01*
X26947270Y3481233D01*
X26887699Y3651478D01*
X26791738Y3804199D01*
X26791736Y3804202D01*
X26664201Y3931737D01*
X26664198Y3931739D01*
X26511480Y4027698D01*
X26511478Y4027699D01*
X26444207Y4051238D01*
X26341233Y4087270D01*
X26162000Y4107465D01*
X25982767Y4087270D01*
X25982764Y4087270D01*
X25982764Y4087269D01*
X25812521Y4027699D01*
X25812519Y4027698D01*
X25659801Y3931739D01*
X25659798Y3931737D01*
X25552595Y3824533D01*
X25490283Y3790507D01*
X25419468Y3795572D01*
X25374405Y3824533D01*
X25267201Y3931737D01*
X25267198Y3931739D01*
X25114480Y4027698D01*
X25114478Y4027699D01*
X25047207Y4051238D01*
X24944233Y4087270D01*
X24765000Y4107465D01*
X24585767Y4087270D01*
X24585764Y4087270D01*
X24585764Y4087269D01*
X24415521Y4027699D01*
X24415519Y4027698D01*
X24262801Y3931739D01*
X24262798Y3931737D01*
X24135264Y3804203D01*
X24109687Y3763497D01*
X24056508Y3716460D01*
X23986340Y3705640D01*
X23921462Y3734473D01*
X23896313Y3763497D01*
X23879341Y3790507D01*
X23870738Y3804199D01*
X23870736Y3804201D01*
X23870735Y3804203D01*
X23743201Y3931737D01*
X23743198Y3931739D01*
X23590480Y4027698D01*
X23590478Y4027699D01*
X23523207Y4051238D01*
X23420233Y4087270D01*
X23241000Y4107465D01*
X23061767Y4087270D01*
X23061764Y4087270D01*
X23061764Y4087269D01*
X22891521Y4027699D01*
X22891519Y4027698D01*
X22738801Y3931739D01*
X22738798Y3931737D01*
X22611264Y3804203D01*
X22544241Y3697537D01*
X22491062Y3650500D01*
X22420895Y3639680D01*
X22356016Y3668513D01*
X22348459Y3675479D01*
X22219201Y3804737D01*
X22219198Y3804739D01*
X22066480Y3900698D01*
X22066478Y3900699D01*
X21977770Y3931739D01*
X21896233Y3960270D01*
X21717000Y3980465D01*
X21537767Y3960270D01*
X21537764Y3960270D01*
X21537764Y3960269D01*
X21367521Y3900699D01*
X21367519Y3900698D01*
X21214801Y3804739D01*
X21214798Y3804737D01*
X21087263Y3677202D01*
X21087261Y3677199D01*
X20991302Y3524481D01*
X20991301Y3524479D01*
X20991301Y3524478D01*
X20931730Y3354233D01*
X20911535Y3175000D01*
X623545Y3175000D01*
X607847Y3184864D01*
X607844Y3184865D01*
X435472Y3245181D01*
X254000Y3265628D01*
X72528Y3245181D01*
X72525Y3245181D01*
X72525Y3245180D01*
X-99845Y3184865D01*
X-99848Y3184864D01*
X-254472Y3087707D01*
X-254474Y3087706D01*
X-383606Y2958574D01*
X-383607Y2958572D01*
X-480764Y2803948D01*
X-480765Y2803945D01*
X-526654Y2672802D01*
X-541081Y2631572D01*
X-561528Y2450100D01*
X-9638607Y2450100D01*
X-9538960Y16169769D01*
X-9518463Y16237741D01*
X-9464471Y16283843D01*
X-9412975Y16294852D01*
X-7852174Y16294989D01*
X-7784053Y16274993D01*
X-7737555Y16221341D01*
X-7727445Y16151068D01*
X-7756932Y16086485D01*
X-7782926Y16063718D01*
X-8017448Y15909471D01*
X-8285143Y15684848D01*
X-8285149Y15684843D01*
X-8524951Y15430668D01*
X-8524951Y15430667D01*
X-8733618Y15150382D01*
X-8733635Y15150355D01*
X-8908351Y14847737D01*
X-8908354Y14847732D01*
X-9046758Y14526873D01*
X-9046760Y14526867D01*
X-9146984Y14192098D01*
X-9207666Y13847953D01*
X-9207666Y13847947D01*
X-9220587Y13626101D01*
X-9220587Y13626100D01*
X-7721583Y13626100D01*
X-7723000Y13617153D01*
X-7723000Y13381047D01*
X-7721583Y13372100D01*
X-9220587Y13372100D01*
X-9207666Y13150254D01*
X-9207666Y13150248D01*
X-9146984Y12806103D01*
X-9046760Y12471334D01*
X-9046758Y12471328D01*
X-8908354Y12150469D01*
X-8908351Y12150464D01*
X-8733635Y11847846D01*
X-8733618Y11847819D01*
X-8524951Y11567534D01*
X-8524951Y11567533D01*
X-8285149Y11313358D01*
X-8285143Y11313353D01*
X-8017454Y11088735D01*
X-7725494Y10896710D01*
X-7413210Y10739874D01*
X-7084848Y10620360D01*
X-7084843Y10620359D01*
X-6744812Y10539769D01*
X-6744806Y10539768D01*
X-6397727Y10499200D01*
X-6350000Y10499200D01*
X-6350000Y12000518D01*
X-6341053Y11999100D01*
X-6104947Y11999100D01*
X-6096000Y12000518D01*
X-6096000Y10499200D01*
X-6048273Y10499200D01*
X-5701195Y10539768D01*
X-5701189Y10539769D01*
X-5361158Y10620359D01*
X-5361153Y10620360D01*
X-5032791Y10739874D01*
X-4720507Y10896710D01*
X-4428547Y11088735D01*
X-4160858Y11313353D01*
X-4160852Y11313358D01*
X-3921050Y11567533D01*
X-3921050Y11567534D01*
X-3712383Y11847819D01*
X-3712366Y11847846D01*
X-3537650Y12150464D01*
X-3537647Y12150469D01*
X-3399243Y12471328D01*
X-3399241Y12471334D01*
X-3299017Y12806103D01*
X-3238335Y13150248D01*
X-3238335Y13150254D01*
X-3225413Y13372100D01*
X-4724417Y13372100D01*
X-4723000Y13381047D01*
X-4723000Y13617153D01*
X-4724417Y13626100D01*
X-3225413Y13626100D01*
X-3225414Y13626101D01*
X-3238335Y13847947D01*
X-3238335Y13847953D01*
X-3299017Y14192098D01*
X-3399241Y14526867D01*
X-3399243Y14526873D01*
X-3537647Y14847732D01*
X-3537650Y14847737D01*
X-3712366Y15150355D01*
X-3712383Y15150382D01*
X-3921050Y15430667D01*
X-3921050Y15430668D01*
X-4160852Y15684843D01*
X-4160858Y15684848D01*
X-4428553Y15909471D01*
X-4663509Y16064004D01*
X-4709432Y16118148D01*
X-4718792Y16188525D01*
X-4688617Y16252790D01*
X-4628488Y16290540D01*
X-4594291Y16295274D01*
X12325133Y16296755D01*
X12393255Y16276759D01*
X12439753Y16223107D01*
X12449863Y16152834D01*
X12420376Y16088251D01*
X12402536Y16071325D01*
X12381486Y16054942D01*
X12381486Y16054941D01*
X12224301Y15884192D01*
X12224301Y15884191D01*
X12097364Y15689901D01*
X12004138Y15477366D01*
X11947167Y15252394D01*
X11947166Y15252391D01*
X11947166Y15252388D01*
X11928001Y15021100D01*
X11947166Y14789812D01*
X11947166Y14789809D01*
X11947167Y14789807D01*
X12003796Y14566184D01*
X12004139Y14564833D01*
X12097364Y14352299D01*
X12224301Y14158009D01*
X12381142Y13987633D01*
X12381485Y13987261D01*
X12513596Y13884436D01*
X12557155Y13850532D01*
X12598626Y13792907D01*
X12602360Y13722008D01*
X12567170Y13660346D01*
X12557155Y13651668D01*
X12381482Y13514937D01*
X12224301Y13344192D01*
X12224301Y13344191D01*
X12097364Y13149901D01*
X12004138Y12937366D01*
X11947167Y12712394D01*
X11947166Y12712391D01*
X11947166Y12712388D01*
X11928001Y12481100D01*
X11947166Y12249812D01*
X11947166Y12249809D01*
X11947167Y12249807D01*
X11987889Y12089000D01*
X12004139Y12024833D01*
X12097364Y11812299D01*
X12224301Y11618009D01*
X12381142Y11447633D01*
X12381485Y11447261D01*
X12438027Y11403253D01*
X12506534Y11349932D01*
X12548005Y11292307D01*
X12551739Y11221408D01*
X12516549Y11159746D01*
X12453608Y11126898D01*
X12429143Y11124500D01*
X2372264Y11124500D01*
X2217631Y11093741D01*
X2217628Y11093740D01*
X2071968Y11033405D01*
X1940875Y10945812D01*
X1940869Y10945807D01*
X-3034708Y5970230D01*
X-3034713Y5970224D01*
X-3122305Y5839132D01*
X-3182640Y5693472D01*
X-3182641Y5693469D01*
X-3213400Y5538836D01*
X-3213400Y4131230D01*
X-3230280Y4068231D01*
X-3240089Y4051243D01*
X-3240091Y4051238D01*
X-3298577Y3871236D01*
X-3318360Y3683000D01*
X-3298577Y3494765D01*
X-3240091Y3314763D01*
X-3240088Y3314756D01*
X-3145454Y3150846D01*
X-3145447Y3150836D01*
X-3018807Y3010188D01*
X-3018804Y3010186D01*
X-2865680Y2898935D01*
X-2700788Y2825520D01*
X-2692772Y2821951D01*
X-2507637Y2782600D01*
X-2507636Y2782600D01*
X-2318363Y2782600D01*
X-2217946Y2803944D01*
X-2133228Y2821951D01*
X-1960320Y2898935D01*
X-1807196Y3010186D01*
X-1765706Y3056265D01*
X-1680554Y3150836D01*
X-1680553Y3150838D01*
X-1680548Y3150843D01*
X-1585912Y3314757D01*
X-1573085Y3354233D01*
X-1527424Y3494765D01*
X-1521857Y3547736D01*
X-1507640Y3683000D01*
X-1527424Y3871235D01*
X-1547082Y3931737D01*
X-1585910Y4051238D01*
X-1585912Y4051243D01*
X-1595720Y4068231D01*
X-1612600Y4131230D01*
X-1612600Y4863100D01*
X10868472Y4863100D01*
X10888919Y4681628D01*
X10888920Y4681626D01*
X10949235Y4509256D01*
X10949236Y4509253D01*
X11046393Y4354629D01*
X11046394Y4354627D01*
X11175526Y4225495D01*
X11175528Y4225494D01*
X11330152Y4128337D01*
X11330153Y4128337D01*
X11330156Y4128335D01*
X11502528Y4068019D01*
X11684000Y4047572D01*
X11865472Y4068019D01*
X12037844Y4128335D01*
X12192473Y4225495D01*
X12321605Y4354627D01*
X12418765Y4509256D01*
X12479081Y4681628D01*
X12499528Y4863100D01*
X12479081Y5044572D01*
X12418765Y5216944D01*
X12418763Y5216947D01*
X12418763Y5216948D01*
X12321606Y5371572D01*
X12321605Y5371574D01*
X12192473Y5500706D01*
X12192471Y5500707D01*
X12037847Y5597864D01*
X12037844Y5597865D01*
X11865472Y5658181D01*
X11684000Y5678628D01*
X11502528Y5658181D01*
X11502525Y5658181D01*
X11502525Y5658180D01*
X11330155Y5597865D01*
X11330152Y5597864D01*
X11175528Y5500707D01*
X11175526Y5500706D01*
X11046394Y5371574D01*
X11046393Y5371572D01*
X10949236Y5216948D01*
X10949235Y5216945D01*
X10949235Y5216944D01*
X10888919Y5044572D01*
X10868472Y4863100D01*
X-1612600Y4863100D01*
X-1612600Y5076274D01*
X-1592598Y5144395D01*
X-1575695Y5165369D01*
X2745731Y9486795D01*
X2808043Y9520821D01*
X2834826Y9523700D01*
X14604968Y9523700D01*
X14604971Y9523700D01*
X14683801Y9523697D01*
X14683816Y9523700D01*
X14683833Y9523700D01*
X14759425Y9538738D01*
X14767749Y9540393D01*
X14767750Y9540394D01*
X14836657Y9554097D01*
X14838540Y9554441D01*
X14838547Y9554443D01*
X14840660Y9555367D01*
X14915682Y9586442D01*
X14915684Y9586444D01*
X14983689Y9614608D01*
X14984134Y9614790D01*
X14984727Y9615193D01*
X15044850Y9655367D01*
X15113382Y9701154D01*
X15115264Y9702362D01*
X15115265Y9702362D01*
X15116930Y9704094D01*
X15165802Y9752966D01*
X15165805Y9752970D01*
X16042573Y10629669D01*
X16376970Y10964041D01*
X16377011Y10964076D01*
X16382722Y10969788D01*
X16382725Y10969789D01*
X16430935Y11018000D01*
X16491645Y11078704D01*
X16494002Y11080927D01*
X16494071Y11081011D01*
X16495192Y11082744D01*
X16524695Y11126898D01*
X16533095Y11139469D01*
X16533096Y11139472D01*
X16546644Y11159746D01*
X16581437Y11211812D01*
X16581793Y11212336D01*
X16581795Y11212338D01*
X16581943Y11212704D01*
X16597101Y11249297D01*
X16638406Y11300553D01*
X16637658Y11301514D01*
X16641771Y11304715D01*
X16824915Y11447261D01*
X16982099Y11618009D01*
X17038016Y11703597D01*
X17092018Y11749684D01*
X17162366Y11759259D01*
X17226724Y11729282D01*
X17248981Y11703595D01*
X17304693Y11618321D01*
X17461821Y11447633D01*
X17644902Y11305135D01*
X17644903Y11305134D01*
X17848939Y11194715D01*
X17848942Y11194714D01*
X18068362Y11119387D01*
X18068371Y11119385D01*
X18286199Y11083037D01*
X18286200Y11083037D01*
X18286200Y11997492D01*
X18347374Y11981100D01*
X18479026Y11981100D01*
X18540200Y11997492D01*
X18540200Y11083037D01*
X18758028Y11119385D01*
X18758037Y11119387D01*
X18977457Y11194714D01*
X18977460Y11194715D01*
X19181496Y11305134D01*
X19181497Y11305135D01*
X19364578Y11447633D01*
X19521705Y11618319D01*
X19577417Y11703594D01*
X19631420Y11749683D01*
X19701768Y11759259D01*
X19766126Y11729283D01*
X19788383Y11703598D01*
X19844301Y11618009D01*
X20001142Y11447633D01*
X20001485Y11447261D01*
X20058027Y11403253D01*
X20184090Y11305134D01*
X20184629Y11304715D01*
X20388738Y11194256D01*
X20608244Y11118900D01*
X20837160Y11080700D01*
X20837164Y11080700D01*
X21069236Y11080700D01*
X21069240Y11080700D01*
X21298156Y11118900D01*
X21517662Y11194256D01*
X21721771Y11304715D01*
X21904915Y11447261D01*
X22062099Y11618009D01*
X22117718Y11703141D01*
X22171721Y11749227D01*
X22242069Y11758802D01*
X22306426Y11728824D01*
X22328680Y11703143D01*
X22384301Y11618009D01*
X22541142Y11447633D01*
X22541485Y11447261D01*
X22598027Y11403253D01*
X22724090Y11305134D01*
X22724629Y11304715D01*
X22928738Y11194256D01*
X23148244Y11118900D01*
X23377160Y11080700D01*
X23377164Y11080700D01*
X23609236Y11080700D01*
X23609240Y11080700D01*
X23838156Y11118900D01*
X24057662Y11194256D01*
X24261771Y11304715D01*
X24444915Y11447261D01*
X24602099Y11618009D01*
X24658016Y11703597D01*
X24712018Y11749684D01*
X24782366Y11759259D01*
X24846724Y11729282D01*
X24868981Y11703595D01*
X24924693Y11618321D01*
X25081821Y11447633D01*
X25264902Y11305135D01*
X25264903Y11305134D01*
X25468939Y11194715D01*
X25468942Y11194714D01*
X25688362Y11119387D01*
X25688371Y11119385D01*
X25906199Y11083037D01*
X25906200Y11083037D01*
X25906200Y11997492D01*
X25967374Y11981100D01*
X26099026Y11981100D01*
X26160200Y11997492D01*
X26160200Y11083037D01*
X26378028Y11119385D01*
X26378037Y11119387D01*
X26597457Y11194714D01*
X26597460Y11194715D01*
X26801496Y11305134D01*
X26801497Y11305135D01*
X26984578Y11447633D01*
X27141705Y11618319D01*
X27197417Y11703594D01*
X27251420Y11749683D01*
X27321768Y11759259D01*
X27386126Y11729283D01*
X27408383Y11703598D01*
X27464301Y11618009D01*
X27621142Y11447633D01*
X27621485Y11447261D01*
X27678027Y11403253D01*
X27804090Y11305134D01*
X27804629Y11304715D01*
X28008738Y11194256D01*
X28228244Y11118900D01*
X28457160Y11080700D01*
X28457164Y11080700D01*
X28689236Y11080700D01*
X28689240Y11080700D01*
X28918156Y11118900D01*
X29137662Y11194256D01*
X29341771Y11304715D01*
X29524915Y11447261D01*
X29682099Y11618009D01*
X29809036Y11812299D01*
X29902261Y12024833D01*
X29959234Y12249812D01*
X29978399Y12481100D01*
X29959234Y12712388D01*
X29902261Y12937367D01*
X29809036Y13149901D01*
X29682099Y13344191D01*
X29524915Y13514939D01*
X29349243Y13651670D01*
X29307773Y13709293D01*
X29304039Y13780191D01*
X29339229Y13841853D01*
X29349237Y13850527D01*
X29524915Y13987261D01*
X29682099Y14158009D01*
X29809036Y14352299D01*
X29902261Y14564833D01*
X29959234Y14789812D01*
X29978399Y15021100D01*
X29959234Y15252388D01*
X29902261Y15477367D01*
X29809036Y15689901D01*
X29682099Y15884191D01*
X29524915Y16054939D01*
X29501922Y16072835D01*
X29460452Y16130460D01*
X29456719Y16201358D01*
X29491908Y16263020D01*
X29554849Y16295868D01*
X29579293Y16298266D01*
X55392557Y16300525D01*
X55460677Y16280529D01*
X55507175Y16226877D01*
X55517285Y16156604D01*
X55487798Y16092021D01*
X55461805Y16069254D01*
X55355548Y15999368D01*
X55087857Y15774748D01*
X55087851Y15774743D01*
X54848049Y15520568D01*
X54848049Y15520567D01*
X54639382Y15240282D01*
X54639365Y15240255D01*
X54464649Y14937637D01*
X54464646Y14937632D01*
X54326242Y14616773D01*
X54326240Y14616767D01*
X54226016Y14281998D01*
X54165334Y13937853D01*
X54165334Y13937847D01*
X54152413Y13716001D01*
X54152413Y13716000D01*
X55651417Y13716000D01*
X55650000Y13707053D01*
X55650000Y13470947D01*
X55651417Y13462000D01*
X54152413Y13462000D01*
X54165334Y13240154D01*
X54165334Y13240148D01*
X54226016Y12896003D01*
X54326240Y12561234D01*
X54326242Y12561228D01*
X54464646Y12240369D01*
X54464649Y12240364D01*
X54639365Y11937746D01*
X54639382Y11937719D01*
X54848049Y11657434D01*
X54848049Y11657433D01*
X55087851Y11403258D01*
X55087857Y11403253D01*
X55355546Y11178635D01*
X55647506Y10986610D01*
X55959790Y10829774D01*
X56288152Y10710260D01*
X56288157Y10710259D01*
X56628188Y10629669D01*
X56628194Y10629668D01*
X56975273Y10589100D01*
X57023000Y10589100D01*
X57023000Y12090418D01*
X57031947Y12089000D01*
X57268053Y12089000D01*
X57277000Y12090418D01*
X57277000Y10589100D01*
X57324727Y10589100D01*
X57671805Y10629668D01*
X57671811Y10629669D01*
X58011842Y10710259D01*
X58011847Y10710260D01*
X58340209Y10829774D01*
X58652493Y10986610D01*
X58944453Y11178635D01*
X59212142Y11403253D01*
X59212148Y11403258D01*
X59451950Y11657433D01*
X59451950Y11657434D01*
X59660617Y11937719D01*
X59660634Y11937746D01*
X59835350Y12240364D01*
X59835353Y12240369D01*
X59973757Y12561228D01*
X59973759Y12561234D01*
X60073983Y12896003D01*
X60134665Y13240148D01*
X60134665Y13240154D01*
X60147587Y13462000D01*
X58648583Y13462000D01*
X58650000Y13470947D01*
X58650000Y13707053D01*
X58648583Y13716000D01*
X60147587Y13716000D01*
X60147586Y13716001D01*
X60134665Y13937847D01*
X60134665Y13937853D01*
X60073983Y14281998D01*
X59973759Y14616767D01*
X59973757Y14616773D01*
X59835353Y14937632D01*
X59835350Y14937637D01*
X59660634Y15240255D01*
X59660617Y15240282D01*
X59451950Y15520567D01*
X59451950Y15520568D01*
X59212148Y15774743D01*
X59212142Y15774748D01*
X58944447Y15999371D01*
X58838081Y16069329D01*
X58792158Y16123473D01*
X58782798Y16193850D01*
X58812973Y16258115D01*
X58873102Y16295865D01*
X58907319Y16300600D01*
X61352000Y16300600D01*
X61420121Y16280598D01*
G37*
%TD.AperFunction*%
%TA.AperFunction,Conductor*%
G36*
X-3811800Y-32247291D02*
G01*
X-3872974Y-32230900D01*
X-4004626Y-32230900D01*
X-4065800Y-32247291D01*
X-4065800Y-30674508D01*
X-4004626Y-30690900D01*
X-3872974Y-30690900D01*
X-3811800Y-30674508D01*
X-3811800Y-32247291D01*
G37*
%TD.AperFunction*%
%TA.AperFunction,Conductor*%
G36*
X18540200Y12964709D02*
G01*
X18479026Y12981100D01*
X18347374Y12981100D01*
X18286200Y12964709D01*
X18286200Y14537492D01*
X18347374Y14521100D01*
X18479026Y14521100D01*
X18540200Y14537492D01*
X18540200Y12964709D01*
G37*
%TD.AperFunction*%
%TA.AperFunction,Conductor*%
G36*
X26160200Y12964709D02*
G01*
X26099026Y12981100D01*
X25967374Y12981100D01*
X25906200Y12964709D01*
X25906200Y14537492D01*
X25967374Y14521100D01*
X26099026Y14521100D01*
X26160200Y14537492D01*
X26160200Y12964709D01*
G37*
%TD.AperFunction*%
%TD*%
M02*
