%TF.GenerationSoftware,KiCad,Pcbnew,8.0.6*%
%TF.CreationDate,2024-11-23T19:50:46+06:00*%
%TF.ProjectId,sicomm_slaveboard_BK4819_v2,7369636f-6d6d-45f7-936c-617665626f61,rev?*%
%TF.SameCoordinates,Original*%
%TF.FileFunction,Soldermask,Top*%
%TF.FilePolarity,Negative*%
%FSLAX46Y46*%
G04 Gerber Fmt 4.6, Leading zero omitted, Abs format (unit mm)*
G04 Created by KiCad (PCBNEW 8.0.6) date 2024-11-23 19:50:46*
%MOMM*%
%LPD*%
G01*
G04 APERTURE LIST*
G04 Aperture macros list*
%AMRoundRect*
0 Rectangle with rounded corners*
0 $1 Rounding radius*
0 $2 $3 $4 $5 $6 $7 $8 $9 X,Y pos of 4 corners*
0 Add a 4 corners polygon primitive as box body*
4,1,4,$2,$3,$4,$5,$6,$7,$8,$9,$2,$3,0*
0 Add four circle primitives for the rounded corners*
1,1,$1+$1,$2,$3*
1,1,$1+$1,$4,$5*
1,1,$1+$1,$6,$7*
1,1,$1+$1,$8,$9*
0 Add four rect primitives between the rounded corners*
20,1,$1+$1,$2,$3,$4,$5,0*
20,1,$1+$1,$4,$5,$6,$7,0*
20,1,$1+$1,$6,$7,$8,$9,0*
20,1,$1+$1,$8,$9,$2,$3,0*%
G04 Aperture macros list end*
%ADD10RoundRect,0.050800X2.100000X-2.100000X2.100000X2.100000X-2.100000X2.100000X-2.100000X-2.100000X0*%
%ADD11RoundRect,0.050800X1.000000X-1.600000X1.000000X1.600000X-1.000000X1.600000X-1.000000X-1.600000X0*%
%ADD12RoundRect,0.050800X-0.282850X-0.270000X0.282850X-0.270000X0.282850X0.270000X-0.282850X0.270000X0*%
%ADD13RoundRect,0.050800X-0.270000X0.395050X-0.270000X-0.395050X0.270000X-0.395050X0.270000X0.395050X0*%
%ADD14RoundRect,0.050800X-0.395050X-0.270000X0.395050X-0.270000X0.395050X0.270000X-0.395050X0.270000X0*%
%ADD15RoundRect,0.050800X-0.432000X0.400000X-0.432000X-0.400000X0.432000X-0.400000X0.432000X0.400000X0*%
%ADD16RoundRect,0.050800X0.688500X-0.566250X0.688500X0.566250X-0.688500X0.566250X-0.688500X-0.566250X0*%
%ADD17RoundRect,0.050800X-0.175000X-0.390000X0.175000X-0.390000X0.175000X0.390000X-0.175000X0.390000X0*%
%ADD18RoundRect,0.050800X-2.250000X0.650000X-2.250000X-0.650000X2.250000X-0.650000X2.250000X0.650000X0*%
%ADD19RoundRect,0.050800X-0.200000X0.275000X-0.200000X-0.275000X0.200000X-0.275000X0.200000X0.275000X0*%
%ADD20RoundRect,0.050800X0.395050X0.270000X-0.395050X0.270000X-0.395050X-0.270000X0.395050X-0.270000X0*%
%ADD21RoundRect,0.050800X-0.600000X0.700000X-0.600000X-0.700000X0.600000X-0.700000X0.600000X0.700000X0*%
%ADD22RoundRect,0.050800X-0.100000X-0.350000X0.100000X-0.350000X0.100000X0.350000X-0.100000X0.350000X0*%
%ADD23RoundRect,0.050800X1.450000X1.450000X-1.450000X1.450000X-1.450000X-1.450000X1.450000X-1.450000X0*%
%ADD24RoundRect,0.050800X-0.350000X-0.100000X0.350000X-0.100000X0.350000X0.100000X-0.350000X0.100000X0*%
%ADD25RoundRect,0.050800X0.270000X-0.395050X0.270000X0.395050X-0.270000X0.395050X-0.270000X-0.395050X0*%
%ADD26RoundRect,0.050800X-0.450000X0.400000X-0.450000X-0.400000X0.450000X-0.400000X0.450000X0.400000X0*%
%ADD27RoundRect,0.050800X0.390000X-0.175000X0.390000X0.175000X-0.390000X0.175000X-0.390000X-0.175000X0*%
%ADD28RoundRect,0.050800X0.270000X-0.282850X0.270000X0.282850X-0.270000X0.282850X-0.270000X-0.282850X0*%
%ADD29RoundRect,0.050800X0.432000X-0.403250X0.432000X0.403250X-0.432000X0.403250X-0.432000X-0.403250X0*%
%ADD30RoundRect,0.050800X-0.432000X0.403250X-0.432000X-0.403250X0.432000X-0.403250X0.432000X0.403250X0*%
%ADD31RoundRect,0.050800X-0.270000X0.282850X-0.270000X-0.282850X0.270000X-0.282850X0.270000X0.282850X0*%
%ADD32RoundRect,0.050800X0.400000X0.432000X-0.400000X0.432000X-0.400000X-0.432000X0.400000X-0.432000X0*%
%ADD33RoundRect,0.050800X0.400000X0.450000X-0.400000X0.450000X-0.400000X-0.450000X0.400000X-0.450000X0*%
%ADD34RoundRect,0.050800X0.450000X-0.400000X0.450000X0.400000X-0.450000X0.400000X-0.450000X-0.400000X0*%
%ADD35RoundRect,0.050800X0.918000X-0.742500X0.918000X0.742500X-0.918000X0.742500X-0.918000X-0.742500X0*%
%ADD36RoundRect,0.050800X0.742500X0.918000X-0.742500X0.918000X-0.742500X-0.918000X0.742500X-0.918000X0*%
%ADD37RoundRect,0.050800X-0.742500X-0.918000X0.742500X-0.918000X0.742500X0.918000X-0.742500X0.918000X0*%
%ADD38RoundRect,0.050800X0.200000X-0.275000X0.200000X0.275000X-0.200000X0.275000X-0.200000X-0.275000X0*%
%ADD39RoundRect,0.050800X-0.275000X-0.200000X0.275000X-0.200000X0.275000X0.200000X-0.275000X0.200000X0*%
%ADD40RoundRect,0.050800X0.250000X0.324000X-0.250000X0.324000X-0.250000X-0.324000X0.250000X-0.324000X0*%
%ADD41RoundRect,0.050800X0.282850X0.270000X-0.282850X0.270000X-0.282850X-0.270000X0.282850X-0.270000X0*%
%ADD42RoundRect,0.050800X0.403250X0.432000X-0.403250X0.432000X-0.403250X-0.432000X0.403250X-0.432000X0*%
%ADD43RoundRect,0.050800X-0.403250X-0.432000X0.403250X-0.432000X0.403250X0.432000X-0.403250X0.432000X0*%
%ADD44RoundRect,0.050000X-0.500000X0.300000X-0.500000X-0.300000X0.500000X-0.300000X0.500000X0.300000X0*%
%ADD45O,0.401600X0.701600*%
%ADD46O,0.701600X0.401600*%
%ADD47RoundRect,0.050800X0.252500X-0.140000X0.252500X0.140000X-0.252500X0.140000X-0.252500X-0.140000X0*%
%ADD48RoundRect,0.050800X0.450000X-0.825000X0.450000X0.825000X-0.450000X0.825000X-0.450000X-0.825000X0*%
%ADD49O,1.901600X1.901600*%
%ADD50O,1.801600X1.801600*%
%ADD51RoundRect,0.050800X0.850000X-0.850000X0.850000X0.850000X-0.850000X0.850000X-0.850000X-0.850000X0*%
%ADD52RoundRect,0.050800X0.900000X0.787400X-0.900000X0.787400X-0.900000X-0.787400X0.900000X-0.787400X0*%
%ADD53O,5.101600X5.101600*%
G04 APERTURE END LIST*
D10*
%TO.C,Pad_gge255906*%
X33147000Y-10376900D03*
%TD*%
D11*
%TO.C,Pad_gge257249*%
X33147000Y-4788900D03*
%TD*%
D12*
%TO.C,R6*%
X43104800Y-17742900D03*
X42239200Y-17742900D03*
%TD*%
D13*
%TO.C,C7*%
X54229000Y-9943100D03*
X54229000Y-8852900D03*
%TD*%
D14*
%TO.C,C13*%
X56298100Y-19177000D03*
X55207900Y-19177000D03*
%TD*%
D15*
%TO.C,L6*%
X52705000Y-5269100D03*
X52705000Y-6668900D03*
%TD*%
D16*
%TO.C,R8*%
X56134000Y-9795000D03*
X56134000Y-11795000D03*
%TD*%
D17*
%TO.C,U4*%
X52309000Y-13309100D03*
X52959000Y-13309100D03*
X53609000Y-13309100D03*
X53609000Y-11328900D03*
X52959000Y-11328900D03*
X52309000Y-11328900D03*
%TD*%
D18*
%TO.C,LNA_IN*%
X59563000Y3058000D03*
X59563000Y-2042000D03*
X59563000Y508100D03*
%TD*%
D19*
%TO.C,NC*%
X57462000Y-19177100D03*
X58361900Y-19177100D03*
%TD*%
D14*
%TO.C,C3*%
X43090100Y-6439900D03*
X41999900Y-6439900D03*
%TD*%
D13*
%TO.C,C12*%
X40640000Y-8890000D03*
X40640000Y-7799800D03*
%TD*%
%TO.C,U2*%
X0Y0D03*
X0Y1090200D03*
%TD*%
D20*
%TO.C,C26*%
X51651900Y-9614900D03*
X52742100Y-9614900D03*
%TD*%
D21*
%TO.C,X2*%
X-494000Y-2164800D03*
X-494000Y-4365000D03*
X1256000Y-4365000D03*
X1256000Y-2164800D03*
%TD*%
D22*
%TO.C,BK4819*%
X6220000Y-6084000D03*
X6620000Y-6084000D03*
X7020100Y-6084000D03*
X7420100Y-6084000D03*
X7819900Y-6084000D03*
X8219900Y-6084000D03*
X8620000Y-6084000D03*
X9020000Y-6084000D03*
X9020000Y-1970000D03*
X8620000Y-1970000D03*
X8219900Y-1970000D03*
X7819900Y-1970000D03*
X7420100Y-1970000D03*
X7020100Y-1970000D03*
X6620000Y-1970000D03*
X6220000Y-1970000D03*
D23*
X7620000Y-4027200D03*
D24*
X5563100Y-2627100D03*
X5563100Y-3026900D03*
X5563100Y-3427000D03*
X5563100Y-3827000D03*
X5563100Y-4227100D03*
X5563100Y-4627100D03*
X5563100Y-5026900D03*
X5563100Y-5426900D03*
X9676900Y-5426900D03*
X9676900Y-5026900D03*
X9676900Y-4627100D03*
X9676900Y-4227100D03*
X9676900Y-3827000D03*
X9676900Y-3427000D03*
X9676900Y-3026900D03*
X9676900Y-2627100D03*
%TD*%
D20*
%TO.C,C25*%
X21171900Y1307100D03*
X22262100Y1307100D03*
%TD*%
D25*
%TO.C,C209*%
X16256000Y-6783800D03*
X16256000Y-7874000D03*
%TD*%
D13*
%TO.C,C210*%
X13716000Y-5334000D03*
X13716000Y-4243800D03*
%TD*%
%TO.C,C211*%
X14859000Y-2159000D03*
X14859000Y-1068800D03*
%TD*%
%TO.C,C212*%
X17907000Y-2921000D03*
X17907000Y-1830800D03*
%TD*%
D20*
%TO.C,C213*%
X18504900Y-5207000D03*
X19595100Y-5207000D03*
%TD*%
D14*
%TO.C,C224*%
X4101100Y-4280900D03*
X3010900Y-4280900D03*
%TD*%
D26*
%TO.C,C225*%
X-2413000Y-3583900D03*
X-2413000Y-2183900D03*
%TD*%
D13*
%TO.C,C228*%
X10287000Y-9779000D03*
X10287000Y-8688800D03*
%TD*%
D25*
%TO.C,C254*%
X1397000Y1090200D03*
X1397000Y0D03*
%TD*%
D14*
%TO.C,L45*%
X12864100Y-8598900D03*
X11773900Y-8598900D03*
%TD*%
D20*
%TO.C,L46*%
X11773900Y-9995900D03*
X12864100Y-9995900D03*
%TD*%
D27*
%TO.C,PE4259*%
X16588000Y-4930900D03*
X16588000Y-4280900D03*
X16588000Y-3630900D03*
X14908000Y-3630900D03*
X14908000Y-4280900D03*
X14908000Y-4930900D03*
%TD*%
D28*
%TO.C,R1*%
X13589000Y-1308100D03*
X13589000Y-2173700D03*
%TD*%
D29*
%TO.C,R12*%
X16256000Y-733500D03*
X16256000Y-2240300D03*
%TD*%
D30*
%TO.C,R108*%
X14859000Y-8336300D03*
X14859000Y-6829500D03*
%TD*%
D31*
%TO.C,R115*%
X-2413000Y1345200D03*
X-2413000Y2210800D03*
%TD*%
D20*
%TO.C,C10*%
X47714900Y-19266900D03*
X48805100Y-19266900D03*
%TD*%
%TO.C,C11*%
X48349900Y-23584900D03*
X49440100Y-23584900D03*
%TD*%
D12*
%TO.C,R7*%
X-710200Y-26162000D03*
X-1575800Y-26162000D03*
%TD*%
D20*
%TO.C,C8*%
X55461900Y-7493000D03*
X56552100Y-7493000D03*
%TD*%
D14*
%TO.C,C9*%
X56552100Y-6223000D03*
X55461900Y-6223000D03*
%TD*%
D20*
%TO.C,C6*%
X55207900Y-16599900D03*
X56298100Y-16599900D03*
%TD*%
D32*
%TO.C,L2*%
X59755000Y-16599900D03*
X58355000Y-16599900D03*
%TD*%
D25*
%TO.C,U1*%
X18415000Y-22404800D03*
X18415000Y-23495000D03*
%TD*%
D18*
%TO.C,ANT*%
X59436000Y-28274000D03*
X59436000Y-33373800D03*
X59436000Y-30823900D03*
%TD*%
D13*
%TO.C,C1*%
X10414000Y-26199100D03*
X10414000Y-25108900D03*
%TD*%
D20*
%TO.C,C20*%
X32347900Y-16091900D03*
X33438100Y-16091900D03*
%TD*%
D25*
%TO.C,C22*%
X39370000Y-13768800D03*
X39370000Y-14859000D03*
%TD*%
D26*
%TO.C,C28*%
X45847000Y-30507900D03*
X45847000Y-29107900D03*
%TD*%
D20*
%TO.C,C29*%
X48349900Y-32601900D03*
X49440100Y-32601900D03*
%TD*%
D14*
%TO.C,C30*%
X46900100Y-21806900D03*
X45809900Y-21806900D03*
%TD*%
D33*
%TO.C,C31*%
X42734000Y-26378900D03*
X44134000Y-26378900D03*
%TD*%
D14*
%TO.C,C32*%
X44233100Y-21806900D03*
X43142900Y-21806900D03*
%TD*%
D34*
%TO.C,C33*%
X41148000Y-28853900D03*
X41148000Y-30253900D03*
%TD*%
D25*
%TO.C,C34*%
X46228000Y-23547800D03*
X46228000Y-24638000D03*
%TD*%
D14*
%TO.C,C35*%
X53504100Y-20536900D03*
X52413900Y-20536900D03*
%TD*%
D34*
%TO.C,C41*%
X52451000Y-29361900D03*
X52451000Y-30761900D03*
%TD*%
D14*
%TO.C,C54*%
X53504100Y-23076900D03*
X52413900Y-23076900D03*
%TD*%
D13*
%TO.C,C55*%
X53594000Y-19177000D03*
X53594000Y-18086800D03*
%TD*%
%TO.C,C58*%
X50292000Y-10795000D03*
X50292000Y-9704800D03*
%TD*%
%TO.C,C59*%
X46863000Y-10795000D03*
X46863000Y-9704800D03*
%TD*%
%TO.C,C60*%
X41910000Y-9779000D03*
X41910000Y-8688800D03*
%TD*%
D34*
%TO.C,C61*%
X45212000Y-8660900D03*
X45212000Y-10060900D03*
%TD*%
D13*
%TO.C,C103*%
X21717000Y-3212100D03*
X21717000Y-2121900D03*
%TD*%
D14*
%TO.C,C105*%
X19087100Y-216900D03*
X17996900Y-216900D03*
%TD*%
D13*
%TO.C,C129*%
X19304000Y-2921000D03*
X19304000Y-1830800D03*
%TD*%
%TO.C,C160*%
X15748000Y-26162000D03*
X15748000Y-25071800D03*
%TD*%
D25*
%TO.C,C161*%
X17018000Y-25071800D03*
X17018000Y-26162000D03*
%TD*%
%TO.C,C163*%
X9017000Y-25108900D03*
X9017000Y-26199100D03*
%TD*%
D14*
%TO.C,C235*%
X30898100Y-16091900D03*
X29807900Y-16091900D03*
%TD*%
D13*
%TO.C,C236*%
X25654000Y-14351000D03*
X25654000Y-13260800D03*
%TD*%
D25*
%TO.C,C237*%
X27051000Y-13260800D03*
X27051000Y-14351000D03*
%TD*%
D20*
%TO.C,C238*%
X27521900Y-2248900D03*
X28612100Y-2248900D03*
%TD*%
D14*
%TO.C,C239*%
X34327100Y545100D03*
X33236900Y545100D03*
%TD*%
%TO.C,C240*%
X31533100Y418100D03*
X30442900Y418100D03*
%TD*%
D25*
%TO.C,C241*%
X35687000Y-1195800D03*
X35687000Y-2286000D03*
%TD*%
D20*
%TO.C,C242*%
X30696900Y-2248900D03*
X31787100Y-2248900D03*
%TD*%
D13*
%TO.C,C243*%
X33147000Y-2032000D03*
X33147000Y-941800D03*
%TD*%
D25*
%TO.C,C244*%
X35052000Y-4116800D03*
X35052000Y-5207000D03*
%TD*%
D14*
%TO.C,C245*%
X39153100Y-8598900D03*
X38062900Y-8598900D03*
%TD*%
D25*
%TO.C,C246*%
X39370000Y-11101800D03*
X39370000Y-12192000D03*
%TD*%
D15*
%TO.C,L1*%
X53594000Y-15010900D03*
X53594000Y-16410900D03*
%TD*%
D35*
%TO.C,L3*%
X43434000Y-28538400D03*
X43434000Y-30823400D03*
%TD*%
D36*
%TO.C,L4*%
X48006500Y-30569900D03*
X50291500Y-30569900D03*
%TD*%
D37*
%TO.C,L5*%
X44322500Y-23838900D03*
X42037500Y-23838900D03*
%TD*%
D38*
%TO.C,L7*%
X31692100Y-851900D03*
X30791900Y-851900D03*
%TD*%
D39*
%TO.C,L8*%
X34417000Y-2572000D03*
X34417000Y-1671800D03*
%TD*%
D40*
%TO.C,L14*%
X48947800Y-9614900D03*
X48080200Y-9614900D03*
%TD*%
D15*
%TO.C,L15*%
X43434000Y-8660900D03*
X43434000Y-10060900D03*
%TD*%
D32*
%TO.C,L54*%
X22544000Y-216900D03*
X21144000Y-216900D03*
%TD*%
D41*
%TO.C,R26*%
X-3480800Y-10376900D03*
X-2615200Y-10376900D03*
%TD*%
D31*
%TO.C,R27*%
X31623000Y-27700700D03*
X31623000Y-26835100D03*
%TD*%
D12*
%TO.C,R28*%
X-2615200Y-8852900D03*
X-3480800Y-8852900D03*
%TD*%
D42*
%TO.C,R31*%
X-3293400Y-24638000D03*
X-1786600Y-24638000D03*
%TD*%
D43*
%TO.C,R32*%
X-1786600Y-22987000D03*
X-3293400Y-22987000D03*
%TD*%
D12*
%TO.C,R116*%
X28372800Y-16091900D03*
X27507200Y-16091900D03*
%TD*%
%TO.C,R117*%
X26721800Y-11900900D03*
X25856200Y-11900900D03*
%TD*%
D44*
%TO.C,U19*%
X11853900Y-25997900D03*
X11853900Y-26947900D03*
X11853900Y-25047900D03*
X14054100Y-26947900D03*
X14054100Y-25047900D03*
%TD*%
D45*
%TO.C,U23*%
X35395200Y-13128700D03*
X34895300Y-13128700D03*
X34395200Y-13128700D03*
X33895300Y-13128700D03*
X33395200Y-13128700D03*
X32895300Y-13128700D03*
X32395200Y-13128700D03*
X31895300Y-13128700D03*
X31395200Y-13128700D03*
X30895300Y-13128700D03*
D46*
X30395200Y-12628600D03*
X30395200Y-12128700D03*
X30395200Y-11628600D03*
X30395200Y-11128700D03*
X30395200Y-10628600D03*
X30395200Y-10128700D03*
X30395200Y-9628600D03*
X30395200Y-9128700D03*
X30395200Y-8628600D03*
X30395200Y-8128700D03*
D45*
X30895300Y-7628600D03*
X31395200Y-7628600D03*
X31895300Y-7628600D03*
X32395200Y-7628600D03*
X32895300Y-7628600D03*
X33395200Y-7628600D03*
X33895300Y-7628600D03*
X34395200Y-7628600D03*
X34895300Y-7628600D03*
X35395200Y-7628600D03*
D46*
X35895300Y-8128700D03*
X35895300Y-8628600D03*
X35895300Y-9128700D03*
X35895300Y-9628600D03*
X35895300Y-10128700D03*
X35895300Y-10628600D03*
X35895300Y-11128700D03*
X35895300Y-11628600D03*
X35895300Y-12128700D03*
X35881300Y-12621700D03*
%TD*%
D14*
%TO.C,U39*%
X19595100Y-24981900D03*
X18504900Y-24981900D03*
%TD*%
D47*
%TO.C,U44*%
X50711600Y-22303000D03*
X50711600Y-21802800D03*
X50711600Y-21303000D03*
X50711600Y-20802800D03*
X48856400Y-20802800D03*
X48856400Y-21303000D03*
X48856400Y-21802800D03*
X48856400Y-22303000D03*
D48*
X49784000Y-21552900D03*
%TD*%
D31*
%TO.C,R2*%
X26035000Y4901200D03*
X26035000Y5766800D03*
%TD*%
%TO.C,R3*%
X24638000Y4901200D03*
X24638000Y5766800D03*
%TD*%
%TO.C,R4*%
X22987000Y4901200D03*
X22987000Y5766800D03*
%TD*%
%TO.C,R5*%
X21336000Y5028200D03*
X21336000Y5893800D03*
%TD*%
D49*
%TO.C,JP3*%
X13333200Y12481100D03*
X13333200Y15021100D03*
X15873200Y12481100D03*
X15873200Y15021100D03*
X18413200Y12481100D03*
X18413200Y15021100D03*
X20953200Y12481100D03*
X20953200Y15021100D03*
X23493200Y12481100D03*
X23493200Y15021100D03*
X26033200Y12481100D03*
X26033200Y15021100D03*
X28573200Y12481100D03*
X28573200Y15021100D03*
%TD*%
D50*
%TO.C,JP2*%
X-8510800Y-218900D03*
X-5970800Y-218900D03*
X-8510800Y-2758900D03*
X-5970800Y-2758900D03*
X-8510800Y-5298900D03*
X-5970800Y-5298900D03*
X-8510800Y-7838900D03*
X-5970800Y-7838900D03*
X-8510800Y-10378900D03*
X-5970800Y-10378900D03*
X-8510800Y-12918900D03*
X-5970800Y-12918900D03*
X-8510800Y-15458900D03*
X-5970800Y-15458900D03*
X-8510800Y-17998900D03*
X-5970800Y-17998900D03*
X-8510800Y-20538900D03*
X-5970800Y-20538900D03*
X-8510800Y-23078900D03*
D51*
X-5970800Y-23078700D03*
%TD*%
D49*
%TO.C,JP1*%
X-3938800Y-32730900D03*
X-3938800Y-30190900D03*
X-1398800Y-32730900D03*
X-1398800Y-30190900D03*
X1141200Y-32730900D03*
X1141200Y-30190900D03*
X3681200Y-32730900D03*
X3681200Y-30190900D03*
X6221200Y-32730900D03*
X6221200Y-30190900D03*
X8761200Y-32730900D03*
X8761200Y-30190900D03*
X11301200Y-32730900D03*
X11301200Y-30190900D03*
X13841200Y-32730900D03*
X13841200Y-30190900D03*
X16381200Y-32730900D03*
X16381200Y-30190900D03*
X18921200Y-32730900D03*
X18921200Y-30190900D03*
X21461200Y-32730900D03*
X21461200Y-30190900D03*
X24001200Y-32730900D03*
X24001200Y-30190900D03*
X26541200Y-32730900D03*
X26541200Y-30190900D03*
X29081200Y-32730900D03*
X29081200Y-30190900D03*
X31621200Y-32730900D03*
D52*
X31621200Y-30190700D03*
%TD*%
D53*
%TO.C,Pad_gge111627*%
X-6223000Y13499100D03*
%TD*%
%TO.C,Pad_gge189569*%
X57150000Y13589000D03*
%TD*%
%TO.C,Pad_gge290440*%
X59182000Y-24727900D03*
%TD*%
%TO.C,Pad_gge303765*%
X-7620000Y-27813000D03*
%TD*%
M02*
