%TF.GenerationSoftware,KiCad,Pcbnew,8.0.6*%
%TF.CreationDate,2024-11-23T19:50:46+06:00*%
%TF.ProjectId,sicomm_slaveboard_BK4819_v2,7369636f-6d6d-45f7-936c-617665626f61,rev?*%
%TF.SameCoordinates,Original*%
%TF.FileFunction,Legend,Bot*%
%TF.FilePolarity,Positive*%
%FSLAX46Y46*%
G04 Gerber Fmt 4.6, Leading zero omitted, Abs format (unit mm)*
G04 Created by KiCad (PCBNEW 8.0.6) date 2024-11-23 19:50:46*
%MOMM*%
%LPD*%
G01*
G04 APERTURE LIST*
G04 Aperture macros list*
%AMRoundRect*
0 Rectangle with rounded corners*
0 $1 Rounding radius*
0 $2 $3 $4 $5 $6 $7 $8 $9 X,Y pos of 4 corners*
0 Add a 4 corners polygon primitive as box body*
4,1,4,$2,$3,$4,$5,$6,$7,$8,$9,$2,$3,0*
0 Add four circle primitives for the rounded corners*
1,1,$1+$1,$2,$3*
1,1,$1+$1,$4,$5*
1,1,$1+$1,$6,$7*
1,1,$1+$1,$8,$9*
0 Add four rect primitives between the rounded corners*
20,1,$1+$1,$2,$3,$4,$5,0*
20,1,$1+$1,$4,$5,$6,$7,0*
20,1,$1+$1,$6,$7,$8,$9,0*
20,1,$1+$1,$8,$9,$2,$3,0*%
G04 Aperture macros list end*
%ADD10C,0.203200*%
%ADD11C,0.152400*%
%ADD12RoundRect,0.050800X-0.270000X0.395050X-0.270000X-0.395050X0.270000X-0.395050X0.270000X0.395050X0*%
%ADD13RoundRect,0.050800X0.270000X-0.395050X0.270000X0.395050X-0.270000X0.395050X-0.270000X-0.395050X0*%
%ADD14RoundRect,0.050800X0.395050X0.270000X-0.395050X0.270000X-0.395050X-0.270000X0.395050X-0.270000X0*%
%ADD15RoundRect,0.050800X-0.395050X-0.270000X0.395050X-0.270000X0.395050X0.270000X-0.395050X0.270000X0*%
%ADD16RoundRect,0.050800X-0.282850X-0.270000X0.282850X-0.270000X0.282850X0.270000X-0.282850X0.270000X0*%
%ADD17RoundRect,0.050800X-2.250000X0.650000X-2.250000X-0.650000X2.250000X-0.650000X2.250000X0.650000X0*%
%ADD18O,1.901600X1.901600*%
%ADD19O,1.801600X1.801600*%
%ADD20RoundRect,0.050800X0.850000X-0.850000X0.850000X0.850000X-0.850000X0.850000X-0.850000X-0.850000X0*%
%ADD21RoundRect,0.050800X0.900000X0.787400X-0.900000X0.787400X-0.900000X-0.787400X0.900000X-0.787400X0*%
%ADD22O,5.101600X5.101600*%
G04 APERTURE END LIST*
D10*
X31672363Y-20139242D02*
X32678077Y-20139242D01*
X32175220Y-20139242D02*
X32175220Y-18379242D01*
X32175220Y-18379242D02*
X32342839Y-18630671D01*
X32342839Y-18630671D02*
X32510458Y-18798290D01*
X32510458Y-18798290D02*
X32678077Y-18882099D01*
X30163792Y-18965909D02*
X30163792Y-20139242D01*
X30582840Y-18295433D02*
X31001887Y-19552575D01*
X31001887Y-19552575D02*
X29912364Y-19552575D01*
X27984745Y-18295433D02*
X29493316Y-20558290D01*
X26476173Y-20139242D02*
X27481887Y-20139242D01*
X26979030Y-20139242D02*
X26979030Y-18379242D01*
X26979030Y-18379242D02*
X27146649Y-18630671D01*
X27146649Y-18630671D02*
X27314268Y-18798290D01*
X27314268Y-18798290D02*
X27481887Y-18882099D01*
X24799983Y-20139242D02*
X25805697Y-20139242D01*
X25302840Y-20139242D02*
X25302840Y-18379242D01*
X25302840Y-18379242D02*
X25470459Y-18630671D01*
X25470459Y-18630671D02*
X25638078Y-18798290D01*
X25638078Y-18798290D02*
X25805697Y-18882099D01*
X22788555Y-18295433D02*
X24297126Y-20558290D01*
X22285697Y-18546861D02*
X22201888Y-18463052D01*
X22201888Y-18463052D02*
X22034269Y-18379242D01*
X22034269Y-18379242D02*
X21615221Y-18379242D01*
X21615221Y-18379242D02*
X21447602Y-18463052D01*
X21447602Y-18463052D02*
X21363793Y-18546861D01*
X21363793Y-18546861D02*
X21279983Y-18714480D01*
X21279983Y-18714480D02*
X21279983Y-18882099D01*
X21279983Y-18882099D02*
X21363793Y-19133528D01*
X21363793Y-19133528D02*
X22369507Y-20139242D01*
X22369507Y-20139242D02*
X21279983Y-20139242D01*
X20190460Y-18379242D02*
X20022841Y-18379242D01*
X20022841Y-18379242D02*
X19855222Y-18463052D01*
X19855222Y-18463052D02*
X19771412Y-18546861D01*
X19771412Y-18546861D02*
X19687603Y-18714480D01*
X19687603Y-18714480D02*
X19603793Y-19049718D01*
X19603793Y-19049718D02*
X19603793Y-19468766D01*
X19603793Y-19468766D02*
X19687603Y-19804004D01*
X19687603Y-19804004D02*
X19771412Y-19971623D01*
X19771412Y-19971623D02*
X19855222Y-20055433D01*
X19855222Y-20055433D02*
X20022841Y-20139242D01*
X20022841Y-20139242D02*
X20190460Y-20139242D01*
X20190460Y-20139242D02*
X20358079Y-20055433D01*
X20358079Y-20055433D02*
X20441888Y-19971623D01*
X20441888Y-19971623D02*
X20525698Y-19804004D01*
X20525698Y-19804004D02*
X20609507Y-19468766D01*
X20609507Y-19468766D02*
X20609507Y-19049718D01*
X20609507Y-19049718D02*
X20525698Y-18714480D01*
X20525698Y-18714480D02*
X20441888Y-18546861D01*
X20441888Y-18546861D02*
X20358079Y-18463052D01*
X20358079Y-18463052D02*
X20190460Y-18379242D01*
X18933317Y-18546861D02*
X18849508Y-18463052D01*
X18849508Y-18463052D02*
X18681889Y-18379242D01*
X18681889Y-18379242D02*
X18262841Y-18379242D01*
X18262841Y-18379242D02*
X18095222Y-18463052D01*
X18095222Y-18463052D02*
X18011413Y-18546861D01*
X18011413Y-18546861D02*
X17927603Y-18714480D01*
X17927603Y-18714480D02*
X17927603Y-18882099D01*
X17927603Y-18882099D02*
X18011413Y-19133528D01*
X18011413Y-19133528D02*
X19017127Y-20139242D01*
X19017127Y-20139242D02*
X17927603Y-20139242D01*
X16419032Y-18965909D02*
X16419032Y-20139242D01*
X16838080Y-18295433D02*
X17257127Y-19552575D01*
X17257127Y-19552575D02*
X16167604Y-19552575D01*
D11*
X9115598Y-9471258D02*
X9146075Y-9440782D01*
X9146075Y-9440782D02*
X9176551Y-9349353D01*
X9176551Y-9349353D02*
X9176551Y-9288401D01*
X9176551Y-9288401D02*
X9146075Y-9196972D01*
X9146075Y-9196972D02*
X9085122Y-9136020D01*
X9085122Y-9136020D02*
X9024170Y-9105543D01*
X9024170Y-9105543D02*
X8902265Y-9075067D01*
X8902265Y-9075067D02*
X8810836Y-9075067D01*
X8810836Y-9075067D02*
X8688932Y-9105543D01*
X8688932Y-9105543D02*
X8627979Y-9136020D01*
X8627979Y-9136020D02*
X8567027Y-9196972D01*
X8567027Y-9196972D02*
X8536551Y-9288401D01*
X8536551Y-9288401D02*
X8536551Y-9349353D01*
X8536551Y-9349353D02*
X8567027Y-9440782D01*
X8567027Y-9440782D02*
X8597503Y-9471258D01*
X8597503Y-9715067D02*
X8567027Y-9745543D01*
X8567027Y-9745543D02*
X8536551Y-9806496D01*
X8536551Y-9806496D02*
X8536551Y-9958877D01*
X8536551Y-9958877D02*
X8567027Y-10019829D01*
X8567027Y-10019829D02*
X8597503Y-10050305D01*
X8597503Y-10050305D02*
X8658455Y-10080782D01*
X8658455Y-10080782D02*
X8719408Y-10080782D01*
X8719408Y-10080782D02*
X8810836Y-10050305D01*
X8810836Y-10050305D02*
X9176551Y-9684591D01*
X9176551Y-9684591D02*
X9176551Y-10080782D01*
X-2197402Y-2232258D02*
X-2166925Y-2201782D01*
X-2166925Y-2201782D02*
X-2136449Y-2110353D01*
X-2136449Y-2110353D02*
X-2136449Y-2049401D01*
X-2136449Y-2049401D02*
X-2166925Y-1957972D01*
X-2166925Y-1957972D02*
X-2227878Y-1897020D01*
X-2227878Y-1897020D02*
X-2288830Y-1866543D01*
X-2288830Y-1866543D02*
X-2410735Y-1836067D01*
X-2410735Y-1836067D02*
X-2502164Y-1836067D01*
X-2502164Y-1836067D02*
X-2624068Y-1866543D01*
X-2624068Y-1866543D02*
X-2685021Y-1897020D01*
X-2685021Y-1897020D02*
X-2745973Y-1957972D01*
X-2745973Y-1957972D02*
X-2776449Y-2049401D01*
X-2776449Y-2049401D02*
X-2776449Y-2110353D01*
X-2776449Y-2110353D02*
X-2745973Y-2201782D01*
X-2745973Y-2201782D02*
X-2715497Y-2232258D01*
X-2715497Y-2476067D02*
X-2745973Y-2506543D01*
X-2745973Y-2506543D02*
X-2776449Y-2567496D01*
X-2776449Y-2567496D02*
X-2776449Y-2719877D01*
X-2776449Y-2719877D02*
X-2745973Y-2780829D01*
X-2745973Y-2780829D02*
X-2715497Y-2811305D01*
X-2715497Y-2811305D02*
X-2654545Y-2841782D01*
X-2654545Y-2841782D02*
X-2593592Y-2841782D01*
X-2593592Y-2841782D02*
X-2502164Y-2811305D01*
X-2502164Y-2811305D02*
X-2136449Y-2445591D01*
X-2136449Y-2445591D02*
X-2136449Y-2841782D01*
X-2715497Y-3085591D02*
X-2745973Y-3116067D01*
X-2745973Y-3116067D02*
X-2776449Y-3177020D01*
X-2776449Y-3177020D02*
X-2776449Y-3329401D01*
X-2776449Y-3329401D02*
X-2745973Y-3390353D01*
X-2745973Y-3390353D02*
X-2715497Y-3420829D01*
X-2715497Y-3420829D02*
X-2654545Y-3451306D01*
X-2654545Y-3451306D02*
X-2593592Y-3451306D01*
X-2593592Y-3451306D02*
X-2502164Y-3420829D01*
X-2502164Y-3420829D02*
X-2136449Y-3055115D01*
X-2136449Y-3055115D02*
X-2136449Y-3451306D01*
X-2776449Y-3664639D02*
X-2776449Y-4060830D01*
X-2776449Y-4060830D02*
X-2532640Y-3847496D01*
X-2532640Y-3847496D02*
X-2532640Y-3938925D01*
X-2532640Y-3938925D02*
X-2502164Y-3999877D01*
X-2502164Y-3999877D02*
X-2471687Y-4030353D01*
X-2471687Y-4030353D02*
X-2410735Y-4060830D01*
X-2410735Y-4060830D02*
X-2258354Y-4060830D01*
X-2258354Y-4060830D02*
X-2197402Y-4030353D01*
X-2197402Y-4030353D02*
X-2166925Y-3999877D01*
X-2166925Y-3999877D02*
X-2136449Y-3938925D01*
X-2136449Y-3938925D02*
X-2136449Y-3756068D01*
X-2136449Y-3756068D02*
X-2166925Y-3695115D01*
X-2166925Y-3695115D02*
X-2197402Y-3664639D01*
X11065641Y-4506498D02*
X11096117Y-4536975D01*
X11096117Y-4536975D02*
X11187546Y-4567451D01*
X11187546Y-4567451D02*
X11248498Y-4567451D01*
X11248498Y-4567451D02*
X11339927Y-4536975D01*
X11339927Y-4536975D02*
X11400879Y-4476022D01*
X11400879Y-4476022D02*
X11431356Y-4415070D01*
X11431356Y-4415070D02*
X11461832Y-4293165D01*
X11461832Y-4293165D02*
X11461832Y-4201736D01*
X11461832Y-4201736D02*
X11431356Y-4079832D01*
X11431356Y-4079832D02*
X11400879Y-4018879D01*
X11400879Y-4018879D02*
X11339927Y-3957927D01*
X11339927Y-3957927D02*
X11248498Y-3927451D01*
X11248498Y-3927451D02*
X11187546Y-3927451D01*
X11187546Y-3927451D02*
X11096117Y-3957927D01*
X11096117Y-3957927D02*
X11065641Y-3988403D01*
X10821832Y-3988403D02*
X10791356Y-3957927D01*
X10791356Y-3957927D02*
X10730403Y-3927451D01*
X10730403Y-3927451D02*
X10578022Y-3927451D01*
X10578022Y-3927451D02*
X10517070Y-3957927D01*
X10517070Y-3957927D02*
X10486594Y-3988403D01*
X10486594Y-3988403D02*
X10456117Y-4049355D01*
X10456117Y-4049355D02*
X10456117Y-4110308D01*
X10456117Y-4110308D02*
X10486594Y-4201736D01*
X10486594Y-4201736D02*
X10852308Y-4567451D01*
X10852308Y-4567451D02*
X10456117Y-4567451D01*
X10212308Y-3988403D02*
X10181832Y-3957927D01*
X10181832Y-3957927D02*
X10120879Y-3927451D01*
X10120879Y-3927451D02*
X9968498Y-3927451D01*
X9968498Y-3927451D02*
X9907546Y-3957927D01*
X9907546Y-3957927D02*
X9877070Y-3988403D01*
X9877070Y-3988403D02*
X9846593Y-4049355D01*
X9846593Y-4049355D02*
X9846593Y-4110308D01*
X9846593Y-4110308D02*
X9877070Y-4201736D01*
X9877070Y-4201736D02*
X10242784Y-4567451D01*
X10242784Y-4567451D02*
X9846593Y-4567451D01*
X9298022Y-3927451D02*
X9419927Y-3927451D01*
X9419927Y-3927451D02*
X9480879Y-3957927D01*
X9480879Y-3957927D02*
X9511355Y-3988403D01*
X9511355Y-3988403D02*
X9572308Y-4079832D01*
X9572308Y-4079832D02*
X9602784Y-4201736D01*
X9602784Y-4201736D02*
X9602784Y-4445546D01*
X9602784Y-4445546D02*
X9572308Y-4506498D01*
X9572308Y-4506498D02*
X9541831Y-4536975D01*
X9541831Y-4536975D02*
X9480879Y-4567451D01*
X9480879Y-4567451D02*
X9358974Y-4567451D01*
X9358974Y-4567451D02*
X9298022Y-4536975D01*
X9298022Y-4536975D02*
X9267546Y-4506498D01*
X9267546Y-4506498D02*
X9237069Y-4445546D01*
X9237069Y-4445546D02*
X9237069Y-4293165D01*
X9237069Y-4293165D02*
X9267546Y-4232213D01*
X9267546Y-4232213D02*
X9298022Y-4201736D01*
X9298022Y-4201736D02*
X9358974Y-4171260D01*
X9358974Y-4171260D02*
X9480879Y-4171260D01*
X9480879Y-4171260D02*
X9541831Y-4201736D01*
X9541831Y-4201736D02*
X9572308Y-4232213D01*
X9572308Y-4232213D02*
X9602784Y-4293165D01*
X7718598Y-11757258D02*
X7749075Y-11726782D01*
X7749075Y-11726782D02*
X7779551Y-11635353D01*
X7779551Y-11635353D02*
X7779551Y-11574401D01*
X7779551Y-11574401D02*
X7749075Y-11482972D01*
X7749075Y-11482972D02*
X7688122Y-11422020D01*
X7688122Y-11422020D02*
X7627170Y-11391543D01*
X7627170Y-11391543D02*
X7505265Y-11361067D01*
X7505265Y-11361067D02*
X7413836Y-11361067D01*
X7413836Y-11361067D02*
X7291932Y-11391543D01*
X7291932Y-11391543D02*
X7230979Y-11422020D01*
X7230979Y-11422020D02*
X7170027Y-11482972D01*
X7170027Y-11482972D02*
X7139551Y-11574401D01*
X7139551Y-11574401D02*
X7139551Y-11635353D01*
X7139551Y-11635353D02*
X7170027Y-11726782D01*
X7170027Y-11726782D02*
X7200503Y-11757258D01*
X7200503Y-12001067D02*
X7170027Y-12031543D01*
X7170027Y-12031543D02*
X7139551Y-12092496D01*
X7139551Y-12092496D02*
X7139551Y-12244877D01*
X7139551Y-12244877D02*
X7170027Y-12305829D01*
X7170027Y-12305829D02*
X7200503Y-12336305D01*
X7200503Y-12336305D02*
X7261455Y-12366782D01*
X7261455Y-12366782D02*
X7322408Y-12366782D01*
X7322408Y-12366782D02*
X7413836Y-12336305D01*
X7413836Y-12336305D02*
X7779551Y-11970591D01*
X7779551Y-11970591D02*
X7779551Y-12366782D01*
X7200503Y-12610591D02*
X7170027Y-12641067D01*
X7170027Y-12641067D02*
X7139551Y-12702020D01*
X7139551Y-12702020D02*
X7139551Y-12854401D01*
X7139551Y-12854401D02*
X7170027Y-12915353D01*
X7170027Y-12915353D02*
X7200503Y-12945829D01*
X7200503Y-12945829D02*
X7261455Y-12976306D01*
X7261455Y-12976306D02*
X7322408Y-12976306D01*
X7322408Y-12976306D02*
X7413836Y-12945829D01*
X7413836Y-12945829D02*
X7779551Y-12580115D01*
X7779551Y-12580115D02*
X7779551Y-12976306D01*
X7779551Y-13281068D02*
X7779551Y-13402972D01*
X7779551Y-13402972D02*
X7749075Y-13463925D01*
X7749075Y-13463925D02*
X7718598Y-13494401D01*
X7718598Y-13494401D02*
X7627170Y-13555353D01*
X7627170Y-13555353D02*
X7505265Y-13585830D01*
X7505265Y-13585830D02*
X7261455Y-13585830D01*
X7261455Y-13585830D02*
X7200503Y-13555353D01*
X7200503Y-13555353D02*
X7170027Y-13524877D01*
X7170027Y-13524877D02*
X7139551Y-13463925D01*
X7139551Y-13463925D02*
X7139551Y-13342020D01*
X7139551Y-13342020D02*
X7170027Y-13281068D01*
X7170027Y-13281068D02*
X7200503Y-13250591D01*
X7200503Y-13250591D02*
X7261455Y-13220115D01*
X7261455Y-13220115D02*
X7413836Y-13220115D01*
X7413836Y-13220115D02*
X7474789Y-13250591D01*
X7474789Y-13250591D02*
X7505265Y-13281068D01*
X7505265Y-13281068D02*
X7535741Y-13342020D01*
X7535741Y-13342020D02*
X7535741Y-13463925D01*
X7535741Y-13463925D02*
X7505265Y-13524877D01*
X7505265Y-13524877D02*
X7474789Y-13555353D01*
X7474789Y-13555353D02*
X7413836Y-13585830D01*
X397641Y-2474498D02*
X428117Y-2504975D01*
X428117Y-2504975D02*
X519546Y-2535451D01*
X519546Y-2535451D02*
X580498Y-2535451D01*
X580498Y-2535451D02*
X671927Y-2504975D01*
X671927Y-2504975D02*
X732879Y-2444022D01*
X732879Y-2444022D02*
X763356Y-2383070D01*
X763356Y-2383070D02*
X793832Y-2261165D01*
X793832Y-2261165D02*
X793832Y-2169736D01*
X793832Y-2169736D02*
X763356Y-2047832D01*
X763356Y-2047832D02*
X732879Y-1986879D01*
X732879Y-1986879D02*
X671927Y-1925927D01*
X671927Y-1925927D02*
X580498Y-1895451D01*
X580498Y-1895451D02*
X519546Y-1895451D01*
X519546Y-1895451D02*
X428117Y-1925927D01*
X428117Y-1925927D02*
X397641Y-1956403D01*
X153832Y-1956403D02*
X123356Y-1925927D01*
X123356Y-1925927D02*
X62403Y-1895451D01*
X62403Y-1895451D02*
X-89978Y-1895451D01*
X-89978Y-1895451D02*
X-150930Y-1925927D01*
X-150930Y-1925927D02*
X-181406Y-1956403D01*
X-181406Y-1956403D02*
X-211883Y-2017355D01*
X-211883Y-2017355D02*
X-211883Y-2078308D01*
X-211883Y-2078308D02*
X-181406Y-2169736D01*
X-181406Y-2169736D02*
X184308Y-2535451D01*
X184308Y-2535451D02*
X-211883Y-2535451D01*
X-425216Y-1895451D02*
X-821407Y-1895451D01*
X-821407Y-1895451D02*
X-608073Y-2139260D01*
X-608073Y-2139260D02*
X-699502Y-2139260D01*
X-699502Y-2139260D02*
X-760454Y-2169736D01*
X-760454Y-2169736D02*
X-790930Y-2200213D01*
X-790930Y-2200213D02*
X-821407Y-2261165D01*
X-821407Y-2261165D02*
X-821407Y-2413546D01*
X-821407Y-2413546D02*
X-790930Y-2474498D01*
X-790930Y-2474498D02*
X-760454Y-2504975D01*
X-760454Y-2504975D02*
X-699502Y-2535451D01*
X-699502Y-2535451D02*
X-516645Y-2535451D01*
X-516645Y-2535451D02*
X-455692Y-2504975D01*
X-455692Y-2504975D02*
X-425216Y-2474498D01*
X-1065216Y-1956403D02*
X-1095692Y-1925927D01*
X-1095692Y-1925927D02*
X-1156645Y-1895451D01*
X-1156645Y-1895451D02*
X-1309026Y-1895451D01*
X-1309026Y-1895451D02*
X-1369978Y-1925927D01*
X-1369978Y-1925927D02*
X-1400454Y-1956403D01*
X-1400454Y-1956403D02*
X-1430931Y-2017355D01*
X-1430931Y-2017355D02*
X-1430931Y-2078308D01*
X-1430931Y-2078308D02*
X-1400454Y-2169736D01*
X-1400454Y-2169736D02*
X-1034740Y-2535451D01*
X-1034740Y-2535451D02*
X-1430931Y-2535451D01*
X2683641Y-5686598D02*
X2714117Y-5717075D01*
X2714117Y-5717075D02*
X2805546Y-5747551D01*
X2805546Y-5747551D02*
X2866498Y-5747551D01*
X2866498Y-5747551D02*
X2957927Y-5717075D01*
X2957927Y-5717075D02*
X3018879Y-5656122D01*
X3018879Y-5656122D02*
X3049356Y-5595170D01*
X3049356Y-5595170D02*
X3079832Y-5473265D01*
X3079832Y-5473265D02*
X3079832Y-5381836D01*
X3079832Y-5381836D02*
X3049356Y-5259932D01*
X3049356Y-5259932D02*
X3018879Y-5198979D01*
X3018879Y-5198979D02*
X2957927Y-5138027D01*
X2957927Y-5138027D02*
X2866498Y-5107551D01*
X2866498Y-5107551D02*
X2805546Y-5107551D01*
X2805546Y-5107551D02*
X2714117Y-5138027D01*
X2714117Y-5138027D02*
X2683641Y-5168503D01*
X2439832Y-5168503D02*
X2409356Y-5138027D01*
X2409356Y-5138027D02*
X2348403Y-5107551D01*
X2348403Y-5107551D02*
X2196022Y-5107551D01*
X2196022Y-5107551D02*
X2135070Y-5138027D01*
X2135070Y-5138027D02*
X2104594Y-5168503D01*
X2104594Y-5168503D02*
X2074117Y-5229455D01*
X2074117Y-5229455D02*
X2074117Y-5290408D01*
X2074117Y-5290408D02*
X2104594Y-5381836D01*
X2104594Y-5381836D02*
X2470308Y-5747551D01*
X2470308Y-5747551D02*
X2074117Y-5747551D01*
X1860784Y-5107551D02*
X1464593Y-5107551D01*
X1464593Y-5107551D02*
X1677927Y-5351360D01*
X1677927Y-5351360D02*
X1586498Y-5351360D01*
X1586498Y-5351360D02*
X1525546Y-5381836D01*
X1525546Y-5381836D02*
X1495070Y-5412313D01*
X1495070Y-5412313D02*
X1464593Y-5473265D01*
X1464593Y-5473265D02*
X1464593Y-5625646D01*
X1464593Y-5625646D02*
X1495070Y-5686598D01*
X1495070Y-5686598D02*
X1525546Y-5717075D01*
X1525546Y-5717075D02*
X1586498Y-5747551D01*
X1586498Y-5747551D02*
X1769355Y-5747551D01*
X1769355Y-5747551D02*
X1830308Y-5717075D01*
X1830308Y-5717075D02*
X1860784Y-5686598D01*
X1251260Y-5107551D02*
X855069Y-5107551D01*
X855069Y-5107551D02*
X1068403Y-5351360D01*
X1068403Y-5351360D02*
X976974Y-5351360D01*
X976974Y-5351360D02*
X916022Y-5381836D01*
X916022Y-5381836D02*
X885546Y-5412313D01*
X885546Y-5412313D02*
X855069Y-5473265D01*
X855069Y-5473265D02*
X855069Y-5625646D01*
X855069Y-5625646D02*
X885546Y-5686598D01*
X885546Y-5686598D02*
X916022Y-5717075D01*
X916022Y-5717075D02*
X976974Y-5747551D01*
X976974Y-5747551D02*
X1159831Y-5747551D01*
X1159831Y-5747551D02*
X1220784Y-5717075D01*
X1220784Y-5717075D02*
X1251260Y-5686598D01*
X37299598Y-1851258D02*
X37330075Y-1820782D01*
X37330075Y-1820782D02*
X37360551Y-1729353D01*
X37360551Y-1729353D02*
X37360551Y-1668401D01*
X37360551Y-1668401D02*
X37330075Y-1576972D01*
X37330075Y-1576972D02*
X37269122Y-1516020D01*
X37269122Y-1516020D02*
X37208170Y-1485543D01*
X37208170Y-1485543D02*
X37086265Y-1455067D01*
X37086265Y-1455067D02*
X36994836Y-1455067D01*
X36994836Y-1455067D02*
X36872932Y-1485543D01*
X36872932Y-1485543D02*
X36811979Y-1516020D01*
X36811979Y-1516020D02*
X36751027Y-1576972D01*
X36751027Y-1576972D02*
X36720551Y-1668401D01*
X36720551Y-1668401D02*
X36720551Y-1729353D01*
X36720551Y-1729353D02*
X36751027Y-1820782D01*
X36751027Y-1820782D02*
X36781503Y-1851258D01*
X36933884Y-2399829D02*
X37360551Y-2399829D01*
X36690075Y-2247448D02*
X37147217Y-2095067D01*
X37147217Y-2095067D02*
X37147217Y-2491258D01*
X33118598Y-3248258D02*
X33149075Y-3217782D01*
X33149075Y-3217782D02*
X33179551Y-3126353D01*
X33179551Y-3126353D02*
X33179551Y-3065401D01*
X33179551Y-3065401D02*
X33149075Y-2973972D01*
X33149075Y-2973972D02*
X33088122Y-2913020D01*
X33088122Y-2913020D02*
X33027170Y-2882543D01*
X33027170Y-2882543D02*
X32905265Y-2852067D01*
X32905265Y-2852067D02*
X32813836Y-2852067D01*
X32813836Y-2852067D02*
X32691932Y-2882543D01*
X32691932Y-2882543D02*
X32630979Y-2913020D01*
X32630979Y-2913020D02*
X32570027Y-2973972D01*
X32570027Y-2973972D02*
X32539551Y-3065401D01*
X32539551Y-3065401D02*
X32539551Y-3126353D01*
X32539551Y-3126353D02*
X32570027Y-3217782D01*
X32570027Y-3217782D02*
X32600503Y-3248258D01*
X32539551Y-3827305D02*
X32539551Y-3522543D01*
X32539551Y-3522543D02*
X32844313Y-3492067D01*
X32844313Y-3492067D02*
X32813836Y-3522543D01*
X32813836Y-3522543D02*
X32783360Y-3583496D01*
X32783360Y-3583496D02*
X32783360Y-3735877D01*
X32783360Y-3735877D02*
X32813836Y-3796829D01*
X32813836Y-3796829D02*
X32844313Y-3827305D01*
X32844313Y-3827305D02*
X32905265Y-3857782D01*
X32905265Y-3857782D02*
X33057646Y-3857782D01*
X33057646Y-3857782D02*
X33118598Y-3827305D01*
X33118598Y-3827305D02*
X33149075Y-3796829D01*
X33149075Y-3796829D02*
X33179551Y-3735877D01*
X33179551Y-3735877D02*
X33179551Y-3583496D01*
X33179551Y-3583496D02*
X33149075Y-3522543D01*
X33149075Y-3522543D02*
X33118598Y-3492067D01*
X36420598Y-3375258D02*
X36451075Y-3344782D01*
X36451075Y-3344782D02*
X36481551Y-3253353D01*
X36481551Y-3253353D02*
X36481551Y-3192401D01*
X36481551Y-3192401D02*
X36451075Y-3100972D01*
X36451075Y-3100972D02*
X36390122Y-3040020D01*
X36390122Y-3040020D02*
X36329170Y-3009543D01*
X36329170Y-3009543D02*
X36207265Y-2979067D01*
X36207265Y-2979067D02*
X36115836Y-2979067D01*
X36115836Y-2979067D02*
X35993932Y-3009543D01*
X35993932Y-3009543D02*
X35932979Y-3040020D01*
X35932979Y-3040020D02*
X35872027Y-3100972D01*
X35872027Y-3100972D02*
X35841551Y-3192401D01*
X35841551Y-3192401D02*
X35841551Y-3253353D01*
X35841551Y-3253353D02*
X35872027Y-3344782D01*
X35872027Y-3344782D02*
X35902503Y-3375258D01*
X35902503Y-3619067D02*
X35872027Y-3649543D01*
X35872027Y-3649543D02*
X35841551Y-3710496D01*
X35841551Y-3710496D02*
X35841551Y-3862877D01*
X35841551Y-3862877D02*
X35872027Y-3923829D01*
X35872027Y-3923829D02*
X35902503Y-3954305D01*
X35902503Y-3954305D02*
X35963455Y-3984782D01*
X35963455Y-3984782D02*
X36024408Y-3984782D01*
X36024408Y-3984782D02*
X36115836Y-3954305D01*
X36115836Y-3954305D02*
X36481551Y-3588591D01*
X36481551Y-3588591D02*
X36481551Y-3984782D01*
X36481551Y-4594306D02*
X36481551Y-4228591D01*
X36481551Y-4411448D02*
X35841551Y-4411448D01*
X35841551Y-4411448D02*
X35932979Y-4350496D01*
X35932979Y-4350496D02*
X35993932Y-4289544D01*
X35993932Y-4289544D02*
X36024408Y-4228591D01*
X35841551Y-5173353D02*
X35841551Y-4868591D01*
X35841551Y-4868591D02*
X36146313Y-4838115D01*
X36146313Y-4838115D02*
X36115836Y-4868591D01*
X36115836Y-4868591D02*
X36085360Y-4929544D01*
X36085360Y-4929544D02*
X36085360Y-5081925D01*
X36085360Y-5081925D02*
X36115836Y-5142877D01*
X36115836Y-5142877D02*
X36146313Y-5173353D01*
X36146313Y-5173353D02*
X36207265Y-5203830D01*
X36207265Y-5203830D02*
X36359646Y-5203830D01*
X36359646Y-5203830D02*
X36420598Y-5173353D01*
X36420598Y-5173353D02*
X36451075Y-5142877D01*
X36451075Y-5142877D02*
X36481551Y-5081925D01*
X36481551Y-5081925D02*
X36481551Y-4929544D01*
X36481551Y-4929544D02*
X36451075Y-4868591D01*
X36451075Y-4868591D02*
X36420598Y-4838115D01*
X31330598Y-962258D02*
X31361075Y-931782D01*
X31361075Y-931782D02*
X31391551Y-840353D01*
X31391551Y-840353D02*
X31391551Y-779401D01*
X31391551Y-779401D02*
X31361075Y-687972D01*
X31361075Y-687972D02*
X31300122Y-627020D01*
X31300122Y-627020D02*
X31239170Y-596543D01*
X31239170Y-596543D02*
X31117265Y-566067D01*
X31117265Y-566067D02*
X31025836Y-566067D01*
X31025836Y-566067D02*
X30903932Y-596543D01*
X30903932Y-596543D02*
X30842979Y-627020D01*
X30842979Y-627020D02*
X30782027Y-687972D01*
X30782027Y-687972D02*
X30751551Y-779401D01*
X30751551Y-779401D02*
X30751551Y-840353D01*
X30751551Y-840353D02*
X30782027Y-931782D01*
X30782027Y-931782D02*
X30812503Y-962258D01*
X30812503Y-1206067D02*
X30782027Y-1236543D01*
X30782027Y-1236543D02*
X30751551Y-1297496D01*
X30751551Y-1297496D02*
X30751551Y-1449877D01*
X30751551Y-1449877D02*
X30782027Y-1510829D01*
X30782027Y-1510829D02*
X30812503Y-1541305D01*
X30812503Y-1541305D02*
X30873455Y-1571782D01*
X30873455Y-1571782D02*
X30934408Y-1571782D01*
X30934408Y-1571782D02*
X31025836Y-1541305D01*
X31025836Y-1541305D02*
X31391551Y-1175591D01*
X31391551Y-1175591D02*
X31391551Y-1571782D01*
X31391551Y-2181306D02*
X31391551Y-1815591D01*
X31391551Y-1998448D02*
X30751551Y-1998448D01*
X30751551Y-1998448D02*
X30842979Y-1937496D01*
X30842979Y-1937496D02*
X30903932Y-1876544D01*
X30903932Y-1876544D02*
X30934408Y-1815591D01*
X30751551Y-2729877D02*
X30751551Y-2607972D01*
X30751551Y-2607972D02*
X30782027Y-2547020D01*
X30782027Y-2547020D02*
X30812503Y-2516544D01*
X30812503Y-2516544D02*
X30903932Y-2455591D01*
X30903932Y-2455591D02*
X31025836Y-2425115D01*
X31025836Y-2425115D02*
X31269646Y-2425115D01*
X31269646Y-2425115D02*
X31330598Y-2455591D01*
X31330598Y-2455591D02*
X31361075Y-2486068D01*
X31361075Y-2486068D02*
X31391551Y-2547020D01*
X31391551Y-2547020D02*
X31391551Y-2668925D01*
X31391551Y-2668925D02*
X31361075Y-2729877D01*
X31361075Y-2729877D02*
X31330598Y-2760353D01*
X31330598Y-2760353D02*
X31269646Y-2790830D01*
X31269646Y-2790830D02*
X31117265Y-2790830D01*
X31117265Y-2790830D02*
X31056313Y-2760353D01*
X31056313Y-2760353D02*
X31025836Y-2729877D01*
X31025836Y-2729877D02*
X30995360Y-2668925D01*
X30995360Y-2668925D02*
X30995360Y-2547020D01*
X30995360Y-2547020D02*
X31025836Y-2486068D01*
X31025836Y-2486068D02*
X31056313Y-2455591D01*
X31056313Y-2455591D02*
X31117265Y-2425115D01*
X31258641Y-7300498D02*
X31289117Y-7330975D01*
X31289117Y-7330975D02*
X31380546Y-7361451D01*
X31380546Y-7361451D02*
X31441498Y-7361451D01*
X31441498Y-7361451D02*
X31532927Y-7330975D01*
X31532927Y-7330975D02*
X31593879Y-7270022D01*
X31593879Y-7270022D02*
X31624356Y-7209070D01*
X31624356Y-7209070D02*
X31654832Y-7087165D01*
X31654832Y-7087165D02*
X31654832Y-6995736D01*
X31654832Y-6995736D02*
X31624356Y-6873832D01*
X31624356Y-6873832D02*
X31593879Y-6812879D01*
X31593879Y-6812879D02*
X31532927Y-6751927D01*
X31532927Y-6751927D02*
X31441498Y-6721451D01*
X31441498Y-6721451D02*
X31380546Y-6721451D01*
X31380546Y-6721451D02*
X31289117Y-6751927D01*
X31289117Y-6751927D02*
X31258641Y-6782403D01*
X31014832Y-6782403D02*
X30984356Y-6751927D01*
X30984356Y-6751927D02*
X30923403Y-6721451D01*
X30923403Y-6721451D02*
X30771022Y-6721451D01*
X30771022Y-6721451D02*
X30710070Y-6751927D01*
X30710070Y-6751927D02*
X30679594Y-6782403D01*
X30679594Y-6782403D02*
X30649117Y-6843355D01*
X30649117Y-6843355D02*
X30649117Y-6904308D01*
X30649117Y-6904308D02*
X30679594Y-6995736D01*
X30679594Y-6995736D02*
X31045308Y-7361451D01*
X31045308Y-7361451D02*
X30649117Y-7361451D01*
X30039593Y-7361451D02*
X30405308Y-7361451D01*
X30222451Y-7361451D02*
X30222451Y-6721451D01*
X30222451Y-6721451D02*
X30283403Y-6812879D01*
X30283403Y-6812879D02*
X30344355Y-6873832D01*
X30344355Y-6873832D02*
X30405308Y-6904308D01*
X29826260Y-6721451D02*
X29399593Y-6721451D01*
X29399593Y-6721451D02*
X29673879Y-7361451D01*
X33671641Y-8052498D02*
X33702117Y-8082975D01*
X33702117Y-8082975D02*
X33793546Y-8113451D01*
X33793546Y-8113451D02*
X33854498Y-8113451D01*
X33854498Y-8113451D02*
X33945927Y-8082975D01*
X33945927Y-8082975D02*
X34006879Y-8022022D01*
X34006879Y-8022022D02*
X34037356Y-7961070D01*
X34037356Y-7961070D02*
X34067832Y-7839165D01*
X34067832Y-7839165D02*
X34067832Y-7747736D01*
X34067832Y-7747736D02*
X34037356Y-7625832D01*
X34037356Y-7625832D02*
X34006879Y-7564879D01*
X34006879Y-7564879D02*
X33945927Y-7503927D01*
X33945927Y-7503927D02*
X33854498Y-7473451D01*
X33854498Y-7473451D02*
X33793546Y-7473451D01*
X33793546Y-7473451D02*
X33702117Y-7503927D01*
X33702117Y-7503927D02*
X33671641Y-7534403D01*
X33427832Y-7534403D02*
X33397356Y-7503927D01*
X33397356Y-7503927D02*
X33336403Y-7473451D01*
X33336403Y-7473451D02*
X33184022Y-7473451D01*
X33184022Y-7473451D02*
X33123070Y-7503927D01*
X33123070Y-7503927D02*
X33092594Y-7534403D01*
X33092594Y-7534403D02*
X33062117Y-7595355D01*
X33062117Y-7595355D02*
X33062117Y-7656308D01*
X33062117Y-7656308D02*
X33092594Y-7747736D01*
X33092594Y-7747736D02*
X33458308Y-8113451D01*
X33458308Y-8113451D02*
X33062117Y-8113451D01*
X32452593Y-8113451D02*
X32818308Y-8113451D01*
X32635451Y-8113451D02*
X32635451Y-7473451D01*
X32635451Y-7473451D02*
X32696403Y-7564879D01*
X32696403Y-7564879D02*
X32757355Y-7625832D01*
X32757355Y-7625832D02*
X32818308Y-7656308D01*
X32086879Y-7747736D02*
X32147831Y-7717260D01*
X32147831Y-7717260D02*
X32178308Y-7686784D01*
X32178308Y-7686784D02*
X32208784Y-7625832D01*
X32208784Y-7625832D02*
X32208784Y-7595355D01*
X32208784Y-7595355D02*
X32178308Y-7534403D01*
X32178308Y-7534403D02*
X32147831Y-7503927D01*
X32147831Y-7503927D02*
X32086879Y-7473451D01*
X32086879Y-7473451D02*
X31964974Y-7473451D01*
X31964974Y-7473451D02*
X31904022Y-7503927D01*
X31904022Y-7503927D02*
X31873546Y-7534403D01*
X31873546Y-7534403D02*
X31843069Y-7595355D01*
X31843069Y-7595355D02*
X31843069Y-7625832D01*
X31843069Y-7625832D02*
X31873546Y-7686784D01*
X31873546Y-7686784D02*
X31904022Y-7717260D01*
X31904022Y-7717260D02*
X31964974Y-7747736D01*
X31964974Y-7747736D02*
X32086879Y-7747736D01*
X32086879Y-7747736D02*
X32147831Y-7778213D01*
X32147831Y-7778213D02*
X32178308Y-7808689D01*
X32178308Y-7808689D02*
X32208784Y-7869641D01*
X32208784Y-7869641D02*
X32208784Y-7991546D01*
X32208784Y-7991546D02*
X32178308Y-8052498D01*
X32178308Y-8052498D02*
X32147831Y-8082975D01*
X32147831Y-8082975D02*
X32086879Y-8113451D01*
X32086879Y-8113451D02*
X31964974Y-8113451D01*
X31964974Y-8113451D02*
X31904022Y-8082975D01*
X31904022Y-8082975D02*
X31873546Y-8052498D01*
X31873546Y-8052498D02*
X31843069Y-7991546D01*
X31843069Y-7991546D02*
X31843069Y-7869641D01*
X31843069Y-7869641D02*
X31873546Y-7808689D01*
X31873546Y-7808689D02*
X31904022Y-7778213D01*
X31904022Y-7778213D02*
X31964974Y-7747736D01*
X37481641Y-14529498D02*
X37512117Y-14559975D01*
X37512117Y-14559975D02*
X37603546Y-14590451D01*
X37603546Y-14590451D02*
X37664498Y-14590451D01*
X37664498Y-14590451D02*
X37755927Y-14559975D01*
X37755927Y-14559975D02*
X37816879Y-14499022D01*
X37816879Y-14499022D02*
X37847356Y-14438070D01*
X37847356Y-14438070D02*
X37877832Y-14316165D01*
X37877832Y-14316165D02*
X37877832Y-14224736D01*
X37877832Y-14224736D02*
X37847356Y-14102832D01*
X37847356Y-14102832D02*
X37816879Y-14041879D01*
X37816879Y-14041879D02*
X37755927Y-13980927D01*
X37755927Y-13980927D02*
X37664498Y-13950451D01*
X37664498Y-13950451D02*
X37603546Y-13950451D01*
X37603546Y-13950451D02*
X37512117Y-13980927D01*
X37512117Y-13980927D02*
X37481641Y-14011403D01*
X37237832Y-14011403D02*
X37207356Y-13980927D01*
X37207356Y-13980927D02*
X37146403Y-13950451D01*
X37146403Y-13950451D02*
X36994022Y-13950451D01*
X36994022Y-13950451D02*
X36933070Y-13980927D01*
X36933070Y-13980927D02*
X36902594Y-14011403D01*
X36902594Y-14011403D02*
X36872117Y-14072355D01*
X36872117Y-14072355D02*
X36872117Y-14133308D01*
X36872117Y-14133308D02*
X36902594Y-14224736D01*
X36902594Y-14224736D02*
X37268308Y-14590451D01*
X37268308Y-14590451D02*
X36872117Y-14590451D01*
X36262593Y-14590451D02*
X36628308Y-14590451D01*
X36445451Y-14590451D02*
X36445451Y-13950451D01*
X36445451Y-13950451D02*
X36506403Y-14041879D01*
X36506403Y-14041879D02*
X36567355Y-14102832D01*
X36567355Y-14102832D02*
X36628308Y-14133308D01*
X35957831Y-14590451D02*
X35835927Y-14590451D01*
X35835927Y-14590451D02*
X35774974Y-14559975D01*
X35774974Y-14559975D02*
X35744498Y-14529498D01*
X35744498Y-14529498D02*
X35683546Y-14438070D01*
X35683546Y-14438070D02*
X35653069Y-14316165D01*
X35653069Y-14316165D02*
X35653069Y-14072355D01*
X35653069Y-14072355D02*
X35683546Y-14011403D01*
X35683546Y-14011403D02*
X35714022Y-13980927D01*
X35714022Y-13980927D02*
X35774974Y-13950451D01*
X35774974Y-13950451D02*
X35896879Y-13950451D01*
X35896879Y-13950451D02*
X35957831Y-13980927D01*
X35957831Y-13980927D02*
X35988308Y-14011403D01*
X35988308Y-14011403D02*
X36018784Y-14072355D01*
X36018784Y-14072355D02*
X36018784Y-14224736D01*
X36018784Y-14224736D02*
X35988308Y-14285689D01*
X35988308Y-14285689D02*
X35957831Y-14316165D01*
X35957831Y-14316165D02*
X35896879Y-14346641D01*
X35896879Y-14346641D02*
X35774974Y-14346641D01*
X35774974Y-14346641D02*
X35714022Y-14316165D01*
X35714022Y-14316165D02*
X35683546Y-14285689D01*
X35683546Y-14285689D02*
X35653069Y-14224736D01*
X34941641Y-15936498D02*
X34972117Y-15966975D01*
X34972117Y-15966975D02*
X35063546Y-15997451D01*
X35063546Y-15997451D02*
X35124498Y-15997451D01*
X35124498Y-15997451D02*
X35215927Y-15966975D01*
X35215927Y-15966975D02*
X35276879Y-15906022D01*
X35276879Y-15906022D02*
X35307356Y-15845070D01*
X35307356Y-15845070D02*
X35337832Y-15723165D01*
X35337832Y-15723165D02*
X35337832Y-15631736D01*
X35337832Y-15631736D02*
X35307356Y-15509832D01*
X35307356Y-15509832D02*
X35276879Y-15448879D01*
X35276879Y-15448879D02*
X35215927Y-15387927D01*
X35215927Y-15387927D02*
X35124498Y-15357451D01*
X35124498Y-15357451D02*
X35063546Y-15357451D01*
X35063546Y-15357451D02*
X34972117Y-15387927D01*
X34972117Y-15387927D02*
X34941641Y-15418403D01*
X34697832Y-15418403D02*
X34667356Y-15387927D01*
X34667356Y-15387927D02*
X34606403Y-15357451D01*
X34606403Y-15357451D02*
X34454022Y-15357451D01*
X34454022Y-15357451D02*
X34393070Y-15387927D01*
X34393070Y-15387927D02*
X34362594Y-15418403D01*
X34362594Y-15418403D02*
X34332117Y-15479355D01*
X34332117Y-15479355D02*
X34332117Y-15540308D01*
X34332117Y-15540308D02*
X34362594Y-15631736D01*
X34362594Y-15631736D02*
X34728308Y-15997451D01*
X34728308Y-15997451D02*
X34332117Y-15997451D01*
X34088308Y-15418403D02*
X34057832Y-15387927D01*
X34057832Y-15387927D02*
X33996879Y-15357451D01*
X33996879Y-15357451D02*
X33844498Y-15357451D01*
X33844498Y-15357451D02*
X33783546Y-15387927D01*
X33783546Y-15387927D02*
X33753070Y-15418403D01*
X33753070Y-15418403D02*
X33722593Y-15479355D01*
X33722593Y-15479355D02*
X33722593Y-15540308D01*
X33722593Y-15540308D02*
X33753070Y-15631736D01*
X33753070Y-15631736D02*
X34118784Y-15997451D01*
X34118784Y-15997451D02*
X33722593Y-15997451D01*
X33326403Y-15357451D02*
X33265450Y-15357451D01*
X33265450Y-15357451D02*
X33204498Y-15387927D01*
X33204498Y-15387927D02*
X33174022Y-15418403D01*
X33174022Y-15418403D02*
X33143546Y-15479355D01*
X33143546Y-15479355D02*
X33113069Y-15601260D01*
X33113069Y-15601260D02*
X33113069Y-15753641D01*
X33113069Y-15753641D02*
X33143546Y-15875546D01*
X33143546Y-15875546D02*
X33174022Y-15936498D01*
X33174022Y-15936498D02*
X33204498Y-15966975D01*
X33204498Y-15966975D02*
X33265450Y-15997451D01*
X33265450Y-15997451D02*
X33326403Y-15997451D01*
X33326403Y-15997451D02*
X33387355Y-15966975D01*
X33387355Y-15966975D02*
X33417831Y-15936498D01*
X33417831Y-15936498D02*
X33448308Y-15875546D01*
X33448308Y-15875546D02*
X33478784Y-15753641D01*
X33478784Y-15753641D02*
X33478784Y-15601260D01*
X33478784Y-15601260D02*
X33448308Y-15479355D01*
X33448308Y-15479355D02*
X33417831Y-15418403D01*
X33417831Y-15418403D02*
X33387355Y-15387927D01*
X33387355Y-15387927D02*
X33326403Y-15357451D01*
X35195641Y-18222498D02*
X35226117Y-18252975D01*
X35226117Y-18252975D02*
X35317546Y-18283451D01*
X35317546Y-18283451D02*
X35378498Y-18283451D01*
X35378498Y-18283451D02*
X35469927Y-18252975D01*
X35469927Y-18252975D02*
X35530879Y-18192022D01*
X35530879Y-18192022D02*
X35561356Y-18131070D01*
X35561356Y-18131070D02*
X35591832Y-18009165D01*
X35591832Y-18009165D02*
X35591832Y-17917736D01*
X35591832Y-17917736D02*
X35561356Y-17795832D01*
X35561356Y-17795832D02*
X35530879Y-17734879D01*
X35530879Y-17734879D02*
X35469927Y-17673927D01*
X35469927Y-17673927D02*
X35378498Y-17643451D01*
X35378498Y-17643451D02*
X35317546Y-17643451D01*
X35317546Y-17643451D02*
X35226117Y-17673927D01*
X35226117Y-17673927D02*
X35195641Y-17704403D01*
X34951832Y-17704403D02*
X34921356Y-17673927D01*
X34921356Y-17673927D02*
X34860403Y-17643451D01*
X34860403Y-17643451D02*
X34708022Y-17643451D01*
X34708022Y-17643451D02*
X34647070Y-17673927D01*
X34647070Y-17673927D02*
X34616594Y-17704403D01*
X34616594Y-17704403D02*
X34586117Y-17765355D01*
X34586117Y-17765355D02*
X34586117Y-17826308D01*
X34586117Y-17826308D02*
X34616594Y-17917736D01*
X34616594Y-17917736D02*
X34982308Y-18283451D01*
X34982308Y-18283451D02*
X34586117Y-18283451D01*
X34342308Y-17704403D02*
X34311832Y-17673927D01*
X34311832Y-17673927D02*
X34250879Y-17643451D01*
X34250879Y-17643451D02*
X34098498Y-17643451D01*
X34098498Y-17643451D02*
X34037546Y-17673927D01*
X34037546Y-17673927D02*
X34007070Y-17704403D01*
X34007070Y-17704403D02*
X33976593Y-17765355D01*
X33976593Y-17765355D02*
X33976593Y-17826308D01*
X33976593Y-17826308D02*
X34007070Y-17917736D01*
X34007070Y-17917736D02*
X34372784Y-18283451D01*
X34372784Y-18283451D02*
X33976593Y-18283451D01*
X33367069Y-18283451D02*
X33732784Y-18283451D01*
X33549927Y-18283451D02*
X33549927Y-17643451D01*
X33549927Y-17643451D02*
X33610879Y-17734879D01*
X33610879Y-17734879D02*
X33671831Y-17795832D01*
X33671831Y-17795832D02*
X33732784Y-17826308D01*
X37735641Y-16688498D02*
X37766117Y-16718975D01*
X37766117Y-16718975D02*
X37857546Y-16749451D01*
X37857546Y-16749451D02*
X37918498Y-16749451D01*
X37918498Y-16749451D02*
X38009927Y-16718975D01*
X38009927Y-16718975D02*
X38070879Y-16658022D01*
X38070879Y-16658022D02*
X38101356Y-16597070D01*
X38101356Y-16597070D02*
X38131832Y-16475165D01*
X38131832Y-16475165D02*
X38131832Y-16383736D01*
X38131832Y-16383736D02*
X38101356Y-16261832D01*
X38101356Y-16261832D02*
X38070879Y-16200879D01*
X38070879Y-16200879D02*
X38009927Y-16139927D01*
X38009927Y-16139927D02*
X37918498Y-16109451D01*
X37918498Y-16109451D02*
X37857546Y-16109451D01*
X37857546Y-16109451D02*
X37766117Y-16139927D01*
X37766117Y-16139927D02*
X37735641Y-16170403D01*
X37491832Y-16170403D02*
X37461356Y-16139927D01*
X37461356Y-16139927D02*
X37400403Y-16109451D01*
X37400403Y-16109451D02*
X37248022Y-16109451D01*
X37248022Y-16109451D02*
X37187070Y-16139927D01*
X37187070Y-16139927D02*
X37156594Y-16170403D01*
X37156594Y-16170403D02*
X37126117Y-16231355D01*
X37126117Y-16231355D02*
X37126117Y-16292308D01*
X37126117Y-16292308D02*
X37156594Y-16383736D01*
X37156594Y-16383736D02*
X37522308Y-16749451D01*
X37522308Y-16749451D02*
X37126117Y-16749451D01*
X36882308Y-16170403D02*
X36851832Y-16139927D01*
X36851832Y-16139927D02*
X36790879Y-16109451D01*
X36790879Y-16109451D02*
X36638498Y-16109451D01*
X36638498Y-16109451D02*
X36577546Y-16139927D01*
X36577546Y-16139927D02*
X36547070Y-16170403D01*
X36547070Y-16170403D02*
X36516593Y-16231355D01*
X36516593Y-16231355D02*
X36516593Y-16292308D01*
X36516593Y-16292308D02*
X36547070Y-16383736D01*
X36547070Y-16383736D02*
X36912784Y-16749451D01*
X36912784Y-16749451D02*
X36516593Y-16749451D01*
X36272784Y-16170403D02*
X36242308Y-16139927D01*
X36242308Y-16139927D02*
X36181355Y-16109451D01*
X36181355Y-16109451D02*
X36028974Y-16109451D01*
X36028974Y-16109451D02*
X35968022Y-16139927D01*
X35968022Y-16139927D02*
X35937546Y-16170403D01*
X35937546Y-16170403D02*
X35907069Y-16231355D01*
X35907069Y-16231355D02*
X35907069Y-16292308D01*
X35907069Y-16292308D02*
X35937546Y-16383736D01*
X35937546Y-16383736D02*
X36303260Y-16749451D01*
X36303260Y-16749451D02*
X35907069Y-16749451D01*
X39005641Y-6462451D02*
X39218975Y-6157689D01*
X39371356Y-6462451D02*
X39371356Y-5822451D01*
X39371356Y-5822451D02*
X39127546Y-5822451D01*
X39127546Y-5822451D02*
X39066594Y-5852927D01*
X39066594Y-5852927D02*
X39036117Y-5883403D01*
X39036117Y-5883403D02*
X39005641Y-5944355D01*
X39005641Y-5944355D02*
X39005641Y-6035784D01*
X39005641Y-6035784D02*
X39036117Y-6096736D01*
X39036117Y-6096736D02*
X39066594Y-6127213D01*
X39066594Y-6127213D02*
X39127546Y-6157689D01*
X39127546Y-6157689D02*
X39371356Y-6157689D01*
X38396117Y-6462451D02*
X38761832Y-6462451D01*
X38578975Y-6462451D02*
X38578975Y-5822451D01*
X38578975Y-5822451D02*
X38639927Y-5913879D01*
X38639927Y-5913879D02*
X38700879Y-5974832D01*
X38700879Y-5974832D02*
X38761832Y-6005308D01*
X37786593Y-6462451D02*
X38152308Y-6462451D01*
X37969451Y-6462451D02*
X37969451Y-5822451D01*
X37969451Y-5822451D02*
X38030403Y-5913879D01*
X38030403Y-5913879D02*
X38091355Y-5974832D01*
X38091355Y-5974832D02*
X38152308Y-6005308D01*
X37177069Y-6462451D02*
X37542784Y-6462451D01*
X37359927Y-6462451D02*
X37359927Y-5822451D01*
X37359927Y-5822451D02*
X37420879Y-5913879D01*
X37420879Y-5913879D02*
X37481831Y-5974832D01*
X37481831Y-5974832D02*
X37542784Y-6005308D01*
X41164641Y-8240451D02*
X41377975Y-7935689D01*
X41530356Y-8240451D02*
X41530356Y-7600451D01*
X41530356Y-7600451D02*
X41286546Y-7600451D01*
X41286546Y-7600451D02*
X41225594Y-7630927D01*
X41225594Y-7630927D02*
X41195117Y-7661403D01*
X41195117Y-7661403D02*
X41164641Y-7722355D01*
X41164641Y-7722355D02*
X41164641Y-7813784D01*
X41164641Y-7813784D02*
X41195117Y-7874736D01*
X41195117Y-7874736D02*
X41225594Y-7905213D01*
X41225594Y-7905213D02*
X41286546Y-7935689D01*
X41286546Y-7935689D02*
X41530356Y-7935689D01*
X40555117Y-8240451D02*
X40920832Y-8240451D01*
X40737975Y-8240451D02*
X40737975Y-7600451D01*
X40737975Y-7600451D02*
X40798927Y-7691879D01*
X40798927Y-7691879D02*
X40859879Y-7752832D01*
X40859879Y-7752832D02*
X40920832Y-7783308D01*
X39945593Y-8240451D02*
X40311308Y-8240451D01*
X40128451Y-8240451D02*
X40128451Y-7600451D01*
X40128451Y-7600451D02*
X40189403Y-7691879D01*
X40189403Y-7691879D02*
X40250355Y-7752832D01*
X40250355Y-7752832D02*
X40311308Y-7783308D01*
X39701784Y-7661403D02*
X39671308Y-7630927D01*
X39671308Y-7630927D02*
X39610355Y-7600451D01*
X39610355Y-7600451D02*
X39457974Y-7600451D01*
X39457974Y-7600451D02*
X39397022Y-7630927D01*
X39397022Y-7630927D02*
X39366546Y-7661403D01*
X39366546Y-7661403D02*
X39336069Y-7722355D01*
X39336069Y-7722355D02*
X39336069Y-7783308D01*
X39336069Y-7783308D02*
X39366546Y-7874736D01*
X39366546Y-7874736D02*
X39732260Y-8240451D01*
X39732260Y-8240451D02*
X39336069Y-8240451D01*
X41545641Y-9764451D02*
X41758975Y-9459689D01*
X41911356Y-9764451D02*
X41911356Y-9124451D01*
X41911356Y-9124451D02*
X41667546Y-9124451D01*
X41667546Y-9124451D02*
X41606594Y-9154927D01*
X41606594Y-9154927D02*
X41576117Y-9185403D01*
X41576117Y-9185403D02*
X41545641Y-9246355D01*
X41545641Y-9246355D02*
X41545641Y-9337784D01*
X41545641Y-9337784D02*
X41576117Y-9398736D01*
X41576117Y-9398736D02*
X41606594Y-9429213D01*
X41606594Y-9429213D02*
X41667546Y-9459689D01*
X41667546Y-9459689D02*
X41911356Y-9459689D01*
X40936117Y-9764451D02*
X41301832Y-9764451D01*
X41118975Y-9764451D02*
X41118975Y-9124451D01*
X41118975Y-9124451D02*
X41179927Y-9215879D01*
X41179927Y-9215879D02*
X41240879Y-9276832D01*
X41240879Y-9276832D02*
X41301832Y-9307308D01*
X40326593Y-9764451D02*
X40692308Y-9764451D01*
X40509451Y-9764451D02*
X40509451Y-9124451D01*
X40509451Y-9124451D02*
X40570403Y-9215879D01*
X40570403Y-9215879D02*
X40631355Y-9276832D01*
X40631355Y-9276832D02*
X40692308Y-9307308D01*
X40113260Y-9124451D02*
X39717069Y-9124451D01*
X39717069Y-9124451D02*
X39930403Y-9368260D01*
X39930403Y-9368260D02*
X39838974Y-9368260D01*
X39838974Y-9368260D02*
X39778022Y-9398736D01*
X39778022Y-9398736D02*
X39747546Y-9429213D01*
X39747546Y-9429213D02*
X39717069Y-9490165D01*
X39717069Y-9490165D02*
X39717069Y-9642546D01*
X39717069Y-9642546D02*
X39747546Y-9703498D01*
X39747546Y-9703498D02*
X39778022Y-9733975D01*
X39778022Y-9733975D02*
X39838974Y-9764451D01*
X39838974Y-9764451D02*
X40021831Y-9764451D01*
X40021831Y-9764451D02*
X40082784Y-9733975D01*
X40082784Y-9733975D02*
X40113260Y-9703498D01*
X41037641Y-12431451D02*
X41250975Y-12126689D01*
X41403356Y-12431451D02*
X41403356Y-11791451D01*
X41403356Y-11791451D02*
X41159546Y-11791451D01*
X41159546Y-11791451D02*
X41098594Y-11821927D01*
X41098594Y-11821927D02*
X41068117Y-11852403D01*
X41068117Y-11852403D02*
X41037641Y-11913355D01*
X41037641Y-11913355D02*
X41037641Y-12004784D01*
X41037641Y-12004784D02*
X41068117Y-12065736D01*
X41068117Y-12065736D02*
X41098594Y-12096213D01*
X41098594Y-12096213D02*
X41159546Y-12126689D01*
X41159546Y-12126689D02*
X41403356Y-12126689D01*
X40428117Y-12431451D02*
X40793832Y-12431451D01*
X40610975Y-12431451D02*
X40610975Y-11791451D01*
X40610975Y-11791451D02*
X40671927Y-11882879D01*
X40671927Y-11882879D02*
X40732879Y-11943832D01*
X40732879Y-11943832D02*
X40793832Y-11974308D01*
X39818593Y-12431451D02*
X40184308Y-12431451D01*
X40001451Y-12431451D02*
X40001451Y-11791451D01*
X40001451Y-11791451D02*
X40062403Y-11882879D01*
X40062403Y-11882879D02*
X40123355Y-11943832D01*
X40123355Y-11943832D02*
X40184308Y-11974308D01*
X39270022Y-12004784D02*
X39270022Y-12431451D01*
X39422403Y-11760975D02*
X39574784Y-12218117D01*
X39574784Y-12218117D02*
X39178593Y-12218117D01*
%TO.C,C2*%
X8753600Y-5169600D02*
X8753600Y-5959700D01*
X7756400Y-5959700D02*
X7756400Y-5169600D01*
X7908800Y-5017200D02*
X8601200Y-5017200D01*
X8753600Y-7202200D02*
X8753600Y-6412100D01*
X7756400Y-6412100D02*
X7756400Y-7202200D01*
X7908800Y-7354600D02*
X8601200Y-7354600D01*
X7756400Y-5169600D02*
G75*
G02*
X7908800Y-5017200I152400J0D01*
G01*
X8601200Y-5017200D02*
G75*
G02*
X8753600Y-5169600I0J-152400D01*
G01*
X7908800Y-7354600D02*
G75*
G02*
X7756400Y-7202200I0J152400D01*
G01*
X8753600Y-7202200D02*
G75*
G02*
X8601200Y-7354600I-152400J0D01*
G01*
%TO.C,C223*%
X-2530600Y-1487200D02*
X-2530600Y-697100D01*
X-1533400Y-697100D02*
X-1533400Y-1487200D01*
X-1685800Y-1639600D02*
X-2378200Y-1639600D01*
X-2530600Y545400D02*
X-2530600Y-244700D01*
X-1533400Y-244700D02*
X-1533400Y545400D01*
X-1685800Y697800D02*
X-2378200Y697800D01*
X-1533400Y-1487200D02*
G75*
G02*
X-1685800Y-1639600I-152400J0D01*
G01*
X-2378200Y-1639600D02*
G75*
G02*
X-2530600Y-1487200I0J152400D01*
G01*
X-1685800Y697800D02*
G75*
G02*
X-1533400Y545400I0J-152400D01*
G01*
X-2530600Y545400D02*
G75*
G02*
X-2378200Y697800I152400J0D01*
G01*
%TO.C,C226*%
X11049300Y-4271500D02*
X10259200Y-4271500D01*
X10259200Y-3274300D02*
X11049300Y-3274300D01*
X11201700Y-3426700D02*
X11201700Y-4119100D01*
X9016700Y-4271500D02*
X9806800Y-4271500D01*
X9806800Y-3274300D02*
X9016700Y-3274300D01*
X8864300Y-3426700D02*
X8864300Y-4119100D01*
X11049300Y-3274300D02*
G75*
G02*
X11201700Y-3426700I0J-152400D01*
G01*
X11201700Y-4119100D02*
G75*
G02*
X11049300Y-4271500I-152400J0D01*
G01*
X8864300Y-3426700D02*
G75*
G02*
X9016700Y-3274300I152400J0D01*
G01*
X9016700Y-4271500D02*
G75*
G02*
X8864300Y-4119100I0J152400D01*
G01*
%TO.C,C229*%
X7483600Y-5169600D02*
X7483600Y-5959700D01*
X6486400Y-5959700D02*
X6486400Y-5169600D01*
X6638800Y-5017200D02*
X7331200Y-5017200D01*
X7483600Y-7202200D02*
X7483600Y-6412100D01*
X6486400Y-6412100D02*
X6486400Y-7202200D01*
X6638800Y-7354600D02*
X7331200Y-7354600D01*
X6486400Y-5169600D02*
G75*
G02*
X6638800Y-5017200I152400J0D01*
G01*
X7331200Y-5017200D02*
G75*
G02*
X7483600Y-5169600I0J-152400D01*
G01*
X6638800Y-7354600D02*
G75*
G02*
X6486400Y-7202200I0J152400D01*
G01*
X7483600Y-7202200D02*
G75*
G02*
X7331200Y-7354600I-152400J0D01*
G01*
%TO.C,C232*%
X6223300Y-2366500D02*
X5433200Y-2366500D01*
X5433200Y-1369300D02*
X6223300Y-1369300D01*
X6375700Y-1521700D02*
X6375700Y-2214100D01*
X4190700Y-2366500D02*
X4980800Y-2366500D01*
X4980800Y-1369300D02*
X4190700Y-1369300D01*
X4038300Y-1521700D02*
X4038300Y-2214100D01*
X6223300Y-1369300D02*
G75*
G02*
X6375700Y-1521700I0J-152400D01*
G01*
X6375700Y-2214100D02*
G75*
G02*
X6223300Y-2366500I-152400J0D01*
G01*
X4038300Y-1521700D02*
G75*
G02*
X4190700Y-1369300I152400J0D01*
G01*
X4190700Y-2366500D02*
G75*
G02*
X4038300Y-2214100I0J152400D01*
G01*
%TO.C,C233*%
X6350300Y-4271500D02*
X5560200Y-4271500D01*
X5560200Y-3274300D02*
X6350300Y-3274300D01*
X6502700Y-3426700D02*
X6502700Y-4119100D01*
X4317700Y-4271500D02*
X5107800Y-4271500D01*
X5107800Y-3274300D02*
X4317700Y-3274300D01*
X4165300Y-3426700D02*
X4165300Y-4119100D01*
X6350300Y-3274300D02*
G75*
G02*
X6502700Y-3426700I0J-152400D01*
G01*
X6502700Y-4119100D02*
G75*
G02*
X6350300Y-4271500I-152400J0D01*
G01*
X4165300Y-3426700D02*
G75*
G02*
X4317700Y-3274300I152400J0D01*
G01*
X4317700Y-4271500D02*
G75*
G02*
X4165300Y-4119100I0J152400D01*
G01*
%TO.C,C4*%
X36585400Y-5297200D02*
X36585400Y-4507100D01*
X37582600Y-4507100D02*
X37582600Y-5297200D01*
X37430200Y-5449600D02*
X36737800Y-5449600D01*
X36585400Y-3264600D02*
X36585400Y-4054700D01*
X37582600Y-4054700D02*
X37582600Y-3264600D01*
X37430200Y-3112200D02*
X36737800Y-3112200D01*
X37582600Y-5297200D02*
G75*
G02*
X37430200Y-5449600I-152400J0D01*
G01*
X36737800Y-5449600D02*
G75*
G02*
X36585400Y-5297200I0J152400D01*
G01*
X37430200Y-3112200D02*
G75*
G02*
X37582600Y-3264600I0J-152400D01*
G01*
X36585400Y-3264600D02*
G75*
G02*
X36737800Y-3112200I152400J0D01*
G01*
%TO.C,C5*%
X32756600Y-3391600D02*
X32756600Y-4181700D01*
X31759400Y-4181700D02*
X31759400Y-3391600D01*
X31911800Y-3239200D02*
X32604200Y-3239200D01*
X32756600Y-5424200D02*
X32756600Y-4634100D01*
X31759400Y-4634100D02*
X31759400Y-5424200D01*
X31911800Y-5576600D02*
X32604200Y-5576600D01*
X31759400Y-3391600D02*
G75*
G02*
X31911800Y-3239200I152400J0D01*
G01*
X32604200Y-3239200D02*
G75*
G02*
X32756600Y-3391600I0J-152400D01*
G01*
X31911800Y-5576600D02*
G75*
G02*
X31759400Y-5424200I0J152400D01*
G01*
X32756600Y-5424200D02*
G75*
G02*
X32604200Y-5576600I-152400J0D01*
G01*
%TO.C,C215*%
X36312600Y-3264600D02*
X36312600Y-4054700D01*
X35315400Y-4054700D02*
X35315400Y-3264600D01*
X35467800Y-3112200D02*
X36160200Y-3112200D01*
X36312600Y-5297200D02*
X36312600Y-4507100D01*
X35315400Y-4507100D02*
X35315400Y-5297200D01*
X35467800Y-5449600D02*
X36160200Y-5449600D01*
X35315400Y-3264600D02*
G75*
G02*
X35467800Y-3112200I152400J0D01*
G01*
X36160200Y-3112200D02*
G75*
G02*
X36312600Y-3264600I0J-152400D01*
G01*
X35467800Y-5449600D02*
G75*
G02*
X35315400Y-5297200I0J152400D01*
G01*
X36312600Y-5297200D02*
G75*
G02*
X36160200Y-5449600I-152400J0D01*
G01*
%TO.C,C216*%
X30489400Y-5424200D02*
X30489400Y-4634100D01*
X31486600Y-4634100D02*
X31486600Y-5424200D01*
X31334200Y-5576600D02*
X30641800Y-5576600D01*
X30489400Y-3391600D02*
X30489400Y-4181700D01*
X31486600Y-4181700D02*
X31486600Y-3391600D01*
X31334200Y-3239200D02*
X30641800Y-3239200D01*
X31486600Y-5424200D02*
G75*
G02*
X31334200Y-5576600I-152400J0D01*
G01*
X30641800Y-5576600D02*
G75*
G02*
X30489400Y-5424200I0J152400D01*
G01*
X31334200Y-3239200D02*
G75*
G02*
X31486600Y-3391600I0J-152400D01*
G01*
X30489400Y-3391600D02*
G75*
G02*
X30641800Y-3239200I152400J0D01*
G01*
%TO.C,C217*%
X36703300Y-7319500D02*
X35913200Y-7319500D01*
X35913200Y-6322300D02*
X36703300Y-6322300D01*
X36855700Y-6474700D02*
X36855700Y-7167100D01*
X34670700Y-7319500D02*
X35460800Y-7319500D01*
X35460800Y-6322300D02*
X34670700Y-6322300D01*
X34518300Y-6474700D02*
X34518300Y-7167100D01*
X36703300Y-6322300D02*
G75*
G02*
X36855700Y-6474700I0J-152400D01*
G01*
X36855700Y-7167100D02*
G75*
G02*
X36703300Y-7319500I-152400J0D01*
G01*
X34518300Y-6474700D02*
G75*
G02*
X34670700Y-6322300I152400J0D01*
G01*
X34670700Y-7319500D02*
G75*
G02*
X34518300Y-7167100I0J152400D01*
G01*
%TO.C,C218*%
X34670700Y-7592300D02*
X35460800Y-7592300D01*
X35460800Y-8589500D02*
X34670700Y-8589500D01*
X34518300Y-8437100D02*
X34518300Y-7744700D01*
X36703300Y-7592300D02*
X35913200Y-7592300D01*
X35913200Y-8589500D02*
X36703300Y-8589500D01*
X36855700Y-8437100D02*
X36855700Y-7744700D01*
X34670700Y-8589500D02*
G75*
G02*
X34518300Y-8437100I0J152400D01*
G01*
X34518300Y-7744700D02*
G75*
G02*
X34670700Y-7592300I152400J0D01*
G01*
X36855700Y-8437100D02*
G75*
G02*
X36703300Y-8589500I-152400J0D01*
G01*
X36703300Y-7592300D02*
G75*
G02*
X36855700Y-7744700I0J-152400D01*
G01*
%TO.C,C219*%
X34670700Y-8862300D02*
X35460800Y-8862300D01*
X35460800Y-9859500D02*
X34670700Y-9859500D01*
X34518300Y-9707100D02*
X34518300Y-9014700D01*
X36703300Y-8862300D02*
X35913200Y-8862300D01*
X35913200Y-9859500D02*
X36703300Y-9859500D01*
X36855700Y-9707100D02*
X36855700Y-9014700D01*
X34670700Y-9859500D02*
G75*
G02*
X34518300Y-9707100I0J152400D01*
G01*
X34518300Y-9014700D02*
G75*
G02*
X34670700Y-8862300I152400J0D01*
G01*
X36855700Y-9707100D02*
G75*
G02*
X36703300Y-9859500I-152400J0D01*
G01*
X36703300Y-8862300D02*
G75*
G02*
X36855700Y-9014700I0J-152400D01*
G01*
%TO.C,C220*%
X36703300Y-11129500D02*
X35913200Y-11129500D01*
X35913200Y-10132300D02*
X36703300Y-10132300D01*
X36855700Y-10284700D02*
X36855700Y-10977100D01*
X34670700Y-11129500D02*
X35460800Y-11129500D01*
X35460800Y-10132300D02*
X34670700Y-10132300D01*
X34518300Y-10284700D02*
X34518300Y-10977100D01*
X36703300Y-10132300D02*
G75*
G02*
X36855700Y-10284700I0J-152400D01*
G01*
X36855700Y-10977100D02*
G75*
G02*
X36703300Y-11129500I-152400J0D01*
G01*
X34518300Y-10284700D02*
G75*
G02*
X34670700Y-10132300I152400J0D01*
G01*
X34670700Y-11129500D02*
G75*
G02*
X34518300Y-10977100I0J152400D01*
G01*
%TO.C,C221*%
X36703300Y-13669500D02*
X35913200Y-13669500D01*
X35913200Y-12672300D02*
X36703300Y-12672300D01*
X36855700Y-12824700D02*
X36855700Y-13517100D01*
X34670700Y-13669500D02*
X35460800Y-13669500D01*
X35460800Y-12672300D02*
X34670700Y-12672300D01*
X34518300Y-12824700D02*
X34518300Y-13517100D01*
X36703300Y-12672300D02*
G75*
G02*
X36855700Y-12824700I0J-152400D01*
G01*
X36855700Y-13517100D02*
G75*
G02*
X36703300Y-13669500I-152400J0D01*
G01*
X34518300Y-12824700D02*
G75*
G02*
X34670700Y-12672300I152400J0D01*
G01*
X34670700Y-13669500D02*
G75*
G02*
X34518300Y-13517100I0J152400D01*
G01*
%TO.C,C222*%
X34670700Y-11402300D02*
X35460800Y-11402300D01*
X35460800Y-12399500D02*
X34670700Y-12399500D01*
X34518300Y-12247100D02*
X34518300Y-11554700D01*
X36703300Y-11402300D02*
X35913200Y-11402300D01*
X35913200Y-12399500D02*
X36703300Y-12399500D01*
X36855700Y-12247100D02*
X36855700Y-11554700D01*
X34670700Y-12399500D02*
G75*
G02*
X34518300Y-12247100I0J152400D01*
G01*
X34518300Y-11554700D02*
G75*
G02*
X34670700Y-11402300I152400J0D01*
G01*
X36855700Y-12247100D02*
G75*
G02*
X36703300Y-12399500I-152400J0D01*
G01*
X36703300Y-11402300D02*
G75*
G02*
X36855700Y-11554700I0J-152400D01*
G01*
%TO.C,R111*%
X39088200Y-5287500D02*
X39806200Y-5287500D01*
X39806200Y-5287500D02*
X39806200Y-4290300D01*
X39806200Y-4290300D02*
X39088200Y-4290300D01*
X38635800Y-5287500D02*
X37917800Y-5287500D01*
X37917800Y-5287500D02*
X37917800Y-4290300D01*
X37917800Y-4290300D02*
X38635800Y-4290300D01*
%TO.C,R112*%
X38453200Y-8335500D02*
X39171200Y-8335500D01*
X39171200Y-8335500D02*
X39171200Y-7338300D01*
X39171200Y-7338300D02*
X38453200Y-7338300D01*
X38000800Y-8335500D02*
X37282800Y-8335500D01*
X37282800Y-8335500D02*
X37282800Y-7338300D01*
X37282800Y-7338300D02*
X38000800Y-7338300D01*
%TO.C,R113*%
X38961200Y-9859500D02*
X39679200Y-9859500D01*
X39679200Y-9859500D02*
X39679200Y-8862300D01*
X39679200Y-8862300D02*
X38961200Y-8862300D01*
X38508800Y-9859500D02*
X37790800Y-9859500D01*
X37790800Y-9859500D02*
X37790800Y-8862300D01*
X37790800Y-8862300D02*
X38508800Y-8862300D01*
%TO.C,R114*%
X38453200Y-12526500D02*
X39171200Y-12526500D01*
X39171200Y-12526500D02*
X39171200Y-11529300D01*
X39171200Y-11529300D02*
X38453200Y-11529300D01*
X38000800Y-12526500D02*
X37282800Y-12526500D01*
X37282800Y-12526500D02*
X37282800Y-11529300D01*
X37282800Y-11529300D02*
X38000800Y-11529300D01*
%TD*%
%LPC*%
D12*
%TO.C,C2*%
X8255000Y-5640800D03*
X8255000Y-6731000D03*
%TD*%
D13*
%TO.C,C223*%
X-2032000Y-1016000D03*
X-2032000Y74200D03*
%TD*%
D14*
%TO.C,C226*%
X10578100Y-3772900D03*
X9487900Y-3772900D03*
%TD*%
D12*
%TO.C,C229*%
X6985000Y-5640800D03*
X6985000Y-6731000D03*
%TD*%
D14*
%TO.C,C232*%
X5752100Y-1867900D03*
X4661900Y-1867900D03*
%TD*%
%TO.C,C233*%
X5879100Y-3772900D03*
X4788900Y-3772900D03*
%TD*%
D13*
%TO.C,C4*%
X37084000Y-4826000D03*
X37084000Y-3735800D03*
%TD*%
D12*
%TO.C,C5*%
X32258000Y-3862800D03*
X32258000Y-4953000D03*
%TD*%
%TO.C,C215*%
X35814000Y-3735800D03*
X35814000Y-4826000D03*
%TD*%
D13*
%TO.C,C216*%
X30988000Y-4953000D03*
X30988000Y-3862800D03*
%TD*%
D14*
%TO.C,C217*%
X36232100Y-6820900D03*
X35141900Y-6820900D03*
%TD*%
D15*
%TO.C,C218*%
X35141900Y-8090900D03*
X36232100Y-8090900D03*
%TD*%
%TO.C,C219*%
X35141900Y-9360900D03*
X36232100Y-9360900D03*
%TD*%
D14*
%TO.C,C220*%
X36232100Y-10630900D03*
X35141900Y-10630900D03*
%TD*%
%TO.C,C221*%
X36232100Y-13170900D03*
X35141900Y-13170900D03*
%TD*%
D15*
%TO.C,C222*%
X35141900Y-11900900D03*
X36232100Y-11900900D03*
%TD*%
D16*
%TO.C,R111*%
X38429200Y-4788900D03*
X39294800Y-4788900D03*
%TD*%
%TO.C,R112*%
X37794200Y-7836900D03*
X38659800Y-7836900D03*
%TD*%
%TO.C,R113*%
X38302200Y-9360900D03*
X39167800Y-9360900D03*
%TD*%
%TO.C,R114*%
X37794200Y-12027900D03*
X38659800Y-12027900D03*
%TD*%
D17*
%TO.C,LNA_IN*%
X59563000Y3058000D03*
X59563000Y-2042000D03*
%TD*%
%TO.C,ANT*%
X59436000Y-28273700D03*
X59436000Y-33373800D03*
%TD*%
D18*
%TO.C,JP3*%
X13333200Y12481100D03*
X13333200Y15021100D03*
X15873200Y12481100D03*
X15873200Y15021100D03*
X18413200Y12481100D03*
X18413200Y15021100D03*
X20953200Y12481100D03*
X20953200Y15021100D03*
X23493200Y12481100D03*
X23493200Y15021100D03*
X26033200Y12481100D03*
X26033200Y15021100D03*
X28573200Y12481100D03*
X28573200Y15021100D03*
%TD*%
D19*
%TO.C,JP2*%
X-8510800Y-218900D03*
X-5970800Y-218900D03*
X-8510800Y-2758900D03*
X-5970800Y-2758900D03*
X-8510800Y-5298900D03*
X-5970800Y-5298900D03*
X-8510800Y-7838900D03*
X-5970800Y-7838900D03*
X-8510800Y-10378900D03*
X-5970800Y-10378900D03*
X-8510800Y-12918900D03*
X-5970800Y-12918900D03*
X-8510800Y-15458900D03*
X-5970800Y-15458900D03*
X-8510800Y-17998900D03*
X-5970800Y-17998900D03*
X-8510800Y-20538900D03*
X-5970800Y-20538900D03*
X-8510800Y-23078900D03*
D20*
X-5970800Y-23078700D03*
%TD*%
D18*
%TO.C,JP1*%
X-3938800Y-32730900D03*
X-3938800Y-30190900D03*
X-1398800Y-32730900D03*
X-1398800Y-30190900D03*
X1141200Y-32730900D03*
X1141200Y-30190900D03*
X3681200Y-32730900D03*
X3681200Y-30190900D03*
X6221200Y-32730900D03*
X6221200Y-30190900D03*
X8761200Y-32730900D03*
X8761200Y-30190900D03*
X11301200Y-32730900D03*
X11301200Y-30190900D03*
X13841200Y-32730900D03*
X13841200Y-30190900D03*
X16381200Y-32730900D03*
X16381200Y-30190900D03*
X18921200Y-32730900D03*
X18921200Y-30190900D03*
X21461200Y-32730900D03*
X21461200Y-30190900D03*
X24001200Y-32730900D03*
X24001200Y-30190900D03*
X26541200Y-32730900D03*
X26541200Y-30190900D03*
X29081200Y-32730900D03*
X29081200Y-30190900D03*
X31621200Y-32730900D03*
D21*
X31621200Y-30190700D03*
%TD*%
D22*
%TO.C,Pad_gge111627*%
X-6223000Y13499100D03*
%TD*%
%TO.C,Pad_gge189569*%
X57150000Y13589000D03*
%TD*%
%TO.C,Pad_gge290440*%
X59182000Y-24727900D03*
%TD*%
%TO.C,Pad_gge303765*%
X-7620000Y-27813000D03*
%TD*%
%LPD*%
M02*
