%TF.GenerationSoftware,KiCad,Pcbnew,8.0.6*%
%TF.CreationDate,2024-11-23T19:50:46+06:00*%
%TF.ProjectId,sicomm_slaveboard_BK4819_v2,7369636f-6d6d-45f7-936c-617665626f61,rev?*%
%TF.SameCoordinates,Original*%
%TF.FileFunction,Copper,L3,Inr*%
%TF.FilePolarity,Positive*%
%FSLAX46Y46*%
G04 Gerber Fmt 4.6, Leading zero omitted, Abs format (unit mm)*
G04 Created by KiCad (PCBNEW 8.0.6) date 2024-11-23 19:50:46*
%MOMM*%
%LPD*%
G01*
G04 APERTURE LIST*
%TA.AperFunction,ComponentPad*%
%ADD10O,1.800000X1.800000*%
%TD*%
%TA.AperFunction,ComponentPad*%
%ADD11O,1.700000X1.700000*%
%TD*%
%TA.AperFunction,ComponentPad*%
%ADD12R,1.700000X1.700000*%
%TD*%
%TA.AperFunction,ComponentPad*%
%ADD13R,1.800000X1.574800*%
%TD*%
%TA.AperFunction,ComponentPad*%
%ADD14O,5.000000X5.000000*%
%TD*%
%TA.AperFunction,ViaPad*%
%ADD15C,0.600000*%
%TD*%
%TA.AperFunction,ViaPad*%
%ADD16C,0.500000*%
%TD*%
%TA.AperFunction,ViaPad*%
%ADD17C,1.200000*%
%TD*%
%TA.AperFunction,ViaPad*%
%ADD18C,1.000000*%
%TD*%
%TA.AperFunction,ViaPad*%
%ADD19C,0.800000*%
%TD*%
%TA.AperFunction,ViaPad*%
%ADD20C,0.620000*%
%TD*%
%TA.AperFunction,Conductor*%
%ADD21C,0.400000*%
%TD*%
%TA.AperFunction,Conductor*%
%ADD22C,0.250000*%
%TD*%
%TA.AperFunction,Conductor*%
%ADD23C,0.800000*%
%TD*%
%TA.AperFunction,Conductor*%
%ADD24C,0.600000*%
%TD*%
%TA.AperFunction,Conductor*%
%ADD25C,0.300000*%
%TD*%
%TA.AperFunction,Conductor*%
%ADD26C,0.500000*%
%TD*%
G04 APERTURE END LIST*
D10*
%TO.N,N/C*%
%TO.C,JP3*%
X13333200Y12481100D03*
X13333200Y15021100D03*
%TO.N,MODR*%
X15873200Y12481100D03*
%TO.N,N/C*%
X15873200Y15021100D03*
%TO.N,GND*%
X18413200Y12481100D03*
X18413200Y15021100D03*
%TO.N,LINP*%
X20953200Y12481100D03*
%TO.N,LINN*%
X20953200Y15021100D03*
%TO.N,RINN*%
X23493200Y12481100D03*
%TO.N,RINP*%
X23493200Y15021100D03*
%TO.N,GND*%
X26033200Y12481100D03*
X26033200Y15021100D03*
%TO.N,N/C*%
X28573200Y12481100D03*
X28573200Y15021100D03*
%TD*%
D11*
%TO.N,PE4259_CTL_LMX_CE*%
%TO.C,JP2*%
X-8510800Y-218900D03*
%TO.N,N/C*%
X-5970800Y-218900D03*
X-8510800Y-2758900D03*
%TO.N,GND*%
X-5970800Y-2758900D03*
%TO.N,N/C*%
X-8510800Y-5298900D03*
X-5970800Y-5298900D03*
%TO.N,R28_1*%
X-8510800Y-7838900D03*
%TO.N,N/C*%
X-5970800Y-7838900D03*
%TO.N,MSPI_MOSI*%
X-8510800Y-10378900D03*
%TO.N,R26_2*%
X-5970800Y-10378900D03*
%TO.N,MSPI_MISO*%
X-8510800Y-12918900D03*
%TO.N,MSPI_SCLK*%
X-5970800Y-12918900D03*
%TO.N,MSPI_CS1*%
X-8510800Y-15458900D03*
%TO.N,N/C*%
X-5970800Y-15458900D03*
%TO.N,LD_SPI3_CS*%
X-8510800Y-17998900D03*
%TO.N,SPI3_SCK*%
X-5970800Y-17998900D03*
%TO.N,N/C*%
X-8510800Y-20538900D03*
%TO.N,SPI3_MOSI*%
X-5970800Y-20538900D03*
%TO.N,TX_PDN*%
X-8510800Y-23078900D03*
D12*
%TO.N,RX_PDN*%
X-5970800Y-23078700D03*
%TD*%
D10*
%TO.N,GND*%
%TO.C,JP1*%
X-3938800Y-32730900D03*
X-3938800Y-30190900D03*
%TO.N,VBAT*%
X-1398800Y-32730900D03*
X-1398800Y-30190900D03*
%TO.N,N/C*%
X1141200Y-32730900D03*
X1141200Y-30190900D03*
X3681200Y-32730900D03*
X3681200Y-30190900D03*
X6221200Y-32730900D03*
X6221200Y-30190900D03*
X8761200Y-32730900D03*
X8761200Y-30190900D03*
X11301200Y-32730900D03*
X11301200Y-30190900D03*
X13841200Y-32730900D03*
X13841200Y-30190900D03*
X16381200Y-32730900D03*
X16381200Y-30190900D03*
X18921200Y-32730900D03*
X18921200Y-30190900D03*
X21461200Y-32730900D03*
X21461200Y-30190900D03*
X24001200Y-32730900D03*
X24001200Y-30190900D03*
X26541200Y-32730900D03*
X26541200Y-30190900D03*
X29081200Y-32730900D03*
X29081200Y-30190900D03*
%TO.N,GND*%
X31621200Y-32730900D03*
D13*
%TO.N,R27_2*%
X31621200Y-30190700D03*
%TD*%
D14*
%TO.N,GND*%
%TO.C,Pad_gge111627*%
X-6223000Y13499100D03*
%TD*%
%TO.N,GND*%
%TO.C,Pad_gge189569*%
X57150000Y13589000D03*
%TD*%
%TO.N,GND*%
%TO.C,Pad_gge290440*%
X59182000Y-24727900D03*
%TD*%
%TO.N,GND*%
%TO.C,Pad_gge303765*%
X-7620000Y-27813000D03*
%TD*%
D15*
%TO.N,GND*%
X2451636Y2158100D03*
D16*
X31623000Y-12154900D03*
X31623000Y-11265900D03*
X31623000Y-10376900D03*
X31623000Y-9487900D03*
X31623000Y-8598900D03*
X33147000Y-8598900D03*
X33147000Y-9487900D03*
X33147000Y-10376900D03*
X33147000Y-11265900D03*
X33147000Y-12154900D03*
X34544000Y-12154900D03*
X34544000Y-11265900D03*
X34544000Y-10376900D03*
X34544000Y-9487900D03*
X34544000Y-8598900D03*
%TO.N,U23_36*%
X33401000Y-14567900D03*
%TO.N,U23_37*%
X34036000Y-15367000D03*
%TO.N,U23_38*%
X34798000Y-15748000D03*
%TO.N,U23_39*%
X35433000Y-16256000D03*
D15*
%TO.N,U23_36*%
X26162000Y3302000D03*
%TO.N,U23_37*%
X24765000Y3302000D03*
%TO.N,U23_38*%
X23241000Y3302000D03*
%TO.N,U23_39*%
X21717000Y3175000D03*
D16*
%TO.N,VCC_LO*%
X31496000Y-6312900D03*
%TO.N,MSPI_CS1*%
X12700000Y-16599900D03*
%TO.N,MSPI_MISO*%
X11557000Y-15710900D03*
%TO.N,MSPI_SCLK*%
X9652000Y-13043900D03*
D17*
%TO.N,VBAT*%
X5969000Y-25108900D03*
D18*
%TO.N,A3V3_3811*%
X21717000Y-24981900D03*
X24257000Y-20066000D03*
D16*
%TO.N,VCC_LO*%
X36449000Y-5804900D03*
D15*
%TO.N,U44_8*%
X2921000Y-28410900D03*
D16*
X48133000Y-24384000D03*
D15*
%TO.N,U44_5*%
X3810000Y-27305000D03*
X45593000Y-19266900D03*
D18*
%TO.N,A3V3_3811*%
X40767000Y-5042900D03*
X54737000Y-4953000D03*
%TO.N,A3V3_4819*%
X18415000Y-20790900D03*
D19*
%TO.N,MODR*%
X-2413000Y3683000D03*
D16*
%TO.N,VCC_RXIF*%
X38227000Y-11138900D03*
%TO.N,VCC_LNA*%
X38100000Y-10376900D03*
%TO.N,VCC_RF*%
X37338000Y-9868900D03*
D15*
%TO.N,GND*%
X56261000Y-28283900D03*
X54737000Y-28283900D03*
D18*
X52400000Y-27902900D03*
D15*
X56388000Y-32728900D03*
X54991000Y-32728900D03*
X53721000Y-32855900D03*
X50927000Y-27902900D03*
X49530000Y-27902900D03*
X47879000Y-27902900D03*
D18*
X45800000Y-27648900D03*
X46228000Y-26101000D03*
D15*
X50673000Y-23584900D03*
X49657000Y-26543000D03*
X52197000Y-26543000D03*
X55372000Y-24727900D03*
X56007000Y-26543000D03*
X54356000Y-26543000D03*
X52324000Y-32982900D03*
X50927000Y-32982900D03*
X49911000Y-33871900D03*
X48260000Y-33871900D03*
X46736000Y-33871900D03*
X44831000Y-33871900D03*
X34163000Y-33655000D03*
X39624000Y-26924000D03*
X34290000Y-31623000D03*
X34163000Y-29718000D03*
X34290000Y-27940000D03*
X42926000Y-20320000D03*
X44450000Y-20320000D03*
X45974000Y-20320000D03*
X61214000Y-21336000D03*
X61087000Y-19177000D03*
X61087000Y-16980900D03*
X61087000Y-14605000D03*
X61087000Y-12700000D03*
X61087000Y-10414000D03*
X60960000Y-8255000D03*
X61087000Y-6096000D03*
X61214000Y-3937000D03*
X57531000Y-15075900D03*
X57531000Y-13932900D03*
X57785000Y-12573000D03*
X57785000Y-11176000D03*
X57785000Y-9652000D03*
X57658000Y-7366000D03*
X57658000Y-5969000D03*
X53975000Y-1905000D03*
X52070000Y-1905000D03*
X44196000Y-1740900D03*
X41656000Y-1740900D03*
X39878000Y-1740900D03*
X55372000Y-15456900D03*
X55626000Y-14059900D03*
X51181000Y-7874000D03*
X49657000Y-7874000D03*
X47371000Y-7874000D03*
X45974000Y-6985000D03*
X54737000Y-3429000D03*
X52705000Y-3556000D03*
X50673000Y-3556000D03*
X48768000Y-3683000D03*
X41910000Y-11011900D03*
X41910000Y-12700000D03*
X41783000Y-14097000D03*
X41656000Y-15583900D03*
X49276000Y-18123900D03*
X50292000Y-13297900D03*
X50292000Y-12154900D03*
X48514000Y-12154900D03*
X46863000Y-12408900D03*
X44704000Y-12281900D03*
X43307000Y-14097000D03*
X45974000Y-15456900D03*
X49657000Y-15494000D03*
X47371000Y-14859000D03*
X45085000Y-13932900D03*
X48260000Y-13932900D03*
X35052000Y-17907000D03*
X39116000Y-15964900D03*
X38227000Y-16764000D03*
X37338000Y-17488900D03*
X36195000Y-18415000D03*
X35179000Y-19431000D03*
X25654000Y-21044900D03*
X25654000Y-19304000D03*
X27178000Y-19177000D03*
X29464000Y-19050000D03*
X29083000Y-8852900D03*
X27559000Y-8852900D03*
X19050000Y-11049000D03*
X17653000Y-12446000D03*
X16002000Y-13043900D03*
X14732000Y-11900900D03*
X13970000Y-10795000D03*
X-1651000Y-15329900D03*
X3302000Y-22225000D03*
X5969000Y-23114000D03*
X7239000Y-21463000D03*
X10160000Y-22733000D03*
X8382000Y-19558000D03*
X10160000Y-19939000D03*
X11938000Y-20155900D03*
X14097000Y-20028900D03*
X16129000Y-19812000D03*
X12192000Y-22695900D03*
X13716000Y-22695900D03*
X19304000Y-15964900D03*
X17399000Y-10376900D03*
X16256000Y-9017000D03*
X15748000Y-10249900D03*
X27305000Y-5423900D03*
X28448000Y-4445000D03*
X29845000Y-4407900D03*
X29845000Y-5804900D03*
X27940000Y-6947900D03*
X28575000Y-851900D03*
X27178000Y-851900D03*
X17272000Y8546100D03*
X17145000Y6895100D03*
X16891000Y4990100D03*
X17145000Y2704100D03*
X30607000Y-20409900D03*
X33147000Y-19266900D03*
X53340000Y16039100D03*
X49784000Y16039100D03*
X46609000Y9689100D03*
X43180000Y16166100D03*
X46228000Y16039100D03*
X40640000Y16166100D03*
X38481000Y16166100D03*
X36322000Y16166100D03*
X34290000Y16166100D03*
X28956000Y6477000D03*
X30353000Y5207000D03*
X28702000Y2921000D03*
X28575000Y1270000D03*
X39243000Y799100D03*
X41529000Y1942100D03*
X49784000Y2794000D03*
X47752000Y2286000D03*
X59944000Y15912100D03*
X381000Y14261100D03*
X4699000Y14515100D03*
X8509000Y15023100D03*
X-7366000Y9562100D03*
X-8255000Y7403100D03*
X-8890000Y4609100D03*
X-8128000Y-32347900D03*
X-6477000Y-33363900D03*
X35687000Y127000D03*
X39751000Y5334000D03*
X41529000Y3847100D03*
X44196000Y3339100D03*
X45847000Y381000D03*
X762000Y11049000D03*
X3302000Y11811000D03*
X6096000Y11938000D03*
X8509000Y11938000D03*
X10795000Y11938000D03*
X-5334000Y1561100D03*
X-1270000Y-10541000D03*
X38989000Y3175000D03*
X36195000Y1524000D03*
X41529000Y-3556000D03*
X39243000Y-3645900D03*
X51562000Y-21552900D03*
D19*
X59182000Y-19177000D03*
D16*
X49784000Y-21552900D03*
D20*
%TO.N,A3V3_4819*%
X7620000Y-7963900D03*
%TO.N,BK4819_18*%
X11049000Y-4661900D03*
%TO.N,PE4259_CTL_LMX_CE*%
X11684000Y4863100D03*
D15*
%TO.N,SPI3_MOSI*%
X10414000Y508000D03*
%TO.N,LD_SPI3_CS*%
X10160000Y-635000D03*
%TO.N,SPI3_SCK*%
X9906000Y-1524000D03*
%TO.N,A3V3_4819*%
X3683000Y-2667000D03*
D20*
X254000Y2450100D03*
D15*
%TO.N,GND*%
X-1524000Y12827000D03*
X-3048000Y11303000D03*
X-4953000Y9017000D03*
X16891000Y10287000D03*
X14859000Y9017000D03*
X12319000Y8890000D03*
X9779000Y8890000D03*
X6858000Y9054100D03*
X4318000Y8927100D03*
X1270000Y6006100D03*
X4191000Y6133100D03*
X7366000Y6133100D03*
X11303000Y6387100D03*
X14859000Y6133100D03*
X13081000Y3085100D03*
X11049000Y3810000D03*
X13589000Y-381000D03*
X889000Y3847100D03*
X508000Y-10287000D03*
X3175000Y-10287000D03*
X1905000Y-8471900D03*
X762000Y-6350000D03*
X-1270000Y-8344900D03*
D20*
%TO.N,A3V3_4819*%
X13335000Y-7112000D03*
D15*
%TO.N,GND*%
X39751000Y-31458900D03*
X32258000Y6006100D03*
X61087000Y-33363900D03*
X59436000Y-33363900D03*
X57785000Y-33363900D03*
X57912000Y-28283900D03*
X59563000Y-28283900D03*
X61214000Y-28283900D03*
X43307000Y-33998900D03*
X41656000Y-33871900D03*
X40640000Y-32728900D03*
X39624000Y-29807900D03*
X39624000Y-28410900D03*
X57404000Y-3429000D03*
X56134000Y-1905000D03*
D16*
X7620000Y-4027200D03*
X7620000Y-3010900D03*
X8636000Y-3010900D03*
X8636000Y-4026900D03*
X8636000Y-5042900D03*
X7620000Y-5042900D03*
X6604000Y-3010900D03*
X6604000Y-4027200D03*
X6604000Y-5042900D03*
D15*
%TO.N,A3V3_3811*%
X40767000Y-16726900D03*
%TO.N,MSPI_MOSI*%
X2921000Y-12065000D03*
D19*
%TO.N,C103_1*%
X22987000Y-2667000D03*
X53467000Y-24384000D03*
D15*
%TO.N,GND*%
X14859000Y0D03*
X17526000Y-4318000D03*
X19812000Y-3937000D03*
X20955000Y-4064000D03*
X2413000Y1143000D03*
X54229000Y-7747000D03*
X13843000Y-9398000D03*
X17399000Y-8763000D03*
X27940000Y-14986000D03*
X28829000Y-14097000D03*
D19*
X8001000Y-26289000D03*
D15*
X254000Y-26162000D03*
X34417000Y1651000D03*
D19*
X31496000Y1524000D03*
D15*
X31496000Y3175000D03*
X35814000Y-26797000D03*
X37846000Y-26797000D03*
X40132000Y-22860000D03*
X41148000Y-21336000D03*
X59563000Y-2042000D03*
X60960000Y-2032000D03*
X58039000Y-2032000D03*
X58166000Y3048000D03*
X59690000Y3038000D03*
X61087000Y3048000D03*
X50038000Y-1778000D03*
X47752000Y-1905000D03*
X46482000Y-3683000D03*
X56388000Y2794000D03*
X53975000Y2794000D03*
X51816000Y2794000D03*
X37719000Y-2540000D03*
X43815000Y-3556000D03*
X51181000Y-6223000D03*
X49530000Y-6223000D03*
X47371000Y-6223000D03*
X44196000Y-7366000D03*
X51689000Y-14478000D03*
X51562000Y-16129000D03*
X51562000Y-17653000D03*
X51562000Y-19050000D03*
X48133000Y-16383000D03*
X46355000Y-17780000D03*
X44069000Y-16002000D03*
X37719000Y-1016000D03*
X37338000Y508000D03*
X28956000Y9017000D03*
X29083000Y10668000D03*
X27178000Y889000D03*
X27305000Y2667000D03*
X27305000Y4699000D03*
X27305000Y6604000D03*
X27178000Y8636000D03*
D17*
X27178000Y10541000D03*
D15*
X19304000Y9652000D03*
X19939000Y7366000D03*
X19812000Y4699000D03*
X20193000Y2921000D03*
X18796000Y2159000D03*
X17145000Y1270000D03*
X14605000Y1905000D03*
D18*
X-500000Y-6000000D03*
D15*
X-2159000Y-5715000D03*
X-3175000Y-4826000D03*
X-3937000Y-3556000D03*
X-3937000Y-2159000D03*
X-3937000Y-381000D03*
X-4064000Y1651000D03*
X-4064000Y3683000D03*
X-3556000Y6477000D03*
X-1905000Y8001000D03*
X-635000Y9271000D03*
X4699000Y127000D03*
X2507488Y3758100D03*
X3683000Y1778000D03*
X5588000Y1778000D03*
X7493000Y1651000D03*
X9144000Y1651000D03*
X21844000Y-8128000D03*
X21844000Y-6477000D03*
X25527000Y-23876000D03*
X27178000Y-23876000D03*
X29083000Y-23876000D03*
X30988000Y-23495000D03*
X32512000Y-22098000D03*
X33782000Y-20828000D03*
X28321000Y-22098000D03*
X28575000Y-20701000D03*
X20447000Y-14986000D03*
X21590000Y-13716000D03*
X22098000Y-15113000D03*
X21971000Y-17018000D03*
X21971000Y-18796000D03*
X21971000Y-20828000D03*
X21971000Y-22733000D03*
X4699000Y-11557000D03*
X508000Y-12319000D03*
X508000Y-15367000D03*
X2794000Y-15367000D03*
X-3429000Y-15367000D03*
X5080000Y-20574000D03*
X6858000Y-18288000D03*
X35433000Y10922000D03*
X37973000Y10795000D03*
X41021000Y10668000D03*
X46355000Y12065000D03*
X53594000Y9398000D03*
X48387000Y7112000D03*
X41529000Y7747000D03*
X36068000Y8128000D03*
X37084000Y12827000D03*
X42926000Y13462000D03*
X49784000Y13462000D03*
X51435000Y11176000D03*
X51689000Y5969000D03*
X50292000Y9525000D03*
X32385000Y12954000D03*
X32004000Y9906000D03*
X31242000Y8128000D03*
X47117000Y4699000D03*
X38354000Y6604000D03*
X36322000Y4572000D03*
X54737000Y5842000D03*
X56896000Y9779000D03*
X55372000Y-22987000D03*
X55372000Y-21336000D03*
X57277000Y-20447000D03*
X42672000Y508000D03*
X44450000Y7366000D03*
X2032000Y-26289000D03*
X20447000Y-9525000D03*
X12446000Y-13335000D03*
X13716000Y-15113000D03*
X8382000Y-9652000D03*
X7366000Y-10668000D03*
X6350000Y-12065000D03*
X9398000Y-15621000D03*
X3302000Y-7747000D03*
X5461000Y-9398000D03*
X2667000Y-6223000D03*
X36830000Y-29718000D03*
X36957000Y-32004000D03*
X37084000Y-34290000D03*
X19939000Y-7620000D03*
%TD*%
D21*
%TO.N,C103_1*%
X22987000Y-2667000D02*
X22987000Y-23115000D01*
X22987000Y-23115000D02*
X25273000Y-25401000D01*
X25273000Y-25401000D02*
X52450000Y-25401000D01*
X52450000Y-25401000D02*
X53467000Y-24384000D01*
D22*
%TO.N,SPI3_SCK*%
X9144000Y-10668000D02*
X1778000Y-18034000D01*
X1778000Y-18034000D02*
X-5935700Y-18034000D01*
X-5935700Y-18034000D02*
X-5970800Y-17998900D01*
D23*
%TO.N,VBAT*%
X-1398900Y-32730800D02*
X-1398900Y-30190800D01*
D24*
X5969000Y-25108900D02*
X-253900Y-25108900D01*
X-253900Y-25108900D02*
X-1398900Y-26253800D01*
X-1398900Y-26253800D02*
X-1398900Y-30190800D01*
%TO.N,A3V3_3811*%
X40767000Y-5042900D02*
X54647100Y-5042900D01*
X54647100Y-5042900D02*
X54737000Y-4953000D01*
D25*
%TO.N,U23_37*%
X34036000Y-15368000D02*
X32893000Y-16511000D01*
X32893000Y-16511000D02*
X26670000Y-16511000D01*
X26670000Y-16511000D02*
X25400000Y-15241000D01*
X25400000Y-15241000D02*
X25400000Y2666000D01*
X25400000Y2666000D02*
X24765000Y3301000D01*
%TO.N,U23_39*%
X35433000Y-16257000D02*
X33909000Y-17781000D01*
X33909000Y-17781000D02*
X25273000Y-17781000D01*
X25273000Y-17781000D02*
X23876000Y-16384000D01*
X23876000Y-16384000D02*
X23876000Y1015000D01*
X23876000Y1015000D02*
X21717000Y3174000D01*
%TO.N,U23_38*%
X34798000Y-15748000D02*
X34671000Y-15748000D01*
X34671000Y-15748000D02*
X33274000Y-17145000D01*
X33274000Y-17145000D02*
X25908000Y-17145000D01*
X25908000Y-17145000D02*
X24638000Y-15875000D01*
X24638000Y-15875000D02*
X24638000Y1905000D01*
X24638000Y1905000D02*
X23241000Y3302000D01*
%TO.N,U23_36*%
X33401000Y-14567900D02*
X32004000Y-15964900D01*
X32004000Y-15964900D02*
X27013900Y-15964900D01*
X27013900Y-15964900D02*
X26162000Y-15113000D01*
X26162000Y-15113000D02*
X26162000Y3302000D01*
D22*
%TO.N,SPI3_MOSI*%
X10414000Y508000D02*
X12446000Y-1524000D01*
X12446000Y-1524000D02*
X12446000Y-11176000D01*
X12446000Y-11176000D02*
X3083100Y-20539000D01*
X3083100Y-20539000D02*
X-5970700Y-20539000D01*
%TO.N,SPI3_SCK*%
X9906000Y-1524000D02*
X10033000Y-1524000D01*
X10033000Y-1524000D02*
X10287000Y-1778000D01*
X10287000Y-1778000D02*
X10160000Y-9652000D01*
X10160000Y-9652000D02*
X9144000Y-10668000D01*
%TO.N,LD_SPI3_CS*%
X10160000Y-635000D02*
X10160000Y-635000D01*
X10160000Y-635000D02*
X11684000Y-2159000D01*
X11684000Y-2159000D02*
X11684000Y-9906000D01*
X11684000Y-9906000D02*
X2413000Y-19177000D01*
X2413000Y-19177000D02*
X-7366000Y-19177000D01*
X-7366000Y-19177000D02*
X-7366000Y-19143700D01*
X-7366000Y-19143700D02*
X-8510700Y-17999000D01*
D26*
%TO.N,VBAT*%
X5969000Y-25108900D02*
X5842000Y-25235900D01*
%TD*%
%TA.AperFunction,Conductor*%
%TO.N,GND*%
G36*
X61420121Y16280598D02*
G01*
X61466614Y16226942D01*
X61478000Y16174600D01*
X61478000Y-22618294D01*
X61457998Y-22686415D01*
X61404342Y-22732908D01*
X61334068Y-22743012D01*
X61269488Y-22713518D01*
X61260351Y-22704761D01*
X61175536Y-22614864D01*
X61175530Y-22614858D01*
X60916758Y-22397721D01*
X60916754Y-22397718D01*
X60634515Y-22212087D01*
X60332613Y-22060466D01*
X60332608Y-22060464D01*
X60015176Y-21944928D01*
X60015167Y-21944926D01*
X59686456Y-21867020D01*
X59686446Y-21867018D01*
X59350915Y-21827800D01*
X59309000Y-21827800D01*
X59309000Y-23229317D01*
X59300053Y-23227900D01*
X59063947Y-23227900D01*
X59055000Y-23229317D01*
X59055000Y-21827800D01*
X59013085Y-21827800D01*
X58677553Y-21867018D01*
X58677543Y-21867020D01*
X58348832Y-21944926D01*
X58348823Y-21944928D01*
X58031391Y-22060464D01*
X58031386Y-22060466D01*
X57729484Y-22212087D01*
X57447245Y-22397718D01*
X57447241Y-22397721D01*
X57188469Y-22614858D01*
X57188463Y-22614864D01*
X56956630Y-22860590D01*
X56754898Y-23131563D01*
X56754888Y-23131579D01*
X56585985Y-23424129D01*
X56585982Y-23424134D01*
X56452182Y-23734319D01*
X56452180Y-23734323D01*
X56355290Y-24057957D01*
X56355290Y-24057958D01*
X56296628Y-24390649D01*
X56296627Y-24390658D01*
X56284382Y-24600899D01*
X56284382Y-24600900D01*
X57683417Y-24600900D01*
X57682000Y-24609847D01*
X57682000Y-24845953D01*
X57683417Y-24854900D01*
X56284382Y-24854900D01*
X56296627Y-25065141D01*
X56296628Y-25065150D01*
X56355290Y-25397841D01*
X56355290Y-25397842D01*
X56452180Y-25721476D01*
X56452179Y-25721476D01*
X56585982Y-26031665D01*
X56585985Y-26031670D01*
X56754888Y-26324220D01*
X56754898Y-26324236D01*
X56956630Y-26595209D01*
X57188463Y-26840935D01*
X57188469Y-26840941D01*
X57447241Y-27058078D01*
X57447245Y-27058081D01*
X57729484Y-27243712D01*
X58031386Y-27395333D01*
X58031391Y-27395335D01*
X58348823Y-27510871D01*
X58348832Y-27510873D01*
X58677543Y-27588779D01*
X58677553Y-27588781D01*
X59013085Y-27628000D01*
X59055000Y-27628000D01*
X59055000Y-26226482D01*
X59063947Y-26227900D01*
X59300053Y-26227900D01*
X59309000Y-26226482D01*
X59309000Y-27628000D01*
X59350915Y-27628000D01*
X59686446Y-27588781D01*
X59686456Y-27588779D01*
X60015167Y-27510873D01*
X60015176Y-27510871D01*
X60332608Y-27395335D01*
X60332613Y-27395333D01*
X60634515Y-27243712D01*
X60916754Y-27058081D01*
X60916758Y-27058078D01*
X61175530Y-26840941D01*
X61175545Y-26840927D01*
X61260351Y-26751039D01*
X61321647Y-26715216D01*
X61392580Y-26718219D01*
X61450629Y-26759094D01*
X61477364Y-26824865D01*
X61478000Y-26837505D01*
X61478000Y-34769400D01*
X61457998Y-34837521D01*
X61404342Y-34884014D01*
X61352000Y-34895400D01*
X-9782933Y-34895400D01*
X-9851054Y-34875398D01*
X-9897547Y-34821742D01*
X-9908930Y-34768485D01*
X-9905397Y-34281953D01*
X-9874051Y-29966143D01*
X-9853555Y-29898176D01*
X-9799564Y-29852074D01*
X-9729218Y-29842481D01*
X-9664853Y-29872442D01*
X-9656407Y-29880598D01*
X-9613547Y-29926026D01*
X-9613531Y-29926041D01*
X-9354759Y-30143178D01*
X-9354755Y-30143181D01*
X-9072516Y-30328812D01*
X-8770614Y-30480433D01*
X-8770609Y-30480435D01*
X-8453177Y-30595971D01*
X-8453168Y-30595973D01*
X-8124457Y-30673879D01*
X-8124447Y-30673881D01*
X-7788915Y-30713100D01*
X-7747000Y-30713100D01*
X-7747000Y-29311582D01*
X-7738053Y-29313000D01*
X-7501947Y-29313000D01*
X-7493000Y-29311582D01*
X-7493000Y-30713100D01*
X-7451085Y-30713100D01*
X-7115554Y-30673881D01*
X-7115544Y-30673879D01*
X-6786833Y-30595973D01*
X-6786824Y-30595971D01*
X-6469392Y-30480435D01*
X-6469387Y-30480433D01*
X-6167485Y-30328812D01*
X-5885246Y-30143181D01*
X-5885242Y-30143178D01*
X-5626470Y-29926041D01*
X-5626464Y-29926035D01*
X-5392651Y-29678210D01*
X-5331355Y-29642388D01*
X-5260422Y-29645391D01*
X-5202373Y-29686266D01*
X-5175638Y-29752037D01*
X-5179295Y-29797288D01*
X-5224039Y-29964276D01*
X-5224040Y-29964283D01*
X-5232756Y-30063899D01*
X-5232756Y-30063900D01*
X-4422408Y-30063900D01*
X-4438800Y-30125074D01*
X-4438800Y-30256726D01*
X-4422408Y-30317900D01*
X-5232756Y-30317900D01*
X-5224040Y-30417516D01*
X-5224039Y-30417523D01*
X-5165162Y-30637256D01*
X-5165160Y-30637261D01*
X-5069019Y-30843436D01*
X-4938546Y-31029771D01*
X-4938537Y-31029782D01*
X-4777683Y-31190636D01*
X-4777672Y-31190645D01*
X-4591337Y-31321118D01*
X-4591333Y-31321120D01*
X-4536466Y-31346706D01*
X-4483181Y-31393623D01*
X-4463721Y-31461901D01*
X-4484263Y-31529860D01*
X-4536466Y-31575094D01*
X-4591333Y-31600679D01*
X-4591337Y-31600681D01*
X-4777672Y-31731154D01*
X-4777683Y-31731163D01*
X-4938537Y-31892017D01*
X-4938546Y-31892028D01*
X-5069019Y-32078363D01*
X-5165160Y-32284538D01*
X-5165162Y-32284543D01*
X-5224039Y-32504276D01*
X-5224040Y-32504283D01*
X-5232756Y-32603899D01*
X-5232756Y-32603900D01*
X-4422408Y-32603900D01*
X-4438800Y-32665074D01*
X-4438800Y-32796726D01*
X-4422408Y-32857900D01*
X-5232756Y-32857900D01*
X-5224040Y-32957516D01*
X-5224039Y-32957523D01*
X-5165162Y-33177256D01*
X-5165160Y-33177261D01*
X-5069019Y-33383436D01*
X-4938546Y-33569771D01*
X-4938537Y-33569782D01*
X-4777683Y-33730636D01*
X-4777672Y-33730645D01*
X-4591337Y-33861118D01*
X-4591338Y-33861118D01*
X-4385162Y-33957259D01*
X-4385157Y-33957261D01*
X-4165427Y-34016138D01*
X-4065800Y-34024853D01*
X-4065800Y-33214508D01*
X-4004626Y-33230900D01*
X-3872974Y-33230900D01*
X-3811800Y-33214508D01*
X-3811800Y-34024852D01*
X-3712174Y-34016138D01*
X-3492444Y-33957261D01*
X-3492439Y-33957259D01*
X-3286264Y-33861118D01*
X-3099929Y-33730645D01*
X-3099918Y-33730636D01*
X-2939064Y-33569782D01*
X-2939055Y-33569771D01*
X-2808582Y-33383436D01*
X-2808580Y-33383433D01*
X-2783272Y-33329159D01*
X-2736356Y-33275874D01*
X-2668079Y-33256412D01*
X-2600119Y-33276953D01*
X-2554883Y-33329156D01*
X-2529456Y-33383683D01*
X-2399148Y-33569782D01*
X-2398923Y-33570103D01*
X-2238003Y-33731023D01*
X-2051584Y-33861555D01*
X-1845331Y-33957733D01*
X-1671960Y-34004187D01*
X-1627358Y-34016138D01*
X-1625510Y-34016633D01*
X-1398800Y-34036468D01*
X-1172090Y-34016633D01*
X-952269Y-33957733D01*
X-746016Y-33861555D01*
X-559597Y-33731023D01*
X-398677Y-33570103D01*
X-268145Y-33383684D01*
X-242995Y-33329749D01*
X-196077Y-33276465D01*
X-127800Y-33257004D01*
X-59840Y-33277546D01*
X-14605Y-33329750D01*
X10545Y-33383684D01*
X140844Y-33569771D01*
X141077Y-33570103D01*
X301997Y-33731023D01*
X488416Y-33861555D01*
X694669Y-33957733D01*
X868040Y-34004187D01*
X912642Y-34016138D01*
X914490Y-34016633D01*
X1141200Y-34036468D01*
X1367910Y-34016633D01*
X1587731Y-33957733D01*
X1793984Y-33861555D01*
X1980403Y-33731023D01*
X2141323Y-33570103D01*
X2271855Y-33383684D01*
X2297005Y-33329749D01*
X2343923Y-33276465D01*
X2412200Y-33257004D01*
X2480160Y-33277546D01*
X2525395Y-33329750D01*
X2550545Y-33383684D01*
X2680844Y-33569771D01*
X2681077Y-33570103D01*
X2841997Y-33731023D01*
X3028416Y-33861555D01*
X3234669Y-33957733D01*
X3408040Y-34004187D01*
X3452642Y-34016138D01*
X3454490Y-34016633D01*
X3681200Y-34036468D01*
X3907910Y-34016633D01*
X4127731Y-33957733D01*
X4333984Y-33861555D01*
X4520403Y-33731023D01*
X4681323Y-33570103D01*
X4811855Y-33383684D01*
X4837005Y-33329749D01*
X4883923Y-33276465D01*
X4952200Y-33257004D01*
X5020160Y-33277546D01*
X5065395Y-33329750D01*
X5090545Y-33383684D01*
X5220844Y-33569771D01*
X5221077Y-33570103D01*
X5381997Y-33731023D01*
X5568416Y-33861555D01*
X5774669Y-33957733D01*
X5948040Y-34004187D01*
X5992642Y-34016138D01*
X5994490Y-34016633D01*
X6221200Y-34036468D01*
X6447910Y-34016633D01*
X6667731Y-33957733D01*
X6873984Y-33861555D01*
X7060403Y-33731023D01*
X7221323Y-33570103D01*
X7351855Y-33383684D01*
X7377005Y-33329749D01*
X7423923Y-33276465D01*
X7492200Y-33257004D01*
X7560160Y-33277546D01*
X7605395Y-33329750D01*
X7630545Y-33383684D01*
X7760844Y-33569771D01*
X7761077Y-33570103D01*
X7921997Y-33731023D01*
X8108416Y-33861555D01*
X8314669Y-33957733D01*
X8488040Y-34004187D01*
X8532642Y-34016138D01*
X8534490Y-34016633D01*
X8761200Y-34036468D01*
X8987910Y-34016633D01*
X9207731Y-33957733D01*
X9413984Y-33861555D01*
X9600403Y-33731023D01*
X9761323Y-33570103D01*
X9891855Y-33383684D01*
X9917005Y-33329749D01*
X9963923Y-33276465D01*
X10032200Y-33257004D01*
X10100160Y-33277546D01*
X10145395Y-33329750D01*
X10170545Y-33383684D01*
X10300844Y-33569771D01*
X10301077Y-33570103D01*
X10461997Y-33731023D01*
X10648416Y-33861555D01*
X10854669Y-33957733D01*
X11028040Y-34004187D01*
X11072642Y-34016138D01*
X11074490Y-34016633D01*
X11301200Y-34036468D01*
X11527910Y-34016633D01*
X11747731Y-33957733D01*
X11953984Y-33861555D01*
X12140403Y-33731023D01*
X12301323Y-33570103D01*
X12431855Y-33383684D01*
X12457005Y-33329749D01*
X12503923Y-33276465D01*
X12572200Y-33257004D01*
X12640160Y-33277546D01*
X12685395Y-33329750D01*
X12710545Y-33383684D01*
X12840844Y-33569771D01*
X12841077Y-33570103D01*
X13001997Y-33731023D01*
X13188416Y-33861555D01*
X13394669Y-33957733D01*
X13568040Y-34004187D01*
X13612642Y-34016138D01*
X13614490Y-34016633D01*
X13841200Y-34036468D01*
X14067910Y-34016633D01*
X14287731Y-33957733D01*
X14493984Y-33861555D01*
X14680403Y-33731023D01*
X14841323Y-33570103D01*
X14971855Y-33383684D01*
X14997005Y-33329749D01*
X15043923Y-33276465D01*
X15112200Y-33257004D01*
X15180160Y-33277546D01*
X15225395Y-33329750D01*
X15250545Y-33383684D01*
X15380844Y-33569771D01*
X15381077Y-33570103D01*
X15541997Y-33731023D01*
X15728416Y-33861555D01*
X15934669Y-33957733D01*
X16108040Y-34004187D01*
X16152642Y-34016138D01*
X16154490Y-34016633D01*
X16381200Y-34036468D01*
X16607910Y-34016633D01*
X16827731Y-33957733D01*
X17033984Y-33861555D01*
X17220403Y-33731023D01*
X17381323Y-33570103D01*
X17511855Y-33383684D01*
X17537005Y-33329749D01*
X17583923Y-33276465D01*
X17652200Y-33257004D01*
X17720160Y-33277546D01*
X17765395Y-33329750D01*
X17790545Y-33383684D01*
X17920844Y-33569771D01*
X17921077Y-33570103D01*
X18081997Y-33731023D01*
X18268416Y-33861555D01*
X18474669Y-33957733D01*
X18648040Y-34004187D01*
X18692642Y-34016138D01*
X18694490Y-34016633D01*
X18921200Y-34036468D01*
X19147910Y-34016633D01*
X19367731Y-33957733D01*
X19573984Y-33861555D01*
X19760403Y-33731023D01*
X19921323Y-33570103D01*
X20051855Y-33383684D01*
X20077005Y-33329749D01*
X20123923Y-33276465D01*
X20192200Y-33257004D01*
X20260160Y-33277546D01*
X20305395Y-33329750D01*
X20330545Y-33383684D01*
X20460844Y-33569771D01*
X20461077Y-33570103D01*
X20621997Y-33731023D01*
X20808416Y-33861555D01*
X21014669Y-33957733D01*
X21188040Y-34004187D01*
X21232642Y-34016138D01*
X21234490Y-34016633D01*
X21461200Y-34036468D01*
X21687910Y-34016633D01*
X21907731Y-33957733D01*
X22113984Y-33861555D01*
X22300403Y-33731023D01*
X22461323Y-33570103D01*
X22591855Y-33383684D01*
X22617005Y-33329749D01*
X22663923Y-33276465D01*
X22732200Y-33257004D01*
X22800160Y-33277546D01*
X22845395Y-33329750D01*
X22870545Y-33383684D01*
X23000844Y-33569771D01*
X23001077Y-33570103D01*
X23161997Y-33731023D01*
X23348416Y-33861555D01*
X23554669Y-33957733D01*
X23728040Y-34004187D01*
X23772642Y-34016138D01*
X23774490Y-34016633D01*
X24001200Y-34036468D01*
X24227910Y-34016633D01*
X24447731Y-33957733D01*
X24653984Y-33861555D01*
X24840403Y-33731023D01*
X25001323Y-33570103D01*
X25131855Y-33383684D01*
X25157005Y-33329749D01*
X25203923Y-33276465D01*
X25272200Y-33257004D01*
X25340160Y-33277546D01*
X25385395Y-33329750D01*
X25410545Y-33383684D01*
X25540844Y-33569771D01*
X25541077Y-33570103D01*
X25701997Y-33731023D01*
X25888416Y-33861555D01*
X26094669Y-33957733D01*
X26268040Y-34004187D01*
X26312642Y-34016138D01*
X26314490Y-34016633D01*
X26541200Y-34036468D01*
X26767910Y-34016633D01*
X26987731Y-33957733D01*
X27193984Y-33861555D01*
X27380403Y-33731023D01*
X27541323Y-33570103D01*
X27671855Y-33383684D01*
X27697005Y-33329749D01*
X27743923Y-33276465D01*
X27812200Y-33257004D01*
X27880160Y-33277546D01*
X27925395Y-33329750D01*
X27950545Y-33383684D01*
X28080844Y-33569771D01*
X28081077Y-33570103D01*
X28241997Y-33731023D01*
X28428416Y-33861555D01*
X28634669Y-33957733D01*
X28808040Y-34004187D01*
X28852642Y-34016138D01*
X28854490Y-34016633D01*
X29081200Y-34036468D01*
X29307910Y-34016633D01*
X29527731Y-33957733D01*
X29733984Y-33861555D01*
X29920403Y-33731023D01*
X30081323Y-33570103D01*
X30211855Y-33383684D01*
X30237281Y-33329157D01*
X30284198Y-33275873D01*
X30352476Y-33256412D01*
X30420436Y-33276954D01*
X30465671Y-33329158D01*
X30490981Y-33383436D01*
X30621454Y-33569771D01*
X30621463Y-33569782D01*
X30782317Y-33730636D01*
X30782328Y-33730645D01*
X30968663Y-33861118D01*
X30968662Y-33861118D01*
X31174838Y-33957259D01*
X31174843Y-33957261D01*
X31394573Y-34016138D01*
X31494200Y-34024853D01*
X31494200Y-33214508D01*
X31555374Y-33230900D01*
X31687026Y-33230900D01*
X31748200Y-33214508D01*
X31748200Y-34024852D01*
X31847826Y-34016138D01*
X32067556Y-33957261D01*
X32067561Y-33957259D01*
X32273736Y-33861118D01*
X32460071Y-33730645D01*
X32460082Y-33730636D01*
X32620936Y-33569782D01*
X32620945Y-33569771D01*
X32751418Y-33383436D01*
X32847559Y-33177261D01*
X32847561Y-33177256D01*
X32906438Y-32957523D01*
X32906439Y-32957516D01*
X32915156Y-32857900D01*
X32104808Y-32857900D01*
X32121200Y-32796726D01*
X32121200Y-32665074D01*
X32104808Y-32603900D01*
X32915156Y-32603900D01*
X32915155Y-32603899D01*
X32906439Y-32504283D01*
X32906438Y-32504276D01*
X32847561Y-32284543D01*
X32847559Y-32284538D01*
X32751418Y-32078363D01*
X32620945Y-31892028D01*
X32620936Y-31892017D01*
X32460082Y-31731163D01*
X32460071Y-31731154D01*
X32284062Y-31607912D01*
X32239733Y-31552455D01*
X32232424Y-31481836D01*
X32264454Y-31418476D01*
X32325655Y-31382490D01*
X32356331Y-31378699D01*
X32552730Y-31378699D01*
X32646535Y-31363843D01*
X32759602Y-31306232D01*
X32849332Y-31216502D01*
X32906943Y-31103435D01*
X32921800Y-31009631D01*
X32921799Y-29371770D01*
X32906943Y-29277965D01*
X32868799Y-29203104D01*
X32849332Y-29164897D01*
X32759602Y-29075167D01*
X32683742Y-29036515D01*
X32646535Y-29017557D01*
X32552731Y-29002700D01*
X32552727Y-29002700D01*
X30689671Y-29002700D01*
X30595866Y-29017556D01*
X30482797Y-29075167D01*
X30393067Y-29164897D01*
X30335456Y-29277966D01*
X30327838Y-29326064D01*
X30297425Y-29390217D01*
X30237157Y-29427743D01*
X30166167Y-29426728D01*
X30106996Y-29387495D01*
X30100177Y-29378623D01*
X30081325Y-29351700D01*
X30081320Y-29351694D01*
X29920405Y-29190779D01*
X29920399Y-29190774D01*
X29733984Y-29060245D01*
X29527733Y-28964068D01*
X29527729Y-28964066D01*
X29307913Y-28905167D01*
X29081200Y-28885332D01*
X28854486Y-28905167D01*
X28634670Y-28964066D01*
X28634666Y-28964068D01*
X28428415Y-29060245D01*
X28242000Y-29190774D01*
X28241994Y-29190779D01*
X28081079Y-29351694D01*
X28081074Y-29351700D01*
X27950543Y-29538117D01*
X27925394Y-29592050D01*
X27878477Y-29645335D01*
X27810199Y-29664795D01*
X27742240Y-29644253D01*
X27697006Y-29592050D01*
X27671856Y-29538117D01*
X27541325Y-29351700D01*
X27541320Y-29351694D01*
X27380405Y-29190779D01*
X27380399Y-29190774D01*
X27193984Y-29060245D01*
X26987733Y-28964068D01*
X26987729Y-28964066D01*
X26767913Y-28905167D01*
X26541200Y-28885332D01*
X26314486Y-28905167D01*
X26094670Y-28964066D01*
X26094666Y-28964068D01*
X25888415Y-29060245D01*
X25702000Y-29190774D01*
X25701994Y-29190779D01*
X25541079Y-29351694D01*
X25541074Y-29351700D01*
X25410543Y-29538117D01*
X25385394Y-29592050D01*
X25338477Y-29645335D01*
X25270199Y-29664795D01*
X25202240Y-29644253D01*
X25157006Y-29592050D01*
X25131856Y-29538117D01*
X25001325Y-29351700D01*
X25001320Y-29351694D01*
X24840405Y-29190779D01*
X24840399Y-29190774D01*
X24653984Y-29060245D01*
X24447733Y-28964068D01*
X24447729Y-28964066D01*
X24227913Y-28905167D01*
X24001200Y-28885332D01*
X23774486Y-28905167D01*
X23554670Y-28964066D01*
X23554666Y-28964068D01*
X23348415Y-29060245D01*
X23162000Y-29190774D01*
X23161994Y-29190779D01*
X23001079Y-29351694D01*
X23001074Y-29351700D01*
X22870543Y-29538117D01*
X22845394Y-29592050D01*
X22798477Y-29645335D01*
X22730199Y-29664795D01*
X22662240Y-29644253D01*
X22617006Y-29592050D01*
X22591856Y-29538117D01*
X22461325Y-29351700D01*
X22461320Y-29351694D01*
X22300405Y-29190779D01*
X22300399Y-29190774D01*
X22113984Y-29060245D01*
X21907733Y-28964068D01*
X21907729Y-28964066D01*
X21687913Y-28905167D01*
X21461200Y-28885332D01*
X21234486Y-28905167D01*
X21014670Y-28964066D01*
X21014666Y-28964068D01*
X20808415Y-29060245D01*
X20622000Y-29190774D01*
X20621994Y-29190779D01*
X20461079Y-29351694D01*
X20461074Y-29351700D01*
X20330543Y-29538117D01*
X20305394Y-29592050D01*
X20258477Y-29645335D01*
X20190199Y-29664795D01*
X20122240Y-29644253D01*
X20077006Y-29592050D01*
X20051856Y-29538117D01*
X19921325Y-29351700D01*
X19921320Y-29351694D01*
X19760405Y-29190779D01*
X19760399Y-29190774D01*
X19573984Y-29060245D01*
X19367733Y-28964068D01*
X19367729Y-28964066D01*
X19147913Y-28905167D01*
X18921200Y-28885332D01*
X18694486Y-28905167D01*
X18474670Y-28964066D01*
X18474666Y-28964068D01*
X18268415Y-29060245D01*
X18082000Y-29190774D01*
X18081994Y-29190779D01*
X17921079Y-29351694D01*
X17921074Y-29351700D01*
X17790543Y-29538117D01*
X17765394Y-29592050D01*
X17718477Y-29645335D01*
X17650199Y-29664795D01*
X17582240Y-29644253D01*
X17537006Y-29592050D01*
X17511856Y-29538117D01*
X17381325Y-29351700D01*
X17381320Y-29351694D01*
X17220405Y-29190779D01*
X17220399Y-29190774D01*
X17033984Y-29060245D01*
X16827733Y-28964068D01*
X16827729Y-28964066D01*
X16607913Y-28905167D01*
X16381200Y-28885332D01*
X16154486Y-28905167D01*
X15934670Y-28964066D01*
X15934666Y-28964068D01*
X15728415Y-29060245D01*
X15542000Y-29190774D01*
X15541994Y-29190779D01*
X15381079Y-29351694D01*
X15381074Y-29351700D01*
X15250543Y-29538117D01*
X15225394Y-29592050D01*
X15178477Y-29645335D01*
X15110199Y-29664795D01*
X15042240Y-29644253D01*
X14997006Y-29592050D01*
X14971856Y-29538117D01*
X14841325Y-29351700D01*
X14841320Y-29351694D01*
X14680405Y-29190779D01*
X14680399Y-29190774D01*
X14493984Y-29060245D01*
X14287733Y-28964068D01*
X14287729Y-28964066D01*
X14067913Y-28905167D01*
X13841200Y-28885332D01*
X13614486Y-28905167D01*
X13394670Y-28964066D01*
X13394666Y-28964068D01*
X13188415Y-29060245D01*
X13002000Y-29190774D01*
X13001994Y-29190779D01*
X12841079Y-29351694D01*
X12841074Y-29351700D01*
X12710543Y-29538117D01*
X12685394Y-29592050D01*
X12638477Y-29645335D01*
X12570199Y-29664795D01*
X12502240Y-29644253D01*
X12457006Y-29592050D01*
X12431856Y-29538117D01*
X12301325Y-29351700D01*
X12301320Y-29351694D01*
X12140405Y-29190779D01*
X12140399Y-29190774D01*
X11953984Y-29060245D01*
X11747733Y-28964068D01*
X11747729Y-28964066D01*
X11527913Y-28905167D01*
X11301200Y-28885332D01*
X11074486Y-28905167D01*
X10854670Y-28964066D01*
X10854666Y-28964068D01*
X10648415Y-29060245D01*
X10462000Y-29190774D01*
X10461994Y-29190779D01*
X10301079Y-29351694D01*
X10301074Y-29351700D01*
X10170543Y-29538117D01*
X10145394Y-29592050D01*
X10098477Y-29645335D01*
X10030199Y-29664795D01*
X9962240Y-29644253D01*
X9917006Y-29592050D01*
X9891856Y-29538117D01*
X9761325Y-29351700D01*
X9761320Y-29351694D01*
X9600405Y-29190779D01*
X9600399Y-29190774D01*
X9413984Y-29060245D01*
X9207733Y-28964068D01*
X9207729Y-28964066D01*
X8987913Y-28905167D01*
X8761200Y-28885332D01*
X8534486Y-28905167D01*
X8314670Y-28964066D01*
X8314666Y-28964068D01*
X8108415Y-29060245D01*
X7922000Y-29190774D01*
X7921994Y-29190779D01*
X7761079Y-29351694D01*
X7761074Y-29351700D01*
X7630543Y-29538117D01*
X7605394Y-29592050D01*
X7558477Y-29645335D01*
X7490199Y-29664795D01*
X7422240Y-29644253D01*
X7377006Y-29592050D01*
X7351856Y-29538117D01*
X7221325Y-29351700D01*
X7221320Y-29351694D01*
X7060405Y-29190779D01*
X7060399Y-29190774D01*
X6873984Y-29060245D01*
X6667733Y-28964068D01*
X6667729Y-28964066D01*
X6447913Y-28905167D01*
X6221200Y-28885332D01*
X5994486Y-28905167D01*
X5774670Y-28964066D01*
X5774666Y-28964068D01*
X5568415Y-29060245D01*
X5382000Y-29190774D01*
X5381994Y-29190779D01*
X5221079Y-29351694D01*
X5221074Y-29351700D01*
X5090543Y-29538117D01*
X5065394Y-29592050D01*
X5018477Y-29645335D01*
X4950199Y-29664795D01*
X4882240Y-29644253D01*
X4837006Y-29592050D01*
X4811856Y-29538117D01*
X4681325Y-29351700D01*
X4681320Y-29351694D01*
X4520405Y-29190779D01*
X4520399Y-29190774D01*
X4333984Y-29060245D01*
X4127733Y-28964068D01*
X4127729Y-28964066D01*
X3907913Y-28905167D01*
X3832340Y-28898555D01*
X3681200Y-28885332D01*
X3681197Y-28885332D01*
X3681194Y-28885332D01*
X3675699Y-28885332D01*
X3675699Y-28883485D01*
X3614158Y-28871101D01*
X3563178Y-28821688D01*
X3547006Y-28752558D01*
X3554996Y-28714909D01*
X3606238Y-28579796D01*
X3626746Y-28410900D01*
X3606238Y-28242004D01*
X3580228Y-28173422D01*
X3574774Y-28102638D01*
X3608455Y-28040139D01*
X3670579Y-28005772D01*
X3717170Y-28006282D01*
X3717365Y-28004681D01*
X3724929Y-28005599D01*
X3724932Y-28005600D01*
X3724935Y-28005600D01*
X3895065Y-28005600D01*
X3895068Y-28005600D01*
X4060261Y-27964884D01*
X4210909Y-27885818D01*
X4338258Y-27772996D01*
X4434907Y-27632977D01*
X4495238Y-27473896D01*
X4515746Y-27305000D01*
X4507513Y-27237200D01*
X4495238Y-27136104D01*
X4465647Y-27058078D01*
X4434907Y-26977023D01*
X4340976Y-26840941D01*
X4338259Y-26837005D01*
X4210908Y-26724181D01*
X4210904Y-26724179D01*
X4105509Y-26668864D01*
X4060261Y-26645116D01*
X4060258Y-26645115D01*
X3895071Y-26604400D01*
X3895068Y-26604400D01*
X3724932Y-26604400D01*
X3724928Y-26604400D01*
X3559741Y-26645115D01*
X3409095Y-26724179D01*
X3409091Y-26724181D01*
X3281740Y-26837005D01*
X3185093Y-26977022D01*
X3124761Y-27136104D01*
X3104254Y-27304997D01*
X3104254Y-27305002D01*
X3124761Y-27473893D01*
X3124761Y-27473895D01*
X3124762Y-27473896D01*
X3150771Y-27542477D01*
X3156225Y-27613262D01*
X3122543Y-27675760D01*
X3060419Y-27710127D01*
X3013829Y-27709620D01*
X3013635Y-27711219D01*
X3006070Y-27710300D01*
X3006068Y-27710300D01*
X2835932Y-27710300D01*
X2835928Y-27710300D01*
X2670741Y-27751015D01*
X2520095Y-27830079D01*
X2520091Y-27830081D01*
X2392740Y-27942905D01*
X2296093Y-28082922D01*
X2235761Y-28242004D01*
X2215254Y-28410897D01*
X2215254Y-28410902D01*
X2235761Y-28579795D01*
X2296093Y-28738877D01*
X2392740Y-28878894D01*
X2392741Y-28878895D01*
X2392742Y-28878896D01*
X2520091Y-28991718D01*
X2670739Y-29070784D01*
X2687484Y-29074911D01*
X2748838Y-29110631D01*
X2781142Y-29173853D01*
X2774137Y-29244503D01*
X2746429Y-29286345D01*
X2681074Y-29351700D01*
X2550543Y-29538117D01*
X2525394Y-29592050D01*
X2478477Y-29645335D01*
X2410199Y-29664795D01*
X2342240Y-29644253D01*
X2297006Y-29592050D01*
X2271856Y-29538117D01*
X2141325Y-29351700D01*
X2141320Y-29351694D01*
X1980405Y-29190779D01*
X1980399Y-29190774D01*
X1793984Y-29060245D01*
X1587733Y-28964068D01*
X1587729Y-28964066D01*
X1367913Y-28905167D01*
X1141200Y-28885332D01*
X914486Y-28905167D01*
X694670Y-28964066D01*
X694666Y-28964068D01*
X488415Y-29060245D01*
X302000Y-29190774D01*
X301994Y-29190779D01*
X141079Y-29351694D01*
X141074Y-29351700D01*
X10543Y-29538117D01*
X-14606Y-29592050D01*
X-61523Y-29645335D01*
X-129801Y-29664795D01*
X-197760Y-29644253D01*
X-242994Y-29592050D01*
X-268144Y-29538117D01*
X-398675Y-29351700D01*
X-398680Y-29351694D01*
X-559595Y-29190779D01*
X-559601Y-29190774D01*
X-644571Y-29131277D01*
X-688899Y-29075820D01*
X-698300Y-29028064D01*
X-698300Y-26596210D01*
X-678298Y-26528089D01*
X-661392Y-26507111D01*
X-577169Y-26422896D01*
X-185904Y-26031665D01*
X-624Y-25846401D01*
X61690Y-25812378D01*
X88468Y-25809500D01*
X5200346Y-25809500D01*
X5268467Y-25829502D01*
X5280279Y-25838100D01*
X5410407Y-25944894D01*
X5516497Y-26001600D01*
X5584234Y-26037806D01*
X5584239Y-26037808D01*
X5772844Y-26095021D01*
X5772845Y-26095021D01*
X5772848Y-26095022D01*
X5772851Y-26095022D01*
X5772855Y-26095023D01*
X5968997Y-26114341D01*
X5969000Y-26114341D01*
X5969003Y-26114341D01*
X6165144Y-26095023D01*
X6165146Y-26095022D01*
X6165152Y-26095022D01*
X6315464Y-26049425D01*
X6353760Y-26037808D01*
X6353761Y-26037807D01*
X6353766Y-26037806D01*
X6527593Y-25944894D01*
X6679954Y-25819854D01*
X6804994Y-25667493D01*
X6897906Y-25493666D01*
X6926975Y-25397841D01*
X6955121Y-25305055D01*
X6955123Y-25305044D01*
X6974441Y-25108903D01*
X6974441Y-25108896D01*
X6961933Y-24981900D01*
X20811439Y-24981900D01*
X20831153Y-25169466D01*
X20831229Y-25170182D01*
X20889726Y-25350219D01*
X20889729Y-25350226D01*
X20984384Y-25514172D01*
X20984391Y-25514182D01*
X21111058Y-25654860D01*
X21111063Y-25654865D01*
X21173129Y-25699958D01*
X21264219Y-25766139D01*
X21437166Y-25843140D01*
X21573113Y-25872036D01*
X21622342Y-25882500D01*
X21622343Y-25882500D01*
X21811658Y-25882500D01*
X21844118Y-25875600D01*
X21996834Y-25843140D01*
X22169781Y-25766139D01*
X22322939Y-25654863D01*
X22449614Y-25514175D01*
X22544271Y-25350225D01*
X22602772Y-25170177D01*
X22622561Y-24981900D01*
X22602772Y-24793623D01*
X22558208Y-24656468D01*
X22544273Y-24613580D01*
X22544270Y-24613573D01*
X22449615Y-24449627D01*
X22449608Y-24449617D01*
X22322941Y-24308939D01*
X22322936Y-24308934D01*
X22169781Y-24197661D01*
X21996834Y-24120660D01*
X21811658Y-24081300D01*
X21811657Y-24081300D01*
X21622343Y-24081300D01*
X21622342Y-24081300D01*
X21437165Y-24120660D01*
X21264215Y-24197663D01*
X21111061Y-24308936D01*
X20984387Y-24449623D01*
X20984384Y-24449627D01*
X20889729Y-24613573D01*
X20889726Y-24613580D01*
X20831229Y-24793617D01*
X20831228Y-24793621D01*
X20831228Y-24793623D01*
X20811439Y-24981900D01*
X6961933Y-24981900D01*
X6955123Y-24912755D01*
X6955121Y-24912744D01*
X6897908Y-24724139D01*
X6897906Y-24724134D01*
X6838810Y-24613573D01*
X6804994Y-24550307D01*
X6679954Y-24397946D01*
X6527593Y-24272906D01*
X6500770Y-24258569D01*
X6353765Y-24179993D01*
X6353760Y-24179991D01*
X6165155Y-24122778D01*
X6165144Y-24122776D01*
X5969003Y-24103459D01*
X5968997Y-24103459D01*
X5772855Y-24122776D01*
X5772844Y-24122778D01*
X5584239Y-24179991D01*
X5584234Y-24179993D01*
X5410406Y-24272906D01*
X5280280Y-24379699D01*
X5214933Y-24407453D01*
X5200346Y-24408300D01*
X-230868Y-24408300D01*
X-322872Y-24408296D01*
X-322873Y-24408296D01*
X-322883Y-24408296D01*
X-322889Y-24408296D01*
X-354693Y-24414623D01*
X-370175Y-24417703D01*
X-458238Y-24435215D01*
X-522298Y-24461749D01*
X-585749Y-24488029D01*
X-655766Y-24534813D01*
X-655769Y-24534815D01*
X-700500Y-24564700D01*
X-758011Y-24622211D01*
X-1842317Y-25706422D01*
X-1842395Y-25706494D01*
X-1904680Y-25768780D01*
X-1904683Y-25768784D01*
X-1943086Y-25807183D01*
X-1963744Y-25838101D01*
X-1992809Y-25881600D01*
X-1993410Y-25882500D01*
X-2019759Y-25921929D01*
X-2019764Y-25921940D01*
X-2019764Y-25921941D01*
X-2046859Y-25987354D01*
X-2065218Y-26031670D01*
X-2072573Y-26049425D01*
X-2081641Y-26095015D01*
X-2081642Y-26095021D01*
X-2099499Y-26184772D01*
X-2099500Y-26184778D01*
X-2099500Y-26184797D01*
X-2099500Y-26230768D01*
X-2099503Y-26313000D01*
X-2099504Y-26328950D01*
X-2099500Y-26329031D01*
X-2099500Y-29028204D01*
X-2119502Y-29096325D01*
X-2153229Y-29131417D01*
X-2238000Y-29190774D01*
X-2238006Y-29190779D01*
X-2398921Y-29351694D01*
X-2398926Y-29351700D01*
X-2529456Y-29538116D01*
X-2554883Y-29592643D01*
X-2601802Y-29645927D01*
X-2670079Y-29665387D01*
X-2738039Y-29644844D01*
X-2783272Y-29592640D01*
X-2808580Y-29538366D01*
X-2808582Y-29538363D01*
X-2939055Y-29352028D01*
X-2939064Y-29352017D01*
X-3099918Y-29191163D01*
X-3099929Y-29191154D01*
X-3286264Y-29060681D01*
X-3286263Y-29060681D01*
X-3492439Y-28964540D01*
X-3492444Y-28964538D01*
X-3712177Y-28905661D01*
X-3712184Y-28905660D01*
X-3811800Y-28896944D01*
X-3811800Y-29707291D01*
X-3872974Y-29690900D01*
X-4004626Y-29690900D01*
X-4065800Y-29707291D01*
X-4065800Y-28896944D01*
X-4065801Y-28896944D01*
X-4165417Y-28905660D01*
X-4165424Y-28905661D01*
X-4385157Y-28964538D01*
X-4385162Y-28964540D01*
X-4591337Y-29060681D01*
X-4777672Y-29191154D01*
X-4777677Y-29191158D01*
X-4801677Y-29215158D01*
X-4863990Y-29249182D01*
X-4934806Y-29244116D01*
X-4991641Y-29201568D01*
X-5016450Y-29135047D01*
X-5006466Y-29076155D01*
X-4890180Y-28806576D01*
X-4793291Y-28482942D01*
X-4793291Y-28482941D01*
X-4734629Y-28150250D01*
X-4734628Y-28150241D01*
X-4722382Y-27940000D01*
X-6121417Y-27940000D01*
X-6120000Y-27931053D01*
X-6120000Y-27694947D01*
X-6121417Y-27686000D01*
X-4722382Y-27686000D01*
X-4722383Y-27685999D01*
X-4734628Y-27475758D01*
X-4734629Y-27475749D01*
X-4793291Y-27143058D01*
X-4793291Y-27143057D01*
X-4890181Y-26819423D01*
X-4890180Y-26819423D01*
X-5023983Y-26509234D01*
X-5023986Y-26509229D01*
X-5192889Y-26216679D01*
X-5192899Y-26216663D01*
X-5394631Y-25945690D01*
X-5626464Y-25699964D01*
X-5626470Y-25699958D01*
X-5885242Y-25482821D01*
X-5885246Y-25482818D01*
X-6167485Y-25297187D01*
X-6469387Y-25145566D01*
X-6469392Y-25145564D01*
X-6786824Y-25030028D01*
X-6786833Y-25030026D01*
X-7115544Y-24952120D01*
X-7115554Y-24952118D01*
X-7451085Y-24912900D01*
X-7493000Y-24912900D01*
X-7493000Y-26314417D01*
X-7501947Y-26313000D01*
X-7738053Y-26313000D01*
X-7747000Y-26314417D01*
X-7747000Y-24912900D01*
X-7788915Y-24912900D01*
X-8124447Y-24952118D01*
X-8124457Y-24952120D01*
X-8453168Y-25030026D01*
X-8453177Y-25030028D01*
X-8770609Y-25145564D01*
X-8770614Y-25145566D01*
X-9072516Y-25297187D01*
X-9354755Y-25482818D01*
X-9354759Y-25482821D01*
X-9613531Y-25699958D01*
X-9613557Y-25699983D01*
X-9624875Y-25711979D01*
X-9686172Y-25747800D01*
X-9757105Y-25744795D01*
X-9815153Y-25703918D01*
X-9841886Y-25638146D01*
X-9842518Y-25624614D01*
X-9829085Y-23775245D01*
X-9808589Y-23707275D01*
X-9754597Y-23661173D01*
X-9684252Y-23651580D01*
X-9619887Y-23681541D01*
X-9599876Y-23703894D01*
X-9472482Y-23885832D01*
X-9472478Y-23885837D01*
X-9472475Y-23885841D01*
X-9317741Y-24040575D01*
X-9317737Y-24040578D01*
X-9317733Y-24040581D01*
X-9138493Y-24166086D01*
X-9138494Y-24166086D01*
X-9108670Y-24179993D01*
X-8940164Y-24258569D01*
X-8753768Y-24308513D01*
X-8731646Y-24314441D01*
X-8728794Y-24315205D01*
X-8510800Y-24334277D01*
X-8292806Y-24315205D01*
X-8081436Y-24258569D01*
X-7883111Y-24166088D01*
X-7703859Y-24040575D01*
X-7549125Y-23885841D01*
X-7450611Y-23745147D01*
X-7395157Y-23700821D01*
X-7324538Y-23693512D01*
X-7261177Y-23725542D01*
X-7225192Y-23786743D01*
X-7221400Y-23817419D01*
X-7221400Y-23960228D01*
X-7206544Y-24054033D01*
X-7148933Y-24167102D01*
X-7059203Y-24256832D01*
X-7027655Y-24272906D01*
X-6946135Y-24314443D01*
X-6852331Y-24329300D01*
X-5089270Y-24329299D01*
X-4995465Y-24314443D01*
X-4882398Y-24256832D01*
X-4792668Y-24167102D01*
X-4735057Y-24054035D01*
X-4720200Y-23960231D01*
X-4720201Y-22197170D01*
X-4735057Y-22103365D01*
X-4791947Y-21991713D01*
X-4792668Y-21990297D01*
X-4882398Y-21900567D01*
X-4958258Y-21861915D01*
X-4995465Y-21842957D01*
X-5089269Y-21828100D01*
X-5089272Y-21828100D01*
X-5231993Y-21828100D01*
X-5300114Y-21808098D01*
X-5346607Y-21754442D01*
X-5356711Y-21684168D01*
X-5327217Y-21619588D01*
X-5304263Y-21598887D01*
X-5163868Y-21500581D01*
X-5163859Y-21500575D01*
X-5009125Y-21345841D01*
X-4883612Y-21166589D01*
X-4869978Y-21137350D01*
X-4823062Y-21084066D01*
X-4755783Y-21064600D01*
X3152294Y-21064600D01*
X3152297Y-21064600D01*
X3285974Y-21028781D01*
X3285974Y-21028780D01*
X3285975Y-21028780D01*
X3285977Y-21028780D01*
X3285978Y-21028779D01*
X3296652Y-21025919D01*
X3307675Y-21016251D01*
X3405828Y-20959583D01*
X3574509Y-20790900D01*
X17509439Y-20790900D01*
X17527906Y-20966600D01*
X17529229Y-20979182D01*
X17587726Y-21159219D01*
X17587729Y-21159226D01*
X17682384Y-21323172D01*
X17682391Y-21323182D01*
X17809058Y-21463860D01*
X17809063Y-21463865D01*
X17859599Y-21500581D01*
X17962219Y-21575139D01*
X18135166Y-21652140D01*
X18280982Y-21683133D01*
X18320342Y-21691500D01*
X18320343Y-21691500D01*
X18509658Y-21691500D01*
X18544152Y-21684168D01*
X18694834Y-21652140D01*
X18867781Y-21575139D01*
X19020939Y-21463863D01*
X19147614Y-21323175D01*
X19242271Y-21159225D01*
X19300772Y-20979177D01*
X19320561Y-20790900D01*
X19300772Y-20602623D01*
X19242271Y-20422575D01*
X19147614Y-20258625D01*
X19147612Y-20258623D01*
X19147608Y-20258617D01*
X19020941Y-20117939D01*
X19020936Y-20117934D01*
X18867781Y-20006661D01*
X18694834Y-19929660D01*
X18509658Y-19890300D01*
X18509657Y-19890300D01*
X18320343Y-19890300D01*
X18320342Y-19890300D01*
X18135165Y-19929660D01*
X17962215Y-20006663D01*
X17809061Y-20117936D01*
X17682387Y-20258623D01*
X17682384Y-20258627D01*
X17587729Y-20422573D01*
X17587726Y-20422580D01*
X17529229Y-20602617D01*
X17529228Y-20602621D01*
X17529228Y-20602623D01*
X17509439Y-20790900D01*
X3574509Y-20790900D01*
X8654459Y-15710896D01*
X10901622Y-15710896D01*
X10901622Y-15710903D01*
X10920664Y-15867739D01*
X10976693Y-16015472D01*
X11066441Y-16145494D01*
X11066444Y-16145497D01*
X11089028Y-16165505D01*
X11184703Y-16250266D01*
X11324600Y-16323689D01*
X11478003Y-16361500D01*
X11478004Y-16361500D01*
X11635996Y-16361500D01*
X11635997Y-16361500D01*
X11789400Y-16323689D01*
X11894166Y-16268703D01*
X11963779Y-16254758D01*
X12029881Y-16280662D01*
X12071485Y-16338191D01*
X12075382Y-16409081D01*
X12070532Y-16424951D01*
X12063665Y-16443056D01*
X12063665Y-16443058D01*
X12044622Y-16599896D01*
X12044622Y-16599903D01*
X12063664Y-16756739D01*
X12119693Y-16904472D01*
X12209441Y-17034494D01*
X12209444Y-17034497D01*
X12264454Y-17083232D01*
X12327703Y-17139266D01*
X12467600Y-17212689D01*
X12621003Y-17250500D01*
X12621004Y-17250500D01*
X12778996Y-17250500D01*
X12778997Y-17250500D01*
X12932400Y-17212689D01*
X13072297Y-17139266D01*
X13190557Y-17034496D01*
X13280308Y-16904469D01*
X13336334Y-16756742D01*
X13336334Y-16756741D01*
X13336335Y-16756739D01*
X13355378Y-16599903D01*
X13355378Y-16599896D01*
X13336335Y-16443060D01*
X13280306Y-16295327D01*
X13190558Y-16165305D01*
X13190555Y-16165302D01*
X13072296Y-16060533D01*
X13072292Y-16060531D01*
X12932398Y-15987110D01*
X12778998Y-15949300D01*
X12778997Y-15949300D01*
X12621003Y-15949300D01*
X12621001Y-15949300D01*
X12467603Y-15987110D01*
X12467602Y-15987110D01*
X12467600Y-15987111D01*
X12430126Y-16006778D01*
X12362832Y-16042096D01*
X12293218Y-16056041D01*
X12227117Y-16030136D01*
X12185513Y-15972606D01*
X12181617Y-15901717D01*
X12186466Y-15885848D01*
X12193334Y-15867742D01*
X12193334Y-15867741D01*
X12193335Y-15867739D01*
X12212378Y-15710903D01*
X12212378Y-15710896D01*
X12193335Y-15554060D01*
X12151378Y-15443431D01*
X12137308Y-15406331D01*
X12137306Y-15406329D01*
X12137306Y-15406327D01*
X12047558Y-15276305D01*
X12047555Y-15276302D01*
X11929296Y-15171533D01*
X11929292Y-15171531D01*
X11789398Y-15098110D01*
X11635998Y-15060300D01*
X11635997Y-15060300D01*
X11478003Y-15060300D01*
X11478001Y-15060300D01*
X11324601Y-15098110D01*
X11184707Y-15171531D01*
X11184703Y-15171533D01*
X11066444Y-15276302D01*
X11066441Y-15276305D01*
X10976693Y-15406327D01*
X10920664Y-15554060D01*
X10901622Y-15710896D01*
X8654459Y-15710896D01*
X12866587Y-11498723D01*
X12921293Y-11403968D01*
X12935781Y-11378874D01*
X12971600Y-11245197D01*
X12971600Y-7915123D01*
X12991602Y-7847002D01*
X13045258Y-7800509D01*
X13115532Y-7790405D01*
X13127755Y-7792785D01*
X13248710Y-7822599D01*
X13248717Y-7822599D01*
X13248718Y-7822600D01*
X13248719Y-7822600D01*
X13421281Y-7822600D01*
X13421282Y-7822600D01*
X13588833Y-7781302D01*
X13741632Y-7701107D01*
X13870798Y-7586676D01*
X13968826Y-7444658D01*
X14030019Y-7283307D01*
X14030019Y-7283306D01*
X14030020Y-7283304D01*
X14050819Y-7112002D01*
X14050819Y-7111997D01*
X14030020Y-6940695D01*
X14005950Y-6877229D01*
X13968826Y-6779342D01*
X13926130Y-6717486D01*
X13870799Y-6637325D01*
X13741631Y-6522892D01*
X13588831Y-6442697D01*
X13421283Y-6401400D01*
X13421282Y-6401400D01*
X13248718Y-6401400D01*
X13248716Y-6401400D01*
X13127754Y-6431215D01*
X13056826Y-6428096D01*
X12998843Y-6387126D01*
X12972215Y-6321312D01*
X12971600Y-6308876D01*
X12971600Y-1454805D01*
X12971600Y-1454803D01*
X12935781Y-1321126D01*
X12914930Y-1285011D01*
X12866585Y-1201274D01*
X12866582Y-1201271D01*
X12866579Y-1201267D01*
X11145299Y520012D01*
X11111274Y582324D01*
X11109313Y593921D01*
X11099239Y676895D01*
X11043510Y823839D01*
X11038907Y835977D01*
X10942258Y975996D01*
X10814909Y1088818D01*
X10814908Y1088819D01*
X10814904Y1088821D01*
X10755331Y1120087D01*
X10664261Y1167884D01*
X10664258Y1167885D01*
X10499071Y1208600D01*
X10499068Y1208600D01*
X10328932Y1208600D01*
X10328928Y1208600D01*
X10163741Y1167885D01*
X10013095Y1088821D01*
X10013091Y1088819D01*
X9885740Y975995D01*
X9789093Y835978D01*
X9728761Y676896D01*
X9708254Y508003D01*
X9708254Y507998D01*
X9728761Y339105D01*
X9789092Y180025D01*
X9789093Y180023D01*
X9818991Y136708D01*
X9841227Y69285D01*
X9823480Y542D01*
X9773853Y-46433D01*
X9759096Y-54178D01*
X9759091Y-54181D01*
X9631740Y-167005D01*
X9535093Y-307022D01*
X9474761Y-466104D01*
X9454254Y-634997D01*
X9454254Y-635002D01*
X9474761Y-803895D01*
X9491088Y-846946D01*
X9496542Y-917733D01*
X9462859Y-980231D01*
X9456830Y-985938D01*
X9377740Y-1056005D01*
X9281093Y-1196022D01*
X9220761Y-1355104D01*
X9200254Y-1523997D01*
X9200254Y-1524002D01*
X9220761Y-1692895D01*
X9281093Y-1851977D01*
X9377740Y-1991994D01*
X9377741Y-1991995D01*
X9377742Y-1991996D01*
X9505091Y-2104818D01*
X9655739Y-2183884D01*
X9656937Y-2184179D01*
X9657724Y-2184637D01*
X9662863Y-2186586D01*
X9662539Y-2187440D01*
X9718293Y-2219899D01*
X9750597Y-2283120D01*
X9752773Y-2308551D01*
X9638721Y-9379791D01*
X9617623Y-9447580D01*
X9601833Y-9466854D01*
X8821274Y-10247415D01*
X8821273Y-10247415D01*
X1597194Y-17471495D01*
X1534882Y-17505521D01*
X1508099Y-17508400D01*
X-4739369Y-17508400D01*
X-4807490Y-17488398D01*
X-4853564Y-17435650D01*
X-4857365Y-17427499D01*
X-4883612Y-17371212D01*
X-4883613Y-17371211D01*
X-4883614Y-17371208D01*
X-5009121Y-17191963D01*
X-5009124Y-17191960D01*
X-5061818Y-17139266D01*
X-5163859Y-17037225D01*
X-5163863Y-17037222D01*
X-5163868Y-17037218D01*
X-5343108Y-16911713D01*
X-5343107Y-16911713D01*
X-5490260Y-16843095D01*
X-5543545Y-16796178D01*
X-5563006Y-16727900D01*
X-5542464Y-16659940D01*
X-5490260Y-16614705D01*
X-5458502Y-16599896D01*
X-5343111Y-16546088D01*
X-5163859Y-16420575D01*
X-5009125Y-16265841D01*
X-4914991Y-16131402D01*
X-4883614Y-16086592D01*
X-4883614Y-16086591D01*
X-4883612Y-16086589D01*
X-4791131Y-15888264D01*
X-4734495Y-15676894D01*
X-4715423Y-15458900D01*
X-4734495Y-15240906D01*
X-4791131Y-15029536D01*
X-4883612Y-14831212D01*
X-4883613Y-14831211D01*
X-4883614Y-14831208D01*
X-5009121Y-14651963D01*
X-5009124Y-14651960D01*
X-5073844Y-14587240D01*
X-5163859Y-14497225D01*
X-5163863Y-14497222D01*
X-5163868Y-14497218D01*
X-5343108Y-14371713D01*
X-5343107Y-14371713D01*
X-5490260Y-14303095D01*
X-5543545Y-14256178D01*
X-5563006Y-14187900D01*
X-5542464Y-14119940D01*
X-5490260Y-14074705D01*
X-5343111Y-14006088D01*
X-5163859Y-13880575D01*
X-5009125Y-13725841D01*
X-4883612Y-13546589D01*
X-4791131Y-13348264D01*
X-4734495Y-13136894D01*
X-4715423Y-12918900D01*
X-4734495Y-12700906D01*
X-4791131Y-12489536D01*
X-4883612Y-12291212D01*
X-4883613Y-12291211D01*
X-4883614Y-12291208D01*
X-5009121Y-12111963D01*
X-5009124Y-12111960D01*
X-5056087Y-12064997D01*
X2215254Y-12064997D01*
X2215254Y-12065002D01*
X2235761Y-12233895D01*
X2296093Y-12392977D01*
X2392740Y-12532994D01*
X2392741Y-12532995D01*
X2392742Y-12532996D01*
X2520091Y-12645818D01*
X2670739Y-12724884D01*
X2835932Y-12765600D01*
X2835935Y-12765600D01*
X3006065Y-12765600D01*
X3006068Y-12765600D01*
X3171261Y-12724884D01*
X3321909Y-12645818D01*
X3449258Y-12532996D01*
X3545907Y-12392977D01*
X3606238Y-12233896D01*
X3626746Y-12065000D01*
X3606238Y-11896104D01*
X3545907Y-11737023D01*
X3474986Y-11634277D01*
X3449259Y-11597005D01*
X3431896Y-11581623D01*
X3378937Y-11534705D01*
X3321908Y-11484181D01*
X3321904Y-11484179D01*
X3244342Y-11443472D01*
X3171261Y-11405116D01*
X3171258Y-11405115D01*
X3006071Y-11364400D01*
X3006068Y-11364400D01*
X2835932Y-11364400D01*
X2835928Y-11364400D01*
X2670741Y-11405115D01*
X2520095Y-11484179D01*
X2520091Y-11484181D01*
X2392740Y-11597005D01*
X2296093Y-11737022D01*
X2235761Y-11896104D01*
X2215254Y-12064997D01*
X-5056087Y-12064997D01*
X-5163859Y-11957225D01*
X-5163863Y-11957222D01*
X-5163868Y-11957218D01*
X-5343108Y-11831713D01*
X-5343107Y-11831713D01*
X-5490260Y-11763095D01*
X-5543545Y-11716178D01*
X-5563006Y-11647900D01*
X-5542464Y-11579940D01*
X-5490260Y-11534705D01*
X-5343111Y-11466088D01*
X-5163859Y-11340575D01*
X-5009125Y-11185841D01*
X-4883612Y-11006589D01*
X-4791131Y-10808264D01*
X-4734495Y-10596894D01*
X-4715423Y-10378900D01*
X-4734495Y-10160906D01*
X-4791131Y-9949536D01*
X-4883612Y-9751212D01*
X-4883613Y-9751211D01*
X-4883614Y-9751208D01*
X-5009121Y-9571963D01*
X-5009124Y-9571960D01*
X-5048098Y-9532986D01*
X-5163859Y-9417225D01*
X-5163863Y-9417222D01*
X-5163868Y-9417218D01*
X-5343108Y-9291713D01*
X-5343107Y-9291713D01*
X-5490260Y-9223095D01*
X-5543545Y-9176178D01*
X-5563006Y-9107900D01*
X-5542464Y-9039940D01*
X-5490260Y-8994705D01*
X-5343111Y-8926088D01*
X-5163859Y-8800575D01*
X-5009125Y-8645841D01*
X-4883612Y-8466589D01*
X-4791131Y-8268264D01*
X-4734495Y-8056894D01*
X-4726359Y-7963897D01*
X6904181Y-7963897D01*
X6904181Y-7963902D01*
X6924979Y-8135204D01*
X6986173Y-8296555D01*
X6986176Y-8296561D01*
X7084200Y-8438574D01*
X7084201Y-8438575D01*
X7084202Y-8438576D01*
X7213368Y-8553007D01*
X7366167Y-8633202D01*
X7533718Y-8674500D01*
X7533719Y-8674500D01*
X7706281Y-8674500D01*
X7706282Y-8674500D01*
X7873833Y-8633202D01*
X8026632Y-8553007D01*
X8155798Y-8438576D01*
X8253826Y-8296558D01*
X8315019Y-8135207D01*
X8315019Y-8135206D01*
X8315020Y-8135204D01*
X8335819Y-7963902D01*
X8335819Y-7963897D01*
X8315020Y-7792595D01*
X8288927Y-7723796D01*
X8253826Y-7631242D01*
X8155798Y-7489224D01*
X8026632Y-7374793D01*
X8026631Y-7374792D01*
X7873831Y-7294597D01*
X7706283Y-7253300D01*
X7706282Y-7253300D01*
X7533718Y-7253300D01*
X7533716Y-7253300D01*
X7366169Y-7294597D01*
X7366168Y-7294597D01*
X7213369Y-7374792D01*
X7213368Y-7374792D01*
X7084200Y-7489225D01*
X6986176Y-7631238D01*
X6986173Y-7631244D01*
X6924979Y-7792595D01*
X6904181Y-7963897D01*
X-4726359Y-7963897D01*
X-4715423Y-7838900D01*
X-4734495Y-7620906D01*
X-4791131Y-7409536D01*
X-4883612Y-7211212D01*
X-4883613Y-7211211D01*
X-4883614Y-7211208D01*
X-5009121Y-7031963D01*
X-5009124Y-7031960D01*
X-5077585Y-6963499D01*
X-5163859Y-6877225D01*
X-5163863Y-6877222D01*
X-5163868Y-6877218D01*
X-5343108Y-6751713D01*
X-5343107Y-6751713D01*
X-5490260Y-6683095D01*
X-5543545Y-6636178D01*
X-5563006Y-6567900D01*
X-5542464Y-6499940D01*
X-5490260Y-6454705D01*
X-5439886Y-6431215D01*
X-5343111Y-6386088D01*
X-5163859Y-6260575D01*
X-5009125Y-6105841D01*
X-4883612Y-5926589D01*
X-4791131Y-5728264D01*
X-4734495Y-5516894D01*
X-4715423Y-5298900D01*
X-4734495Y-5080906D01*
X-4791131Y-4869536D01*
X-4883612Y-4671212D01*
X-4883613Y-4671211D01*
X-4883614Y-4671208D01*
X-5009121Y-4491963D01*
X-5009124Y-4491960D01*
X-5080367Y-4420717D01*
X-5163859Y-4337225D01*
X-5163863Y-4337222D01*
X-5163868Y-4337218D01*
X-5343108Y-4211713D01*
X-5490852Y-4142819D01*
X-5544137Y-4095902D01*
X-5563598Y-4027624D01*
X-5543056Y-3959664D01*
X-5490851Y-3914429D01*
X-5343368Y-3845657D01*
X-5343368Y-3845656D01*
X-5164182Y-3720189D01*
X-5164178Y-3720186D01*
X-5009514Y-3565522D01*
X-5009511Y-3565518D01*
X-4884045Y-3386334D01*
X-4791605Y-3188096D01*
X-4791603Y-3188090D01*
X-4734990Y-2976810D01*
X-4727037Y-2885900D01*
X-5435428Y-2885900D01*
X-5420800Y-2831309D01*
X-5420800Y-2686491D01*
X-5426024Y-2666997D01*
X2977254Y-2666997D01*
X2977254Y-2667002D01*
X2997761Y-2835895D01*
X3058093Y-2994977D01*
X3154740Y-3134994D01*
X3154741Y-3134995D01*
X3154742Y-3134996D01*
X3282091Y-3247818D01*
X3432739Y-3326884D01*
X3597932Y-3367600D01*
X3597935Y-3367600D01*
X3768065Y-3367600D01*
X3768068Y-3367600D01*
X3933261Y-3326884D01*
X4083909Y-3247818D01*
X4211258Y-3134996D01*
X4307907Y-2994977D01*
X4368238Y-2835896D01*
X4385980Y-2689779D01*
X4388746Y-2667002D01*
X4388746Y-2666997D01*
X4368238Y-2498104D01*
X4364301Y-2487722D01*
X4307907Y-2339023D01*
X4211258Y-2199004D01*
X4083909Y-2086182D01*
X4083908Y-2086181D01*
X4083904Y-2086179D01*
X3971078Y-2026964D01*
X3933261Y-2007116D01*
X3933258Y-2007115D01*
X3768071Y-1966400D01*
X3768068Y-1966400D01*
X3597932Y-1966400D01*
X3597928Y-1966400D01*
X3432741Y-2007115D01*
X3282095Y-2086179D01*
X3282091Y-2086181D01*
X3154740Y-2199005D01*
X3058093Y-2339022D01*
X2997761Y-2498104D01*
X2977254Y-2666997D01*
X-5426024Y-2666997D01*
X-5435428Y-2631900D01*
X-4727037Y-2631900D01*
X-4734990Y-2540989D01*
X-4791603Y-2329709D01*
X-4791605Y-2329704D01*
X-4884047Y-2131462D01*
X-5009508Y-1952285D01*
X-5164183Y-1797609D01*
X-5343366Y-1672144D01*
X-5490852Y-1603370D01*
X-5544137Y-1556453D01*
X-5563598Y-1488175D01*
X-5543056Y-1420215D01*
X-5490853Y-1374981D01*
X-5343111Y-1306088D01*
X-5163859Y-1180575D01*
X-5009125Y-1025841D01*
X-4883612Y-846589D01*
X-4791131Y-648264D01*
X-4734495Y-436894D01*
X-4715423Y-218900D01*
X-4734495Y-906D01*
X-4791131Y210464D01*
X-4883612Y408788D01*
X-4883613Y408789D01*
X-4883614Y408792D01*
X-5009121Y588037D01*
X-5009124Y588040D01*
X-5059066Y637982D01*
X-5163859Y742775D01*
X-5163863Y742778D01*
X-5163868Y742782D01*
X-5343108Y868287D01*
X-5343107Y868287D01*
X-5541434Y960768D01*
X-5541439Y960770D01*
X-5752803Y1017405D01*
X-5970800Y1036477D01*
X-6188798Y1017405D01*
X-6400162Y960770D01*
X-6400167Y960768D01*
X-6598492Y868287D01*
X-6777737Y742780D01*
X-6777747Y742771D01*
X-6932471Y588047D01*
X-6932480Y588037D01*
X-7057987Y408792D01*
X-7126605Y261640D01*
X-7173523Y208355D01*
X-7241800Y188894D01*
X-7309760Y209436D01*
X-7354995Y261640D01*
X-7367290Y288007D01*
X-7423612Y408788D01*
X-7423613Y408789D01*
X-7423614Y408792D01*
X-7549121Y588037D01*
X-7549124Y588040D01*
X-7599066Y637982D01*
X-7703859Y742775D01*
X-7703863Y742778D01*
X-7703868Y742782D01*
X-7883108Y868287D01*
X-7883107Y868287D01*
X-8081434Y960768D01*
X-8081439Y960770D01*
X-8292803Y1017405D01*
X-8510800Y1036477D01*
X-8728798Y1017405D01*
X-8940162Y960770D01*
X-8940167Y960768D01*
X-9138492Y868287D01*
X-9317737Y742780D01*
X-9436122Y624395D01*
X-9498434Y590370D01*
X-9569250Y595436D01*
X-9626086Y637982D01*
X-9650896Y704503D01*
X-9651214Y714382D01*
X-9638608Y2450103D01*
X-461819Y2450103D01*
X-461819Y2450098D01*
X-441021Y2278796D01*
X-379827Y2117445D01*
X-379824Y2117439D01*
X-281800Y1975426D01*
X-281799Y1975425D01*
X-281798Y1975424D01*
X-152632Y1860993D01*
X167Y1780798D01*
X167718Y1739500D01*
X167719Y1739500D01*
X340281Y1739500D01*
X340282Y1739500D01*
X507833Y1780798D01*
X660632Y1860993D01*
X789798Y1975424D01*
X887826Y2117442D01*
X949019Y2278793D01*
X949019Y2278794D01*
X949020Y2278796D01*
X969819Y2450098D01*
X969819Y2450103D01*
X949020Y2621405D01*
X916555Y2707006D01*
X887826Y2782758D01*
X808602Y2897534D01*
X789799Y2924775D01*
X660631Y3039208D01*
X507831Y3119403D01*
X340283Y3160700D01*
X340282Y3160700D01*
X167718Y3160700D01*
X167716Y3160700D01*
X169Y3119403D01*
X168Y3119403D01*
X-152631Y3039208D01*
X-152632Y3039208D01*
X-281800Y2924775D01*
X-379824Y2782762D01*
X-379827Y2782756D01*
X-441021Y2621405D01*
X-461819Y2450103D01*
X-9638608Y2450103D01*
X-9629653Y3683000D01*
X-3218666Y3683000D01*
X-3198466Y3503722D01*
X-3186980Y3470896D01*
X-3138882Y3333439D01*
X-3138881Y3333437D01*
X-3138880Y3333435D01*
X-3042895Y3180675D01*
X-3042892Y3180671D01*
X-2915330Y3053109D01*
X-2915328Y3053108D01*
X-2915325Y3053105D01*
X-2762565Y2957120D01*
X-2592278Y2897534D01*
X-2413000Y2877334D01*
X-2233722Y2897534D01*
X-2063435Y2957120D01*
X-1910675Y3053105D01*
X-1788777Y3175003D01*
X21011254Y3175003D01*
X21011254Y3174998D01*
X21031761Y3006105D01*
X21092093Y2847023D01*
X21188740Y2707006D01*
X21188741Y2707005D01*
X21188742Y2707004D01*
X21316091Y2594182D01*
X21466739Y2515116D01*
X21605794Y2480843D01*
X21664735Y2447599D01*
X23288495Y823839D01*
X23322521Y761527D01*
X23325400Y734744D01*
X23325400Y-1759853D01*
X23305398Y-1827974D01*
X23251742Y-1874467D01*
X23181468Y-1884571D01*
X23171373Y-1882696D01*
X23166288Y-1881535D01*
X22987000Y-1861334D01*
X22807722Y-1881534D01*
X22807719Y-1881534D01*
X22807719Y-1881535D01*
X22637438Y-1941118D01*
X22484670Y-2037108D01*
X22357108Y-2164670D01*
X22261118Y-2317438D01*
X22222116Y-2428901D01*
X22201534Y-2487722D01*
X22181334Y-2667000D01*
X22201534Y-2846278D01*
X22215398Y-2885900D01*
X22261118Y-3016561D01*
X22261119Y-3016563D01*
X22261120Y-3016565D01*
X22311414Y-3096608D01*
X22357109Y-3169331D01*
X22358910Y-3171589D01*
X22359618Y-3173323D01*
X22360870Y-3175316D01*
X22360521Y-3175535D01*
X22385745Y-3237318D01*
X22386400Y-3250149D01*
X22386400Y-23035929D01*
X22386400Y-23194071D01*
X22427329Y-23346824D01*
X22427330Y-23346826D01*
X22427331Y-23346828D01*
X22506398Y-23483775D01*
X22506400Y-23483778D01*
X24904221Y-25881599D01*
X24904224Y-25881601D01*
X25012238Y-25943963D01*
X25041176Y-25960671D01*
X25193929Y-26001600D01*
X25193930Y-26001600D01*
X52529069Y-26001600D01*
X52529071Y-26001600D01*
X52681824Y-25960671D01*
X52818775Y-25881601D01*
X52818776Y-25881601D01*
X52978901Y-25721476D01*
X53485086Y-25215289D01*
X53547397Y-25181266D01*
X53560062Y-25179179D01*
X53646278Y-25169466D01*
X53816565Y-25109880D01*
X53969325Y-25013895D01*
X54096895Y-24886325D01*
X54192880Y-24733565D01*
X54252466Y-24563278D01*
X54272666Y-24384000D01*
X54252466Y-24204722D01*
X54192880Y-24034435D01*
X54096895Y-23881675D01*
X54096892Y-23881672D01*
X54096891Y-23881670D01*
X53969329Y-23754108D01*
X53969326Y-23754106D01*
X53969325Y-23754105D01*
X53816565Y-23658120D01*
X53816563Y-23658119D01*
X53816561Y-23658118D01*
X53703040Y-23618396D01*
X53646278Y-23598534D01*
X53467000Y-23578334D01*
X53287722Y-23598534D01*
X53287719Y-23598534D01*
X53287719Y-23598535D01*
X53117438Y-23658118D01*
X52964670Y-23754108D01*
X52837108Y-23881670D01*
X52741118Y-24034438D01*
X52681535Y-24204716D01*
X52681532Y-24204730D01*
X52671819Y-24290928D01*
X52644315Y-24356380D01*
X52635708Y-24365913D01*
X52238128Y-24763495D01*
X52175816Y-24797520D01*
X52149032Y-24800400D01*
X48853439Y-24800400D01*
X48785318Y-24780398D01*
X48738825Y-24726742D01*
X48728721Y-24656468D01*
X48735627Y-24629719D01*
X48769334Y-24540842D01*
X48769334Y-24540841D01*
X48769335Y-24540839D01*
X48788378Y-24384003D01*
X48788378Y-24383996D01*
X48769335Y-24227160D01*
X48750658Y-24177915D01*
X48713308Y-24079431D01*
X48713306Y-24079429D01*
X48713306Y-24079427D01*
X48623558Y-23949405D01*
X48623555Y-23949402D01*
X48505296Y-23844633D01*
X48505292Y-23844631D01*
X48365398Y-23771210D01*
X48211998Y-23733400D01*
X48211997Y-23733400D01*
X48054003Y-23733400D01*
X48054001Y-23733400D01*
X47900601Y-23771210D01*
X47760707Y-23844631D01*
X47760703Y-23844633D01*
X47642444Y-23949402D01*
X47642441Y-23949405D01*
X47552693Y-24079427D01*
X47496664Y-24227160D01*
X47477622Y-24383996D01*
X47477622Y-24384003D01*
X47496664Y-24540839D01*
X47530373Y-24629719D01*
X47535827Y-24700506D01*
X47502145Y-24763004D01*
X47440021Y-24797371D01*
X47412561Y-24800400D01*
X25573967Y-24800400D01*
X25505846Y-24780398D01*
X25484872Y-24763495D01*
X23624505Y-22903128D01*
X23590479Y-22840816D01*
X23587600Y-22814033D01*
X23587600Y-20940144D01*
X23607602Y-20872023D01*
X23661258Y-20825530D01*
X23731532Y-20815426D01*
X23787658Y-20838207D01*
X23804219Y-20850239D01*
X23977166Y-20927240D01*
X24122982Y-20958233D01*
X24162342Y-20966600D01*
X24162343Y-20966600D01*
X24351658Y-20966600D01*
X24384670Y-20959583D01*
X24536834Y-20927240D01*
X24709781Y-20850239D01*
X24862939Y-20738963D01*
X24985699Y-20602623D01*
X24989608Y-20598282D01*
X24989609Y-20598280D01*
X24989614Y-20598275D01*
X25084271Y-20434325D01*
X25142772Y-20254277D01*
X25162561Y-20066000D01*
X25142772Y-19877723D01*
X25090275Y-19716153D01*
X25084273Y-19697680D01*
X25084270Y-19697673D01*
X24989615Y-19533727D01*
X24989608Y-19533717D01*
X24862941Y-19393039D01*
X24862936Y-19393034D01*
X24709781Y-19281761D01*
X24676396Y-19266897D01*
X44887254Y-19266897D01*
X44887254Y-19266902D01*
X44907761Y-19435795D01*
X44968093Y-19594877D01*
X45064740Y-19734894D01*
X45064741Y-19734895D01*
X45064742Y-19734896D01*
X45192091Y-19847718D01*
X45342739Y-19926784D01*
X45507932Y-19967500D01*
X45507935Y-19967500D01*
X45678065Y-19967500D01*
X45678068Y-19967500D01*
X45843261Y-19926784D01*
X45993909Y-19847718D01*
X46121258Y-19734896D01*
X46217907Y-19594877D01*
X46278238Y-19435796D01*
X46294412Y-19302595D01*
X46298746Y-19266902D01*
X46298746Y-19266897D01*
X46278238Y-19098004D01*
X46273718Y-19086086D01*
X46217907Y-18938923D01*
X46126048Y-18805843D01*
X46121259Y-18798905D01*
X45993908Y-18686081D01*
X45993904Y-18686079D01*
X45927828Y-18651400D01*
X45843261Y-18607016D01*
X45843258Y-18607015D01*
X45678071Y-18566300D01*
X45678068Y-18566300D01*
X45507932Y-18566300D01*
X45507928Y-18566300D01*
X45342741Y-18607015D01*
X45192095Y-18686079D01*
X45192091Y-18686081D01*
X45064740Y-18798905D01*
X44968093Y-18938922D01*
X44907761Y-19098004D01*
X44887254Y-19266897D01*
X24676396Y-19266897D01*
X24536834Y-19204760D01*
X24351658Y-19165400D01*
X24351657Y-19165400D01*
X24162343Y-19165400D01*
X24162342Y-19165400D01*
X23977165Y-19204760D01*
X23804215Y-19281763D01*
X23787661Y-19293791D01*
X23720793Y-19317650D01*
X23651642Y-19301569D01*
X23602161Y-19250655D01*
X23587600Y-19191855D01*
X23587600Y-17178456D01*
X23607602Y-17110335D01*
X23661258Y-17063842D01*
X23731532Y-17053738D01*
X23796112Y-17083232D01*
X23802695Y-17089361D01*
X24832410Y-18119076D01*
X24934924Y-18221590D01*
X24934925Y-18221591D01*
X24934927Y-18221592D01*
X25060470Y-18294074D01*
X25060471Y-18294074D01*
X25060476Y-18294077D01*
X25130494Y-18312838D01*
X25200511Y-18331600D01*
X25200512Y-18331600D01*
X33981485Y-18331600D01*
X33981488Y-18331600D01*
X34121524Y-18294077D01*
X34247076Y-18221590D01*
X34349590Y-18119076D01*
X35553607Y-16915057D01*
X35612544Y-16881816D01*
X35665400Y-16868789D01*
X35805297Y-16795366D01*
X35882582Y-16726897D01*
X40061254Y-16726897D01*
X40061254Y-16726902D01*
X40081761Y-16895795D01*
X40142093Y-17054877D01*
X40238740Y-17194894D01*
X40238741Y-17194895D01*
X40238742Y-17194896D01*
X40366091Y-17307718D01*
X40516739Y-17386784D01*
X40681932Y-17427500D01*
X40681935Y-17427500D01*
X40852065Y-17427500D01*
X40852068Y-17427500D01*
X41017261Y-17386784D01*
X41167909Y-17307718D01*
X41295258Y-17194896D01*
X41391907Y-17054877D01*
X41452238Y-16895796D01*
X41468412Y-16762595D01*
X41472746Y-16726902D01*
X41472746Y-16726897D01*
X41452238Y-16558004D01*
X41447718Y-16546086D01*
X41391907Y-16398923D01*
X41300048Y-16265843D01*
X41295259Y-16258905D01*
X41291975Y-16255996D01*
X41167909Y-16146082D01*
X41167908Y-16146081D01*
X41167904Y-16146079D01*
X41078506Y-16099160D01*
X41017261Y-16067016D01*
X41017258Y-16067015D01*
X40852071Y-16026300D01*
X40852068Y-16026300D01*
X40681932Y-16026300D01*
X40681928Y-16026300D01*
X40516741Y-16067015D01*
X40366095Y-16146079D01*
X40366091Y-16146081D01*
X40238740Y-16258905D01*
X40142093Y-16398922D01*
X40081761Y-16558004D01*
X40061254Y-16726897D01*
X35882582Y-16726897D01*
X35923557Y-16690596D01*
X36013308Y-16560569D01*
X36069334Y-16412842D01*
X36069334Y-16412841D01*
X36069335Y-16412839D01*
X36088378Y-16256003D01*
X36088378Y-16255996D01*
X36069335Y-16099160D01*
X36037596Y-16015472D01*
X36013308Y-15951431D01*
X36013306Y-15951429D01*
X36013306Y-15951427D01*
X35923558Y-15821405D01*
X35923555Y-15821402D01*
X35805296Y-15716633D01*
X35805292Y-15716631D01*
X35665398Y-15643210D01*
X35511989Y-15605398D01*
X35511849Y-15605381D01*
X35511753Y-15605340D01*
X35504597Y-15603576D01*
X35504890Y-15602385D01*
X35446639Y-15577308D01*
X35409237Y-15524983D01*
X35378308Y-15443431D01*
X35378306Y-15443429D01*
X35378306Y-15443427D01*
X35288558Y-15313405D01*
X35288555Y-15313402D01*
X35170296Y-15208633D01*
X35170292Y-15208631D01*
X35030398Y-15135210D01*
X34876998Y-15097400D01*
X34876997Y-15097400D01*
X34719003Y-15097400D01*
X34711381Y-15097400D01*
X34711381Y-15095233D01*
X34652090Y-15085369D01*
X34603251Y-15043514D01*
X34526558Y-14932405D01*
X34526555Y-14932402D01*
X34408296Y-14827633D01*
X34408292Y-14827631D01*
X34358203Y-14801343D01*
X34268400Y-14754211D01*
X34268397Y-14754210D01*
X34268393Y-14754208D01*
X34268395Y-14754208D01*
X34148956Y-14724769D01*
X34087601Y-14689046D01*
X34055300Y-14625823D01*
X34054029Y-14587244D01*
X34056378Y-14567900D01*
X34056378Y-14567896D01*
X34037335Y-14411060D01*
X34018658Y-14361815D01*
X33981308Y-14263331D01*
X33981306Y-14263329D01*
X33981306Y-14263327D01*
X33891558Y-14133305D01*
X33891555Y-14133302D01*
X33773296Y-14028533D01*
X33773292Y-14028531D01*
X33633398Y-13955110D01*
X33479998Y-13917300D01*
X33479997Y-13917300D01*
X33322003Y-13917300D01*
X33322001Y-13917300D01*
X33168601Y-13955110D01*
X33028707Y-14028531D01*
X33028703Y-14028533D01*
X32910444Y-14133302D01*
X32910441Y-14133305D01*
X32820693Y-14263327D01*
X32765392Y-14409143D01*
X32736675Y-14453557D01*
X31812837Y-15377396D01*
X31750527Y-15411420D01*
X31723744Y-15414300D01*
X27294156Y-15414300D01*
X27226035Y-15394298D01*
X27205061Y-15377395D01*
X26749505Y-14921839D01*
X26715479Y-14859527D01*
X26712600Y-14832744D01*
X26712600Y-9868896D01*
X36682622Y-9868896D01*
X36682622Y-9868903D01*
X36701664Y-10025739D01*
X36757693Y-10173472D01*
X36847441Y-10303494D01*
X36847443Y-10303496D01*
X36965703Y-10408266D01*
X37105600Y-10481689D01*
X37259003Y-10519500D01*
X37259004Y-10519500D01*
X37371294Y-10519500D01*
X37439415Y-10539502D01*
X37485908Y-10593158D01*
X37489101Y-10600808D01*
X37519692Y-10681469D01*
X37601506Y-10799998D01*
X37623742Y-10867421D01*
X37615622Y-10916253D01*
X37590665Y-10982059D01*
X37571622Y-11138896D01*
X37571622Y-11138903D01*
X37590664Y-11295739D01*
X37646693Y-11443472D01*
X37736441Y-11573494D01*
X37736443Y-11573496D01*
X37854703Y-11678266D01*
X37994600Y-11751689D01*
X38148003Y-11789500D01*
X38148004Y-11789500D01*
X38305996Y-11789500D01*
X38305997Y-11789500D01*
X38459400Y-11751689D01*
X38599297Y-11678266D01*
X38717557Y-11573496D01*
X38807308Y-11443469D01*
X38863334Y-11295742D01*
X38863334Y-11295741D01*
X38863335Y-11295739D01*
X38882378Y-11138903D01*
X38882378Y-11138896D01*
X38863335Y-10982060D01*
X38834527Y-10906100D01*
X38807308Y-10834331D01*
X38725491Y-10715799D01*
X38703257Y-10648378D01*
X38711378Y-10599543D01*
X38711568Y-10599044D01*
X38723940Y-10566419D01*
X38736334Y-10533743D01*
X38736335Y-10533738D01*
X38755378Y-10376903D01*
X38755378Y-10376896D01*
X38736335Y-10220060D01*
X38713899Y-10160902D01*
X38680308Y-10072331D01*
X38680306Y-10072329D01*
X38680306Y-10072327D01*
X38590558Y-9942305D01*
X38590555Y-9942302D01*
X38472296Y-9837533D01*
X38472292Y-9837531D01*
X38332398Y-9764110D01*
X38178998Y-9726300D01*
X38178997Y-9726300D01*
X38066707Y-9726300D01*
X37998586Y-9706298D01*
X37952093Y-9652642D01*
X37948895Y-9644981D01*
X37921202Y-9571963D01*
X37918308Y-9564331D01*
X37918306Y-9564329D01*
X37918306Y-9564327D01*
X37828558Y-9434305D01*
X37828555Y-9434302D01*
X37710296Y-9329533D01*
X37710292Y-9329531D01*
X37570398Y-9256110D01*
X37416998Y-9218300D01*
X37416997Y-9218300D01*
X37259003Y-9218300D01*
X37259001Y-9218300D01*
X37105601Y-9256110D01*
X36965707Y-9329531D01*
X36965703Y-9329533D01*
X36847444Y-9434302D01*
X36847441Y-9434305D01*
X36757693Y-9564327D01*
X36701664Y-9712060D01*
X36682622Y-9868896D01*
X26712600Y-9868896D01*
X26712600Y-6312896D01*
X30840622Y-6312896D01*
X30840622Y-6312903D01*
X30859664Y-6469739D01*
X30915693Y-6617472D01*
X31005441Y-6747494D01*
X31005443Y-6747496D01*
X31123703Y-6852266D01*
X31263600Y-6925689D01*
X31417003Y-6963500D01*
X31417004Y-6963500D01*
X31574996Y-6963500D01*
X31574997Y-6963500D01*
X31728400Y-6925689D01*
X31868297Y-6852266D01*
X31986557Y-6747496D01*
X32076308Y-6617469D01*
X32132334Y-6469742D01*
X32132334Y-6469741D01*
X32132335Y-6469739D01*
X32151378Y-6312903D01*
X32151378Y-6312896D01*
X32132335Y-6156060D01*
X32105035Y-6084078D01*
X32076308Y-6008331D01*
X32076306Y-6008329D01*
X32076306Y-6008327D01*
X31986558Y-5878305D01*
X31986555Y-5878302D01*
X31903697Y-5804896D01*
X35793622Y-5804896D01*
X35793622Y-5804903D01*
X35812664Y-5961739D01*
X35868693Y-6109472D01*
X35958441Y-6239494D01*
X35958443Y-6239496D01*
X36076703Y-6344266D01*
X36216600Y-6417689D01*
X36370003Y-6455500D01*
X36370004Y-6455500D01*
X36527996Y-6455500D01*
X36527997Y-6455500D01*
X36681400Y-6417689D01*
X36821297Y-6344266D01*
X36939557Y-6239496D01*
X37029308Y-6109469D01*
X37085334Y-5961742D01*
X37085334Y-5961741D01*
X37085335Y-5961739D01*
X37104378Y-5804903D01*
X37104378Y-5804896D01*
X37085335Y-5648060D01*
X37066658Y-5598815D01*
X37029308Y-5500331D01*
X37029306Y-5500329D01*
X37029306Y-5500327D01*
X36939558Y-5370305D01*
X36939555Y-5370302D01*
X36821296Y-5265533D01*
X36821292Y-5265531D01*
X36681398Y-5192110D01*
X36527998Y-5154300D01*
X36527997Y-5154300D01*
X36370003Y-5154300D01*
X36370001Y-5154300D01*
X36216601Y-5192110D01*
X36076707Y-5265531D01*
X36076703Y-5265533D01*
X35958444Y-5370302D01*
X35958441Y-5370305D01*
X35868693Y-5500327D01*
X35812664Y-5648060D01*
X35793622Y-5804896D01*
X31903697Y-5804896D01*
X31868296Y-5773533D01*
X31868292Y-5773531D01*
X31728398Y-5700110D01*
X31574998Y-5662300D01*
X31574997Y-5662300D01*
X31417003Y-5662300D01*
X31417001Y-5662300D01*
X31263601Y-5700110D01*
X31123707Y-5773531D01*
X31123703Y-5773533D01*
X31005444Y-5878302D01*
X31005441Y-5878305D01*
X30915693Y-6008327D01*
X30859664Y-6156060D01*
X30840622Y-6312896D01*
X26712600Y-6312896D01*
X26712600Y-5042900D01*
X39861439Y-5042900D01*
X39881229Y-5231182D01*
X39939726Y-5411219D01*
X39939729Y-5411226D01*
X40034384Y-5575172D01*
X40034391Y-5575182D01*
X40161058Y-5715860D01*
X40161063Y-5715865D01*
X40178125Y-5728261D01*
X40314219Y-5827139D01*
X40487166Y-5904140D01*
X40632982Y-5935133D01*
X40672342Y-5943500D01*
X40672343Y-5943500D01*
X40861658Y-5943500D01*
X40894118Y-5936600D01*
X41046834Y-5904140D01*
X41219781Y-5827139D01*
X41301779Y-5767564D01*
X41368647Y-5743705D01*
X41375840Y-5743500D01*
X54271498Y-5743500D01*
X54322747Y-5754393D01*
X54457166Y-5814240D01*
X54602982Y-5845233D01*
X54642342Y-5853600D01*
X54642343Y-5853600D01*
X54831658Y-5853600D01*
X54864118Y-5846700D01*
X55016834Y-5814240D01*
X55189781Y-5737239D01*
X55342939Y-5625963D01*
X55469614Y-5485275D01*
X55564271Y-5321325D01*
X55622772Y-5141277D01*
X55642561Y-4953000D01*
X55622772Y-4764723D01*
X55564271Y-4584675D01*
X55469614Y-4420725D01*
X55469612Y-4420723D01*
X55469608Y-4420717D01*
X55342941Y-4280039D01*
X55342936Y-4280034D01*
X55189781Y-4168761D01*
X55016834Y-4091760D01*
X54831658Y-4052400D01*
X54831657Y-4052400D01*
X54642343Y-4052400D01*
X54642342Y-4052400D01*
X54457165Y-4091760D01*
X54284215Y-4168763D01*
X54131063Y-4280034D01*
X54121982Y-4290120D01*
X54112536Y-4300611D01*
X54052092Y-4337850D01*
X54018901Y-4342300D01*
X41375840Y-4342300D01*
X41307719Y-4322298D01*
X41301779Y-4318236D01*
X41219781Y-4258661D01*
X41046834Y-4181660D01*
X40861658Y-4142300D01*
X40861657Y-4142300D01*
X40672343Y-4142300D01*
X40672342Y-4142300D01*
X40487165Y-4181660D01*
X40314215Y-4258663D01*
X40161061Y-4369936D01*
X40034387Y-4510623D01*
X40034384Y-4510627D01*
X39939729Y-4674573D01*
X39939726Y-4674580D01*
X39881229Y-4854617D01*
X39881228Y-4854621D01*
X39881228Y-4854623D01*
X39870888Y-4953000D01*
X39861439Y-5042900D01*
X26712600Y-5042900D01*
X26712600Y2827108D01*
X26732602Y2895229D01*
X26734904Y2898684D01*
X26752914Y2924776D01*
X26786907Y2974023D01*
X26847238Y3133104D01*
X26867746Y3302000D01*
X26847238Y3470896D01*
X26786907Y3629977D01*
X26738582Y3699987D01*
X26690259Y3769995D01*
X26562908Y3882819D01*
X26562904Y3882821D01*
X26503331Y3914087D01*
X26412261Y3961884D01*
X26412258Y3961885D01*
X26247071Y4002600D01*
X26247068Y4002600D01*
X26076932Y4002600D01*
X26076928Y4002600D01*
X25911741Y3961885D01*
X25761095Y3882821D01*
X25761091Y3882819D01*
X25633740Y3769994D01*
X25633739Y3769994D01*
X25567195Y3673588D01*
X25512037Y3628889D01*
X25441468Y3621106D01*
X25377894Y3652711D01*
X25359805Y3673588D01*
X25293259Y3769994D01*
X25293258Y3769996D01*
X25165909Y3882818D01*
X25165908Y3882819D01*
X25165904Y3882821D01*
X25106331Y3914087D01*
X25015261Y3961884D01*
X25015258Y3961885D01*
X24850071Y4002600D01*
X24850068Y4002600D01*
X24679932Y4002600D01*
X24679928Y4002600D01*
X24514741Y3961885D01*
X24364095Y3882821D01*
X24364091Y3882819D01*
X24236740Y3769995D01*
X24140094Y3629979D01*
X24140093Y3629977D01*
X24139681Y3628889D01*
X24120812Y3579136D01*
X24077953Y3522535D01*
X24011298Y3498091D01*
X23942008Y3513563D01*
X23892082Y3564041D01*
X23885188Y3579136D01*
X23865907Y3629977D01*
X23801474Y3723323D01*
X23769259Y3769995D01*
X23641908Y3882819D01*
X23641904Y3882821D01*
X23582331Y3914087D01*
X23491261Y3961884D01*
X23491258Y3961885D01*
X23326071Y4002600D01*
X23326068Y4002600D01*
X23155932Y4002600D01*
X23155928Y4002600D01*
X22990741Y3961885D01*
X22840095Y3882821D01*
X22840091Y3882819D01*
X22712740Y3769995D01*
X22616094Y3629979D01*
X22616093Y3629977D01*
X22612729Y3621106D01*
X22572391Y3514745D01*
X22529532Y3458144D01*
X22462876Y3433699D01*
X22393586Y3449172D01*
X22346436Y3496844D01*
X22346236Y3496705D01*
X22345455Y3497836D01*
X22343661Y3499650D01*
X22343009Y3500875D01*
X22341909Y3502972D01*
X22341907Y3502977D01*
X22260368Y3621106D01*
X22245259Y3642995D01*
X22117908Y3755819D01*
X22117904Y3755821D01*
X22058331Y3787087D01*
X21967261Y3834884D01*
X21967258Y3834885D01*
X21802071Y3875600D01*
X21802068Y3875600D01*
X21631932Y3875600D01*
X21631928Y3875600D01*
X21466741Y3834885D01*
X21316095Y3755821D01*
X21316091Y3755819D01*
X21188740Y3642995D01*
X21092093Y3502978D01*
X21031761Y3343896D01*
X21011254Y3175003D01*
X-1788777Y3175003D01*
X-1783105Y3180675D01*
X-1687120Y3333435D01*
X-1627534Y3503722D01*
X-1607334Y3683000D01*
X-1627534Y3862278D01*
X-1687120Y4032565D01*
X-1783105Y4185325D01*
X-1783108Y4185328D01*
X-1783109Y4185330D01*
X-1910671Y4312892D01*
X-1910674Y4312894D01*
X-1910675Y4312895D01*
X-2063435Y4408880D01*
X-2063437Y4408881D01*
X-2063439Y4408882D01*
X-2176960Y4448604D01*
X-2233722Y4468466D01*
X-2413000Y4488666D01*
X-2592278Y4468466D01*
X-2592281Y4468466D01*
X-2592281Y4468465D01*
X-2762562Y4408882D01*
X-2915330Y4312892D01*
X-3042892Y4185330D01*
X-3138882Y4032562D01*
X-3198465Y3862281D01*
X-3198466Y3862278D01*
X-3218666Y3683000D01*
X-9629653Y3683000D01*
X-9621082Y4863103D01*
X10968181Y4863103D01*
X10968181Y4863098D01*
X10988979Y4691796D01*
X11050173Y4530445D01*
X11050176Y4530439D01*
X11148200Y4388426D01*
X11148201Y4388425D01*
X11148202Y4388424D01*
X11277368Y4273993D01*
X11430167Y4193798D01*
X11597718Y4152500D01*
X11597719Y4152500D01*
X11770281Y4152500D01*
X11770282Y4152500D01*
X11937833Y4193798D01*
X12090632Y4273993D01*
X12219798Y4388424D01*
X12317826Y4530442D01*
X12379019Y4691793D01*
X12379019Y4691794D01*
X12379020Y4691796D01*
X12399819Y4863098D01*
X12399819Y4863103D01*
X12379020Y5034405D01*
X12364242Y5073370D01*
X12317826Y5195758D01*
X12219798Y5337776D01*
X12090632Y5452207D01*
X12090631Y5452208D01*
X11937831Y5532403D01*
X11770283Y5573700D01*
X11770282Y5573700D01*
X11597718Y5573700D01*
X11597716Y5573700D01*
X11430169Y5532403D01*
X11430168Y5532403D01*
X11277369Y5452208D01*
X11277368Y5452208D01*
X11148200Y5337775D01*
X11050176Y5195762D01*
X11050173Y5195756D01*
X10988979Y5034405D01*
X10968181Y4863103D01*
X-9621082Y4863103D01*
X-9538960Y16169769D01*
X-9518463Y16237741D01*
X-9464471Y16283843D01*
X-9412975Y16294852D01*
X-7649445Y16295007D01*
X-7581328Y16275012D01*
X-7534830Y16221360D01*
X-7524720Y16151087D01*
X-7554207Y16086504D01*
X-7592889Y16056411D01*
X-7675512Y16014915D01*
X-7957755Y15829282D01*
X-7957759Y15829279D01*
X-8216531Y15612142D01*
X-8216537Y15612136D01*
X-8448370Y15366410D01*
X-8650102Y15095437D01*
X-8650112Y15095421D01*
X-8819015Y14802871D01*
X-8819018Y14802866D01*
X-8952820Y14492677D01*
X-9049710Y14169043D01*
X-9049710Y14169042D01*
X-9108372Y13836351D01*
X-9108373Y13836342D01*
X-9120618Y13626101D01*
X-9120618Y13626100D01*
X-7721583Y13626100D01*
X-7723000Y13617153D01*
X-7723000Y13381047D01*
X-7721583Y13372100D01*
X-9120618Y13372100D01*
X-9108373Y13161859D01*
X-9108372Y13161850D01*
X-9049710Y12829159D01*
X-9049710Y12829158D01*
X-8952820Y12505524D01*
X-8952821Y12505524D01*
X-8819018Y12195335D01*
X-8819015Y12195330D01*
X-8650112Y11902780D01*
X-8650102Y11902764D01*
X-8448370Y11631791D01*
X-8216537Y11386065D01*
X-8216531Y11386059D01*
X-7957759Y11168922D01*
X-7957755Y11168919D01*
X-7675516Y10983288D01*
X-7373614Y10831667D01*
X-7373609Y10831665D01*
X-7056177Y10716129D01*
X-7056168Y10716127D01*
X-6727457Y10638221D01*
X-6727447Y10638219D01*
X-6391915Y10599000D01*
X-6350000Y10599000D01*
X-6350000Y12000518D01*
X-6341053Y11999100D01*
X-6104947Y11999100D01*
X-6096000Y12000518D01*
X-6096000Y10599000D01*
X-6054085Y10599000D01*
X-5718554Y10638219D01*
X-5718544Y10638221D01*
X-5389833Y10716127D01*
X-5389824Y10716129D01*
X-5072392Y10831665D01*
X-5072387Y10831667D01*
X-4770485Y10983288D01*
X-4488246Y11168919D01*
X-4488242Y11168922D01*
X-4229470Y11386059D01*
X-4229464Y11386065D01*
X-3997631Y11631791D01*
X-3795899Y11902764D01*
X-3795889Y11902780D01*
X-3626986Y12195330D01*
X-3626983Y12195335D01*
X-3493181Y12505524D01*
X-3396291Y12829158D01*
X-3396291Y12829159D01*
X-3337629Y13161850D01*
X-3337628Y13161859D01*
X-3325382Y13372100D01*
X-4724417Y13372100D01*
X-4723000Y13381047D01*
X-4723000Y13617153D01*
X-4724417Y13626100D01*
X-3325382Y13626100D01*
X-3325383Y13626101D01*
X-3337628Y13836342D01*
X-3337629Y13836351D01*
X-3396291Y14169042D01*
X-3396291Y14169043D01*
X-3493181Y14492677D01*
X-3493180Y14492677D01*
X-3626983Y14802866D01*
X-3626986Y14802871D01*
X-3795889Y15095421D01*
X-3795899Y15095437D01*
X-3997631Y15366410D01*
X-4229464Y15612136D01*
X-4229470Y15612142D01*
X-4488242Y15829279D01*
X-4488246Y15829282D01*
X-4770485Y16014913D01*
X-4853608Y16056659D01*
X-4905506Y16105107D01*
X-4922973Y16173921D01*
X-4900463Y16241255D01*
X-4845123Y16285730D01*
X-4797075Y16295257D01*
X12487887Y16296770D01*
X12556007Y16276774D01*
X12602505Y16223122D01*
X12612615Y16152849D01*
X12583128Y16088266D01*
X12560168Y16067558D01*
X12494003Y16021228D01*
X12493994Y16021221D01*
X12333079Y15860306D01*
X12333074Y15860300D01*
X12202545Y15673885D01*
X12106368Y15467634D01*
X12106366Y15467630D01*
X12047467Y15247814D01*
X12027632Y15021100D01*
X12047467Y14794387D01*
X12106366Y14574571D01*
X12106368Y14574567D01*
X12202545Y14368316D01*
X12332844Y14182229D01*
X12333077Y14181897D01*
X12493997Y14020977D01*
X12494000Y14020975D01*
X12680417Y13890444D01*
X12734350Y13865294D01*
X12787635Y13818377D01*
X12807095Y13750099D01*
X12786553Y13682140D01*
X12734350Y13636906D01*
X12680417Y13611757D01*
X12494000Y13481226D01*
X12493994Y13481221D01*
X12333079Y13320306D01*
X12333074Y13320300D01*
X12202545Y13133885D01*
X12106368Y12927634D01*
X12106366Y12927630D01*
X12047467Y12707814D01*
X12027632Y12481100D01*
X12047467Y12254387D01*
X12106366Y12034571D01*
X12106368Y12034567D01*
X12202545Y11828316D01*
X12332844Y11642229D01*
X12333077Y11641897D01*
X12493997Y11480977D01*
X12680416Y11350445D01*
X12886669Y11254267D01*
X13060040Y11207813D01*
X13104642Y11195862D01*
X13106490Y11195367D01*
X13333200Y11175532D01*
X13559910Y11195367D01*
X13779731Y11254267D01*
X13985984Y11350445D01*
X14172403Y11480977D01*
X14333323Y11641897D01*
X14463855Y11828316D01*
X14489005Y11882251D01*
X14535923Y11935535D01*
X14604200Y11954996D01*
X14672160Y11934454D01*
X14717395Y11882250D01*
X14742545Y11828316D01*
X14872844Y11642229D01*
X14873077Y11641897D01*
X15033997Y11480977D01*
X15220416Y11350445D01*
X15426669Y11254267D01*
X15600040Y11207813D01*
X15644642Y11195862D01*
X15646490Y11195367D01*
X15873200Y11175532D01*
X16099910Y11195367D01*
X16319731Y11254267D01*
X16525984Y11350445D01*
X16712403Y11480977D01*
X16873323Y11641897D01*
X17003855Y11828316D01*
X17029281Y11882843D01*
X17076198Y11936127D01*
X17144476Y11955588D01*
X17212436Y11935046D01*
X17257671Y11882842D01*
X17282981Y11828564D01*
X17413454Y11642229D01*
X17413463Y11642218D01*
X17574317Y11481364D01*
X17574328Y11481355D01*
X17760663Y11350882D01*
X17760662Y11350882D01*
X17966838Y11254741D01*
X17966843Y11254739D01*
X18186573Y11195862D01*
X18286200Y11187147D01*
X18286200Y11997492D01*
X18347374Y11981100D01*
X18479026Y11981100D01*
X18540200Y11997492D01*
X18540200Y11187148D01*
X18639826Y11195862D01*
X18859556Y11254739D01*
X18859561Y11254741D01*
X19065736Y11350882D01*
X19252071Y11481355D01*
X19252082Y11481364D01*
X19412936Y11642218D01*
X19412945Y11642229D01*
X19543418Y11828564D01*
X19543420Y11828567D01*
X19568728Y11882841D01*
X19615644Y11936126D01*
X19683921Y11955588D01*
X19751881Y11935047D01*
X19797117Y11882844D01*
X19822544Y11828317D01*
X19952852Y11642218D01*
X19953077Y11641897D01*
X20113997Y11480977D01*
X20300416Y11350445D01*
X20506669Y11254267D01*
X20680040Y11207813D01*
X20724642Y11195862D01*
X20726490Y11195367D01*
X20953200Y11175532D01*
X21179910Y11195367D01*
X21399731Y11254267D01*
X21605984Y11350445D01*
X21792403Y11480977D01*
X21953323Y11641897D01*
X22083855Y11828316D01*
X22109005Y11882251D01*
X22155923Y11935535D01*
X22224200Y11954996D01*
X22292160Y11934454D01*
X22337395Y11882250D01*
X22362545Y11828316D01*
X22492844Y11642229D01*
X22493077Y11641897D01*
X22653997Y11480977D01*
X22840416Y11350445D01*
X23046669Y11254267D01*
X23220040Y11207813D01*
X23264642Y11195862D01*
X23266490Y11195367D01*
X23493200Y11175532D01*
X23719910Y11195367D01*
X23939731Y11254267D01*
X24145984Y11350445D01*
X24332403Y11480977D01*
X24493323Y11641897D01*
X24623855Y11828316D01*
X24649281Y11882843D01*
X24696198Y11936127D01*
X24764476Y11955588D01*
X24832436Y11935046D01*
X24877671Y11882842D01*
X24902981Y11828564D01*
X25033454Y11642229D01*
X25033463Y11642218D01*
X25194317Y11481364D01*
X25194328Y11481355D01*
X25380663Y11350882D01*
X25380662Y11350882D01*
X25586838Y11254741D01*
X25586843Y11254739D01*
X25806573Y11195862D01*
X25906200Y11187147D01*
X25906200Y11997492D01*
X25967374Y11981100D01*
X26099026Y11981100D01*
X26160200Y11997492D01*
X26160200Y11187148D01*
X26259826Y11195862D01*
X26479556Y11254739D01*
X26479561Y11254741D01*
X26685736Y11350882D01*
X26872071Y11481355D01*
X26872082Y11481364D01*
X27032936Y11642218D01*
X27032945Y11642229D01*
X27163418Y11828564D01*
X27163420Y11828567D01*
X27188728Y11882841D01*
X27235644Y11936126D01*
X27303921Y11955588D01*
X27371881Y11935047D01*
X27417117Y11882844D01*
X27442544Y11828317D01*
X27572852Y11642218D01*
X27573077Y11641897D01*
X27733997Y11480977D01*
X27920416Y11350445D01*
X28126669Y11254267D01*
X28300040Y11207813D01*
X28344642Y11195862D01*
X28346490Y11195367D01*
X28573200Y11175532D01*
X28799910Y11195367D01*
X29019731Y11254267D01*
X29225984Y11350445D01*
X29412403Y11480977D01*
X29573323Y11641897D01*
X29703855Y11828316D01*
X29800033Y12034569D01*
X29858933Y12254390D01*
X29878768Y12481100D01*
X29858933Y12707810D01*
X29800033Y12927631D01*
X29703855Y13133884D01*
X29573323Y13320303D01*
X29412403Y13481223D01*
X29225984Y13611755D01*
X29172049Y13636906D01*
X29118765Y13683823D01*
X29099304Y13752100D01*
X29119846Y13820060D01*
X29172050Y13865295D01*
X29225984Y13890445D01*
X29412403Y14020977D01*
X29573323Y14181897D01*
X29703855Y14368316D01*
X29800033Y14574569D01*
X29858933Y14794390D01*
X29878768Y15021100D01*
X29858933Y15247810D01*
X29800033Y15467631D01*
X29703855Y15673884D01*
X29573323Y15860303D01*
X29412403Y16021223D01*
X29388387Y16038039D01*
X29344116Y16069039D01*
X29299787Y16124497D01*
X29292479Y16195116D01*
X29324510Y16258476D01*
X29385712Y16294461D01*
X29416368Y16298252D01*
X55574196Y16300541D01*
X55642316Y16280545D01*
X55688814Y16226893D01*
X55698924Y16156620D01*
X55669437Y16092037D01*
X55643444Y16069270D01*
X55415240Y15919177D01*
X55156469Y15702042D01*
X55156463Y15702036D01*
X54924630Y15456310D01*
X54722898Y15185337D01*
X54722888Y15185321D01*
X54553985Y14892771D01*
X54553982Y14892766D01*
X54420180Y14582577D01*
X54323290Y14258943D01*
X54323290Y14258942D01*
X54264628Y13926251D01*
X54264627Y13926242D01*
X54252382Y13716001D01*
X54252382Y13716000D01*
X55651417Y13716000D01*
X55650000Y13707053D01*
X55650000Y13470947D01*
X55651417Y13462000D01*
X54252382Y13462000D01*
X54264627Y13251759D01*
X54264628Y13251750D01*
X54323290Y12919059D01*
X54323290Y12919058D01*
X54420180Y12595424D01*
X54420179Y12595424D01*
X54553982Y12285235D01*
X54553985Y12285230D01*
X54722888Y11992680D01*
X54722898Y11992664D01*
X54924630Y11721691D01*
X55156463Y11475965D01*
X55156469Y11475959D01*
X55415241Y11258822D01*
X55415245Y11258819D01*
X55697484Y11073188D01*
X55999386Y10921567D01*
X55999391Y10921565D01*
X56316823Y10806029D01*
X56316832Y10806027D01*
X56645543Y10728121D01*
X56645553Y10728119D01*
X56981085Y10688900D01*
X57023000Y10688900D01*
X57023000Y12090418D01*
X57031947Y12089000D01*
X57268053Y12089000D01*
X57277000Y12090418D01*
X57277000Y10688900D01*
X57318915Y10688900D01*
X57654446Y10728119D01*
X57654456Y10728121D01*
X57983167Y10806027D01*
X57983176Y10806029D01*
X58300608Y10921565D01*
X58300613Y10921567D01*
X58602515Y11073188D01*
X58884754Y11258819D01*
X58884758Y11258822D01*
X59143530Y11475959D01*
X59143536Y11475965D01*
X59375369Y11721691D01*
X59577101Y11992664D01*
X59577111Y11992680D01*
X59746014Y12285230D01*
X59746017Y12285235D01*
X59879819Y12595424D01*
X59976709Y12919058D01*
X59976709Y12919059D01*
X60035371Y13251750D01*
X60035372Y13251759D01*
X60047618Y13462000D01*
X58648583Y13462000D01*
X58650000Y13470947D01*
X58650000Y13707053D01*
X58648583Y13716000D01*
X60047618Y13716000D01*
X60047617Y13716001D01*
X60035372Y13926242D01*
X60035371Y13926251D01*
X59976709Y14258942D01*
X59976709Y14258943D01*
X59879819Y14582577D01*
X59879820Y14582577D01*
X59746017Y14892766D01*
X59746014Y14892771D01*
X59577111Y15185321D01*
X59577101Y15185337D01*
X59375369Y15456310D01*
X59143536Y15702036D01*
X59143530Y15702042D01*
X58884758Y15919179D01*
X58884754Y15919182D01*
X58656466Y16069329D01*
X58610543Y16123473D01*
X58601183Y16193850D01*
X58631358Y16258115D01*
X58691487Y16295865D01*
X58725704Y16300600D01*
X61352000Y16300600D01*
X61420121Y16280598D01*
G37*
%TD.AperFunction*%
%TA.AperFunction,Conductor*%
G36*
X-3811800Y-32247291D02*
G01*
X-3872974Y-32230900D01*
X-4004626Y-32230900D01*
X-4065800Y-32247291D01*
X-4065800Y-30674508D01*
X-4004626Y-30690900D01*
X-3872974Y-30690900D01*
X-3811800Y-30674508D01*
X-3811800Y-32247291D01*
G37*
%TD.AperFunction*%
%TA.AperFunction,Conductor*%
G36*
X18540200Y12964709D02*
G01*
X18479026Y12981100D01*
X18347374Y12981100D01*
X18286200Y12964709D01*
X18286200Y14537492D01*
X18347374Y14521100D01*
X18479026Y14521100D01*
X18540200Y14537492D01*
X18540200Y12964709D01*
G37*
%TD.AperFunction*%
%TA.AperFunction,Conductor*%
G36*
X26160200Y12964709D02*
G01*
X26099026Y12981100D01*
X25967374Y12981100D01*
X25906200Y12964709D01*
X25906200Y14537492D01*
X25967374Y14521100D01*
X26099026Y14521100D01*
X26160200Y14537492D01*
X26160200Y12964709D01*
G37*
%TD.AperFunction*%
%TD*%
M02*
