M48
; DRILL file {KiCad 8.0.6} date 2024-11-23T19:50:46+0600
; FORMAT={-:-/ absolute / inch / decimal}
; #@! TF.CreationDate,2024-11-23T19:50:46+06:00
; #@! TF.GenerationSoftware,Kicad,Pcbnew,8.0.6
; #@! TF.FileFunction,Plated,1,4,PTH
FMAT,2
INCH
; #@! TA.AperFunction,Plated,PTH,ViaDrill
T1C0.0098
; #@! TA.AperFunction,Plated,PTH,ViaDrill
T2C0.0118
; #@! TA.AperFunction,Plated,PTH,ViaDrill
T3C0.0122
; #@! TA.AperFunction,Plated,PTH,ViaDrill
T4C0.0130
; #@! TA.AperFunction,Plated,PTH,ViaDrill
T5C0.0157
; #@! TA.AperFunction,Plated,PTH,ViaDrill
T6C0.0177
; #@! TA.AperFunction,Plated,PTH,ViaDrill
T7C0.0197
; #@! TA.AperFunction,Plated,PTH,ViaDrill
T8C0.0236
; #@! TA.AperFunction,Plated,PTH,ComponentDrill
T9C0.0394
; #@! TA.AperFunction,Plated,PTH,ComponentDrill
T10C0.0433
; #@! TA.AperFunction,Plated,PTH,ComponentDrill
T11C0.1181
%
G90
G05
T1
X0.26Y-0.1185
X0.26Y-0.1586
X0.26Y-0.1985
X0.3Y-0.1185
X0.3Y-0.1586
X0.3Y-0.1985
X0.34Y-0.1185
X0.34Y-0.1585
X0.34Y-0.1985
X0.38Y-0.5135
X0.455Y-0.6185
X0.5Y-0.6535
X1.24Y-0.2485
X1.245Y-0.3385
X1.245Y-0.3735
X1.245Y-0.4085
X1.245Y-0.4435
X1.245Y-0.4785
X1.305Y-0.3385
X1.305Y-0.3735
X1.305Y-0.4085
X1.305Y-0.4435
X1.305Y-0.4785
X1.315Y-0.5735
X1.34Y-0.605
X1.36Y-0.3385
X1.36Y-0.3735
X1.36Y-0.4085
X1.36Y-0.4435
X1.36Y-0.4785
X1.37Y-0.62
X1.395Y-0.64
X1.435Y-0.2285
X1.47Y-0.3885
X1.5Y-0.4085
X1.505Y-0.4385
X1.895Y-0.96
X1.96Y-0.8485
T2
X0.3Y-0.3135
X1.38Y-0.705
X1.385Y-0.765
X1.425Y-0.725
X1.47Y-0.6885
X1.505Y-0.66
X1.54Y-0.6285
T3
X0.01Y0.0965
X0.435Y-0.1835
X0.46Y0.1915
X0.525Y-0.28
T4
X-0.35Y0.1815
X-0.325Y0.2915
X-0.32Y-1.2735
X-0.29Y0.3765
X-0.255Y-1.3135
X-0.21Y0.0615
X-0.195Y0.355
X-0.16Y0.145
X-0.16Y0.065
X-0.155Y-0.015
X-0.155Y-0.085
X-0.155Y-0.14
X-0.14Y0.255
X-0.135Y-0.605
X-0.125Y-0.19
X-0.12Y0.445
X-0.085Y-0.225
X-0.075Y0.315
X-0.065Y-0.6035
X-0.06Y0.505
X-0.05Y-0.3285
X-0.05Y-0.415
X-0.025Y0.365
X0.01Y-1.03
X0.015Y0.5615
X0.02Y-0.405
X0.02Y-0.485
X0.02Y-0.605
X0.03Y0.435
X0.03Y-0.25
X0.035Y0.1515
X0.05Y0.2365
X0.075Y-0.3335
X0.08Y-1.035
X0.095Y0.045
X0.0965Y0.085
X0.0987Y0.148
X0.105Y-0.245
X0.11Y-0.605
X0.115Y-0.475
X0.115Y-1.1185
X0.125Y-0.405
X0.13Y0.465
X0.13Y-0.305
X0.13Y-0.875
X0.145Y0.07
X0.145Y-0.105
X0.15Y-1.075
X0.165Y0.2415
X0.17Y0.3515
X0.185Y0.5715
X0.185Y0.005
X0.185Y-0.455
X0.2Y-0.81
X0.215Y-0.37
X0.22Y0.07
X0.235Y-0.91
X0.24Y0.47
X0.25Y-0.475
X0.27Y0.3565
X0.27Y-0.72
X0.285Y-0.845
X0.29Y0.2415
X0.29Y-0.42
X0.295Y0.065
X0.33Y-0.38
X0.33Y-0.77
X0.335Y0.5915
X0.335Y0.47
X0.36Y0.065
X0.37Y-0.615
X0.385Y0.35
X0.39Y-0.06
X0.4Y-0.025
X0.4Y-0.785
X0.4Y-0.895
X0.41Y0.02
X0.425Y0.47
X0.435Y0.15
X0.445Y0.2515
X0.47Y-0.7935
X0.48Y-0.8935
X0.485Y0.35
X0.49Y-0.525
X0.515Y0.1215
X0.535Y-0.015
X0.54Y-0.595
X0.54Y-0.8935
X0.545Y-0.37
X0.55Y-0.425
X0.555Y-0.7885
X0.575Y0.075
X0.58Y-0.4685
X0.585Y0.355
X0.585Y0.2415
X0.585Y0.0
X0.62Y-0.4035
X0.63Y-0.5135
X0.635Y-0.78
X0.64Y-0.355
X0.665Y0.405
X0.665Y0.1965
X0.675Y0.2715
X0.675Y0.1065
X0.675Y0.05
X0.68Y0.3365
X0.685Y-0.345
X0.685Y-0.4085
X0.69Y-0.17
X0.695Y-0.49
X0.74Y0.085
X0.75Y-0.435
X0.76Y0.38
X0.76Y-0.6285
X0.78Y0.185
X0.78Y-0.155
X0.785Y0.29
X0.785Y-0.3
X0.795Y0.115
X0.805Y-0.375
X0.805Y-0.59
X0.825Y-0.16
X0.85Y-0.54
X0.855Y0.125
X0.86Y-0.255
X0.86Y-0.32
X0.865Y-0.67
X0.865Y-0.74
X0.865Y-0.82
X0.865Y-0.895
X0.87Y-0.595
X0.915Y0.13
X0.975Y0.13
X1.005Y-0.94
X1.01Y-0.76
X1.01Y-0.8285
X1.03Y0.13
X1.07Y0.34
X1.07Y0.035
X1.07Y-0.0335
X1.07Y-0.755
X1.07Y-0.94
X1.075Y0.26
X1.075Y0.185
X1.075Y0.105
X1.075Y-0.2135
X1.085Y-0.3485
X1.1Y-0.2735
X1.1Y-0.59
X1.115Y-0.87
X1.12Y-0.175
X1.125Y0.05
X1.125Y-0.0335
X1.125Y-0.815
X1.13Y0.115
X1.135Y-0.555
X1.14Y0.355
X1.14Y0.255
X1.145Y0.42
X1.145Y-0.3485
X1.145Y-0.94
X1.16Y-0.75
X1.175Y-0.1735
X1.175Y-0.2285
X1.195Y0.205
X1.205Y-0.8035
X1.22Y-0.925
X1.23Y0.32
X1.24Y0.125
X1.26Y0.39
X1.27Y0.2365
X1.275Y0.51
X1.28Y-0.87
X1.305Y-0.7585
X1.33Y-0.82
X1.345Y-1.17
X1.345Y-1.325
X1.35Y0.6365
X1.35Y-1.1
X1.35Y-1.245
X1.355Y0.065
X1.395Y0.43
X1.405Y0.005
X1.41Y-1.055
X1.42Y0.32
X1.425Y0.06
X1.43Y0.6365
X1.43Y0.18
X1.45Y-1.17
X1.455Y-1.26
X1.46Y0.505
X1.46Y-1.35
X1.47Y0.02
X1.485Y-0.04
X1.485Y-0.1
X1.49Y-1.055
X1.495Y0.425
X1.51Y0.26
X1.515Y0.6365
X1.535Y0.125
X1.545Y0.0315
X1.545Y-0.1435
X1.56Y-1.06
X1.56Y-1.1185
X1.56Y-1.1735
X1.565Y0.21
X1.565Y-1.2385
X1.57Y-0.0685
X1.58Y-0.9
X1.6Y0.6365
X1.6Y-1.2885
X1.605Y-0.6585
X1.615Y0.42
X1.62Y-0.84
X1.635Y0.305
X1.635Y0.1515
X1.635Y0.0765
X1.635Y-0.14
X1.64Y-0.0685
X1.64Y-0.6135
X1.64Y-1.3335
X1.645Y-0.555
X1.65Y-0.4335
X1.65Y-0.5
X1.68Y0.02
X1.69Y0.53
X1.69Y-0.8
X1.7Y0.6365
X1.705Y-0.555
X1.705Y-1.3385
X1.725Y-0.14
X1.735Y-0.63
X1.74Y0.1315
X1.74Y-0.0685
X1.74Y-0.29
X1.75Y0.29
X1.75Y-0.8
X1.76Y-0.4835
X1.765Y-1.3335
X1.775Y-0.5485
X1.795Y-0.7585
X1.805Y0.015
X1.81Y-0.275
X1.81Y-0.6085
X1.81Y-0.8
X1.82Y0.6315
X1.82Y-1.0276
X1.825Y0.475
X1.825Y-0.7
X1.83Y-0.145
X1.835Y0.3815
X1.84Y-1.3335
X1.845Y-0.4885
X1.855Y0.185
X1.865Y-0.245
X1.865Y-0.31
X1.865Y-0.585
X1.88Y0.09
X1.88Y-0.075
X1.885Y-1.0985
X1.895Y-0.645
X1.9Y-0.5485
X1.9Y-1.3335
X1.905Y0.28
X1.91Y-0.4785
X1.92Y-0.145
X1.94Y-0.7135
X1.95Y-0.245
X1.95Y-1.0985
X1.955Y-0.31
X1.955Y-0.61
X1.955Y-1.045
X1.96Y0.6315
X1.96Y0.53
X1.96Y0.11
X1.965Y-1.3335
X1.97Y-0.07
X1.98Y0.375
X1.98Y-0.4785
X1.98Y-0.5235
X1.995Y-0.14
X1.995Y-0.9285
X2.005Y-1.0985
X2.005Y-1.2985
X2.015Y-0.245
X2.015Y-0.31
X2.025Y0.44
X2.03Y-0.635
X2.03Y-0.695
X2.03Y-0.75
X2.03Y-0.8485
X2.035Y0.235
X2.035Y-0.57
X2.04Y0.11
X2.05Y-0.075
X2.055Y-1.045
X2.06Y-1.2985
X2.075Y-0.14
X2.1Y0.6315
X2.11Y0.37
X2.115Y-1.2935
X2.125Y0.11
X2.125Y-0.075
X2.135Y-0.305
X2.14Y-1.045
X2.155Y0.23
X2.155Y-0.135
X2.155Y-1.1135
X2.165Y-1.2885
X2.18Y-0.6085
X2.18Y-0.84
X2.18Y-0.905
X2.18Y-0.9735
X2.19Y-0.5535
X2.205Y-1.045
X2.21Y-0.075
X2.215Y-1.1135
X2.22Y0.11
X2.22Y-1.2885
X2.24Y0.385
X2.255Y-0.805
X2.26Y-0.135
X2.265Y-0.5485
X2.265Y-0.5935
X2.27Y-0.235
X2.27Y-0.29
X2.275Y-0.38
X2.275Y-0.44
X2.275Y-0.495
X2.275Y-1.3135
X2.28Y-1.1135
X2.285Y-0.08
X2.29Y0.12
X2.34Y-1.3135
X2.345Y-0.0804
X2.345Y-1.1135
X2.35Y0.1196
X2.36Y0.6265
X2.4Y-0.08
X2.4Y-0.325
X2.405Y0.12
X2.405Y-0.24
X2.405Y-0.41
X2.405Y-0.5
X2.405Y-0.575
X2.405Y-0.6685
X2.405Y-0.755
X2.405Y-1.3135
X2.41Y-0.155
X2.41Y-0.84
X2.41Y-1.1135
T5
X-0.095Y0.145
X0.315Y-1.035
T6
X0.905Y-0.105
X1.24Y0.06
X2.105Y-0.96
X2.33Y-0.755
T7
X-0.0197Y-0.2362
X0.725Y-0.8185
X0.855Y-0.9835
X0.955Y-0.79
X1.605Y-0.1985
X1.8031Y-1.0885
X2.063Y-1.0985
X2.155Y-0.195
T8
X0.235Y-0.9885
X1.07Y0.415
T9
X-0.1551Y-1.1886
X-0.1551Y-1.2886
X-0.0551Y-1.1886
X-0.0551Y-1.2886
X0.0449Y-1.1886
X0.0449Y-1.2886
X0.1449Y-1.1886
X0.1449Y-1.2886
X0.2449Y-1.1886
X0.2449Y-1.2886
X0.3449Y-1.1886
X0.3449Y-1.2886
X0.4449Y-1.1886
X0.4449Y-1.2886
X0.5249Y0.5914
X0.5249Y0.4914
X0.5449Y-1.1886
X0.5449Y-1.2886
X0.6249Y0.5914
X0.6249Y0.4914
X0.6449Y-1.1886
X0.6449Y-1.2886
X0.7249Y0.5914
X0.7249Y0.4914
X0.7449Y-1.1886
X0.7449Y-1.2886
X0.8249Y0.5914
X0.8249Y0.4914
X0.8449Y-1.1886
X0.8449Y-1.2886
X0.9249Y0.5914
X0.9249Y0.4914
X0.9449Y-1.1886
X0.9449Y-1.2886
X1.0249Y0.5914
X1.0249Y0.4914
X1.0449Y-1.1886
X1.0449Y-1.2886
X1.1249Y0.5914
X1.1249Y0.4914
X1.1449Y-1.1886
X1.1449Y-1.2886
X1.2449Y-1.1886
X1.2449Y-1.2886
T10
X-0.3351Y-0.0086
X-0.3351Y-0.1086
X-0.3351Y-0.2086
X-0.3351Y-0.3086
X-0.3351Y-0.4086
X-0.3351Y-0.5086
X-0.3351Y-0.6086
X-0.3351Y-0.7086
X-0.3351Y-0.8086
X-0.3351Y-0.9086
X-0.2351Y-0.0086
X-0.2351Y-0.1086
X-0.2351Y-0.2086
X-0.2351Y-0.3086
X-0.2351Y-0.4086
X-0.2351Y-0.5086
X-0.2351Y-0.6086
X-0.2351Y-0.7086
X-0.2351Y-0.8086
X-0.2351Y-0.9086
T11
X-0.3Y-1.095
X-0.245Y0.5315
X2.25Y0.535
X2.33Y-0.9735
M30
